<svg width="189" height="67" viewBox="0 0 189 67" fill="none" xmlns="http://www.w3.org/2000/svg">
  <path fill-rule="evenodd" clip-rule="evenodd"
        d="M33.7703 0.64599C33.7192 0.735931 33.2285 2.18503 32.6794 3.86597C31.2039 8.38333 26.1989 23.8377 25.945 24.6594L25.726 25.3689H12.8629C5.78832 25.3689 0 25.444 0 25.5359C0 25.6278 1.30175 26.6289 2.89253 27.7611C4.48352 28.893 7.30772 30.9118 9.16876 32.247C11.0298 33.5824 14.4928 36.035 16.864 37.6974C19.2352 39.3596 21.1755 40.849 21.1755 41.0071C21.1755 41.2784 19.6877 46.2739 16.1676 57.8215C14.5004 63.2905 14.5399 63.1355 14.8123 63.1355C15.0442 63.1355 22.6095 57.4076 29.9039 51.709C32.0031 50.0691 33.8508 48.7274 34.01 48.7274C34.1691 48.7274 37.6437 50.9441 41.7314 53.653C45.8189 56.3621 49.1956 58.5465 49.2349 58.5072C49.4065 58.3356 34.3815 46.5444 33.9912 46.5444C33.8421 46.5444 30.8734 48.46 27.3943 50.8013C21.7361 54.6089 20.5206 55.3414 20.5206 54.9421C20.5206 54.8781 20.6771 54.4607 20.8683 54.0143C21.7887 51.8666 25.9849 39.7575 25.9655 39.3063C25.9585 39.145 23.5351 37.1955 20.5802 34.9743C17.6252 32.753 15.1669 30.813 15.1171 30.6628C15.0459 30.4482 16.5658 30.3899 22.236 30.3899C26.568 30.3899 29.4966 30.3069 29.5738 30.1818C29.6446 30.0674 30.6243 27.1479 31.7512 23.6936C32.8781 20.2394 33.8849 17.3849 33.9886 17.3504C34.0921 17.3159 35.1364 20.1776 36.3092 23.71C37.4876 27.2598 38.5747 30.1836 38.7398 30.2469C39.3189 30.4693 71.978 29.8646 90.1595 29.2951C106.678 28.7777 125.341 28.027 125.494 27.8737C125.551 27.8167 125.409 27.7694 125.179 27.7681C124.949 27.767 122.649 27.672 120.067 27.557C102.532 26.7752 75.0494 25.9701 56.5407 25.6961C45.355 25.5304 42.3175 25.4292 42.1385 25.2159C42.058 25.12 41.5192 23.5188 40.9411 21.6577C40.3631 19.7967 38.962 15.376 37.8279 11.8341C36.6936 8.29208 35.4117 4.28904 34.9793 2.93818C34.2525 0.667821 34.0137 0.215495 33.7703 0.64599ZM82.628 31.7868C80.6104 32.4249 79.374 33.4915 78.5538 35.3017C77.8489 36.8571 77.8563 39.6368 78.5695 41.2455C79.868 44.174 83.6844 45.7336 87.2124 44.777C89.0998 44.2653 91.251 42.3379 91.251 41.1586C91.251 40.7901 91.0447 40.6672 90.1173 40.4838C88.739 40.2114 88.6519 40.2417 88.0181 41.2173C87.3543 42.2392 86.2534 42.6889 84.7263 42.5623C83.7359 42.4802 83.4353 42.3501 82.9295 41.7838C82.1069 40.8632 81.789 39.5573 81.929 37.674C82.1268 35.0138 83.0554 33.8827 85.042 33.8827C86.3564 33.8827 87.3835 34.5403 87.6352 35.5427C87.7756 36.1025 87.8066 36.111 89.3908 36.0311C90.2776 35.9863 91.0713 35.8815 91.1545 35.7984C91.4588 35.494 90.2536 33.547 89.3312 32.853C87.645 31.584 84.7335 31.121 82.628 31.7868ZM150.739 31.9106C150.018 32.1472 149.057 32.6485 148.603 33.0246C146.959 34.3853 146.053 37.249 146.501 39.6689C146.94 42.0462 147.924 43.3694 149.975 44.3393C151.03 44.8385 151.452 44.9071 153.468 44.9071C155.538 44.9071 155.88 44.8477 157.009 44.2934C159.454 43.093 160.591 40.9359 160.408 37.8461C160.239 34.9957 159.116 33.2547 156.743 32.1675C155.1 31.4142 152.579 31.3063 150.739 31.9106ZM51.3979 31.9813C51.3385 32.1363 51.3169 33.8308 51.3503 35.7471L51.4105 39.2312L52.12 39.2995L52.8295 39.3681V37.6563C52.8295 35.6366 53.181 34.9094 54.1059 35.0164C54.6836 35.0832 54.6853 35.0893 54.7475 37.2119L54.81 39.3403H55.5662H56.3224V36.9728C56.3224 34.9566 56.2632 34.5518 55.9231 34.244C55.4834 33.8461 53.8145 33.7437 53.5936 34.101C53.5194 34.2211 53.3172 34.3194 53.1441 34.3194C52.9051 34.3194 52.8295 34.0043 52.8295 33.0095V31.6997H52.1678C51.8037 31.6997 51.4573 31.8265 51.3979 31.9813ZM68.1782 31.9647C68.0588 32.1193 67.7058 32.884 67.3939 33.6644C67.0819 34.4449 65.9439 37.1918 64.8648 39.7687C63.7858 42.3455 62.9507 44.5312 63.0092 44.6259C63.1876 44.9143 65.8509 44.8261 66.1022 44.5233C66.2277 44.3722 66.5222 43.7597 66.7569 43.1622C67.0559 42.4007 67.3386 42.0322 67.7019 41.9305C68.3941 41.7364 70.1423 41.7142 71.5375 41.8818L72.6722 42.0181L73.2058 43.3534L73.7395 44.6888L75.6187 44.7519C77.0951 44.8014 77.4978 44.7508 77.4978 44.5159C77.4978 44.3513 76.3365 41.4249 74.9173 38.0128L72.3365 31.8089L70.3659 31.7464C68.9565 31.7019 68.3337 31.7641 68.1782 31.9647ZM93.434 38.2488V44.8156L95.235 44.7521L97.036 44.6888V38.2488V31.8089L95.235 31.7455L93.434 31.682V38.2488ZM104.012 31.9754C103.953 32.1269 103.932 35.0496 103.964 38.47L104.022 44.6888L109.655 44.7471L115.288 44.8054L115.221 43.6556L115.155 42.5057L111.38 42.4459L107.604 42.3861L107.669 40.9178L107.733 39.4495L110.189 39.3877L112.645 39.3259V38.2565C112.645 36.9554 112.523 36.8966 109.97 36.9669C108.966 36.9947 108.028 36.9447 107.884 36.856C107.73 36.7604 107.624 36.168 107.624 35.398V34.101H110.99C112.841 34.101 114.511 34.0415 114.701 33.9685C114.95 33.8727 115.046 33.5404 115.046 32.7679V31.6997H109.582C105.382 31.6997 104.093 31.7635 104.012 31.9754ZM117.269 36.657C117.334 41.3116 117.37 41.6913 117.824 42.542C118.767 44.3039 120.878 45.1463 123.868 44.9532C126.125 44.8073 127.09 44.5067 128.074 43.6433C129.377 42.4992 129.454 42.1052 129.454 36.6085V31.6798L127.981 31.7442L126.507 31.8089L126.397 36.5024C126.337 39.0838 126.202 41.3714 126.098 41.586C125.441 42.9391 121.898 42.9391 121.24 41.586C121.136 41.3714 121.001 39.0838 120.941 36.5024L120.831 31.8089L119.015 31.7451L117.199 31.6816L117.269 36.657ZM132.292 38.2335V44.7979H134.015C135.385 44.7979 135.765 44.7272 135.871 44.4526C135.944 44.2627 136.003 43.0299 136.003 41.7129V39.3185L137.226 39.384L138.448 39.4495L139.652 42.1237L140.856 44.7979H142.687C144.96 44.7979 144.962 44.7896 143.316 41.6803C142.656 40.4325 142.116 39.2729 142.118 39.1033C142.118 38.9334 142.516 38.5678 143.002 38.2905C144.185 37.6147 144.734 36.6679 144.734 35.3017C144.734 33.8592 144.179 32.986 142.847 32.3299C141.846 31.8372 141.529 31.8051 137.04 31.739L132.292 31.6691V38.2335ZM162.855 38.239V44.8156L164.656 44.7521L166.457 44.6888L166.518 42.2547L166.58 39.8204L169.356 39.7331C172.447 39.6357 173.598 39.2537 174.623 37.9842C175.175 37.2996 175.466 35.6748 175.215 34.6754C175.017 33.8832 174.061 32.8401 173.033 32.2928C172.203 31.8512 171.77 31.8078 167.494 31.7379L162.855 31.6622V38.239ZM177.481 38.2488V44.7979H183.059H188.637L188.571 43.6518L188.505 42.5057L184.849 42.4459L181.192 42.3861V40.8632V39.3403H183.593H185.995V38.2488C185.995 37.6485 185.921 37.1503 185.831 37.1418C185.741 37.1333 184.709 37.0999 183.538 37.0678C182.366 37.0357 181.369 36.9689 181.322 36.9196C181.235 36.8283 181.113 34.8664 181.164 34.3794C181.185 34.1831 182.137 34.0958 184.74 34.0519L188.287 33.9919L188.353 32.8458L188.419 31.6997H182.95H177.481V38.2488ZM28.9798 32.8048L27.288 33.6697V34.5684V35.4672L28.3847 35.3216L29.4815 35.1762L29.4217 38.95L29.3619 42.7241L28.3439 42.7898C27.2103 42.8631 27.0911 43.0151 27.2362 44.2026L27.3369 45.0263L31.0782 44.9667L34.8195 44.9071L34.8854 43.8826L34.9515 42.8581L33.903 42.7911L32.8547 42.7241L32.7357 37.3756C32.6705 34.434 32.5967 32.0025 32.572 31.9726C32.5474 31.9427 32.1099 31.9228 31.5995 31.9289C30.9644 31.9363 30.1379 32.2127 28.9798 32.8048ZM36.1526 32.2634C36.0797 32.4533 36.0201 32.9936 36.0201 33.464V34.3194L38.9127 34.3226C40.5034 34.3246 41.9414 34.4124 42.108 34.5178C42.352 34.6723 42.2614 34.9575 41.6408 35.9881C40.0616 38.6106 37.7666 43.7597 37.7666 44.6805C37.7666 44.9547 38.087 45.0162 39.513 45.0162C41.0634 45.0162 41.2594 44.9711 41.2594 44.6146C41.2594 43.0116 43.0445 38.0991 44.5789 35.4799C45.3642 34.139 45.6255 33.4715 45.6255 32.8056V31.918H40.9553C36.8981 31.918 36.2677 31.9634 36.1526 32.2634ZM47.7278 32.4092C47.6555 32.6795 47.5948 33.1213 47.5933 33.3916C47.5911 33.7363 47.4599 33.8827 47.1536 33.8827C46.8334 33.8827 46.717 34.0284 46.717 34.4285C46.717 34.8287 46.8334 34.9743 47.1536 34.9743C47.556 34.9743 47.5902 35.1199 47.5902 36.8248C47.5902 38.5422 47.6282 38.7003 48.1194 39.0221C48.4368 39.2301 48.9826 39.3412 49.4838 39.3C50.1584 39.2445 50.3326 39.1367 50.3889 38.74C50.4397 38.3809 50.3487 38.2488 50.0505 38.2488C49.3498 38.2488 49.1184 37.781 49.1184 36.3633V35.002L49.8278 34.9334C50.3677 34.8815 50.5373 34.7612 50.5373 34.4307C50.5373 34.1185 50.3531 33.9646 49.8824 33.8838C49.2893 33.7821 49.2212 33.6841 49.1605 32.8447C49.0985 31.9892 49.0459 31.918 48.4763 31.918C48.0212 31.918 47.8249 32.0468 47.7278 32.4092ZM140.488 34.4187C141.161 35.0911 141.167 35.6573 140.51 36.4214C140.033 36.9757 139.847 37.027 137.999 37.1154L136.003 37.2108V35.5467V33.8827H137.978C139.783 33.8827 139.998 33.9286 140.488 34.4187ZM155.409 34.4425C155.775 34.7505 156.175 35.3644 156.298 35.8069C156.623 36.9779 156.578 40.0992 156.223 40.9479C155.607 42.421 154.096 43.0504 152.371 42.5516C151.561 42.3173 151.302 42.1023 150.856 41.2959C150.401 40.4727 150.319 40.0365 150.324 38.4671C150.333 35.1179 151.181 33.8827 153.468 33.8827C154.519 33.8827 154.861 33.9814 155.409 34.4425ZM170.115 34.1131C171.148 34.3999 171.678 35.1548 171.48 36.0566C171.247 37.115 170.655 37.3756 168.482 37.3756H166.566V35.7748C166.566 34.8941 166.631 34.1083 166.711 34.0284C166.937 33.8026 169.2 33.8589 170.115 34.1131ZM70.8942 37.1547C71.2845 38.1137 71.6036 38.9978 71.6036 39.1194C71.6036 39.2489 70.9254 39.3403 69.9664 39.3403C68.6242 39.3403 68.3291 39.2786 68.3291 38.9976C68.3291 38.4053 69.6675 35.4109 69.9323 35.4109C70.0712 35.4109 70.5041 36.1957 70.8942 37.1547ZM66.3128 52.8743C64.8609 53.3113 63.0898 54.8777 63.0898 55.7245C63.0898 56.0033 63.4087 56.284 64.0645 56.5829L65.039 57.0269L66.0234 56.0425C67.0675 54.9984 67.8543 54.7932 68.8347 55.3093C69.502 55.6605 69.6317 55.9175 69.6356 56.8957C69.6393 57.8353 69.3346 58.1802 64.8755 62.2843C62.9064 64.0964 62.8431 64.1842 62.9108 65.0105L62.9806 65.8643L67.9471 65.923L72.9135 65.9817V64.6677V63.3538H70.1847C68.6838 63.3538 67.4559 63.2789 67.4559 63.1872C67.4559 63.0955 68.0206 62.5827 68.7111 62.0477C72.1448 59.3863 73.1062 57.9772 72.8146 56.0327C72.617 54.7155 71.5187 53.4727 70.1358 53.0016C69.0615 52.6355 67.3007 52.5768 66.3128 52.8743ZM78.2532 52.8761C77.2368 53.1917 75.7981 54.5461 75.1557 55.7922C74.3977 57.2626 74.1916 60.5239 74.7505 62.2061C76.092 66.2454 80.6783 67.5343 83.5427 64.6771C84.6857 63.5369 85.1817 62.2491 85.304 60.1032C85.4808 57.0037 84.5397 54.7323 82.5271 53.4006C81.5618 52.7617 79.4545 52.5032 78.2532 52.8761ZM89.5779 53.0003C88.5986 53.3616 86.5754 55.3278 86.7225 55.7751C86.8015 56.0157 88.343 57.0107 88.6499 57.0195C88.7202 57.0214 89.226 56.5809 89.7742 56.0406C90.588 55.2381 90.9163 55.0582 91.5664 55.0582C92.5678 55.0582 93.434 55.85 93.434 56.7654C93.434 57.7392 92.8789 58.39 89.3954 61.4997C88.0747 62.6788 86.9218 63.7502 86.8336 63.8807C86.7454 64.0111 86.6719 64.5354 86.6699 65.0456L86.6666 65.9734H91.6985H96.7304L96.6649 64.7182L96.5994 63.4629L93.8161 63.4018C92.2853 63.3682 91.0362 63.2699 91.0403 63.1835C91.0445 63.097 91.9906 62.2954 93.1428 61.4023C95.9399 59.2337 96.4903 58.46 96.4903 56.6955C96.4903 55.5503 96.3934 55.2084 95.8607 54.4729C95.5145 53.9951 94.8515 53.4236 94.3871 53.2033C93.2548 52.6658 90.7688 52.561 89.5779 53.0003ZM181.698 52.9717C178.066 54.1071 177.554 58.3144 180.84 60.0137C181.192 60.1958 182.164 60.5341 183 60.7658C183.836 60.9974 184.796 61.3297 185.133 61.5039C186.385 62.1518 186.133 63.4005 184.67 63.7945C183.297 64.1641 181.926 63.8604 180.939 62.9691L180.096 62.2072L179.225 62.7836C178.236 63.438 178.132 63.9425 178.848 64.6149C179.954 65.654 181.372 66.0826 183.703 66.0826C185.546 66.0826 186.028 66.0064 186.801 65.5933C188.564 64.6507 189.354 62.8881 188.85 61.0177C188.491 59.6823 187.45 58.8905 185.177 58.2219C184.126 57.9128 182.955 57.5222 182.575 57.3539C181.637 56.938 181.448 56.2611 182.083 55.5854C182.799 54.8227 184.728 54.8323 185.865 55.604C186.307 55.9041 186.729 56.1497 186.803 56.1497C187.116 56.1497 188.396 55.0095 188.396 54.7308C188.396 54.2719 187.022 53.3153 185.861 52.966C184.605 52.5879 182.918 52.5901 181.698 52.9717ZM99.6203 53.6905C98.2769 54.3686 98.0431 54.5725 97.9599 55.139C97.8307 56.0201 98.011 56.6359 98.359 56.5023C98.5148 56.4425 98.9931 56.3279 99.4219 56.2473L100.201 56.1011V59.8367V63.5721H99.1141C98.1509 63.5721 98.0119 63.6314 97.8964 64.0914C97.8248 64.3772 97.7981 64.8928 97.8376 65.2375L97.9093 65.8643L101.796 65.9239L105.682 65.9837L105.616 64.8323L105.55 63.6812L104.513 63.6146L103.476 63.5481V58.2116V52.8752L102.33 52.8881C101.464 52.8979 100.801 53.0941 99.6203 53.6905ZM114.312 54.3402C113.333 56.9304 110.244 65.6394 110.244 65.8097C110.244 65.8998 110.864 65.9734 111.622 65.9734H113.001L113.493 64.5782L113.986 63.183L115.553 63.0938C116.415 63.0449 117.464 63.0604 117.884 63.1283C118.589 63.2422 118.684 63.3531 119.111 64.5579L119.574 65.8643L121.054 65.9295C121.868 65.9656 122.619 65.9103 122.722 65.8068C122.827 65.7018 121.917 62.8322 120.659 59.3016L118.408 52.9843L116.64 52.9212L114.872 52.8581L114.312 54.3402ZM121.814 53.1946C121.814 53.555 124.944 64.3534 125.347 65.3825C125.578 65.9741 125.628 65.99 127.022 65.9282L128.46 65.8643L129.557 62.1893C130.161 60.1681 130.741 58.498 130.846 58.4782C130.982 58.4526 133.114 65.3056 133.161 65.9188C133.163 65.9487 133.806 65.9734 134.59 65.9734C135.914 65.9734 136.029 65.9345 136.225 65.4189C136.72 64.1172 139.714 53.7253 139.714 53.3096C139.714 52.8926 139.607 52.859 138.473 52.9188L137.232 52.9843L136.147 56.9684C135.55 59.1597 135.003 60.9524 134.932 60.9524C134.86 60.9524 134.464 59.7491 134.053 58.2782C133.641 56.8073 133.121 54.9901 132.897 54.2396L132.49 52.8752H131.089H129.689L129.457 53.7366C128.603 56.909 127.528 60.5503 127.41 60.6675C127.334 60.7442 127.237 60.766 127.197 60.716C127.156 60.6658 126.633 58.9058 126.034 56.8046L124.946 52.9843L123.38 52.9201C122.083 52.8671 121.814 52.9143 121.814 53.1946ZM143.18 53.4755C142.33 55.6446 138.843 65.4798 138.842 65.711C138.841 65.9199 139.199 65.9771 140.206 65.9293L141.57 65.8643L142.033 64.5544L142.496 63.2446L143.642 63.0599C144.273 62.9584 145.332 62.9584 145.996 63.0599L147.204 63.2446L147.691 64.5544L148.179 65.8643L149.655 65.9295C150.467 65.9656 151.207 65.9164 151.299 65.8204C151.39 65.7245 151.022 64.418 150.48 62.9172C149.938 61.4163 149.057 58.9604 148.522 57.4596C147.987 55.9587 147.394 54.3131 147.204 53.803L146.859 52.8752H145.137C143.461 52.8752 143.409 52.8911 143.18 53.4755ZM153.031 59.4206V65.9926L154.614 65.9284L156.196 65.8643L156.258 63.19L156.319 60.5158H157.371H158.424L159.467 63.2446L160.509 65.9734H162.119C163.346 65.9734 163.728 65.9016 163.728 65.6702C163.728 65.5034 163.237 64.2645 162.636 62.9172C162.036 61.5698 161.549 60.3556 161.553 60.2187C161.558 60.082 161.869 59.7736 162.244 59.5334C163.449 58.7633 163.828 58.0348 163.833 56.4833C163.838 54.8524 163.431 54.1455 162.078 53.436C161.313 53.0348 160.76 52.9767 157.124 52.9164L153.031 52.8488V59.4206ZM165.693 59.4243V65.9734H168.754C172.617 65.9734 173.819 65.6208 175.337 64.0436C176.656 62.6733 177.138 61.15 177 58.7879C176.879 56.7191 176.191 55.2379 174.891 54.2453C173.474 53.1638 172.172 52.8752 168.709 52.8752H165.693V59.4243ZM81.1891 55.5828C81.8238 56.2582 82.0709 57.3596 82.0759 59.5334C82.0829 62.5941 81.478 63.7904 79.9234 63.7904C78.2593 63.7904 77.7162 62.7063 77.7162 59.3848C77.7162 56.2218 78.2977 55.0796 79.9158 55.0652C80.4637 55.0602 80.8431 55.2145 81.1891 55.5828ZM159.823 55.2898C160.38 55.5876 160.711 56.4639 160.533 57.1707C160.348 57.9084 159.285 58.3328 157.622 58.3328H156.306V56.6955V55.0582H157.848C158.696 55.0582 159.585 55.1623 159.823 55.2898ZM170.965 55.304C172.507 55.6348 173.211 56.3646 173.546 57.9791C174.027 60.2971 173.396 62.3029 171.914 63.1647C171.554 63.3741 170.744 63.6129 170.113 63.6958L168.967 63.8467V59.4525C168.967 54.4568 168.784 54.8364 170.965 55.304ZM117.071 58.1867C117.935 60.5101 117.933 60.5158 116.247 60.5158C115.466 60.5158 114.828 60.4418 114.828 60.3512C114.828 60.217 115.245 58.9999 116.025 56.8592C116.229 56.2975 116.492 56.6313 117.071 58.1867ZM145.669 58.2782C145.998 59.2086 146.267 60.093 146.266 60.2429C146.264 60.4331 145.833 60.5158 144.845 60.5158C143.88 60.5158 143.426 60.4313 143.426 60.2517C143.426 59.7044 144.636 56.5874 144.848 56.587C144.971 56.5866 145.34 57.3478 145.669 58.2782Z"
        fill="currentColor"/>
</svg>
