<svg width="24" height="24" viewBox="0 0 24 24" fill="none" xmlns="http://www.w3.org/2000/svg">
<path fill-rule="evenodd" clip-rule="evenodd" d="M8.82301 0.706552H15.4821V0.0404053H8.82301V0.706552ZM8.26867 21.2845L6.37443 23.7729H8.59414L9.0677 21.1095H8.62165C8.48292 21.1095 8.35238 21.1739 8.26867 21.2845ZM15.649 21.1095H15.2029L15.6765 23.7729H17.8962L16.0019 21.2845C15.9182 21.1739 15.7877 21.1095 15.649 21.1095ZM18.7947 19.7778H15.3645C15.1491 19.7778 14.9647 19.6232 14.9272 19.4113L14.7557 18.4455C13.3087 18.1382 10.9619 18.1382 9.51492 18.4455L9.34341 19.4113C9.30536 19.6232 9.12155 19.7778 8.90614 19.7778H5.47589C5.00233 16.1181 4.88233 10.7626 5.11531 6.24177C5.2558 3.52275 6.82692 2.01953 9.55004 2.01953H11.8195V1.35806C11.8195 1.2205 11.9096 1.09933 12.0414 1.06011L12.4851 0.928405V2.01953H14.7206C17.4437 2.01953 19.0148 3.52275 19.1553 6.24177C19.3883 10.7626 19.2683 16.1181 18.7947 19.7778ZM10.9496 6.0685H13.321L13.1512 5.10323C13.1137 4.89133 12.9294 4.7368 12.7139 4.7368H11.5567C11.3413 4.7368 11.1569 4.89133 11.1194 5.10323L10.9496 6.0685ZM9.37736 14.986L6.8076 14.2935L6.9838 15.2898C7.02067 15.5023 7.20506 15.6568 7.42048 15.6568H9.25911L9.37736 14.986ZM17.463 14.2935L14.8933 14.986L15.0115 15.6568H16.8501C17.0656 15.6568 17.2494 15.5023 17.2868 15.2898L17.463 14.2935ZM17.463 6.73465H6.8076L7.93853 13.1473C10.4691 13.5091 13.8016 13.5091 16.3321 13.1473L17.463 6.73465Z" fill="currentColor"/>
</svg>
