<svg width="24" height="24" viewBox="0 0 24 24" fill="none" xmlns="http://www.w3.org/2000/svg">
<path fill-rule="evenodd" clip-rule="evenodd" d="M15.4943 8.15845L14.8059 9.10434C14.7632 9.16904 14.6985 9.16904 14.6338 9.10434L12.8487 6.61088C12.8054 6.54617 12.7627 6.54617 12.7627 6.63222V9.79207C12.7627 9.85678 12.8274 9.92148 12.8914 9.92148H13.2143C13.3003 9.92148 13.365 9.98619 13.365 10.0509V10.6126C13.365 10.6993 13.3003 10.7426 13.2143 10.7426H10.7849C10.7202 10.7426 10.6561 10.6993 10.6561 10.6126V10.0509C10.6561 9.98619 10.7202 9.92148 10.7849 9.92148H11.1064C11.1924 9.92148 11.2571 9.85678 11.2571 9.79207V6.63222C11.2571 6.54617 11.2138 6.54617 11.1711 6.58886L9.36804 9.10434C9.32468 9.16904 9.25998 9.16904 9.19527 9.10434L8.52821 8.15845C8.48485 8.11576 8.46351 8.0077 8.50687 7.94366L11.1711 3.8586C11.2138 3.81591 11.2571 3.6865 11.2571 3.62246V1.49388C11.2571 1.06363 11.5793 0.720093 12.0096 0.720093C12.4185 0.720093 12.7627 1.06363 12.7627 1.49388V3.62246C12.7627 3.70851 12.8054 3.81591 12.8274 3.87994L15.4943 7.94366C15.537 8.0077 15.537 8.11576 15.4943 8.15845ZM7.9899 8.33055L3.28381 9.59863C3.2191 9.62064 3.09036 9.62064 3.02566 9.59863L0.983126 8.93224C0.596233 8.80349 0.166648 9.01829 0.0372388 9.42719C-0.0915033 9.81409 0.123289 10.2457 0.531528 10.3751L2.55271 11.0435C2.63876 11.0648 2.72481 11.1295 2.76751 11.1936L5.82063 14.9778C5.86332 15.0418 5.97072 15.0638 6.03542 15.0418L7.15141 14.6763C7.21544 14.6549 7.23679 14.5909 7.1941 14.5262L5.36903 12.0321C5.32634 11.968 5.34768 11.946 5.41172 11.968L8.42082 12.9352C8.48485 12.9566 8.52821 13.0426 8.50687 13.1073L8.3988 13.4295C8.37746 13.4942 8.42082 13.5589 8.48485 13.6016L9.02317 13.7737C9.08787 13.7951 9.17392 13.7524 9.19527 13.6877L9.94771 11.3657C9.96906 11.301 9.9257 11.2156 9.86166 11.1936L9.32468 11.0215C9.25998 11.0001 9.17392 11.0435 9.15258 11.1075L9.06653 11.4304C9.04452 11.4951 8.95846 11.5378 8.89443 11.5164L5.88467 10.5258C5.82063 10.5038 5.82063 10.4605 5.88467 10.4391L8.82972 9.51258C8.89443 9.46988 8.91577 9.40518 8.87241 9.34114L8.18401 8.4166C8.14065 8.3519 8.0546 8.30921 7.9899 8.33055ZM18.1799 14.9778L21.2323 11.1936C21.297 11.1295 21.3831 11.0648 21.4471 11.0435L23.4896 10.3751C23.8765 10.2457 24.0913 9.81409 23.9626 9.42719C23.8338 9.01829 23.4249 8.80349 23.0167 8.93224L20.9955 9.59863C20.9101 9.62064 20.8021 9.62064 20.738 9.59863L16.0319 8.33055C15.9672 8.30921 15.8598 8.3519 15.8385 8.4166L15.1501 9.34114C15.1074 9.40518 15.1287 9.46988 15.1935 9.51258L18.1365 10.4391C18.2012 10.4605 18.2012 10.5038 18.1365 10.5258L15.1287 11.5164C15.064 11.5378 14.978 11.4951 14.9566 11.4304L14.8492 11.1075C14.8272 11.0435 14.7632 11.0001 14.6985 11.0215L14.1608 11.1936C14.0961 11.2156 14.0534 11.301 14.0748 11.3657L14.8272 13.6877C14.8492 13.7524 14.9133 13.7951 14.9993 13.7737L15.5156 13.6016C15.6017 13.5803 15.623 13.4942 15.6017 13.4295L15.5156 13.1073C15.4943 13.0426 15.5156 12.9779 15.6017 12.9566L18.5881 11.968C18.6742 11.946 18.6955 11.9894 18.6521 12.0321L16.8277 14.5262C16.7844 14.5909 16.8057 14.6549 16.8704 14.6763L17.9864 15.0418C18.0505 15.0638 18.1365 15.0418 18.1799 14.9778ZM6.03542 15.6008L5.79928 20.4597C5.77727 20.5457 5.75592 20.6531 5.71323 20.7178L4.44449 22.4375C4.18634 22.7817 4.27239 23.2546 4.61659 23.4908C4.93878 23.7489 5.41172 23.6629 5.66987 23.3187L6.91527 21.599C6.95796 21.5343 7.06536 21.4702 7.12939 21.4489L11.6874 19.7072C11.7514 19.6859 11.7948 19.5998 11.7948 19.5351V18.3744C11.7948 18.2884 11.7301 18.245 11.6654 18.267L8.74367 19.2343C8.65762 19.2556 8.63561 19.2343 8.67897 19.1696L10.5487 16.6114C10.5914 16.5467 10.6775 16.5467 10.7415 16.5901L10.9997 16.7835C11.0637 16.8262 11.1284 16.8048 11.1711 16.7401L11.5153 16.2892C11.558 16.2245 11.5366 16.1385 11.4719 16.0958L9.51813 14.6763C9.45342 14.6336 9.36804 14.6549 9.32468 14.6983L9.00182 15.1492C8.95847 15.2139 8.98048 15.3 9.02317 15.3433L9.30333 15.5368C9.34603 15.5795 9.36804 15.6655 9.32468 15.7302L7.4736 18.2884C7.43024 18.3311 7.38688 18.3311 7.38688 18.245L7.40889 15.1712C7.38688 15.1065 7.34419 15.0418 7.25814 15.0638L6.16416 15.4287C6.10012 15.4507 6.03542 15.5368 6.03542 15.6008ZM12.3324 19.7072L16.8918 21.4489C16.9565 21.4702 17.0419 21.5343 17.0852 21.599L18.3513 23.3187C18.6095 23.6629 19.0611 23.7489 19.4046 23.4908C19.7488 23.2546 19.8348 22.7817 19.5767 22.4375L18.3086 20.7178C18.2653 20.6531 18.2226 20.5457 18.2226 20.4597L17.9864 15.6008C17.9864 15.5368 17.9217 15.4507 17.8577 15.4287L16.7417 15.0638C16.677 15.0418 16.6129 15.1065 16.6129 15.1712L16.6343 18.267C16.6343 18.3311 16.5916 18.3311 16.5482 18.2884L14.6985 15.7302C14.6551 15.6655 14.6551 15.5795 14.7198 15.5368L14.978 15.3433C15.0427 15.3 15.064 15.2139 15.0214 15.1492L14.6771 14.6983C14.6338 14.6549 14.5477 14.6336 14.505 14.6763L12.5259 16.0958C12.4612 16.1385 12.4612 16.2245 12.5045 16.2892L12.8274 16.7401C12.8701 16.8048 12.9561 16.8262 13.0208 16.7835L13.279 16.5901C13.343 16.5467 13.4291 16.5467 13.4724 16.6114L15.3222 19.1696C15.3656 19.2343 15.3435 19.2556 15.2795 19.2343L12.3538 18.267C12.2677 18.245 12.203 18.2884 12.203 18.3744L12.225 19.5351C12.203 19.5998 12.2677 19.6859 12.3324 19.7072Z" fill="currentColor"/>
</svg>
