<svg width="24" height="24" viewBox="0 0 24 24" fill="none" xmlns="http://www.w3.org/2000/svg">
<path fill-rule="evenodd" clip-rule="evenodd" d="M0 7.55066H0.213317C0.331925 7.55066 0.443967 7.60316 0.519914 7.69364L3.18885 10.8745C3.72095 11.5083 4.50621 11.8745 5.33366 11.8745H9.06866L5.44053 7.55252H5.63697C5.77058 7.55252 5.90183 7.58582 6.0195 7.64958L17.2658 13.7628H17.3858L15.2265 11.8745H16.6587C20.8377 11.8745 21.6961 11.8365 23.0439 12.9031C23.2183 13.0404 23.5343 13.3077 23.7424 13.4788C24.0856 13.761 24.0982 14.1407 23.7058 14.3981C22.9811 14.8739 21.8428 15.2054 19.931 15.2054H19.9113L19.9127 15.2063H11.8646L11.8642 15.2054H11.3297C9.77375 15.2054 8.19199 14.9194 6.76727 14.4009C5.49211 13.9368 1.94134 12.6537 1.12092 12.3574C1.01216 12.318 0.926351 12.2336 0.884627 12.1253L0.787597 11.8745H1.57379L0 7.55066ZM20.8119 16.2808C20.8119 16.5017 20.991 16.6807 21.2122 16.6807C21.4331 16.6807 21.6121 16.5017 21.6121 16.2808C21.6121 16.06 21.4331 15.8809 21.2122 15.8809C20.991 15.8809 20.8119 16.06 20.8119 16.2808ZM11.5923 16.2808C11.5923 16.5017 11.7714 16.6807 11.9922 16.6807C12.213 16.6807 12.392 16.5017 12.392 16.2808C12.392 16.06 12.213 15.8809 11.9922 15.8809C11.7714 15.8809 11.5923 16.06 11.5923 16.2808ZM10.3415 16.2808C10.3415 16.5017 10.5206 16.6807 10.7414 16.6807C10.9622 16.6807 11.1417 16.5017 11.1417 16.2808C11.1417 16.06 10.9622 15.8809 10.7414 15.8809C10.5206 15.8809 10.3415 16.06 10.3415 16.2808Z" fill="currentColor"/>
</svg>
