<svg width="24" height="24" viewBox="0 0 24 24" fill="none" xmlns="http://www.w3.org/2000/svg">
<path fill-rule="evenodd" clip-rule="evenodd" d="M23.5876 8.53122C23.3409 8.44444 22.9647 8.30587 22.7602 8.23817C21.1791 7.71385 20.4103 8.0328 16.6042 9.41857C16.4143 9.48763 15.9495 9.65665 15.3002 9.89292L17.8928 10.8966L17.7833 10.9366L5.51445 9.09734C5.38678 9.07781 5.25592 9.09098 5.13415 9.1355L4.95513 9.20048L9.69175 11.9343C9.09746 12.1506 8.50043 12.3678 7.91659 12.5804L7.88706 12.5913C7.3382 12.7908 6.80162 12.9861 6.29093 13.172C5.53716 13.4464 4.7007 13.3732 4.006 12.972L0.520684 10.9602C0.421635 10.9029 0.302133 10.8925 0.194452 10.9316L0 11.0024L2.86649 14.4187C2.41305 14.5836 2.15044 14.679 2.15044 14.679L2.32218 14.8753C2.39579 14.9598 2.50165 15.0084 2.61433 15.008C3.45942 15.0062 7.1183 14.9975 8.43319 14.9975C9.90301 14.9975 11.4383 14.734 12.8554 14.2179C12.8554 14.2179 13.0353 14.1524 13.342 14.0411H13.3429L20.672 11.3736H20.6707C20.6766 11.3714 20.6829 11.3691 20.6884 11.3668C22.4299 10.7335 23.3563 10.0542 23.8588 9.3804C24.1305 9.01601 23.9938 8.67434 23.5876 8.53122Z" fill="currentColor"/>
</svg>
