<svg width="24" height="24" viewBox="0 0 24 24" fill="none" xmlns="http://www.w3.org/2000/svg">
<path fill-rule="evenodd" clip-rule="evenodd" d="M11.9992 21C16.97 21 21 16.9704 21 12C21 7.02963 16.97 3 11.9992 3C7.03 3 3 7.02963 3 12C3 16.9704 7.03 21 11.9992 21ZM13.2834 7L12.7611 13.0737H11.224L10.7166 7H13.2834ZM12.0149 14.1481C12.7014 14.1481 13.3132 14.551 13.3132 15.4315C13.3132 16.297 12.7014 16.7 12.0149 16.7C11.3135 16.7 10.6868 16.297 10.6868 15.4315C10.6868 14.551 11.3135 14.1481 12.0149 14.1481Z" fill="currentColor"/>
</svg>
