<svg width="16" height="17" viewBox="0 0 16 17" fill="none" xmlns="http://www.w3.org/2000/svg">
<g clip-path="url(#clip0_5742_268549)">
<path fill-rule="evenodd" clip-rule="evenodd" d="M7.65598 6.55548C11.4138 6.55548 14.4611 6.04729 14.4611 5.42014C14.4611 5.00077 13.0929 4.63488 11.0655 4.43936C11.039 4.31635 11.0091 4.17667 10.9767 4.02529L10.9767 4.02521L10.9767 4.02511C10.7795 3.10287 10.4895 1.74661 10.2926 1.08124C9.98887 0.0738847 8.89439 0.590901 8.06101 1.03158C7.52169 1.31673 7.14164 1.15829 6.70407 0.975854C6.46559 0.876427 6.21003 0.769876 5.90227 0.724132C5.25202 0.633519 4.99437 1.32471 4.99437 1.32471L4.53951 4.40744C2.34883 4.60116 0.851149 4.98136 0.851149 5.42013C0.851149 6.04739 3.89817 6.55558 7.65595 6.55558L7.65598 6.55548ZM11.874 12.609C11.874 12.609 13.0271 11.2125 13.219 10.5906C13.4393 9.87986 10.4775 9.44989 10.4775 9.44989C10.4775 9.44989 10.2803 10.9281 8.27612 11.7596L8.27601 11.7597C7.95362 11.8809 7.5981 11.8809 7.27569 11.7597C5.27327 10.9299 5.03524 9.45706 5.03524 9.45706C5.03524 9.45706 2.1142 9.87631 2.33449 10.5906C2.52643 11.2125 3.67951 12.609 3.67951 12.609C1.64687 12.609 0 14.1032 0 15.9474V16.5H15.5519V15.9474C15.5519 14.1031 13.8978 12.609 11.8741 12.609L11.874 12.609ZM6.9897 7.2075C7.42121 7.26196 7.85753 7.26675 8.29018 7.22167L8.29017 7.22166C9.10043 6.91791 10.8008 6.93742 10.799 7.42598C10.799 8.0691 10.1433 8.75672 9.33489 8.75672C8.60119 8.75672 7.98464 8.31438 7.89045 7.74403C7.75756 7.63935 7.5703 7.63935 7.4374 7.74403H7.42144C7.32725 8.31606 6.71965 8.75852 5.97521 8.75852C5.16671 8.75852 4.51112 8.07101 4.51112 7.42778C4.51112 6.94448 6.16704 6.91791 6.9897 7.2075Z" fill="currentColor"/>
</g>
<defs>
<clipPath id="clip0_5742_268549">
<rect width="16" height="16" fill="currentColor" transform="matrix(-1 0 0 -1 16 16.5)"/>
</clipPath>
</defs>
</svg>
