<svg width="24" height="24" viewBox="0 0 24 24" fill="none" xmlns="http://www.w3.org/2000/svg">
<path fill-rule="evenodd" clip-rule="evenodd" d="M16.3334 4.5199H7.66717V1.43999C7.66717 1.19679 7.86098 1 8.10049 1H15.9001C16.1396 1 16.3334 1.19679 16.3334 1.43999V4.5199ZM18.5 10.7868V23H5.5V10.7868C5.5 10.4365 5.63712 10.1011 5.8809 9.85359L8.75015 6.94014V6.49273C8.75015 6.27923 8.90129 6.09668 9.1085 6.05955L15.2498 4.95989V6.94014L18.1191 9.85359C18.3629 10.1011 18.5 10.4365 18.5 10.7868ZM16.334 13.7603H12.8675V10.2397H11.1343V13.7603H7.66717V15.5202H11.1343V19.0401H12.8675V15.5202H16.334V13.7603Z" fill="currentColor"/>
</svg>
