<svg width="24" height="24" viewBox="0 0 24 24" fill="none" xmlns="http://www.w3.org/2000/svg">
<path fill-rule="evenodd" clip-rule="evenodd" d="M15.4242 5.69697C15.6502 5.49512 15.9963 5.51159 16.2021 5.734L21.6509 11.6227C21.8479 11.8356 21.8479 12.1644 21.6509 12.3773L16.2021 18.266C15.9963 18.4884 15.6502 18.5049 15.4242 18.303L14.2735 17.2752C14.0418 17.0683 14.0248 16.7116 14.2358 16.4836L17.1684 13.3142H2.55556C2.24873 13.3142 2 13.0655 2 12.7587V11.2413C2 10.9345 2.24873 10.6858 2.55556 10.6858H17.1684L14.2358 7.51645C14.0248 7.28843 14.0418 6.93173 14.2735 6.72479L15.4242 5.69697Z" fill="currentColor"/>
</svg>
