<svg width="24" height="24" viewBox="0 0 24 24" fill="none" xmlns="http://www.w3.org/2000/svg">
<path fill-rule="evenodd" clip-rule="evenodd" d="M8.57578 5.69697C8.34978 5.49512 8.00372 5.51159 7.79792 5.734L2.34912 11.6227C2.15208 11.8356 2.15208 12.1644 2.34912 12.3773L7.79792 18.266C8.00372 18.4884 8.34978 18.5049 8.57578 18.303L9.72653 17.2752C9.95822 17.0683 9.97521 16.7116 9.76423 16.4836L6.83165 13.3142H21.4444C21.7513 13.3142 22 13.0655 22 12.7587V11.2413C22 10.9345 21.7513 10.6858 21.4444 10.6858H6.83165L9.76423 7.51645C9.97521 7.28843 9.95822 6.93173 9.72653 6.72479L8.57578 5.69697Z" fill="currentColor"/>
</svg>
