<svg width="24" height="24" viewBox="0 0 24 24" fill="none" xmlns="http://www.w3.org/2000/svg">
<path fill-rule="evenodd" clip-rule="evenodd" d="M18.0788 9.26268L16.3422 0.580829C16.2991 0.362367 16.1071 0.205444 15.885 0.205444H8.24926C8.02649 0.205444 7.83511 0.362367 7.79141 0.580829L6.0548 9.26329C6.01788 9.44729 5.99941 9.63314 6.00001 9.82083C6.01726 14.0104 6.4148 19.6861 6.93295 23.5414H12.0671H17.2006C17.7871 19.5833 18.1206 14.4442 18.1342 9.82144C18.1342 9.63375 18.1157 9.44729 18.0788 9.26268ZM9.01418 1.60544H15.1194L16.4265 8.1396H7.70772L9.01418 1.60544ZM16.6757 11.1734C16.6757 11.4313 16.4671 11.6405 16.2093 11.6405H15.288L15.2788 11.627V10.2202L12.9717 10.6682V12.3205H15.2757V13.0405H12.2419V11.6405H7.92495C7.66711 11.6405 7.45788 11.4313 7.45788 11.1734V9.54021H16.6757V11.1734ZM8.85849 10.9402H11.4253V10.2399H8.85849V10.9402ZM12.4111 3.00606H10.9397V4.74883H10.3606V5.37467H10.9397V5.68791H10.3606V6.26083H10.9397V6.7396H11.7373V6.26083H13.1373V5.68791H11.7373V5.37467H12.4111C13.4979 5.37467 13.9176 4.91991 13.9176 4.21714C13.9176 3.51375 13.4979 3.00606 12.4111 3.00606ZM12.3102 4.74883H11.7373V3.70329H12.3102C12.9366 3.70329 13.0843 3.89775 13.0843 4.21714C13.0843 4.53591 12.9366 4.74883 12.3102 4.74883Z" fill="currentColor"/>
</svg>
