<svg width="24" height="24" viewBox="0 0 24 24" fill="none" xmlns="http://www.w3.org/2000/svg">
<path fill-rule="evenodd" clip-rule="evenodd" d="M3.40413 21.1857C4.38973 21.8456 5.5488 22.1986 6.73491 22.2H6.73891C7.52724 22.2025 8.30821 22.0485 9.03656 21.7469C9.76491 21.4453 10.4261 21.0021 10.9819 20.443L21.9419 9.48299C22.7858 8.63907 23.2599 7.49447 23.2599 6.30099C23.2599 5.10751 22.7858 3.96291 21.9419 3.11899C21.098 2.27507 19.9534 1.80096 18.7599 1.80096C17.5664 1.80096 16.4218 2.27507 15.5779 3.11899L6.73891 11.958C6.1765 12.5206 5.86055 13.2835 5.86055 14.079C5.86055 14.8745 6.1765 15.6374 6.73891 16.2C7.0175 16.4786 7.34824 16.6996 7.71225 16.8504C8.07626 17.0012 8.46641 17.0789 8.86041 17.0789C9.25442 17.0789 9.64457 17.0012 10.0086 16.8504C10.3726 16.6996 10.7033 16.4786 10.9819 16.2L16.6389 10.543C16.7344 10.4507 16.8106 10.3404 16.863 10.2184C16.9154 10.0964 16.943 9.96517 16.9442 9.83239C16.9453 9.69961 16.92 9.56793 16.8697 9.44504C16.8195 9.32214 16.7452 9.21049 16.6513 9.1166C16.5574 9.0227 16.4458 8.94845 16.3229 8.89817C16.2 8.84789 16.0683 8.82259 15.9355 8.82374C15.8027 8.8249 15.6715 8.85248 15.5495 8.90489C15.4275 8.9573 15.3172 9.03348 15.2249 9.12899L9.56791 14.785C9.47554 14.8785 9.36541 14.9526 9.244 15.0029C9.12259 15.0532 8.99234 15.0787 8.86091 15.078C8.66308 15.0781 8.46964 15.0196 8.30508 14.9098C8.14052 14.8 8.01222 14.6438 7.93643 14.4611C7.86063 14.2784 7.84075 14.0773 7.87928 13.8832C7.91782 13.6892 8.01304 13.5109 8.15291 13.371L16.9919 4.53199C17.4608 4.06309 18.0968 3.79966 18.7599 3.79966C19.0883 3.79966 19.4134 3.86434 19.7167 3.98999C20.0201 4.11564 20.2957 4.29981 20.5279 4.53199C20.7601 4.76417 20.9443 5.0398 21.0699 5.34316C21.1956 5.64651 21.2602 5.97164 21.2602 6.29999C21.2602 6.62834 21.1956 6.95347 21.0699 7.25683C20.9443 7.56018 20.7601 7.83581 20.5279 8.06799L9.56791 19.028C8.81775 19.7782 7.80031 20.1996 6.73941 20.1996C5.67852 20.1996 4.66108 19.7782 3.91091 19.028C3.16075 18.2778 2.73931 17.2604 2.73931 16.1995C2.73931 15.1386 3.16075 14.1212 3.91091 13.371L12.3999 4.88599C12.5874 4.69835 12.6927 4.44391 12.6926 4.17864C12.6925 3.91337 12.5871 3.659 12.3994 3.47149C12.2118 3.28398 11.9573 3.1787 11.6921 3.17879C11.4268 3.17888 11.1724 3.28435 10.9849 3.47199L2.49991 11.957C1.66113 12.7956 1.08974 13.8641 0.857909 15.0273C0.626083 16.1905 0.74423 17.3964 1.19742 18.4925C1.65062 19.5886 2.41852 20.5258 3.40413 21.1857Z" fill="currentColor"/>
</svg>
