<svg width="24" height="24" viewBox="0 0 24 24" fill="none" xmlns="http://www.w3.org/2000/svg">
<path d="M19.458 4.54225C21.514 6.59825 21.514 9.94413 19.458 12.0001L18.0421 13.416C18.0027 13.4554 17.9454 13.5179 17.8793 13.5788C18.0259 12.408 17.862 11.1993 17.3849 10.0953L17.4694 10.0115C18.4288 9.0521 18.4288 7.49027 17.4694 6.53083C16.5099 5.57139 14.9484 5.57139 13.9886 6.53083L11.0057 9.5144C10.0462 10.4738 10.0462 12.035 11.0057 12.9944C11.2718 13.2606 11.5849 13.4541 11.9203 13.5712C11.4418 14.0444 10.9831 14.5084 10.6706 14.8209L9.83697 15.6546C9.54657 15.463 9.27303 15.2393 9.01708 14.983C6.96106 12.927 6.96106 9.58112 9.01708 7.52513L12 4.54225C13.028 3.51425 14.3788 3 15.7293 3C17.0798 3 18.43 3.51425 19.458 4.54225ZM14.9829 9.01725C17.0389 11.0732 17.0389 14.4191 14.9829 16.4751L12 19.458C9.94397 21.514 6.59805 21.514 4.54202 19.458C2.48599 17.402 2.48599 14.0561 4.54202 12.0001L5.95794 10.5842C5.99732 10.5448 6.05459 10.4823 6.12069 10.4215C5.97408 11.5922 6.138 12.801 6.61509 13.9049L6.53063 13.9887C5.57118 14.9482 5.57118 16.51 6.53063 17.4694C7.49009 18.4289 9.05158 18.4289 10.0114 17.4694L12.9943 14.4859C13.9538 13.5264 13.9538 11.9653 12.9943 11.0058C12.7282 10.7397 12.4151 10.5461 12.0797 10.429C12.5582 9.95582 13.0169 9.49185 13.3294 9.1793L14.163 8.34569C14.4534 8.5373 14.727 8.76095 14.9829 9.01725H14.9829Z" fill="currentColor"/>
</svg>
