<svg width="24" height="24" viewBox="0 0 24 24" fill="none" xmlns="http://www.w3.org/2000/svg">
<path fill-rule="evenodd" clip-rule="evenodd" d="M6.55648 9.45983C5.82723 9.59394 5.69632 9.89646 5.69632 10.6052V11.6438H0.316797C-0.105599 14.9078 -0.105599 20.1944 0.316797 23.4584H10.3838L8.83348 12.2644C8.78436 11.9081 8.47985 11.6438 8.12085 11.6438H6.77508V10.6052C6.77508 10.5335 6.77569 10.5158 6.84696 10.5063L6.84831 10.5061C7.41828 10.4255 7.99899 10.398 8.5745 10.398L8.48699 9.76577C8.45127 9.50769 8.22534 9.32105 7.96547 9.33177C7.45674 9.35204 6.92883 9.39135 6.55648 9.45983ZM14.756 1.86973H20.5382C20.5382 1.11871 20.3909 0.823122 19.5372 0.702564C18.3004 0.526482 16.6548 0.593584 15.4181 0.769666M15.4181 0.769666C14.8623 0.922192 14.756 1.23158 14.756 1.86973L15.4181 0.769666ZM11.7358 23.4584H12.6136C12.7036 23.4584 12.7892 23.4347 12.8636 23.3924C12.9708 23.3315 13.0545 23.232 13.0941 23.1092L13.3298 22.3751L12.4654 22.159V21.9429C12.5318 21.9162 12.5993 21.8901 12.6676 21.8645C12.9403 21.7628 13.2275 21.6709 13.5263 21.589C13.722 21.5353 13.9227 21.4859 14.1276 21.4407C15.2207 21.1997 16.4339 21.0794 17.6466 21.0794C18.8602 21.0794 20.0737 21.1998 21.1667 21.4408C21.3715 21.486 21.5721 21.5354 21.7676 21.5891C22.0666 21.6711 22.3539 21.763 22.6265 21.8648C22.6946 21.8902 22.7617 21.9163 22.8279 21.9429V22.159L21.9644 22.3751L22.2001 23.1092C22.2397 23.232 22.3234 23.3315 22.4304 23.3924C22.5046 23.4347 22.5901 23.4584 22.6797 23.4584H23.5584C24.1496 18.8887 24.146 11.4875 23.5548 6.91705C22.972 6.74379 22.3234 6.60203 21.6335 6.491C21.3412 6.44397 21.0415 6.40245 20.7363 6.36639C20.6702 6.35858 20.6039 6.35103 20.5373 6.34374C20.5342 6.52295 20.5203 6.67436 20.4871 6.80236C20.423 7.04907 20.2869 7.20877 20.0165 7.31284C19.9113 7.35333 19.7858 7.3854 19.6363 7.41089V2.46091L18.9165 2.56539V7.49305C18.7922 7.50314 18.6646 7.51189 18.5363 7.5192C18.2329 7.53648 17.9252 7.54573 17.6466 7.54573C17.3687 7.54573 17.0612 7.53648 16.7579 7.5192C16.6295 7.51189 16.5019 7.50314 16.3777 7.49305V2.93599L15.6579 3.04048V7.41089C15.5084 7.3854 15.3829 7.35333 15.2777 7.31284C15.0073 7.20877 14.8712 7.04907 14.8071 6.80236C14.7739 6.67437 14.76 6.52295 14.7568 6.34374C14.6903 6.35103 14.624 6.35858 14.5579 6.36639C14.2527 6.40245 13.953 6.44397 13.6607 6.491C12.9708 6.60203 12.3222 6.74379 11.7393 6.91705C11.1482 11.4875 11.1446 18.8887 11.7358 23.4584ZM12.5756 20.7298C12.2864 16.6437 12.3434 11.4631 12.7434 7.78966C13.1182 7.70242 13.5184 7.62598 13.9385 7.56074C13.977 7.62684 14.0209 7.69208 14.0707 7.75576C14.4051 8.18277 14.8678 8.36534 15.2777 8.45701L15.7861 8.54864L16.7579 8.62088C17.061 8.63708 17.3664 8.64574 17.6466 8.64574C17.9274 8.64574 18.2331 8.63708 18.5363 8.62087L19.508 8.54864L20.0165 8.45701C20.4263 8.36534 20.8891 8.18277 21.2235 7.75576C21.2733 7.69208 21.3171 7.62684 21.3556 7.56074C21.7758 7.62598 22.176 7.70243 22.5508 7.78966C22.9508 11.4632 23.0078 16.6439 22.7185 20.73C21.2127 20.2188 19.4072 19.9794 17.6466 19.9794C15.887 19.9794 14.0819 20.2188 12.5756 20.7298ZM1.3015 12.7438C1.03283 15.5916 1.03283 19.5106 1.3015 22.3584H9.12091L7.78937 12.7438H1.3015Z" fill="currentColor"/>
</svg>
