<svg width="24" height="24" viewBox="0 0 24 24" fill="none" xmlns="http://www.w3.org/2000/svg">
<path fill-rule="evenodd" clip-rule="evenodd" d="M12.4245 1.49432H9.50167C9.50167 0.729052 9.65117 0.428507 10.5135 0.305779C11.0525 0.22887 11.8097 0.184143 12.4245 0.184143C13.0393 0.184143 13.7965 0.22887 14.3355 0.305779C15.1978 0.428507 15.3473 0.729052 15.3473 1.49432H12.4245ZM18.4007 23.4712H17.4593C17.2697 23.4712 17.1018 23.348 17.0438 23.1663L16.7893 22.3683L17.6624 22.1485V22.0165C16.2162 21.4301 14.3203 21.1372 12.4245 21.1372C10.5287 21.1372 8.63284 21.4301 7.18659 22.0165V22.1485L8.05976 22.3683L7.80517 23.1663C7.74721 23.348 7.5793 23.4712 7.38971 23.4712H6.4483C5.85084 18.8196 5.8503 11.2847 6.4483 6.63251C7.34259 6.36414 8.38801 6.16887 9.50276 6.04614C9.51305 6.66087 9.64413 6.95487 10.2324 7.09832V2.97851C10.2324 2.82578 10.3434 2.69596 10.4935 2.67414L10.8867 2.61632V7.19542C11.371 7.24451 11.9413 7.27233 12.4245 7.27233C12.9082 7.27233 13.478 7.24451 13.9623 7.19542V2.43087C13.9623 2.27814 14.0739 2.14887 14.2239 2.12651L14.6172 2.06869V7.09832C15.2049 6.95487 15.336 6.66033 15.3463 6.04614C16.461 6.16887 17.507 6.36414 18.4007 6.63251C18.9987 11.2847 18.9987 18.8196 18.4007 23.4712ZM13.1119 17.6818C13.1119 17.0878 12.6428 16.616 12.0399 16.616C11.4506 16.616 10.968 17.0878 10.968 17.6818C10.968 18.2889 11.4506 18.7612 12.0399 18.7612C12.6428 18.7612 13.1119 18.2752 13.1119 17.6818ZM15.2693 12.5C15.2693 10.6787 13.9428 9.85505 12.268 9.85505C11.6245 9.85505 10.7805 10.0171 10.1907 10.3143V12.0009C10.6868 11.7309 11.5042 11.5285 12.1607 11.5285C12.8708 11.5285 13.4466 11.8252 13.4466 12.6489C13.4466 13.6471 12.1607 13.8091 11.2361 13.8091H10.9544L11.1288 15.968H12.7771V15.0909C14.3583 14.8209 15.2693 13.8227 15.2693 12.5Z" fill="currentColor"/>
</svg>
