<svg width="40" height="40" viewBox="0 0 40 40" fill="none" xmlns="http://www.w3.org/2000/svg">
<path fill-rule="evenodd" clip-rule="evenodd" d="M21.1844 39.0731H20.2504C20.0504 39.0731 19.8834 38.9391 19.8174 38.7731L19.5834 38.0061L20.4504 37.7721V37.5061C18.5164 36.7391 16.0164 36.3721 13.5154 36.3721C11.0144 36.3721 8.51345 36.7391 6.61245 37.5061V37.7721L7.47945 38.0061L7.21345 38.7731C7.14645 38.9391 6.97945 39.0731 6.81245 39.0731H5.87945C5.11245 33.1711 5.11245 23.5681 5.87945 17.6661C7.24645 17.2661 8.88045 16.9661 10.6474 16.8331C10.6474 17.4661 10.7474 17.7661 11.3474 17.9331L11.3474 13.8651C11.3474 13.7311 11.4814 13.5981 11.6144 13.5651L12.0144 13.5311L12.0144 17.9991C12.4814 18.0661 13.0484 18.0991 13.5154 18.0991C14.0154 18.0991 14.5484 18.0661 15.0494 17.9991L15.0494 13.3311C15.0494 13.1981 15.1494 13.0651 15.3154 13.0311L15.6824 12.9641L15.6824 17.9331C16.2824 17.7661 16.4164 17.4661 16.4164 16.8331C18.1504 16.9661 19.7834 17.2661 21.1844 17.6661C21.9514 23.5681 21.9514 33.1711 21.1844 39.0731ZM18.8164 23.3681L19.2164 19.5331L19.0174 19.4001L15.5154 20.9671C15.4154 20.9671 15.3824 21.0341 15.3824 21.1341L15.3484 21.3341L17.0824 21.3671L9.11345 32.3381L8.54645 30.7041L8.34645 30.7701C8.28045 30.8031 8.24645 30.8701 8.24645 30.9701L7.81345 34.7711L8.04645 34.9381L11.5474 33.3711C11.6144 33.3381 11.6474 33.2711 11.6814 33.2051V33.0041L9.94745 32.9711L17.9494 21.9681L18.5164 23.6011L18.6834 23.5341C18.7504 23.5011 18.8164 23.4351 18.8164 23.3681ZM10.6474 12.4311L16.4164 12.4311C16.4164 11.6641 16.2494 11.3641 15.4154 11.2641C14.8824 11.1641 14.1154 11.1311 13.5154 11.1311C12.9144 11.1311 12.1814 11.1641 11.6474 11.2641C10.7804 11.3641 10.6474 11.6641 10.6474 12.4311ZM28.5864 39.0731H30.6544L27.8864 7.56314C27.6864 5.36214 26.6524 3.32814 24.9854 1.92814L23.9184 0.994141L23.6184 1.02714L24.5184 3.02814C25.2524 4.59514 25.7184 6.29614 25.8524 8.03014L28.5864 39.0731ZM32.9544 7.86314L32.9544 39.0731H30.9204L30.9204 8.16314C30.9204 6.42914 30.5874 4.69514 30.0204 3.06114L29.2874 0.994141H29.5534L30.5544 1.99414C32.0874 3.56214 32.9544 5.69514 32.9544 7.86314Z" fill="currentColor"/>
</svg>
