<svg width="40" height="40" viewBox="0 0 40 40" fill="none" xmlns="http://www.w3.org/2000/svg">
<path fill-rule="evenodd" clip-rule="evenodd" d="M16.5694 27.4575L18.2631 39.6868H7.26504C6.80358 36.1209 6.80358 30.3453 7.26504 26.7795H13.1421V25.6448C13.1421 24.8234 13.3031 24.5014 14.2348 24.3687C14.6299 24.3131 15.1314 24.2731 15.6211 24.2536C15.905 24.2419 16.1519 24.4458 16.1909 24.7278L16.2865 25.4185C15.6533 25.4185 14.8972 25.4663 14.4007 25.5366C14.3714 25.5405 14.346 25.5444 14.3226 25.5492C14.3216 25.5766 14.3207 25.6087 14.3207 25.6448V26.7795H15.7909C16.1831 26.7795 16.5158 27.0683 16.5694 27.4575ZM26.1977 14.6956C25.5343 14.6956 24.7158 14.7434 24.1333 14.8263C23.2007 14.958 23.0397 15.2809 23.0397 16.1014L26.1977 16.1014H29.3568C29.3568 15.2809 29.1958 14.958 28.2631 14.8263C27.6807 14.7434 26.8631 14.6956 26.1977 14.6956ZM29.3558 20.9892C29.3431 21.7092 29.1724 22.0185 28.3714 22.1551V16.7473L27.585 16.8614V22.2448C27.1285 22.2819 26.6309 22.3024 26.1977 22.3024C25.7655 22.3024 25.268 22.2819 24.8114 22.2448V17.2663L24.025 17.3805V22.1551C23.2241 22.0185 23.0533 21.7092 23.0407 20.9892C21.8387 21.1209 20.7089 21.3287 19.7441 21.6156C19.0982 26.6087 19.0943 34.6946 19.7402 39.6868H20.6992C20.9392 39.6868 21.1509 39.5327 21.2241 39.3053L21.4816 38.5034L20.5372 38.2673V38.0312C22.1011 37.4019 24.1499 37.0878 26.1977 37.0878C28.2465 37.0878 30.2953 37.4019 31.8582 38.0312V38.2673L30.9148 38.5034L31.1724 39.3053C31.2455 39.5327 31.4572 39.6868 31.6963 39.6868H32.6563C33.3021 34.6946 33.2982 26.6087 32.6524 21.6156C31.6875 21.3287 30.5577 21.1209 29.3558 20.9892ZM21.627 7.45753H25.7841C25.9928 7.45753 26.1928 7.3746 26.3402 7.22728L26.868 6.69948L27.3958 7.22728C27.5431 7.3746 27.7431 7.45753 27.9519 7.45753H29.5294C29.7372 7.45753 29.9372 7.3746 30.0855 7.22728L30.6133 6.69948L31.1402 7.22728C31.2885 7.3746 31.4875 7.45753 31.6963 7.45753H31.826C32.0348 7.45753 32.2348 7.3746 32.3821 7.22728L33.5509 6.0585L32.3821 4.8907C32.2348 4.74241 32.0348 4.66045 31.826 4.66045H31.6963C31.4875 4.66045 31.2885 4.74241 31.1402 4.8907L30.6133 5.41753L30.0846 4.8907C29.9372 4.74241 29.7372 4.66045 29.5294 4.66045H27.9519C27.7431 4.66045 27.5431 4.74241 27.3958 4.8907L26.868 5.41753L26.3402 4.8907C26.1928 4.74241 25.9928 4.66045 25.7841 4.66045L20.5187 4.66045L20.8504 6.79216C20.9099 7.17558 21.2397 7.45753 21.627 7.45753ZM19.7441 6.0585C19.7441 10.6097 19.0094 11.8878 16.3899 11.7395C14.3616 11.6244 11.4836 11.4048 9.94797 11.238C7.77236 11.0009 6.96748 9.62338 6.96748 6.0585C6.96748 2.4946 7.77236 1.11704 9.94797 0.879967C11.4836 0.713138 14.3616 0.493626 16.3899 0.378504C19.0094 0.230211 19.7441 1.50826 19.7441 6.0585ZM10.6055 6.0585C10.6055 4.70046 10.1226 3.59899 9.52651 3.59899C8.93041 3.59899 8.44748 4.70046 8.44748 6.0585C8.44748 7.41753 8.93041 8.51899 9.52651 8.51899C10.1226 8.51899 10.6055 7.41753 10.6055 6.0585Z" fill="currentColor"/>
</svg>
