<svg width="24" height="24" viewBox="0 0 24 24" fill="none" xmlns="http://www.w3.org/2000/svg">
<path fill-rule="evenodd" clip-rule="evenodd" d="M8.83348 12.2644L10.3838 23.4584H0.316797C-0.105599 20.1944 -0.105599 14.9077 0.316797 11.6438H5.69632V10.6052C5.69632 9.85327 5.84367 9.55858 6.6965 9.43713C7.05817 9.38623 7.51718 9.34961 7.96547 9.33175C8.22534 9.32104 8.45127 9.50768 8.48699 9.76576L8.5745 10.398C7.99494 10.398 7.30285 10.4418 6.84831 10.5061C6.82152 10.5096 6.7983 10.5132 6.77687 10.5177C6.77597 10.5427 6.77508 10.5721 6.77508 10.6052V11.6438H8.12085C8.47985 11.6438 8.78436 11.9081 8.83348 12.2644ZM17.6466 0.582886C17.0394 0.582886 16.2902 0.626644 15.757 0.70255C14.9033 0.823107 14.756 1.1187 14.756 1.86972H17.6466H20.5382C20.5382 1.1187 20.3909 0.823107 19.5372 0.70255C19.004 0.626644 18.2557 0.582886 17.6466 0.582886ZM20.5373 6.34373C20.5257 7.00277 20.3694 7.28586 19.6363 7.41088V2.4609L18.9165 2.56538V7.49303C18.4986 7.52697 18.0431 7.54572 17.6466 7.54572C17.251 7.54572 16.7956 7.52697 16.3777 7.49303V2.93598L15.6579 3.04046V7.41088C14.9247 7.28586 14.7685 7.00277 14.7568 6.34373C13.6567 6.46428 12.6225 6.65449 11.7393 6.91704C11.1482 11.4875 11.1446 18.8888 11.7358 23.4584H12.6136C12.8333 23.4584 13.0271 23.3173 13.0941 23.1092L13.3298 22.3751L12.4654 22.159V21.9429C13.8969 21.3669 15.7722 21.0794 17.6466 21.0794C19.522 21.0794 21.3973 21.3669 22.8279 21.9429V22.159L21.9644 22.3751L22.2001 23.1092C22.2671 23.3173 22.4609 23.4584 22.6797 23.4584H23.5584C24.1496 18.8888 24.146 11.4875 23.5548 6.91704C22.6716 6.65449 21.6375 6.46428 20.5373 6.34373Z" fill="currentColor"/>
</svg>
