<svg
   xmlns="http://www.w3.org/2000/svg"
   fill="none"
   viewBox="0 0 40 40"
   height="40"
   width="40">
  <path
     d="M 30.0211,16.0509 C 29.9038,14.3373 29.752,12.7273 29.5656,11.2846 28.0647,10.8373 26.3093,10.5118 24.4393,10.3073 24.422,11.3309 24.202,11.8218 23.2147,12.06 V 3.6782 l -0.66,0.09636 c -0.2518,0.03637 -0.4381,0.25273 -0.4381,0.50728 v 7.94086 c -0.8137,0.0819 -1.77,0.1282 -2.581,0.1282 -0.8118,0 -1.7681,-0.0463 -2.5809,-0.1282 V 4.59093 l -0.66,0.09636 C 16.0429,4.72365 15.8556,4.94002 15.8556,5.19456 V 12.06 c -0.9872,-0.2382 -1.2072,-0.7291 -1.2245,-1.7527 -1.87,0.2045 -3.6255,0.53 -5.12636,0.9773 -0.11818,0.9181 -0.22273,1.9063 -0.31364,2.9436 z M 8.88938,31.704 c 0.12272,2.7927 0.32727,5.4182 0.61545,7.6455 h 1.57997 c 0.3182,0 0.6,-0.2055 0.6973,-0.5091 l 0.4273,-1.33 -1.4646,-0.3664 v -0.22 c 2.4273,-0.9763 5.6091,-1.4645 8.79,-1.4645 3.1818,0 6.3637,0.4882 8.7909,1.4645 v 0.22 l -1.4645,0.3664 0.4273,1.33 c 0.0972,0.3036 0.3791,0.5091 0.6972,0.5091 h 1.58 c 0.2228,-1.7273 0.3964,-3.6937 0.52,-5.7909 z M 30.2996,27.635 8.81138,29.515 c 0.01,0.3627 0.02181,0.7237 0.03454,1.0818 L 30.145,32.4605 c 0.0782,-1.5618 0.13,-3.1837 0.1546,-4.8255 z M 24.441,2.72075 c 0,-1.27546 -0.2509,-1.775459 -1.6982,-1.980913 -0.9054,-0.128182 -2.1754,-0.202728 -3.2072,-0.202728 -1.0319,0 -2.3028,0.074546 -3.2082,0.202728 C 14.8801,0.945291 14.6292,1.44529 14.6292,2.72075 Z M 30.3175,25.3795 8.76383,23.494 c -0.01909,1.6382 -0.01182,3.2918 0.02091,4.92 L 30.312,26.5304 c 0.0036,-0.3827 0.0055,-0.7673 0.0055,-1.1509 z M 8.78092,22.3919 30.3136,24.2756 C 30.3027,22.6428 30.2655,21.0201 30.2027,19.4437 L 8.80547,21.3165 c -0.00909,0.3572 -0.01728,0.7154 -0.02455,1.0754 z m 0.05873,-2.182 21.31365,-1.8645 c -0.0191,-0.3991 -0.04,-0.7946 -0.0627,-1.1855 L 9.10238,15.3245 C 8.9851,16.8727 8.89783,18.5172 8.83965,20.2099 Z"
     fill="currentColor" />
</svg>
