<svg width="24" height="24" viewBox="0 0 24 24" fill="none" xmlns="http://www.w3.org/2000/svg">
<path fill-rule="evenodd" clip-rule="evenodd" d="M9.07385 14L8.83348 12.2644C8.78437 11.9081 8.47985 11.6438 8.12086 11.6438H6.77508V10.6052C6.77508 10.5721 6.77598 10.5427 6.77687 10.5177C6.7983 10.5132 6.82152 10.5096 6.84831 10.5061C7.30286 10.4418 7.99494 10.398 8.57451 10.398L8.48699 9.76576C8.45127 9.50768 8.22534 9.32104 7.96547 9.33175C7.51718 9.34961 7.05817 9.38623 6.6965 9.43713C5.84367 9.55858 5.69632 9.85327 5.69632 10.6052V11.6438H0.3168C0.225604 12.3485 0.154097 13.1475 0.10228 14H9.07385ZM23.9919 14H11.3023C11.3371 11.4145 11.4829 8.89947 11.7394 6.91704C12.6225 6.65449 13.6567 6.46428 14.7568 6.34373C14.7685 7.00277 14.9247 7.28586 15.6579 7.41088V3.04046L16.3777 2.93598V7.49303C16.7956 7.52697 17.251 7.54572 17.6466 7.54572C18.0431 7.54572 18.4986 7.52697 18.9165 7.49303V2.56538L19.6363 2.4609V7.41088C20.3694 7.28586 20.5257 7.00277 20.5373 6.34373C21.6375 6.46428 22.6716 6.65449 23.5548 6.91704C23.8113 8.89947 23.9571 11.4145 23.9919 14ZM15.757 0.70255C16.2902 0.626644 17.0394 0.582886 17.6466 0.582886C18.2557 0.582886 19.004 0.626644 19.5372 0.70255C20.3909 0.823107 20.5382 1.1187 20.5382 1.86972H17.6466H14.756C14.756 1.1187 14.9033 0.823107 15.757 0.70255ZM1.21066 22.4584H9.23572L8.5 17H9.48932L10.3838 23.4584H0.316797C0.0874406 21.6861 -0.0173778 19.3174 0.00234183 17H1.00158C1.00158 18.8217 1.03452 20.6438 1.21066 22.4584ZM22.3276 23.3151C22.4196 23.4048 22.5449 23.4584 22.6797 23.4584H23.5584C23.5781 23.3062 23.5971 23.151 23.6155 22.9928C23.6468 22.723 23.6762 22.4448 23.7037 22.159C23.7105 22.0874 23.7173 22.0154 23.7239 21.9429C23.7447 21.716 23.7644 21.4846 23.7828 21.2494C23.8864 19.9277 23.9529 18.4818 23.9824 17H22.9561C22.9561 18.2913 22.9029 19.5789 22.8089 20.8671C21.2925 20.3313 19.448 20.0794 17.6466 20.0794C15.8462 20.0794 14.0021 20.3312 12.4853 20.8669C12.3913 19.5788 12.3381 18.2912 12.3381 17H11.3118C11.3413 18.4816 11.4078 19.9274 11.5113 21.2489C11.5298 21.4843 11.5494 21.7158 11.5702 21.9429C11.5769 22.0154 11.5836 22.0874 11.5905 22.159C11.618 22.4449 11.6474 22.7233 11.6788 22.9931C11.6971 23.1512 11.7161 23.3063 11.7358 23.4584H12.6136C12.7489 23.4584 12.8744 23.4048 12.9665 23.3151C13.0239 23.2591 13.0683 23.1891 13.0941 23.1092L13.3298 22.3751L12.4654 22.159V21.9429L12.5254 21.919L12.5706 21.9014C12.8719 21.7848 13.1918 21.6807 13.5263 21.589C13.6531 21.5542 13.7819 21.5213 13.9126 21.4901C15.0604 21.2162 16.3538 21.0794 17.6466 21.0794C18.9403 21.0794 20.2339 21.2162 21.3816 21.4901C21.5122 21.5213 21.641 21.5543 21.7676 21.589C22.1023 21.6808 22.4223 21.7851 22.7235 21.9017L22.7678 21.919L22.8279 21.9429V22.159L21.9644 22.3751L22.2001 23.1092C22.2258 23.1891 22.2703 23.2591 22.3276 23.3151ZM24 15H0V16H24V15Z" fill="currentColor"/>
</svg>
