<svg width="24" height="24" viewBox="0 0 24 24" fill="none" xmlns="http://www.w3.org/2000/svg">
<path d="M22.125 6.82502L12.375 1.57502C12.15 1.42502 11.85 1.42502 11.7 1.57502L1.95 6.82502C1.65 6.97502 1.5 7.20002 1.5 7.50002V9.75002C1.5 10.2 1.8 10.5 2.25 10.5H21.75C22.2 10.5 22.5 10.2 22.5 9.75002V7.50002C22.5 7.20002 22.35 6.97502 22.125 6.82502Z" fill="currentColor"/>
<path d="M12.75 18C13.2 18 13.5 17.7 13.5 17.25V12C13.5 11.55 13.2 11.25 12.75 11.25H11.25C10.8 11.25 10.5 11.55 10.5 12V17.25C10.5 17.7 10.8 18 11.25 18H12.75Z" fill="currentColor"/>
<path d="M18.75 18C19.2 18 19.5 17.7 19.5 17.25V12C19.5 11.55 19.2 11.25 18.75 11.25H17.25C16.8 11.25 16.5 11.55 16.5 12V17.25C16.5 17.7 16.8 18 17.25 18H18.75Z" fill="currentColor"/>
<path d="M6.75 18C7.2 18 7.5 17.7 7.5 17.25V12C7.5 11.55 7.2 11.25 6.75 11.25H5.25C4.8 11.25 4.5 11.55 4.5 12V17.25C4.5 17.7 4.8 18 5.25 18H6.75Z" fill="currentColor"/>
<path d="M21.75 18.75H2.25C1.8 18.75 1.5 19.05 1.5 19.5V21.75C1.5 22.2 1.8 22.5 2.25 22.5H21.75C22.2 22.5 22.5 22.2 22.5 21.75V19.5C22.5 19.05 22.2 18.75 21.75 18.75Z" fill="currentColor"/>
</svg>
