<svg width="24" height="24" viewBox="0 0 24 24" fill="none" xmlns="http://www.w3.org/2000/svg">
<path d="M8.34047 18.1802H0V21.3534H8.34047V18.1802Z" fill="currentColor"/>
<path d="M5.35336 9.76053C4.97616 9.59604 4.56009 9.50515 4.12336 9.50515C2.41823 9.50515 1.03083 10.8926 1.03083 12.5977V16.7745H7.21594V13.427L8.23181 13.0039L10.5564 7.59199L5.35336 9.76053ZM4.81828 13.6294H3.42848V12.2397H4.81823L4.81828 13.6294Z" fill="currentColor"/>
<path d="M12.4203 6.81509L10.0953 12.227L13.133 10.961L15.458 5.54904L12.4203 6.81509Z" fill="currentColor"/>
<path d="M17.322 4.77213L18.0347 8.91804L20.3597 3.50609L17.322 4.77213Z" fill="currentColor"/>
<path d="M17.322 4.77213L14.997 10.1841L18.0347 8.91804L17.322 4.77213Z" fill="currentColor"/>
<path d="M22.4219 2.64673L22.2237 2.72965L19.8986 8.14114L24 6.43179L22.4219 2.64673Z" fill="currentColor"/>
</svg>
