<svg width="24" height="24" viewBox="0 0 24 24" fill="none" xmlns="http://www.w3.org/2000/svg">
<path fill-rule="evenodd" clip-rule="evenodd" d="M18.7099 16.8189L18.9768 17.6194L18.9768 17.6195C19.0319 17.8184 18.9869 18.0316 18.8562 18.1912C18.7374 18.3579 18.546 18.4571 18.3415 18.4581H5.63551C5.43102 18.4571 5.23958 18.3579 5.12088 18.1912C5.0012 18.026 4.96802 17.8133 5.03197 17.6195V17.6196L5.29886 16.8191C5.94591 14.8903 6.2742 12.8689 6.27079 10.8346V9.56396C6.2746 7.98395 6.92693 6.47513 8.07501 5.38986C8.8968 4.62238 9.92646 4.11415 11.0355 3.92867V3.5285C11.0355 3.18801 11.2172 2.8735 11.512 2.70319C11.8068 2.53302 12.1702 2.53302 12.465 2.70319C12.7598 2.87349 12.9414 3.18802 12.9414 3.5285V3.92867C14.2919 4.18122 15.51 4.90202 16.3816 5.96402C17.2531 7.02628 17.7221 8.36168 17.7062 9.73553V10.8345C17.713 12.8708 18.0521 14.892 18.7099 16.8191V16.8189ZM13.7273 21.1152C13.2106 21.4537 12.6064 21.6343 11.9885 21.6345H11.9883C11.3705 21.6342 10.7662 21.4537 10.2495 21.1152C9.73262 20.7767 9.32576 20.2949 9.07873 19.7286H14.8981C14.651 20.2948 14.2442 20.7767 13.7273 21.1152Z" fill="currentColor"/>
</svg>
