<svg width="24" height="24" viewBox="0 0 24 24" fill="none" xmlns="http://www.w3.org/2000/svg">
<path d="M21.675 7.05001C21.675 6.97501 21.75 6.90001 21.75 6.82501C21.75 6.82501 21.75 6.82501 21.75 6.75001C21.75 6.75001 21.75 6.75001 21.75 6.67501C21.75 6.60001 21.75 6.52501 21.75 6.45001C21.75 6.45001 21.75 6.45001 21.75 6.37501C21.75 6.30001 21.675 6.22501 21.675 6.15001C21.6 6.07501 21.6 6.07501 21.525 6.00001L13.275 0.750012C13.05 0.600012 12.675 0.600012 12.45 0.750012L2.7 7.50001L2.625 7.57501C2.625 7.57501 2.625 7.57501 2.55 7.57501C2.475 7.65001 2.475 7.72501 2.4 7.80001C2.4 7.80001 2.4 7.80001 2.4 7.87501C2.25 8.10001 2.25 8.17501 2.25 8.25001V12.75V17.25C2.25 17.475 2.4 17.775 2.625 17.85L10.875 23.1C11.025 23.175 11.175 23.25 11.25 23.25C11.4 23.25 11.55 23.175 11.7 23.1L21.45 16.35C21.6 16.2 21.75 16.05 21.75 15.825C21.75 15.6 21.675 15.375 21.525 15.225C20.85 14.55 20.7 13.575 21.15 12.675L21.675 11.55C21.675 11.475 21.75 11.4 21.75 11.325V11.25C21.75 11.175 21.75 11.025 21.675 10.95V10.875C21.675 10.8 21.6 10.725 21.525 10.65C20.85 9.97501 20.7 9.00001 21.15 8.10001L21.675 7.05001ZM19.95 11.1L11.25 17.1L3.75 12.375V9.67501L10.875 14.175C11.025 14.25 11.175 14.325 11.25 14.325C11.4 14.325 11.55 14.25 11.7 14.175L19.425 8.85001C19.35 9.60001 19.5 10.35 19.95 11.1ZM11.25 21.6L3.75 16.875V14.175L10.875 18.675C11.025 18.75 11.175 18.825 11.25 18.825C11.4 18.825 11.55 18.75 11.7 18.675L19.425 13.35C19.35 14.175 19.5 15 19.95 15.675L11.25 21.6Z" fill="currentColor"/>
</svg>
