<svg width="24" height="24" viewBox="0 0 24 24" fill="none" xmlns="http://www.w3.org/2000/svg">
<path d="M21.1218 11.3213C21.1218 12.3272 20.8756 13.2837 20.443 14.1618C20.5838 14.5774 20.6644 15.0157 20.6644 15.4727C20.6644 17.1076 19.6663 18.5995 18.0691 19.4713C18.1546 19.6707 18.2478 19.7747 18.4034 20.022C18.5019 20.1778 18.4914 20.3789 18.377 20.5235C18.2627 20.6682 18.0695 20.7249 17.8951 20.6651C17.4388 20.5098 16.9447 20.3906 16.4901 20.0737C15.9907 20.1897 15.4803 20.2494 14.9714 20.2494C13.4088 20.2494 11.9736 19.7131 10.9346 18.8384C10.5295 18.8 10.1274 18.7427 9.73233 18.6585C9.10419 19.2754 7.96983 19.9083 6.91467 20.2341C6.8721 20.2467 6.82956 20.2536 6.78655 20.2536C6.65102 20.2536 6.5204 20.1901 6.437 20.0763C6.32753 19.9273 6.32382 19.7256 6.42851 19.5732C6.83294 18.9845 7.2221 18.2588 7.35416 17.8483C4.59137 16.4782 2.87695 13.9815 2.87695 11.3212C2.87695 7.14449 6.96944 3.7464 11.9994 3.7464C17.0293 3.7464 21.1218 7.14449 21.1218 11.3212L21.1218 11.3213ZM10.1472 15.4727C10.1472 17.5813 12.2664 19.3806 14.9714 19.3806C15.4174 19.3806 15.866 19.3289 16.3043 19.2261C16.3662 19.2116 16.43 19.2041 16.4935 19.2041C16.6646 19.2041 16.8333 19.2592 16.9712 19.3568C16.9715 19.3571 16.9718 19.3574 16.972 19.3577C17.035 19.4026 17.1671 19.4292 17.2435 19.4671C17.2443 19.1673 17.3538 18.8743 17.6279 18.7264C17.6282 18.7261 17.6285 18.7258 17.6287 18.7256C19.0131 17.9807 19.7956 16.7652 19.7956 15.4727C19.7956 13.364 17.6765 11.5656 14.9714 11.5656C12.2664 11.5656 10.1473 13.364 10.1472 15.4727H10.1472ZM13.4972 15.0549C13.6545 15.3231 13.6545 15.6553 13.4972 15.9235C13.3399 16.1916 13.05 16.3538 12.7392 16.3474C12.4284 16.3538 12.1384 16.1916 11.9812 15.9235C11.8239 15.6553 11.8239 15.3231 11.9812 15.0549C12.1384 14.7868 12.4284 14.6246 12.7392 14.631C13.05 14.6246 13.3399 14.7868 13.4972 15.0549ZM15.9008 15.0549C16.0581 15.3231 16.0581 15.6553 15.9008 15.9235C15.7436 16.1916 15.4536 16.3538 15.1428 16.3474C14.832 16.3538 14.5421 16.1916 14.3848 15.9235C14.2275 15.6553 14.2275 15.3231 14.3848 15.0549C14.5421 14.7868 14.832 14.6246 15.1428 14.631C15.4536 14.6246 15.7436 14.7868 15.9008 15.0549ZM18.3044 15.0549C18.4617 15.3231 18.4617 15.6553 18.3044 15.9235C18.1472 16.1916 17.8572 16.3538 17.5464 16.3474C17.2356 16.3538 16.9457 16.1916 16.7884 15.9235C16.6312 15.6553 16.6312 15.3231 16.7884 15.0549C16.9457 14.7868 17.2356 14.6246 17.5464 14.631C17.8572 14.6246 18.1472 14.7868 18.3044 15.0549Z" fill="currentColor"/>
</svg>
