<svg width="24" height="24" viewBox="0 0 24 24" fill="none" xmlns="http://www.w3.org/2000/svg">
<path fill-rule="evenodd" clip-rule="evenodd" d="M6.33923 4.81748H17.66V3.49753H6.33923V4.81748ZM18.2987 19.0511C18.243 19.186 18.1254 19.2856 17.9818 19.3141C16.0591 19.7021 13.6438 19.8512 11.9996 19.8512C10.3554 19.8512 7.94075 19.7021 6.01744 19.3141C5.87449 19.2856 5.75691 19.186 5.7006 19.0511L5.24453 17.9502L2.27107 16.6426C2.35832 18.9836 2.52107 21.191 2.75994 23.0357H4.39178C4.58362 23.0357 4.7538 22.9107 4.81135 22.7275L5.0663 21.9169L4.3627 21.5914V21.4589C6.47166 21.0462 9.23595 20.8395 11.9996 20.8395C14.7639 20.8395 17.5282 21.0462 19.6372 21.4589V21.5914L18.9336 21.9169L19.1885 22.7275C19.2461 22.9107 19.4163 23.0357 19.6081 23.0357H21.2399C21.4788 21.191 21.6416 18.9836 21.7288 16.6426L18.7547 17.9502L18.2987 19.0511ZM22.9999 3.93751V7.01741C22.9999 7.26061 22.8031 7.45801 22.5599 7.45801H21.6904C21.8074 9.97354 21.834 12.684 21.7703 15.288L19.1489 15.7917C19.0035 15.8196 18.8822 15.9186 18.8253 16.0554L17.7343 18.6903C16.1711 18.9917 13.9607 19.1916 11.9996 19.1916C10.0392 19.1916 7.82874 18.9917 6.26559 18.6903L5.1746 16.0554C5.11767 15.9186 4.99638 15.8196 4.85095 15.7917L2.22961 15.288C2.16587 12.684 2.19248 9.97354 2.30882 7.45801H1.43999C1.19679 7.45801 1 7.26061 1 7.01741V3.93751C1 3.69493 1.19679 3.49753 1.43999 3.49753H2.58791C2.63989 2.96596 2.69682 2.45357 2.75994 1.96841C7.86278 0.679394 16.1365 0.679394 21.2399 1.96841C21.3024 2.45357 21.36 2.96596 21.412 3.49753H22.5599C22.8031 3.49753 22.9999 3.69493 22.9999 3.93751ZM12.6599 17.8425C12.6599 17.478 12.3641 17.1829 11.9996 17.1829C11.6351 17.1829 11.34 17.478 11.34 17.8425C11.34 18.207 11.6351 18.5028 11.9996 18.5028C12.3641 18.5028 12.6599 18.207 12.6599 17.8425ZM18.0189 14.6735C18.0189 13.5318 17.0901 12.6029 15.9484 12.6029C14.8066 12.6029 13.8778 13.5318 13.8778 14.6735H14.4991C14.4991 13.8746 15.1494 13.2242 15.9484 13.2242C16.7479 13.2242 17.3983 13.8746 17.3983 14.6735H18.0189ZM20.6793 2.83786H3.3206C2.94435 6.19746 2.79645 10.5645 2.87752 14.7175H13.2218C13.2843 13.9619 13.3846 13.2242 13.5306 12.5082C13.5306 12.5082 14.8939 11.7743 15.3103 11.5565C15.5294 11.442 15.5925 11.3442 15.5993 11.0849C15.2565 10.8708 14.9935 10.3516 14.9935 9.70682C14.9935 9.01065 15.3085 8.57747 15.9471 8.57747H15.9477H15.9484C15.9496 8.57747 15.9502 8.57809 15.9514 8.57809C16.2361 8.57809 16.527 8.61336 16.7714 8.68514C16.858 8.99765 16.9038 9.35162 16.9038 9.70682C16.9038 10.3541 16.6439 10.8739 16.298 11.0874C16.3048 11.3449 16.3685 11.4426 16.587 11.5565C17.0028 11.7743 18.3661 12.5082 18.3661 12.5082C18.5121 13.2242 18.6124 13.9619 18.6755 14.7175H21.1224C21.2034 10.5645 21.0555 6.19746 20.6793 2.83786Z" fill="currentColor"/>
</svg>
