<svg width="24" height="24" viewBox="0 0 24 24" fill="none" xmlns="http://www.w3.org/2000/svg">
<path fill-rule="evenodd" clip-rule="evenodd" d="M23.7582 4.40039V19.3217C23.7582 19.4389 23.6633 19.5338 23.5467 19.5338H23.0048C22.8859 19.5338 22.7904 19.4361 22.7932 19.3178C22.8139 18.4817 22.8892 15.4197 22.9484 13.5851C22.2686 13.4595 21.8181 12.9209 21.8181 11.9593V11.4586C21.8181 9.30141 22.4522 6.691 23.6416 4.40039H23.7582ZM20.0717 12.1608C20.0717 16.4473 16.5973 19.9217 12.3114 19.9217C8.02541 19.9217 4.55043 16.4473 4.55043 12.1608C4.55043 7.8748 8.02541 4.40039 12.3114 4.40039C16.5973 4.40039 20.0717 7.8748 20.0717 12.1608ZM17.4875 11.1316C17.3865 10.6231 17.2157 10.1286 16.9757 9.66756C16.7274 9.211 16.4193 8.78849 16.0576 8.41454C15.6831 8.05398 15.2611 7.74475 14.8046 7.49693C14.3435 7.25749 13.849 7.08504 13.3406 6.98625C12.8288 6.89862 12.3097 6.88633 11.7973 6.93713C11.286 7.00299 10.7848 7.13583 10.3166 7.34514C9.85275 7.56281 9.41683 7.83407 9.03507 8.16896C8.66055 8.51221 8.33517 8.90122 8.07006 9.32652C7.81722 9.7602 7.62744 10.2251 7.508 10.704C7.3947 11.1857 7.36847 11.6791 7.39749 12.1608H7.52418C7.5599 11.9269 7.57331 11.693 7.63861 11.4675C7.66875 11.3548 7.68103 11.2393 7.72345 11.1304L7.83228 10.8022C8.00307 10.3741 8.21572 9.96893 8.48754 9.60614C8.7627 9.24725 9.08029 8.92635 9.43415 8.65454C9.79527 8.39277 10.1832 8.1751 10.5939 8.01491C11.0081 7.86198 11.4407 7.77712 11.8743 7.73247C12.3113 7.70679 12.7495 7.73417 13.1748 7.82291C13.5962 7.92449 14.0086 8.06403 14.3904 8.27054C14.7677 8.48319 15.1154 8.74437 15.4246 9.048C15.7272 9.35721 15.9889 9.70439 16.2016 10.0822C16.4075 10.4635 16.5482 10.8759 16.6487 11.2979C16.7374 11.7226 16.7647 12.1608 16.7391 12.5978C16.7285 12.7061 16.7112 12.8143 16.6978 12.9226C16.69 12.9768 16.6866 13.032 16.6743 13.085L16.6369 13.2447C16.6101 13.3507 16.5979 13.4618 16.5588 13.5645L16.4566 13.8776C16.2965 14.2884 16.0794 14.6768 15.8165 15.0374C15.5452 15.3913 15.2248 15.7088 14.8654 15.984C14.5032 16.2553 14.098 16.4685 13.6699 16.6393L13.3417 16.7486C13.2328 16.7911 13.1173 16.8034 13.0046 16.8335C12.7791 16.8983 12.5452 16.9122 12.3114 16.9479V17.0746C12.7936 17.1042 13.2864 17.078 13.7687 16.9647C14.2475 16.8452 14.7125 16.656 15.1461 16.4032C15.5714 16.1375 15.961 15.8121 16.3043 15.4382C16.6386 15.0558 16.911 14.6199 17.1281 14.1561C17.3379 13.6884 17.4697 13.1866 17.5361 12.6754C17.5869 12.1624 17.5746 11.6434 17.4875 11.1316ZM2.9547 4.51928C2.86261 4.56505 2.80456 4.65937 2.80456 4.76207V8.22421H2.26093L2.12978 4.70624C2.12754 4.64372 2.07619 4.59464 2.01312 4.59464H1.93163H1.84958C1.78707 4.59464 1.73572 4.64372 1.73348 4.70624L1.60177 8.22421H1.0587V4.76207C1.0587 4.65937 1.0001 4.56505 0.90801 4.51928L0.670228 4.40039C0.605484 5.30067 0.476562 7.02868 0.476562 8.22421C0.476562 9.18533 0.926425 9.72337 1.60512 9.84951L1.44995 19.3183C1.44828 19.4367 1.54316 19.5338 1.66148 19.5338H2.20121C2.31954 19.5338 2.41498 19.4367 2.41331 19.3183L2.25759 9.85005C2.94634 9.7228 3.3867 9.17584 3.3867 8.22421C3.3867 7.02868 3.25777 5.30067 3.19247 4.40039L2.9547 4.51928Z" fill="currentColor"/>
</svg>
