<svg width="24" height="24" viewBox="0 0 24 24" fill="none" xmlns="http://www.w3.org/2000/svg">
<path d="M4 10.9139H20V19.1898C20 19.4932 19.7518 19.7414 19.4483 19.7414H4.55177C4.24831 19.7414 4.0001 19.4932 4.0001 19.1898L4 10.9139ZM20 6.5V9.8103H4V6.5C4 6.19655 4.24823 5.94833 4.55167 5.94833H7.31029V4.84498C7.31029 4.54152 7.55853 4.2933 7.86197 4.2933H9.79295C10.0964 4.2933 10.3446 4.54154 10.3446 4.84498V5.94833H13.6549V4.84498C13.6549 4.54152 13.9032 4.2933 14.2066 4.2933H16.1376C16.441 4.2933 16.6893 4.54154 16.6893 4.84498V5.94833H19.4479C19.7515 5.94833 19.9998 6.19656 19.9998 6.5H20ZM14.7586 7.60335H15.5863V5.39641H14.7586V7.60335ZM8.41379 7.60335H9.24143V5.39641H8.41379V7.60335Z" fill="currentColor"/>
</svg>
