<svg width="24" height="24" viewBox="0 0 24 24" fill="none" xmlns="http://www.w3.org/2000/svg">
<path d="M19.341 20C10.3904 20.0126 3.59737 13.1654 3.60694 4.32811C3.60694 3.75099 4.07665 3.28052 4.65606 3.28052H7.42504C7.94495 3.28052 8.38662 3.66102 8.46296 4.17326C8.64594 5.40096 9.0048 6.59616 9.52863 7.72236L9.63645 7.95413C9.78634 8.27641 9.68474 8.65931 9.39455 8.86573C8.53703 9.47569 8.20931 10.7035 8.87736 11.6616C9.71569 12.8637 10.7725 13.9161 11.9792 14.7507C12.9409 15.4159 14.1734 15.0896 14.7858 14.2355C14.9932 13.9464 15.3778 13.8451 15.7015 13.9945L15.9332 14.1014C17.0639 14.6231 18.2639 14.9806 19.4966 15.1628C20.0109 15.2388 20.3927 15.6787 20.3927 16.1966V18.955C20.3927 19.5321 19.9219 20 19.3425 20H19.341Z" fill="currentColor"/>
</svg>
