<svg width="24" height="24" viewBox="0 0 24 24" fill="none" xmlns="http://www.w3.org/2000/svg">
<path d="M12 10.6429C10.482 10.6429 9.25 11.8589 9.25 13.3571C9.25 14.8554 10.482 16.0714 12 16.0714C13.518 16.0714 14.75 14.8554 14.75 13.3571C14.75 11.8589 13.518 10.6429 12 10.6429ZM21.625 5.21429H18.1834L17.5 3.54636C17.1343 2.74429 16.7052 2.5 16.125 2.5H7.875C7.29475 2.5 6.86575 2.74429 6.5 3.54636L5.81663 5.21429H2.375C1.61875 5.21429 1 5.825 1 6.57143V20.1429C1 20.8893 1.61875 21.5 2.375 21.5H21.625C22.3813 21.5 23 20.8893 23 20.1429V6.57143C23 5.825 22.3813 5.21429 21.625 5.21429ZM12 18.7857C8.96263 18.7857 6.5 16.3551 6.5 13.3571C6.5 10.3592 8.96263 7.92857 12 7.92857C15.0374 7.92857 17.5 10.3592 17.5 13.3571C17.5 16.3551 15.0374 18.7857 12 18.7857Z" fill="currentColor"/>
</svg>
