<svg width="24" height="24" viewBox="0 0 24 24" fill="none" xmlns="http://www.w3.org/2000/svg">
<path fill-rule="evenodd" clip-rule="evenodd" d="M0.470594 10.5513C0.469739 10.5556 0.468885 10.559 0.468031 10.5633C3.79813 11.2638 8.46265 11.7465 12.0003 11.7465C15.5372 11.7465 20.2017 11.2638 23.5318 10.5633C23.5309 10.559 23.5301 10.5556 23.5292 10.5513L21.4464 8.40701C21.3277 8.28485 21.2209 8.15072 21.1269 8.0089H21.9735C22.2392 8.0089 22.4554 7.79277 22.4554 7.52708V6.8385C22.4554 6.57281 22.2392 6.35667 21.9735 6.35667H20.3666L19.1859 3.6152C19.033 3.26066 18.7075 3.01205 18.3248 2.95909C16.4325 2.69767 14.2258 2.5849 12.0003 2.5849C9.77402 2.5849 7.56734 2.69767 5.67504 2.95909C5.29317 3.01205 4.96682 3.26066 4.8139 3.6152L3.63324 6.35667H2.02714C1.7606 6.35667 1.54531 6.57281 1.54531 6.8385V7.52708C1.54531 7.79277 1.7606 8.0089 2.02714 8.0089H2.87376C2.77894 8.15072 2.67215 8.28485 2.5534 8.40701L0.470594 10.5513ZM5.32905 4.25593C5.40508 4.07652 5.56825 3.95179 5.76047 3.92446C7.45969 3.68098 9.8697 3.58871 12.0003 3.58871C14.1301 3.58871 16.5401 3.68098 18.2394 3.92446C18.4316 3.95179 18.5956 4.07652 18.6708 4.25593L20.2521 8.0089H12.0003H3.74772L5.32905 4.25593ZM23.859 12.4804C24.1623 15.1279 23.9786 18.2914 23.2858 21.1721H20.7331C20.4324 21.1721 20.1667 20.9773 20.0761 20.6903L19.6772 19.4216L20.7784 18.9124V18.7057C18.3547 18.0598 15.1775 17.7369 12.0003 17.7369C8.82317 17.7369 5.646 18.0598 3.22147 18.7057V18.9124L4.32353 19.4216L3.92371 20.6903C3.83401 20.9773 3.56832 21.1721 3.2676 21.1721H0.714072C0.0220817 18.2914 -0.162449 15.1279 0.140831 12.4804C1.25485 12.7119 2.50812 12.9203 3.81692 13.0955C4.14241 13.139 4.47132 13.0374 4.71309 12.8144L5.67931 11.9251L6.77625 13.133C6.96334 13.3389 7.2222 13.4679 7.49985 13.4901C9.07605 13.6174 10.6215 13.6901 12.0003 13.6901C13.3783 13.6901 14.9238 13.6174 16.5 13.4901C16.7776 13.4679 17.0365 13.3389 17.2236 13.133L18.3205 11.9251L19.2867 12.8144C19.5294 13.0374 19.8574 13.139 20.1838 13.0955C21.4926 12.9203 22.7458 12.7119 23.859 12.4804Z" fill="currentColor"/>
</svg>
