<svg width="24" height="24" viewBox="0 0 24 24" fill="none" xmlns="http://www.w3.org/2000/svg">
<path fill-rule="evenodd" clip-rule="evenodd" d="M20.3096 2.08301C20.1982 1.97207 20.018 1.97246 19.907 2.08387L18.9697 3.02528C18.8588 3.13669 18.8591 3.31693 18.9706 3.42786L20.476 4.92686H9.77381C9.61658 4.92686 9.48913 5.05431 9.48913 5.21153V6.54001C9.48913 6.69723 9.61658 6.82468 9.77381 6.82468H20.476L18.9706 8.32368C18.8591 8.43461 18.8588 8.61485 18.9697 8.72627L19.907 9.66767C20.018 9.77908 20.1982 9.77947 20.3096 9.66854L23.9162 6.0775C24.0279 5.96623 24.0279 5.78531 23.9162 5.67404L20.3096 2.08301ZM0.284674 6.35022H3.55675C4.55171 6.35022 5.47446 6.86967 5.99056 7.72031L11.5007 16.8021C12.3609 18.2199 13.8988 19.0856 15.5571 19.0856H20.5508L18.8353 20.8764L20.2057 22.1893L23.8993 18.3336C24.0048 18.2235 24.0048 18.0499 23.8993 17.9398L20.2057 14.0842L18.8353 15.397L20.5508 17.1878H15.5571C14.5621 17.1878 13.6394 16.6683 13.1233 15.8177L7.6131 6.73587C6.75294 5.31815 5.21501 4.45239 3.55675 4.45239H0.284674C0.127453 4.45239 0 4.57984 0 4.73706V6.06554C0 6.22276 0.127453 6.35022 0.284674 6.35022Z" fill="currentColor"/>
</svg>
