<svg width="24" height="24" viewBox="0 0 24 24" fill="none" xmlns="http://www.w3.org/2000/svg">
<path fill-rule="evenodd" clip-rule="evenodd" d="M15.7211 3.99284C15.947 3.87006 16.0256 3.7115 16.034 3.3614C15.5113 3.2772 15.129 3.0597 14.8104 2.69066C14.9264 2.41063 14.9867 2.08245 15.0472 1.75342C15.2078 0.879703 15.3695 0 16.5764 0C17.7837 0 17.9452 0.879608 18.1057 1.75328C18.1661 2.08236 18.2264 2.41059 18.3423 2.69066C18.0238 3.0597 17.6414 3.2772 17.1187 3.3614C17.1271 3.7115 17.2057 3.87006 17.4316 3.99284C17.4429 3.99872 17.4554 4.00548 17.4681 4.01236L17.4892 4.02371C17.2162 4.26366 16.8767 4.39697 16.5764 4.39697C16.2761 4.39697 15.9365 4.26366 15.6636 4.02371L15.6846 4.01237C15.6973 4.00549 15.7098 3.99873 15.7211 3.99284ZM11.0531 24H1V22.5582H11.0527V12.3558C11.0527 12.1067 11.2435 11.8983 11.4912 11.8773L22.1058 10.9539V23.9996L11.0531 24ZM6.8624 12.5804C6.8624 12.2331 6.79434 12.0963 6.40004 12.0409C6.15308 12.0058 5.80718 11.9855 5.52584 11.9855C5.2452 11.9855 4.8986 12.0058 4.65234 12.0409C4.25804 12.0963 4.18998 12.2331 4.18998 12.5804H5.52584H6.8624ZM19.2559 4.96388C19.6025 6.20432 19.8249 7.63069 19.9112 9.03179H23.067V10.4736H10.0915V9.03179H13.2473C13.3336 7.63069 13.556 6.20432 13.9019 4.96388C14.182 4.81326 14.5289 4.6287 14.8533 4.45608C15.1 4.32483 15.3341 4.20027 15.5156 4.10301L16.3056 9.03179H16.5764H16.8473L17.6366 4.10301C17.7995 4.19018 18.0043 4.29912 18.2227 4.41528L18.2245 4.41624C18.5698 4.59993 18.9489 4.80161 19.2503 4.96388H19.2559ZM14.5691 6.90873C14.3944 7.49317 14.2436 8.25441 14.1349 9.03179H14.8526C14.861 8.26915 14.8175 7.5507 14.7137 6.90873H14.5691ZM18.4392 6.36429H17.7187V6.02822H18.4392V6.36429ZM18.4392 6.90873C18.3354 7.5507 18.2919 8.26915 18.3003 9.03179H19.0236C18.9149 8.25441 18.7641 7.49317 18.5887 6.90873L18.5873 6.90467L18.5858 6.90102L18.583 6.90873H18.4392ZM13.2936 17.5631C13.3841 17.4943 13.4999 17.4698 13.6108 17.4943L14.8119 17.7651C15.3058 17.2845 15.825 16.8467 16.3154 16.477C16.3154 16.477 16.3309 16.4658 16.3589 16.444L13.4276 14.6451L13.5967 14.5167C13.6872 14.4479 13.803 14.4227 13.9138 14.4472L17.8351 15.3313C18.1018 15.1303 18.3603 14.9352 18.5688 14.7778L18.575 14.7731L18.7093 14.6718C19.0643 14.4044 19.3436 14.2697 19.7323 14.2389C19.9862 14.2192 20.0487 14.2438 20.0964 14.3069C20.1441 14.3694 20.1504 14.4367 20.0613 14.6753C19.9252 15.0408 19.7182 15.2723 19.3639 15.5396C19.2407 15.6323 19.0907 15.7456 18.9264 15.8696L18.9239 15.8715C18.7867 15.9751 18.6396 16.0862 18.4897 16.1992L18.261 20.2123C18.2547 20.3253 18.1986 20.4298 18.1073 20.4979L17.9369 20.6256L17.0135 17.3119C16.9855 17.3337 16.97 17.3449 16.97 17.3449C16.4726 17.7202 15.9001 18.1054 15.2925 18.4513L15.2251 19.6356C15.2181 19.7486 15.1627 19.8531 15.0722 19.9212L14.9017 20.0489L14.5642 18.8372C14.4323 18.9024 14.2997 18.9642 14.1664 19.0238L14.0486 18.8674L13.9307 18.7109C14.0268 18.5951 14.1271 18.4815 14.2289 18.3692L13.1238 17.6915L13.2936 17.5631ZM6.45921 15.1376C6.78335 15.078 6.85562 14.9468 6.86123 14.6479C7.3706 14.7033 7.84979 14.791 8.25813 14.9131C8.53176 17.0249 8.53176 20.446 8.25813 22.5578H7.8526C7.75087 22.5578 7.66176 22.4925 7.63089 22.3964L7.52144 22.0569L7.92066 21.9572V21.8134C7.25974 21.5475 6.39326 21.4142 5.52607 21.4142C4.65959 21.4142 3.79311 21.5475 3.13149 21.8134V21.9572L3.53071 22.0569L3.42196 22.3964C3.39109 22.4925 3.30128 22.5578 3.20025 22.5578H2.79402C2.52039 20.446 2.52039 17.0249 2.79402 14.9131C3.20235 14.791 3.68155 14.7033 4.19092 14.6479C4.19653 14.9468 4.2688 15.078 4.59294 15.1376V13.2685C4.59294 13.185 4.65468 13.1142 4.73677 13.1023L4.95356 13.0707V15.1797C5.143 15.1944 5.34716 15.2036 5.52607 15.2036C5.70569 15.2036 5.90915 15.1944 6.09929 15.1797V13.0496C6.09929 12.9654 6.16033 12.8946 6.24312 12.8826L6.45921 12.8511V15.1376Z" fill="currentColor"/>
</svg>
