<svg width="24" height="24" viewBox="0 0 24 24" fill="none" xmlns="http://www.w3.org/2000/svg">
<path fill-rule="evenodd" clip-rule="evenodd" d="M16.034 3.3614C16.0256 3.7115 15.947 3.87006 15.7211 3.99284C15.7098 3.99873 15.6973 4.00549 15.6846 4.01237L15.6636 4.02371C15.9365 4.26366 16.2761 4.39697 16.5764 4.39697C16.8767 4.39697 17.2162 4.26366 17.4892 4.02371L17.4681 4.01236C17.4554 4.00548 17.4429 3.99872 17.4316 3.99284C17.2057 3.87006 17.1271 3.7115 17.1187 3.3614C17.6414 3.2772 18.0238 3.0597 18.3423 2.69066C18.2264 2.4106 18.1661 2.08237 18.1057 1.75331L18.1057 1.75328C17.9452 0.879608 17.7837 0 16.5764 0C15.3695 0 15.2078 0.879703 15.0472 1.75342C14.9867 2.08245 14.9264 2.41063 14.8104 2.69066C15.129 3.0597 15.5113 3.2772 16.034 3.3614ZM1 24H11.0531L22.1058 23.9996V10.9539L11.4912 11.8773C11.2435 11.8983 11.0527 12.1067 11.0527 12.3558V22.5582H1V24ZM6.40004 12.0409C6.79434 12.0963 6.8624 12.2331 6.8624 12.5804H5.52584H4.18998C4.18998 12.2331 4.25804 12.0963 4.65234 12.0409C4.8986 12.0058 5.2452 11.9855 5.52584 11.9855C5.80718 11.9855 6.15308 12.0058 6.40004 12.0409ZM19.9112 9.03179C19.8249 7.63069 19.6025 6.20432 19.2559 4.96388H19.2503C18.949 4.80167 18.5701 4.6001 18.2249 4.41647L18.2245 4.41624L18.2227 4.41528L18.2222 4.41502C18.004 4.29895 17.7994 4.19012 17.6366 4.10301L16.8473 9.03179H16.5764H16.3056L15.5156 4.10301C15.3341 4.20027 15.1 4.32483 14.8533 4.45608C14.5289 4.6287 14.182 4.81326 13.9019 4.96388C13.556 6.20432 13.3336 7.63069 13.2473 9.03179H10.0915V10.4736H23.067V9.03179H19.9112ZM14.1349 9.03179C14.2436 8.25441 14.3944 7.49317 14.5691 6.90873H14.7137C14.8175 7.5507 14.861 8.26915 14.8526 9.03179H14.1349ZM17.7187 6.36429H18.4392V6.02822H17.7187V6.36429ZM18.3003 9.03179C18.2919 8.26915 18.3354 7.5507 18.4392 6.90873H18.583L18.5858 6.90102L18.5873 6.90467L18.5887 6.90873C18.7641 7.49317 18.9149 8.25441 19.0236 9.03179H18.3003ZM13.6108 17.4943C13.4999 17.4698 13.3841 17.4943 13.2936 17.5631L13.1238 17.6915L14.2289 18.3692C14.1271 18.4815 14.0268 18.5951 13.9307 18.7109L14.0486 18.8674L14.1664 19.0238C14.2997 18.9642 14.4323 18.9024 14.5642 18.8372L14.9017 20.0489L15.0722 19.9212C15.1627 19.8531 15.2181 19.7486 15.2251 19.6356L15.2925 18.4513C15.9001 18.1054 16.4726 17.7202 16.97 17.3449C16.97 17.3449 16.9855 17.3337 17.0135 17.3119L17.9369 20.6256L18.1073 20.4979C18.1986 20.4298 18.2547 20.3253 18.261 20.2123L18.4897 16.1992C18.638 16.0874 18.7836 15.9775 18.9196 15.8748L18.9239 15.8715L18.9264 15.8696C19.0907 15.7456 19.2407 15.6323 19.3639 15.5396C19.7182 15.2723 19.9252 15.0408 20.0613 14.6753C20.1504 14.4367 20.1441 14.3694 20.0964 14.3069C20.0487 14.2438 19.9862 14.2192 19.7323 14.2389C19.3436 14.2697 19.0643 14.4044 18.7093 14.6718L18.575 14.7731L18.5688 14.7778C18.3603 14.9352 18.1018 15.1303 17.8351 15.3313L13.9138 14.4472C13.803 14.4227 13.6872 14.4479 13.5967 14.5167L13.4276 14.6451L16.3589 16.444C16.3309 16.4658 16.3154 16.477 16.3154 16.477C15.825 16.8467 15.3058 17.2845 14.8119 17.7651L13.6108 17.4943ZM6.86123 14.6479C6.85562 14.9468 6.78335 15.078 6.45921 15.1376V12.8511L6.24312 12.8826C6.16033 12.8946 6.09929 12.9654 6.09929 13.0496V15.1797C5.90915 15.1944 5.70569 15.2036 5.52607 15.2036C5.34716 15.2036 5.143 15.1944 4.95356 15.1797V13.0707L4.73677 13.1023C4.65468 13.1142 4.59294 13.185 4.59294 13.2685V15.1376C4.2688 15.078 4.19653 14.9468 4.19092 14.6479C3.68155 14.7033 3.20235 14.791 2.79402 14.9131C2.52039 17.0249 2.52039 20.446 2.79402 22.5578H3.20025C3.30128 22.5578 3.39109 22.4925 3.42196 22.3964L3.53071 22.0569L3.13149 21.9572V21.8134C3.79311 21.5475 4.65959 21.4142 5.52607 21.4142C6.39326 21.4142 7.25974 21.5475 7.92066 21.8134V21.9572L7.52144 22.0569L7.63089 22.3964C7.66176 22.4925 7.75087 22.5578 7.8526 22.5578H8.25813C8.53176 20.446 8.53176 17.0249 8.25813 14.9131C7.84979 14.791 7.3706 14.7033 6.86123 14.6479ZM4.99966 9C7.2089 9 9 7.20905 9 5C9 2.79094 7.2089 1 4.99966 1C2.79111 1 1 2.79094 1 5C1 7.20905 2.79111 9 4.99966 9ZM6.84995 3.78768C7.0113 3.94904 7.0113 4.21064 6.84995 4.37199L4.58175 6.64019L3.03212 5.09055C2.87077 4.9292 2.87077 4.66759 3.03212 4.50624C3.19347 4.34489 3.45508 4.34489 3.61643 4.50624L4.58175 5.47156L6.26564 3.78768C6.42699 3.62633 6.68859 3.62633 6.84995 3.78768Z" fill="currentColor"/>
</svg>
