<svg width="135px" height="45px" viewBox="0 0 135 45" enable-background="new 0 0 135 45" fill="none" xmlns="http://www.w3.org/2000/svg">
<path fill-rule="evenodd" clip-rule="evenodd" d="M19.9,0.1c-3.3,0.3-6.8,1.6-9.7,3.5C3.4,8-0.6,16,0.1,24
	c0.9,10.8,9,19.3,19.7,20.6c1.2,0.1,3.9,0.1,5.1,0c10.2-1.3,18.1-9.1,19.6-19.3c0.2-1.5,0.2-4.7,0-6.2c-1-6.5-4.6-12-10-15.6
	C30.1,0.8,24.9-0.4,19.9,0.1z M25.2,0.4C33.9,1.5,41.3,8,43.6,16.6c0.6,2.2,0.7,3.2,0.7,5.8s-0.1,3.6-0.7,5.8
	c-1.6,6.2-6,11.5-11.8,14.2c-3.1,1.5-6,2.2-9.5,2.2c-3.5,0-6.3-0.6-9.3-2.1c-2.4-1.1-4.4-2.5-6.2-4.4c-2.8-2.8-4.7-6-5.7-9.8
	c-0.6-2.3-0.8-3.4-0.8-6c0-2.5,0.1-3.5,0.7-5.6C3.2,8.1,10.5,1.6,19.3,0.4C20.8,0.2,23.6,0.2,25.2,0.4z M19.9,2.4
	C15,3,10.3,5.5,7,9.3c-2.2,2.6-3.8,5.8-4.4,9.2C2.3,20,2.2,23.4,2.4,25c0.2,1.4,0.8,3.7,1.3,4.9c2.3,5.8,7.2,10.2,13,11.9
	c4.9,1.4,10.1,0.9,14.6-1.4c9.7-4.9,13.7-16.8,9-26.6c-1-2.1-2-3.6-3.7-5.3C33.3,5,29.2,3,24.5,2.4C23.4,2.3,21,2.3,19.9,2.4z
	 M60.5,14.8v4.9H61h0.5l0-2.2c0-2.5,0.1-2.8,0.8-3.3c0.4-0.3,1.3-0.4,1.7-0.2c0.7,0.3,0.7,0.6,0.8,3.3l0,2.4h0.5H66l0-2.7
	c0-2.9-0.1-3-0.7-3.6c-0.6-0.5-1.8-0.6-2.6-0.2c-0.2,0.1-0.4,0.3-0.6,0.5c-0.2,0.2-0.4,0.3-0.4,0.3c0,0-0.1-0.9-0.1-2v-2H61h-0.5
	V14.8z M122.9,11.9v2l-0.4-0.3c-0.5-0.4-0.7-0.5-1.3-0.6c-1.1-0.2-2.3,0.4-2.8,1.4c-0.6,1-0.7,2.6-0.3,3.7c0.2,0.7,0.7,1.2,1.3,1.5
	c1,0.5,2.2,0.3,3-0.4c0.2-0.2,0.5-0.4,0.5-0.4s0,0.2,0,0.5v0.5h0.5h0.6v-4.9V9.9h-0.6h-0.5V11.9z M126.2,14.8v4.9h0.5h0.5v-4.9V9.9
	h-0.5h-0.5V14.8z M68.1,10.2c-0.3,0.3-0.3,0.6,0,0.9c0.2,0.3,0.8,0.3,1.1,0.1c0.2-0.2,0.2-0.8,0-1C68.8,9.9,68.3,9.9,68.1,10.2z
	 M100.5,10.2c-0.6,0.6,0.2,1.5,0.9,1c0.4-0.3,0.4-0.6,0.2-1C101.4,9.9,100.8,9.9,100.5,10.2z M55.5,10.3c-1.2,0.3-2.6,1.2-3.1,2.3
	c-0.8,1.5-0.7,3.8,0.1,5.2c0.7,1.2,1.9,1.9,3.4,2c1,0.1,2.1-0.1,2.6-0.4c0.3-0.1,0.3-0.2,0.3-0.7c0-0.6,0.1-0.5-0.9-0.2
	c-0.7,0.2-2.2,0.3-2.8,0c-1-0.4-1.6-1.1-1.9-2.3c-0.5-1.9,0.3-3.8,1.8-4.6c0.8-0.4,2.5-0.4,3.7,0.1c0.1,0,0.1-0.1,0.1-0.5v-0.6
	l-0.5-0.1C57.7,10.3,56.1,10.2,55.5,10.3z M89.4,15l0,4.6l0.6,0l0.6,0v-2v-2h1.6h1.6V15v-0.5h-1.6h-1.6v-1.5v-1.5h1.8h1.8v-0.5v-0.5
	h-2.4h-2.4L89.4,15z M28.8,14.8c1.5,1,2.7,1.9,2.7,2c0,0.1-0.8,0.7-1.8,1.4L28,19.3l-0.7-0.5c-0.4-0.3-0.7-0.5-0.7-0.6
	c0,0,0.4-0.4,0.9-0.7c0.5-0.4,1-0.7,1-0.7c0,0-0.5-0.4-1.2-0.9L26.1,15l-2.9,2.1c-1.6,1.1-3,2.1-3.1,2.2c-0.1,0.1-1.6-0.9-1.6-1
	c0,0,0.4-0.3,0.9-0.7c0.5-0.3,0.9-0.7,1-0.7c0.1-0.1-0.2-0.3-1-0.9c-0.6-0.4-1.1-0.8-1.2-0.8c-0.1-0.1-2.3,1.4-2.4,1.6
	c0,0.1,1.3,1,2.9,2.2c1.6,1.1,2.9,2.1,2.9,2.2c0,0.1-0.3,0.3-0.7,0.6l-0.7,0.5l-3.8-2.7c-2.1-1.5-3.8-2.7-3.8-2.8
	c0-0.2,5.2-3.8,5.4-3.8c0.1,0,1,0.6,2.1,1.3l1.9,1.4l2-1.4c1.1-0.8,2-1.4,2-1.4C26.2,12.9,27.4,13.7,28.8,14.8z M74,12.9
	c-0.5,0.1-1,0.4-1.2,0.7c-0.3,0.4-0.4,0.4-0.4-0.2v-0.4h-0.6h-0.6l0,3.3l0,3.3h0.5h0.5l0.1-2.3c0.1-2.1,0.1-2.3,0.3-2.6
	c0.8-1.1,2.2-1.1,2.8,0c0.2,0.3,0.2,0.7,0.2,2.7l0,2.3h0.5h0.5v-2.3c0-2.7-0.1-3.3-0.7-3.9C75.6,12.9,74.7,12.7,74,12.9z M80.2,13
	c-0.3,0.1-0.7,0.2-0.9,0.3c-0.3,0.2-0.4,0.2-0.4,0.7c0,0.3,0,0.5,0,0.5c0,0,0.3-0.1,0.6-0.3c0.6-0.3,1.6-0.5,2.1-0.3
	c0.2,0,0.4,0.2,0.5,0.4c0.2,0.4,0.3,1.2,0.1,1.2c-0.5,0-2.6,0.4-2.9,0.6c-0.8,0.4-1.2,1.1-1.1,2.2c0.1,0.6,0.3,1,1,1.3
	c0.9,0.5,2.1,0.2,2.8-0.5c0.2-0.2,0.3-0.3,0.4-0.3c0,0,0.1,0.2,0.1,0.5v0.5h0.5h0.5v-2.4c0-2.7-0.1-3.2-0.7-3.8
	C82.4,12.9,81.4,12.7,80.2,13z M105.7,12.9c-0.8,0.2-1.5,0.7-1.9,1.6c-0.3,0.6-0.4,0.8-0.4,1.6c-0.1,1.6,0.5,2.7,1.6,3.3
	c0.7,0.4,2.4,0.4,3.2,0c0.5-0.2,0.5-0.3,0.5-0.7c0-0.5,0.1-0.5-1-0.1c-0.3,0.1-0.8,0.2-1,0.2c-0.5,0-1.2-0.2-1.4-0.5
	c-0.3-0.3-0.6-1-0.6-1.4v-0.4h2.3h2.3l0-0.5c0-1.2-0.5-2.3-1.4-2.8C107.3,12.9,106.3,12.8,105.7,12.9z M113.4,12.9
	c-0.5,0.1-1,0.4-1.2,0.7c-0.3,0.4-0.3,0.4-0.3-0.2v-0.4h-0.6h-0.6l0,3.3l0,3.3l0.6,0l0.6,0l0-2.3l0-2.3l0.3-0.4c0.8-1,2.1-1,2.7,0.1
	c0.2,0.3,0.2,0.7,0.2,2.7l0,2.3h0.5h0.5v-2.3c0-2.7-0.1-3.3-0.7-3.9C115.1,12.9,114.2,12.7,113.4,12.9z M97.9,13.2
	c-0.2,0.1-0.5,0.4-0.6,0.6L97,14.2l0-0.6l0-0.6h-0.6h-0.6l0,3.3l0,3.3l0.6,0l0.6,0l0-2.2c0-2,0.1-2.2,0.3-2.6c0.3-0.7,0.9-1,1.5-0.9
	l0.5,0.1v-0.5v-0.5l-0.5,0C98.4,12.9,98.1,13,97.9,13.2z M68,16.3l0,3.3l0.6,0l0.6,0v-3.3v-3.3h-0.6H68L68,16.3z M100.5,16.3v3.3
	h0.5h0.5v-3.3v-3.3H101h-0.5V16.3z M128.5,13.2c0,0.1,0.6,1.6,1.3,3.3l1.2,3.2l-0.4,0.8c-0.4,1-0.7,1.3-1.4,1.3h-0.5v0.5v0.5h0.6
	c0.3,0,0.7-0.1,0.9-0.1c0.5-0.2,1-0.8,1.3-1.4c0.3-0.6,3.1-7.8,3.1-8c0-0.1-0.2-0.1-0.5-0.1h-0.5l-0.9,2.6c-0.5,1.4-1,2.6-1,2.6
	c-0.1,0-0.5-1.2-1-2.6l-0.9-2.5l-0.6,0C128.6,13.1,128.5,13.1,128.5,13.2z M107.2,14c0.4,0.2,0.7,0.8,0.7,1.3v0.3h-1.7h-1.7l0.1-0.3
	c0.1-0.5,0.5-1.1,0.9-1.3C105.9,13.8,106.8,13.8,107.2,14z M122.1,14.1c0.6,0.4,0.7,0.8,0.7,2c0,1.3-0.1,1.5-0.6,2.1
	c-0.7,0.8-1.9,0.8-2.6,0.1c-0.4-0.5-0.6-1-0.6-2c0-1.2,0.5-2,1.3-2.4C120.7,13.7,121.7,13.9,122.1,14.1z M82.5,17
	c-0.1,0.8-0.3,1.1-0.7,1.5c-0.6,0.5-1.6,0.5-2-0.1c-0.3-0.3-0.3-1.1,0.1-1.5c0.2-0.3,0.4-0.3,1.6-0.5c0.1,0,0.4,0,0.7-0.1l0.5,0
	L82.5,17z M26.9,19c1.6,1.1,2.8,2,2.8,2.1c0,0.1-1.3,1-1.5,1c-0.2,0-5.7-3.9-5.8-4c0-0.1,1.3-1,1.4-1C24,17,25.3,17.9,26.9,19z
	 M12,19.8c0.9,0.6,1.7,1.2,1.7,1.3c0,0.2-1.2,1-1.4,1c-0.1,0-0.6-0.3-1.1-0.7c-0.5-0.4-1-0.7-1-0.7c-0.1,0-2.4,1.6-2.4,1.7
	c0,0.1,2.3,1.7,2.5,1.6c0.1,0,1.4-0.9,3-2c1.5-1.1,2.9-2,3-2.1c0.2-0.1,1.6,0.8,1.6,1c0,0.1-7.5,5.4-7.6,5.3
	c-0.3-0.1-5.4-3.8-5.4-3.9c0.1-0.2,5.3-3.8,5.5-3.8C10.3,18.6,11.1,19.2,12,19.8z M36.8,20.4c1.4,1,2.6,1.9,2.6,2
	c0,0.2-5.2,3.9-5.4,3.8c-0.2-0.1-3.5-2.4-3.5-2.5c0-0.2,1.4-1.1,1.6-1c0.1,0,0.5,0.4,1,0.7c0.5,0.4,1,0.6,1.1,0.6
	c0.3-0.1,2.2-1.5,2.2-1.6c0,0-0.5-0.5-1.2-0.9l-1.2-0.8L33.6,21c-1.7,1.2-5.4,3.8-5.5,3.9c-0.2,0.1-1.5-0.8-1.5-1
	c0-0.1,7.3-5.3,7.5-5.3C34.1,18.5,35.4,19.4,36.8,20.4z M25.1,20.3c0.4,0.3,0.7,0.5,0.7,0.5c0,0.1-5.5,4-5.7,4
	c-0.2,0.1-1.4-0.9-1.4-1c0-0.2,5.3-4,5.6-4C24.3,19.9,24.7,20.1,25.1,20.3z M18.9,24.7c1.6,1.1,3,2.1,3.1,2.1c0.1,0,0.5-0.2,1.1-0.6
	c0.6-0.4,1.1-0.7,1.1-0.7c0.2,0,1.4,0.9,1.4,1c0,0.2-7.5,5.4-7.6,5.3c-0.3-0.1-5.3-3.7-5.3-3.8c0-0.1,3.4-2.5,3.6-2.5
	c0.2,0,1.4,0.9,1.4,1c0,0.1-0.4,0.4-0.9,0.8c-0.5,0.4-0.9,0.7-0.9,0.7c0,0.1,2.1,1.6,2.3,1.7c0.1,0,2.4-1.6,2.4-1.7c0,0-1.3-1-3-2.1
	c-1.6-1.1-3-2.1-3-2.2c0-0.1,1.3-1,1.4-1C16,22.6,17.3,23.5,18.9,24.7z M27.9,25.3c2,1.4,3.7,2.6,3.7,2.7c0,0.1-5.3,3.8-5.5,3.8
	c-0.2,0-3.6-2.4-3.6-2.5c0-0.1,1.4-1,1.5-1c0.1,0,0.6,0.3,1.1,0.7c0.5,0.4,1,0.7,1.1,0.7c0.3-0.1,2.2-1.6,2.2-1.7
	c0-0.1-1.3-1-2.9-2.2c-1.6-1.1-2.9-2.1-2.9-2.1c0-0.2,1.3-1.1,1.4-1C24.1,22.7,25.8,23.9,27.9,25.3z M55.6,24.2c0,0-0.1,0.5-0.1,1v1
	h-1.7h-1.7v0.5v0.5h1.7h1.7l-0.1,0.6c-0.1,1.2-0.5,2.5-1,3.5c-0.4,0.9-0.7,1.2-1.5,2l-1,0.9l0.3,0.4c0.1,0.2,0.3,0.4,0.4,0.4
	c0.2,0,1.2-0.9,1.8-1.7c0.6-0.8,1.4-2.4,1.6-3c0-0.2,0.1-0.3,0.2-0.3s0.2,0.3,0.4,0.7c0.2,0.4,0.5,1,0.8,1.3
	c0.2,0.4,0.4,0.7,0.4,0.7c0,0.3-2,1.4-3,1.7c-0.5,0.1-0.5,0.2-0.3,0.8c0.1,0.5,0.1,0.5,1.5-0.1c0.7-0.3,1.9-1,2.6-1.5
	c0.1-0.1,0.4,0.1,0.9,0.4c0.9,0.6,2.3,1.3,2.9,1.4c0.4,0.1,0.4,0,0.5-0.5c0.1-0.3,0.1-0.5,0.1-0.5c0,0-0.4-0.2-0.9-0.3
	c-0.9-0.3-2.2-0.9-2.4-1.2c-0.1-0.1-0.1-0.2,0.3-0.7c0.4-0.6,0.9-1.5,1.1-2.2c0.1-0.2,0.2-0.4,0.3-0.5c0.1-0.1,0-0.2-0.3-0.5
	c-0.3-0.2-0.5-0.3-0.5-0.3c-0.1,0.1-1,0.1-2.1,0.1h-2l0.1-0.7c0-0.4,0.1-0.8,0.1-0.8c0,0,1.5-0.1,3.2-0.1h3.1v-0.5v-0.5h-3.1h-3.1
	l0.1-0.9c0-0.5,0.1-1,0.1-1C56.7,24.2,55.7,24.1,55.6,24.2z M82.8,25.4v1.2h-2.1h-2.1v3v3H79c0.5,0,0.5,0,0.5-0.3v-0.3h1.6h1.6v1.9
	v1.9h0.5h0.5v-1.9v-1.9h1.7c1.4,0,1.7,0,1.8,0.2c0,0.1,0.2,0.2,0.5,0.2h0.4v-2.8v-2.8H86h-2.2l0-1.2l0-1.2h-0.5h-0.5V25.4z
	 M66.7,24.6c0,0-0.1,0.6-0.2,1.2l-0.1,1.1h-0.7H65v0.5v0.5h0.6c0.6,0,0.6,0,0.6,0.2c-0.3,1.5-0.4,2-0.7,2.8c-0.1,0.5-0.3,0.9-0.3,1
	c0,0.1,0.7,0.4,0.9,0.3c0.1,0,0.1-0.1,0.1-0.2c0-0.1,0.1-0.2,0.1-0.2c0.1,0,1,0.6,1,0.7c0,0.1-1.6,1.6-2,1.9
	c-0.2,0.1-0.4,0.3-0.4,0.3c0,0,0.1,0.2,0.3,0.4c0.3,0.4,0.3,0.4,0.6,0.2c0.2-0.1,0.7-0.6,1.3-1.1c0.5-0.5,1-1,1.1-1
	c0.1,0,0.3,0.2,0.6,0.5c0.3,0.3,0.6,0.5,0.6,0.5c0,0,0.2-0.2,0.4-0.5l0.3-0.5l-0.5-0.4c-0.3-0.2-0.6-0.5-0.7-0.6L68.6,32l0.3-0.9
	c0.1-0.5,0.3-1.5,0.4-2.2c0.1-0.7,0.2-1.4,0.2-1.5c0-0.2-0.1-0.3-0.4-0.5c-0.3-0.2-0.5-0.2-0.5-0.2c0,0.1-0.3,0.1-0.7,0.1
	c-0.5,0-0.6,0-0.6-0.2c0-0.4,0.3-1.8,0.3-1.9c0.1-0.1,0.1-0.2,0-0.2C67.7,24.4,66.8,24.5,66.7,24.6z M91.1,30.2v5.5h0.5
	c0.5,0,0.5,0,0.5-0.3V35h4.2c4.2,0,4.2,0,4.2,0.2c0,0.2,0.1,0.2,0.5,0.2l0.5,0l0-5.4l0-5.4h-5.2h-5.2V30.2z M74.7,25
	c0,0.1-0.9,0.1-2.3,0.1h-2.2v0.4V26h1.9c1,0,1.9,0,1.9,0.1c0,0.2-1.1,1.5-1.3,1.5c-0.1,0-0.2,0.2-0.2,1v1h-1.4h-1.4l0,0.5l0,0.5
	l1.3,0l1.3,0l0,1.8l0,1.8l-0.6,0c-0.4,0-0.6,0.1-0.5,0.2c0,0.1,0.1,0.3,0.1,0.5l0.1,0.4h0.7c1.2,0,1.2,0,1.2-2.6l0-2.2l1.3,0l1.3,0
	l0-0.5l0-0.5h-1.3h-1.3v-0.8V28l1.1-1.1l1.1-1.1l-0.5-0.4C74.9,24.9,74.8,24.8,74.7,25z M100.6,29.8V34h-4.2h-4.2v-4.2v-4.2h4.2h4.2
	V29.8z M93.1,26.6c0,0-0.1,0.2-0.1,0.4v0.4h1.4h1.4v0.8V29h-1.1h-1.1v0.5V30h1.1h1.1v1v1h-1.5h-1.5v0.4v0.4h3.5h3.5v-0.4v-0.4h-1.5
	h-1.5v-1v-1H98h1.2v-0.5V29h-1.2h-1.2l0-0.7l0-0.7l1.4,0l1.4,0V27v-0.4h-3.2C94.6,26.6,93.1,26.6,93.1,26.6z M82.8,29.2v1.6h-1.6
	h-1.6v-1.6v-1.6h1.6h1.6V29.2z M87.2,29.2v1.6h-1.7h-1.7v-1.6v-1.6h1.7h1.7V29.2z M68.5,28.1c0,0.2-0.1,0.5-0.1,0.9
	c-0.1,0.7-0.5,2.3-0.6,2.4c-0.1,0.1-0.6-0.2-1.1-0.5c-0.1-0.1-0.1-0.4,0.5-2.9c0.1-0.2,0.1-0.2,0.7-0.2h0.7L68.5,28.1z M59.8,29.9
	c0,0.2-0.7,1.6-1,2c-0.3,0.3-0.4,0.3-1.1-0.8c-0.8-1.2-0.8-1.2,0.8-1.2C59.4,29.7,59.8,29.8,59.8,29.9z M97.5,30.3l-0.2,0.3l0.6,0.6
	l0.6,0.6l0.3-0.3l0.3-0.3l-0.6-0.5c-0.3-0.3-0.6-0.5-0.7-0.5C97.8,30.1,97.6,30.2,97.5,30.3z" fill="currentColor"/>
</svg>
