<svg width="40" height="40" viewBox="0 0 40 40" fill="none" xmlns="http://www.w3.org/2000/svg">
<path fill-rule="evenodd" clip-rule="evenodd" d="M28.4219 33.4137C29.3957 34.8361 31.6829 35.8327 34.3483 35.8327C34.8611 35.8327 35.8332 32.7601 35.8332 32.7601C34.0061 32.4945 32.4825 31.7477 31.6283 30.7519C34.241 27.9274 35.8332 24.1494 35.8332 19.9993C35.8332 11.2541 28.7447 4.16602 19.9998 4.16602C11.2541 4.16602 4.1665 11.2541 4.1665 19.9993C4.1665 28.7429 11.2541 35.8327 19.9998 35.8327C23.0937 35.8327 25.9834 34.9469 28.4219 33.4137ZM18.0206 19.9993C18.0206 18.9051 18.9064 18.0193 19.9998 18.0193C21.0924 18.0193 21.9791 18.9051 21.9791 19.9993C21.9791 21.0918 21.0924 21.9785 19.9998 21.9785C18.9064 21.9785 18.0206 21.0918 18.0206 19.9993ZM8.1233 19.9993C8.1233 17.8143 9.89497 16.0401 12.0818 16.0401C14.2687 16.0401 16.0404 17.8143 16.0404 19.9993C16.0404 22.1852 14.2687 23.9577 12.0818 23.9577C9.89497 23.9577 8.1233 22.1852 8.1233 19.9993ZM16.0404 12.0836C16.0404 9.89681 17.813 8.12435 19.9998 8.12435C22.1867 8.12435 23.9584 9.89681 23.9584 12.0836C23.9584 14.2677 22.1867 16.0401 19.9998 16.0401C17.813 16.0401 16.0404 14.2677 16.0404 12.0836ZM24.948 19.9993C24.948 17.8143 26.7206 16.0401 28.9066 16.0401C31.0943 16.0401 32.866 17.8143 32.866 19.9993C32.866 22.1852 31.0943 23.9577 28.9066 23.9577C26.7206 23.9577 24.948 22.1852 24.948 19.9993ZM16.0404 27.916C16.0404 25.7293 17.813 23.9577 19.9998 23.9577C22.1867 23.9577 23.9584 25.7293 23.9584 27.916C23.9584 30.1028 22.1867 31.8743 19.9998 31.8743C17.813 31.8743 16.0404 30.1028 16.0404 27.916Z" fill="currentColor"/>
</svg>
