<svg width="24" height="24" viewBox="0 0 24 24" fill="none" xmlns="http://www.w3.org/2000/svg">
<path fill-rule="evenodd" clip-rule="evenodd" d="M13.8935 12L17.87 8.02352C18.0791 7.81436 18.0791 7.47526 17.87 7.2661L16.7339 6.12998C16.5247 5.92082 16.1856 5.92082 15.9764 6.12998L12 10.1064L8.02356 6.12998C7.8144 5.92082 7.4753 5.92082 7.26614 6.12998L6.13002 7.2661C5.92086 7.47526 5.92086 7.81436 6.13002 8.02352L10.1065 12L6.13002 15.9764C5.92086 16.1856 5.92086 16.5247 6.13002 16.7338L7.26614 17.8699C7.4753 18.0791 7.8144 18.0791 8.02356 17.8699L12 13.8935L15.9764 17.8699C16.1856 18.0791 16.5247 18.0791 16.7339 17.8699L17.87 16.7338C18.0791 16.5247 18.0791 16.1856 17.87 15.9764L13.8935 12Z" fill="currentColor"/>
</svg>
