<svg width="40" height="40" viewBox="0 0 40 40" fill="none" xmlns="http://www.w3.org/2000/svg">
<path d="M35.3225 25.96C34.7225 25.615 33.96 25.8213 33.615 26.4175L30.305 24.5062C30.7525 23.4862 31.0525 22.3875 31.1788 21.2363C31.2038 21.2375 31.225 21.25 31.25 21.25H33.75C34.44 21.25 35 20.6912 35 20C35 19.3088 34.44 18.75 33.75 18.75H31.25C31.225 18.75 31.2038 18.7625 31.1788 18.7637C31.0525 17.6112 30.7513 16.5138 30.305 15.4938L33.615 13.5825C33.8475 13.9825 34.2663 14.2075 34.6988 14.2075C34.91 14.2075 35.125 14.1538 35.3225 14.04C35.92 13.695 36.125 12.93 35.78 12.3325L34.53 10.1675C34.185 9.57 33.4213 9.3625 32.8225 9.71C32.225 10.055 32.02 10.82 32.365 11.4175L29.0463 13.3337C28.3888 12.4425 27.605 11.655 26.7175 10.9925L28.5463 8.18375C28.9225 7.605 28.7588 6.83 28.1813 6.45375C27.6038 6.0775 26.8275 6.24 26.4525 6.81875L24.5613 9.72375C23.53 9.26375 22.4175 8.9525 21.25 8.82375V5C21.94 5 22.5 4.44125 22.5 3.75C22.5 3.05875 21.94 2.5 21.25 2.5L18.75 2.5C18.06 2.5 17.5 3.05875 17.5 3.75C17.5 4.44125 18.06 5 18.75 5V8.82375C17.5825 8.9525 16.47 9.26375 15.4388 9.7225L13.5475 6.8175C13.1713 6.23875 12.3963 6.07625 11.8188 6.4525C11.24 6.82875 11.0763 7.60375 11.4525 8.1825L13.2813 10.9913C12.3938 11.6538 11.61 12.4425 10.9525 13.3325L7.63505 11.4175C7.98005 10.8187 7.77505 10.055 7.17755 9.71C6.57755 9.3625 5.8138 9.57 5.4688 10.1675L4.2188 12.3325C3.8738 12.9313 4.0788 13.695 4.6763 14.04C4.8738 14.1538 5.0888 14.2075 5.30005 14.2075C5.73255 14.2075 6.1513 13.9825 6.3838 13.5825L9.6938 15.4938C9.24755 16.5138 8.94505 17.6125 8.82005 18.7637C8.7963 18.7625 8.77505 18.75 8.75005 18.75H6.25005C5.56005 18.75 5.00005 19.3088 5.00005 20C5.00005 20.6912 5.56005 21.25 6.25005 21.25H8.75005C8.77505 21.25 8.7963 21.2375 8.8213 21.2363C8.94755 22.3888 9.2488 23.4862 9.69505 24.5062L6.38505 26.4175C6.0388 25.82 5.27505 25.6137 4.67755 25.96C4.08005 26.305 3.87505 27.07 4.22005 27.6675L5.47005 29.8325C5.70255 30.2325 6.1213 30.4575 6.5538 30.4575C6.76505 30.4575 6.98005 30.4038 7.17755 30.29C7.77505 29.945 7.98005 29.18 7.63505 28.5825L10.9538 26.6663C11.6113 27.5575 12.395 28.345 13.2825 29.0075L11.4538 31.8162C11.0775 32.395 11.2413 33.17 11.8188 33.5462C12.0288 33.6837 12.265 33.75 12.4988 33.75C12.9075 33.75 13.3075 33.55 13.5475 33.1825L15.4388 30.2775C16.4713 30.7363 17.5825 31.0475 18.75 31.1762V35C18.06 35 17.5 35.5588 17.5 36.25C17.5 36.9412 18.06 37.5 18.75 37.5H21.25C21.94 37.5 22.5 36.9412 22.5 36.25C22.5 35.5588 21.94 35 21.25 35V31.1762C22.4175 31.0475 23.53 30.7363 24.5613 30.2775L26.4525 33.1825C26.6925 33.55 27.0925 33.75 27.5013 33.75C27.735 33.75 27.9713 33.6837 28.1813 33.5475C28.76 33.1712 28.9238 32.3963 28.5463 31.8175L26.7175 29.0088C27.605 28.3463 28.3888 27.5575 29.0463 26.6675L32.365 28.5838C32.02 29.1825 32.225 29.9462 32.8225 30.2912C33.02 30.405 33.235 30.4588 33.4463 30.4588C33.8788 30.4588 34.2988 30.2338 34.53 29.8338L35.78 27.6688C36.125 27.0688 35.92 26.305 35.3225 25.96ZM15 25C13.6188 25 12.5 23.8813 12.5 22.5C12.5 21.1187 13.6188 20 15 20C16.3813 20 17.5 21.1187 17.5 22.5C17.5 23.8813 16.3813 25 15 25ZM20.625 16.25C19.59 16.25 18.75 15.41 18.75 14.375C18.75 13.34 19.59 12.5 20.625 12.5C21.66 12.5 22.5 13.34 22.5 14.375C22.5 15.41 21.66 16.25 20.625 16.25ZM22.5 24.375C22.5 23.34 23.34 22.5 24.375 22.5C25.41 22.5 26.25 23.34 26.25 24.375C26.25 25.41 25.41 26.25 24.375 26.25C23.34 26.25 22.5 25.41 22.5 24.375Z" fill="currentColor"/>
</svg>
