<svg width="24" height="24" viewBox="0 0 24 24" fill="none" xmlns="http://www.w3.org/2000/svg">
<path fill-rule="evenodd" clip-rule="evenodd" d="M12.0001 6.10352e-05C12.6126 6.10352e-05 13.0812 0.468601 13.0812 1.08119V3.0601C12.7248 3.02009 12.3638 2.99998 11.9999 2.99998C11.634 2.99998 11.2733 3.02171 10.9189 3.06393V3.06321V1.08119C10.9189 0.46862 11.4234 6.10352e-05 12.0001 6.10352e-05ZM18.3828 5.61709C18.6321 5.87602 18.8656 6.14791 19.0824 6.43103L20.4684 5.045C20.9007 4.61265 20.9007 3.92796 20.4684 3.53151C20.036 3.09916 19.3513 3.09916 18.9549 3.53151L17.5913 4.89505C17.8685 5.11676 18.1329 5.35751 18.3828 5.61709ZM20.9999 12C20.9999 12.3659 20.9782 12.7267 20.936 13.0811H20.9367H22.9187C23.5313 13.0811 23.9999 12.6125 23.9999 11.9999C23.9999 11.3873 23.5313 10.9188 22.9187 10.9188H20.9367L20.9332 10.9188C20.9774 11.2765 20.9999 11.6375 20.9999 12ZM19.0946 17.5449C18.6536 18.1088 18.1467 18.6186 17.5854 19.0627L17.5856 19.0629L18.9909 20.4683C19.4233 20.9006 20.108 20.9006 20.5044 20.4683C20.9368 20.0359 20.9368 19.3512 20.5044 18.9548L19.099 17.5494L19.0946 17.5449ZM11.9999 21C11.634 21 11.2733 20.9783 10.9189 20.936V20.9367V22.9188C10.9189 23.5314 11.3875 23.9999 12.0001 23.9999C12.6127 23.9999 13.0812 23.5313 13.0812 22.9188V20.9367V20.936C12.7268 20.9782 12.3659 21 11.9999 21ZM6.41453 19.0628C5.85324 18.6187 5.34635 18.1089 4.90536 17.545L4.90098 17.5494L3.49559 18.9548C3.06324 19.3871 3.06324 20.0718 3.49559 20.4683C3.92794 20.9006 4.61263 20.9006 5.00908 20.4683L6.41447 19.0629L6.41453 19.0628ZM2.99994 12C2.99994 11.634 3.02167 11.2732 3.06392 10.9187H3.06315H1.08113C0.468559 10.9187 0 11.3873 0 11.9999C0 12.6125 0.468539 13.081 1.08113 13.081H3.06315H3.06389C3.02166 12.7267 2.99994 12.3659 2.99994 12ZM4.93717 6.41451C5.38137 5.85315 5.8912 5.34621 6.45519 4.90518L6.45048 4.90084L5.04509 3.49545C4.61274 3.0631 3.92805 3.0631 3.5316 3.49545C3.09925 3.9278 3.09925 4.61249 3.5316 5.00895L4.93699 6.41433L4.93717 6.41451ZM11.9999 4.99998C13.8865 4.99998 15.6737 5.69501 16.9644 7.03551C18.2551 8.37601 18.9999 10.1632 18.9999 12C18.9999 15.8723 15.8722 19 11.9999 19C8.12765 19 4.99994 15.8723 4.99994 12C4.99994 8.12769 8.12765 4.99998 11.9999 4.99998Z" fill="currentColor"/>
</svg>
