<svg width="24" height="24" viewBox="0 0 24 24" fill="none" xmlns="http://www.w3.org/2000/svg">
<path fill-rule="evenodd" clip-rule="evenodd" d="M15.8528 20.7345C14.9792 21.0524 14.5288 22.0183 14.8466 22.8919C15.1644 23.7655 16.1304 24.2159 17.004 23.8981C17.8782 23.5803 18.328 22.6143 18.0102 21.7407C17.6923 20.8671 16.7264 20.4167 15.8528 20.7345ZM16.7163 23.1073C16.2795 23.2666 15.7966 23.0411 15.6379 22.6042C15.4787 22.1674 15.7036 21.6845 16.1404 21.5253C16.5772 21.3666 17.0602 21.5916 17.2194 22.0284C17.3786 22.4652 17.1531 22.9481 16.7163 23.1073ZM13.9872 18.3883C13.9872 21.4874 11.4753 23.9999 8.37622 23.9999C5.27716 23.9999 2.76465 21.4874 2.76465 18.3883C2.76465 16.502 3.69685 14.8347 5.12386 13.8173L5.09013 14.9335C4.17686 15.8024 3.60689 17.0282 3.60689 18.3883C3.60689 21.0228 5.74178 23.1582 8.37622 23.1582C11.0101 23.1582 13.1456 21.0228 13.1456 18.3883C13.1456 15.7545 11.0101 13.619 8.37622 13.619C7.78612 13.619 7.22147 13.7273 6.69944 13.9238C6.70299 13.9996 6.70476 14.0741 6.70062 14.1446C6.48163 14.3192 6.08152 14.4636 5.74593 14.5198L5.54054 13.7841C5.5216 13.7178 5.47958 13.661 5.42158 13.6237L5.2452 13.5107C5.1647 13.4592 5.11558 13.3698 5.11558 13.2745V12.8507C5.11558 12.7276 5.19489 12.6152 5.31386 12.5826C5.85424 12.4341 6.4621 12.4086 6.99301 12.4885L6.97525 12.6365C6.84208 12.6773 6.57751 12.7691 6.43309 12.8371C6.47275 12.9087 6.50826 12.9946 6.54081 13.0869C7.11612 12.8874 7.73285 12.7773 8.37622 12.7773C11.4753 12.7773 13.9872 15.2899 13.9872 18.3883ZM22.3847 20.0651L18.7092 21.4033L15.5509 15.6758H14.1843C13.1911 13.7078 11.1521 12.3565 8.79704 12.3565C8.53544 12.3565 8.27915 12.3749 8.02642 12.4074V8.45369C8.64079 7.88194 9.30546 7.37411 9.98671 6.95565L9.94351 6.75856C9.94351 6.75856 9.94351 6.75856 9.94292 6.75856L9.22911 7.10777C8.30224 7.60021 7.40318 8.24594 6.5781 9.00058L6.33484 12.0535L5.11558 11.7575V8.64901C5.11558 8.39509 5.20081 8.1471 5.36061 7.94941C6.31945 6.76566 7.35701 5.70561 8.28981 4.96162C8.93909 4.44314 9.50789 4.24545 10.201 4.24545H10.2016L10.3401 3.72756C10.3886 3.54763 10.3401 3.35942 10.2217 3.21559C9.68012 2.55861 9.58187 1.59622 9.81034 0.584113C10.2104 0.244376 10.7248 0.0721404 11.3101 0.0206473C13.3095 -0.153956 13.4107 0.823231 12.9532 1.28016C13.0852 2.05552 13.0248 3.2002 12.7561 3.9146C12.4175 3.99272 12.0595 4.01522 11.7239 3.98266L11.57 4.55856L12.5158 8.57798L11.8405 12.4074C13.6771 12.614 16.0114 13.081 17.5012 13.6077L19.468 19.3045L22.0148 19.5229C22.1237 19.5318 22.2172 19.6034 22.2545 19.7064L22.3847 20.0651Z" fill="currentColor"/>
</svg>
