<svg width="24" height="24" viewBox="0 0 24 24" fill="none" xmlns="http://www.w3.org/2000/svg">
<path fill-rule="evenodd" clip-rule="evenodd" d="M7.37504 2.05317C6.58045 2.20827 5.79941 2.6042 5.28699 3.11163C4.78568 3.6081 5.07027 4.36427 5.75844 4.36427C5.99973 4.36427 6.10657 4.31794 6.39733 4.08722C6.73457 3.81959 7.04691 3.64571 7.37504 3.54285C7.64249 3.45904 7.81646 3.44535 8.83491 3.42813L9.99113 3.40859V4.37465V5.34071H11.9999H14.0087V3.96378C14.0087 2.62402 14.0058 2.58153 13.9036 2.38989C13.8457 2.28162 13.7391 2.15156 13.6666 2.10094C13.5371 2.01051 13.4823 2.00872 10.6067 2.00138C8.33431 1.99557 7.61072 2.0072 7.37504 2.05317ZM9.25704 6.34402C8.7966 6.48352 8.37499 6.83235 8.17528 7.23902C8.057 7.47994 7.98319 7.89672 7.98272 8.32597L7.98235 8.65021H7.5449C6.96815 8.65021 6.67374 8.70692 6.27246 8.89529C5.58914 9.21609 5.1303 9.84185 5.03575 10.582C5.0052 10.8212 4.99352 12.4039 5.00347 14.9578C5.01902 18.9421 5.01954 18.9604 5.12367 19.3166C5.36537 20.1436 5.81179 20.7873 6.48744 21.2833C6.84776 21.5477 7.13815 21.694 7.62843 21.8581L8.05242 22H11.9999H15.9474L16.3912 21.8524C17.6545 21.4321 18.514 20.5504 18.8807 19.2984C18.9783 18.9655 18.9806 18.8796 18.9963 14.9594C19.0066 12.3932 18.9951 10.8251 18.9643 10.5836C18.869 9.83773 18.4158 9.2185 17.7293 8.89623C17.3261 8.70692 17.0323 8.65021 16.4549 8.65021H16.0175L16.0171 8.32597C16.0161 7.36451 15.6983 6.77842 14.9994 6.44899L14.6882 6.30225L12.0711 6.29335C9.99907 6.28629 9.41288 6.29684 9.25704 6.34402ZM17.1387 10.2267C17.4233 10.4127 17.4657 10.5546 17.4657 11.3217V12.0044H11.9999H6.53416V11.3217C6.53416 10.5546 6.57653 10.4127 6.86112 10.2267L7.01514 10.1261H11.9999H16.9847L17.1387 10.2267ZM9.92456 14.4912C10.1491 14.5931 10.3975 14.8741 10.4602 15.0971C10.7086 15.9803 9.57713 16.6582 8.8721 16.0484C8.63478 15.8431 8.54294 15.6452 8.54294 15.3389C8.54294 14.9579 8.72359 14.6738 9.08017 14.4938C9.26484 14.4006 9.72209 14.3992 9.92456 14.4912ZM14.4091 15.4433C15.0165 15.7074 15.1616 16.4934 14.6868 16.948C14.4544 17.1705 14.2206 17.255 13.9152 17.2269C13.3994 17.1795 13.0688 16.8557 13.0362 16.3662C13.0208 16.1352 13.0374 16.0384 13.1206 15.874C13.3451 15.4299 13.9292 15.2347 14.4091 15.4433ZM11.5514 18.2833C11.7467 18.3613 11.9355 18.5952 11.9773 18.8106C12.0475 19.1735 11.7556 19.5546 11.376 19.5956C11.0946 19.6259 10.9592 19.5882 10.7656 19.4256C10.1466 18.9052 10.7852 17.9768 11.5514 18.2833Z" fill="currentColor"/>
</svg>
