<svg width="24" height="24" viewBox="0 0 24 24" fill="none" xmlns="http://www.w3.org/2000/svg">
<path d="M14.625 7.26562H18.8906C19.0219 7.26562 19.125 7.1625 19.125 7.03125C19.125 6.61406 18.9422 6.22031 18.6234 5.95781L15.0469 2.97656C14.775 2.75156 14.4375 2.62969 14.0812 2.62969C13.8891 2.62969 13.7344 2.78438 13.7344 2.97656V6.375C13.7344 6.86719 14.1328 7.26562 14.625 7.26562Z" fill="currentColor"/>
<path d="M12.5156 6.375V2.625H6.375C5.55 2.625 4.875 3.3 4.875 4.125V19.875C4.875 20.7 5.55 21.375 6.375 21.375H17.625C18.45 21.375 19.125 20.7 19.125 19.875V8.48438H14.625C13.4625 8.48438 12.5156 7.5375 12.5156 6.375Z" fill="currentColor"/>
</svg>
