<svg width="24" height="24" viewBox="0 0 24 24" fill="none" xmlns="http://www.w3.org/2000/svg">
<path fill-rule="evenodd" clip-rule="evenodd" d="M21 12C21 16.9704 16.97 21 11.9992 21C7.03 21 3 16.9704 3 12C3 7.02963 7.03 3 11.9992 3C16.97 3 21 7.02963 21 12ZM16.1624 10.587C16.5254 10.2239 16.5254 9.63533 16.1624 9.27228C15.7993 8.90924 15.2107 8.90924 14.8477 9.27228L11.0589 13.061L8.88697 10.889C8.52393 10.526 7.93532 10.526 7.57227 10.889C7.20923 11.2521 7.20923 11.8407 7.57227 12.2037L11.0589 15.6904L16.1624 10.587Z" fill="currentColor"/>
</svg>
