<svg width="24" height="24" viewBox="0 0 24 24" fill="none" xmlns="http://www.w3.org/2000/svg">
<path d="M19.2077 19.3343H4.79788C4.3578 19.3343 4 19.6956 4 20.1337V21.2006C4 21.6415 4.36062 22 4.79788 22H19.202C19.6421 22 19.9998 21.6387 19.9998 21.2006V20.1337C20.0084 19.6899 19.6478 19.3343 19.2077 19.3343Z" fill="currentColor"/>
<path d="M11.4448 17.9033C11.601 18.0598 11.8055 18.1394 12.007 18.1394C12.2115 18.1394 12.4159 18.0598 12.5692 17.9033L18.0265 12.4353C18.336 12.1252 18.336 11.6188 18.0265 11.303L17.2712 10.5462C16.9617 10.2361 16.4563 10.2361 16.1412 10.5462L13.3359 13.3599V2.79945C13.3359 2.35846 12.9752 2 12.538 2H11.4732C11.0331 2 10.6753 2.3556 10.6753 2.79945V13.3627L7.86723 10.5491C7.55772 10.239 7.04949 10.239 6.73716 10.5491L5.98188 11.3058C5.67241 11.6159 5.67241 12.1252 5.98188 12.4381L11.4448 17.9033Z" fill="currentColor"/>
</svg>
