<svg width="24" height="24" viewBox="0 0 24 24" fill="none" xmlns="http://www.w3.org/2000/svg">
<path fill-rule="evenodd" clip-rule="evenodd" d="M1.53369 12C1.53369 17.7827 6.21753 22.4665 12.0001 22.4665C17.7828 22.4665 22.4666 17.7827 22.4666 12C22.4666 6.21741 17.7828 1.53357 12.0001 1.53357C6.21753 1.53357 1.53369 6.21741 1.53369 12ZM3.71414 12C3.71414 11.3284 3.79276 10.6743 3.94521 10.0507L5.89464 12L5.4586 14.6166L7.20302 16.361V18.7553C5.09236 17.2551 3.71414 14.787 3.71414 12ZM10.0943 3.93635C10.7049 3.78818 11.3417 3.71407 12.0001 3.71407C12.7284 3.71407 13.4349 3.81007 14.1065 3.9845L13.7445 4.58637L14.1806 5.0224H15.489L15.8511 4.66043C16.1559 4.82181 16.4439 4.99624 16.7232 5.19247L15.9252 5.45848L15.0529 6.33064L15.9252 6.76677V7.2029H15.0529V8.07506C15.0529 8.07506 15.6546 8.51118 16.3611 8.51118C17.0546 8.51118 16.745 7.55613 17.2334 7.2029C17.7263 6.84957 18.3238 6.92815 18.3238 6.92815L18.6072 7.00226C19.1393 7.70431 19.5621 8.48949 19.85 9.33971V9.38334C19.85 9.38334 19.235 8.94722 18.1057 8.94722C16.9763 8.94722 15.9252 9.38334 15.9252 9.38334C15.9252 9.38334 14.6951 9.74109 14.6168 10.6917C14.4814 12.327 15.0529 12.8722 15.0529 12.8722L17.2334 14.1805V18.424C15.8076 19.5883 13.9844 20.286 12.0001 20.286C11.0626 20.286 10.1642 20.1336 9.32246 19.8456L11.564 14.6166L11.128 12.4361C11.128 12.4361 9.39657 10.2556 8.51136 10.2556C7.62619 10.2556 7.20307 11.5638 7.20307 11.5638L6.33081 9.81952L8.94739 8.07506L10.2557 4.58627L10.0943 3.93635Z" fill="currentColor"/>
</svg>
