<svg width="24" height="24" viewBox="0 0 24 24" fill="none" xmlns="http://www.w3.org/2000/svg">
<path fill-rule="evenodd" clip-rule="evenodd" d="M20.3301 5.27999H20.4743L23.0404 9.72485C23.0916 9.81361 23.0916 9.92321 23.0404 10.0126L22.9093 10.2389L20.4743 8.53352H20.3301L17.8944 10.2389L17.764 10.0126C17.7127 9.92321 17.7127 9.81361 17.764 9.72485L20.3301 5.27999ZM23.0404 14.2757C23.0916 14.1864 23.0916 14.0768 23.0398 13.9874L22.9093 13.7611L20.4743 15.4665H20.3301L17.8944 13.7611L17.764 13.9874C17.7127 14.0768 17.7127 14.1864 17.764 14.2757L20.3301 18.72H20.4743L23.0404 14.2757ZM14.4002 0.959619V23.0398C14.4002 23.5705 13.9702 24 13.44 24H0.960214C0.429476 24 0 23.5705 0 23.0398V0.959619C0 0.429476 0.429476 0 0.960214 0H13.44C13.9702 0 14.4002 0.429476 14.4002 0.959619ZM6.07461 3.08496C6.07461 3.70624 6.295 4.28046 6.65181 4.58902V4.94939L6.66968 4.96071C6.82812 5.06138 7.01159 5.11439 7.19982 5.11439C7.38865 5.11439 7.57211 5.06138 7.73056 4.96071L7.74843 4.94939V4.59318C8.10464 4.28761 8.32563 3.71219 8.32563 3.08496C8.32563 2.67514 8.27321 2.26949 8.17374 1.91209L8.16778 1.89184L8.14753 1.88528C7.87769 1.80606 7.54233 1.76198 7.19863 1.76139C6.4737 1.76139 6.07461 2.23137 6.07461 3.08496ZM4.96369 13.1231C4.96369 12.6925 4.84217 12.4578 4.53898 12.3112L4.06245 12.1474L3.92902 12.7228C3.90817 12.8128 3.91591 12.9099 3.95165 12.9968C4.20183 13.6068 4.3847 13.6735 4.71411 13.6735H4.94284C4.3156 12.78 4.80345 12.6782 4.80345 13.1618H4.96369V13.1231ZM9.39843 22.0123C9.39843 21.9384 9.37996 21.8651 9.34541 21.8002L8.9618 21.0896L9.09583 20.9925V8.98027H9.22687C9.39068 9.94346 9.52054 11.1128 9.55449 11.9717L9.55628 12.0086H10.4456L10.4474 11.9729C10.5516 10.2538 10.386 7.74664 10.0703 6.26522L10.0668 6.24735L7.93487 5.14298L7.9307 5.20076C7.85803 6.14847 7.63168 6.95024 7.19982 7.79072C6.76796 6.95024 6.54221 6.14847 6.46894 5.20136L6.46477 5.14358L4.33347 6.24735L4.3299 6.26522C4.0142 7.74664 3.8486 10.2538 3.95225 11.9729L3.95463 12.0086H4.84336L4.84515 11.9717C4.8791 11.1128 5.00896 9.94287 5.17277 8.98027H5.30441L5.30381 20.9925L5.43844 21.0896L5.05483 21.8002C5.01968 21.8651 5.00122 21.9384 5.00122 22.0123V22.2386H5.68683C5.86076 22.2386 5.94535 22.2064 6.10379 22.0164C6.19374 21.908 6.33015 21.6972 6.33551 21.6882L6.34027 21.6811L6.34147 21.6715C6.52076 20.0656 6.62322 18.5848 6.70542 17.3958C6.82991 15.5946 6.92879 14.1715 7.19982 14.1715C7.47145 14.1715 7.56973 15.5945 7.69482 17.3952C7.77702 18.5848 7.87888 20.065 8.05818 21.6715L8.05937 21.6811L8.06413 21.6882C8.07009 21.6972 8.2065 21.908 8.29644 22.0164C8.45489 22.2064 8.53948 22.2386 8.71281 22.2386H9.39843V22.0123ZM10.4712 12.7228L10.3372 12.1474L9.86066 12.3112C9.55807 12.4578 9.43595 12.6925 9.43595 13.1231V13.1618H9.59678C9.59678 12.6782 10.0846 12.78 9.4574 13.6735H9.68613C10.0155 13.6735 10.1984 13.6068 10.4486 12.9968C10.4837 12.9099 10.4921 12.8128 10.4712 12.7228Z" fill="currentColor"/>
</svg>
