<svg width="24" height="24" viewBox="0 0 24 24" fill="none" xmlns="http://www.w3.org/2000/svg">
<path fill-rule="evenodd" clip-rule="evenodd" d="M21 12C21 16.9704 16.97 21 11.9992 21C7.03 21 3 16.9704 3 12C3 7.02963 7.03 3 11.9992 3C16.97 3 21 7.02963 21 12ZM15.6753 8.32465C16.1082 8.75752 16.1082 9.45935 15.6753 9.89222L13.5676 12L15.6753 14.1078C16.1082 14.5407 16.1082 15.2425 15.6753 15.6753C15.2425 16.1082 14.5406 16.1082 14.1078 15.6753L12 13.5676L9.89222 15.6753C9.45935 16.1082 8.75753 16.1082 8.32466 15.6753C7.89179 15.2425 7.89179 14.5407 8.32466 14.1078L10.4324 12L8.32465 9.89222C7.89178 9.45935 7.89178 8.75752 8.32465 8.32465C8.75752 7.89178 9.45934 7.89178 9.89221 8.32465L12 10.4324L14.1078 8.32465C14.5407 7.89178 15.2425 7.89178 15.6753 8.32465Z" fill="currentColor"/>
</svg>
