<svg width="24" height="24" viewBox="0 0 24 24" fill="none" xmlns="http://www.w3.org/2000/svg">
<g clip-path="url(#clip0_3636_204167)">
<path fill-rule="evenodd" clip-rule="evenodd" d="M11.1372 11.3118L11.1545 11.3207L13.5657 8.91098H13.5538C12.8694 8.17996 12.0408 6.95307 11.547 5.91191L11.7549 5.96787C12.2833 6.8239 13.1261 7.87101 13.7581 8.40975H16.5422L16.7001 7.51205L14.1262 7.14535V6.07979L12.9707 3.39087L13.1041 2.8944C13.3477 2.91761 13.608 2.90154 13.8546 2.84499C14.0494 2.32589 14.0935 1.49368 13.9976 0.930538C14.3299 0.598367 14.2567 -0.111813 12.8027 0.0149837C12.3774 0.0524869 12.0033 0.178093 11.7126 0.424542C11.5494 1.14782 11.6155 1.83538 11.9914 2.31161C12.0885 2.43483 12.1284 2.59318 12.0879 2.74438L11.9676 3.19383L11.5679 3.48909C11.0151 3.89746 10.725 4.57013 10.8019 5.25293C11.0086 7.09178 11.1372 9.55984 11.1372 11.3118ZM18.8842 8.26718C18.8842 8.20824 18.8485 8.15586 18.7943 8.13383L17.7489 7.71177C17.6262 7.66236 17.488 7.66593 17.3677 7.7213L17.1134 7.83916C17.0282 7.87786 16.974 7.96298 16.974 8.05644V8.41004H18.8842V8.26718ZM20.3135 9.12969C22.2655 9.12969 23.928 10.6465 23.9977 12.5961C24.0703 14.6427 22.4317 16.3249 20.3999 16.3249H17.315L9.63525 24H3.60068C1.5683 24 -0.0703427 22.3183 0.00232718 20.2711C0.0720188 18.3215 1.73449 16.8047 3.68645 16.8047H6.68498L14.3653 9.12969H20.3135ZM15.1278 15.3689C15.1772 15.3558 15.2159 15.3171 15.2296 15.2671L15.8938 12.7901L15.7919 12.6883L13.3134 13.3521C13.2634 13.3652 13.2247 13.4045 13.2116 13.4539L13.1776 13.5801L14.2146 13.7628L7.98767 20.2497L8.32719 20.589L14.8186 14.3658L15.0015 15.4028L15.1278 15.3689Z" fill="currentColor"/>
</g>
<defs>
<clipPath id="clip0_3636_204167">
<rect width="24" height="24" fill="white"/>
</clipPath>
</defs>
</svg>
