<svg width="24" height="24" viewBox="0 0 24 24" fill="none" xmlns="http://www.w3.org/2000/svg">
<g clip-path="url(#clip0_3636_204169)">
<path fill-rule="evenodd" clip-rule="evenodd" d="M13.4924 11.7646L13.3918 11.8658L12.0408 10.5157L12.291 10.2657C12.3571 10.1996 12.4554 10.1782 12.5429 10.2103L12.8068 10.3068C12.9313 10.3526 13.0308 10.4479 13.0826 10.5699L13.5234 11.6069C13.546 11.6604 13.5341 11.7229 13.4924 11.7646ZM10.0393 5.80587L9.74687 5.12487L9.89042 5.11475C10.2883 5.91064 10.9281 6.84582 11.5684 7.6048V6.07969L10.4128 3.39082L10.5457 2.89435C10.7899 2.91757 11.0502 2.9015 11.2962 2.84494C11.4916 2.32526 11.5357 1.49366 11.4392 0.930524C11.7721 0.598358 11.6983 -0.111811 10.2448 0.0149835C9.81894 0.0524861 9.44486 0.177495 9.15477 0.425131C8.99096 1.1478 9.05708 1.83535 9.43295 2.31157C9.53004 2.4348 9.57055 2.59314 9.53004 2.74434L9.41448 3.17473L8.98858 3.48904C8.4358 3.8974 8.14571 4.57007 8.22255 5.25285C8.32917 6.19935 8.41436 7.31312 8.47273 8.41022H10.0006C10.8077 9.21622 11.7209 10.1288 11.7209 10.1288L12.4887 9.75733C11.6345 8.69297 10.6559 7.13334 10.0393 5.80587ZM23.9976 20.2712C23.9285 18.3216 22.266 16.8043 20.314 16.8043H17.3154L9.63488 9.12931H3.68654C1.73453 9.12931 0.0720204 10.6461 0.00232724 12.5956C-0.0703443 14.6428 1.56834 16.3245 3.60016 16.3245H6.68513L14.3651 24H20.4004C22.4322 24 24.0709 22.3177 23.9976 20.2712ZM15.7917 20.47L13.3131 19.8063C13.2637 19.7932 13.225 19.7545 13.2113 19.7045L13.1773 19.5789L14.215 19.3955L7.98786 12.9087L8.32739 12.5694L14.8184 18.7925L15.0013 17.7561L15.1275 17.7894C15.1776 17.8031 15.2163 17.8418 15.2294 17.8912L15.8936 20.3682L15.7917 20.47Z" fill="currentColor"/>
</g>
<defs>
<clipPath id="clip0_3636_204169">
<rect width="24" height="24" fill="white"/>
</clipPath>
</defs>
</svg>
