<svg width="24" height="25" viewBox="0 0 24 25" fill="none" xmlns="http://www.w3.org/2000/svg">
<path fill-rule="evenodd" clip-rule="evenodd" d="M11.1373 11.3142L11.1546 11.3231L13.5658 8.91342H13.5539C12.8695 8.18241 12.0409 6.95552 11.5471 5.91436L11.755 5.97031C12.2833 6.82634 13.1262 7.87345 13.7582 8.41219H16.5423L16.7001 7.51449L14.1263 7.14779V6.08223L12.9707 3.39331L13.1042 2.89684C13.3478 2.92005 13.6081 2.90398 13.8547 2.84743C14.0495 2.32834 14.0935 1.49612 13.9976 0.932979C14.33 0.600808 14.2568 -0.109371 12.8028 0.0174251C12.3775 0.0549283 12.0034 0.180534 11.7127 0.426984C11.5495 1.15026 11.6156 1.83782 11.9915 2.31405C12.0886 2.43727 12.1285 2.59562 12.088 2.74682L11.9677 3.19627L11.568 3.49153C11.0152 3.8999 10.7251 4.57257 10.802 5.25537C11.0086 7.09422 11.1373 9.56228 11.1373 11.3142ZM18.8842 8.26962C18.8842 8.21068 18.8485 8.1583 18.7943 8.13627L17.7489 7.71421C17.6262 7.6648 17.488 7.66837 17.3677 7.72374L17.1134 7.8416C17.0282 7.8803 16.974 7.96542 16.974 8.05888V8.41248H18.8842V8.26962ZM20.3135 9.13213C22.2655 9.13213 23.928 10.6489 23.9977 12.5985C24.0703 14.6451 22.4317 16.3274 20.3999 16.3274H17.315L9.63525 24.0024H3.60068C1.5683 24.0024 -0.0703427 22.3208 0.00232718 20.2736C0.0720188 18.324 1.73449 16.8072 3.68645 16.8072H6.68498L14.3653 9.13213H20.3135Z" fill="currentColor"/>
</svg>
