<svg width="24" height="24" viewBox="0 0 24 24" fill="none" xmlns="http://www.w3.org/2000/svg">
<path fill-rule="evenodd" clip-rule="evenodd" d="M12.5999 13.5803C15.3745 13.5803 16.4455 12.4189 16.4455 10.6247C16.4455 8.82996 15.3745 7.53313 12.5999 7.53313H8.84484V11.9819H7.36706V13.5803H8.84484V14.3798H7.36706V15.8422H8.84484V17.0639H10.8809V15.8422H14.4544V14.3798H10.8809V13.5803H12.5999ZM10.8809 9.31251H12.3439C13.9423 9.31251 14.319 9.81042 14.319 10.6247C14.319 11.439 13.9423 11.9819 12.3439 11.9819H10.8809V9.31251ZM1.38021 15.1976V14.6471C0.942614 14.6092 0.49023 14.4963 0.136011 14.3378V13.3656C0.528077 13.5537 1.13894 13.7577 1.65164 13.7577C2.17913 13.7577 2.45825 13.6294 2.45825 13.2444C2.45825 12.8902 2.03602 12.7926 1.55348 12.6944C0.852138 12.5584 0 12.3929 0 11.3675C0 10.4698 0.588395 10.0629 1.38021 9.96477V9.39944H2.21698V9.95708C2.57888 9.99493 2.95617 10.0777 3.23528 10.1836V11.1108C2.99342 11.0126 2.31514 10.7944 1.81013 10.7944C1.41806 10.7944 1.06325 10.8471 1.06325 11.2994C1.06325 11.669 1.50085 11.7672 1.97571 11.8725C2.66167 12.0233 3.49903 12.2344 3.49903 13.2296C3.49903 14.1196 2.96326 14.5265 2.21698 14.6323V15.1976H1.38021ZM24 13.5537V14.4815C23.6079 14.6997 23.2159 14.7902 22.6582 14.7902C21.5193 14.7902 20.705 14.2101 20.3508 13.3355H19.7701V12.5963H20.1698C20.1621 12.5058 20.1621 12.4076 20.1621 12.3101V12.1439H19.7701V11.4053H20.3052C20.6447 10.4248 21.5494 9.80629 22.7783 9.80629C23.2685 9.80629 23.6079 9.87429 23.9622 10.0328V10.9523C23.6156 10.7714 23.2236 10.7264 22.8161 10.7264C22.1455 10.7264 21.6322 10.9375 21.3608 11.4053H23.314V12.1439H21.1574C21.1497 12.1965 21.1497 12.2568 21.1497 12.3101C21.1497 12.4153 21.1574 12.5058 21.1728 12.5963H23.314V13.3355H21.4513C21.7156 13.7045 22.1455 13.8783 22.6653 13.8783C23.1934 13.8783 23.6227 13.7648 24 13.5537ZM2.4955 7.43083L2.07032 7.21498C2.9402 5.46281 4.28493 3.94717 5.92416 2.86737C7.56279 1.78874 9.48824 1.12998 11.4586 1.02176C12.4426 0.957301 13.4343 1.03891 14.403 1.22873C15.368 1.43393 16.3142 1.74735 17.1977 2.195C18.902 3.03413 20.3756 4.32978 21.4625 5.89331L21.8546 4.9229L21.9699 4.98145C22.0154 5.00451 22.045 5.05064 22.048 5.10149L22.181 7.64549L22.0616 7.72355L19.7914 6.56686C19.7458 6.5438 19.7163 6.49767 19.7139 6.44682L19.7068 6.31731L20.7428 6.35338C19.7618 4.89807 18.4218 3.67988 16.8523 2.87446C16.0357 2.44337 15.1557 2.13586 14.2539 1.92771C13.3498 1.73552 12.4196 1.64209 11.4929 1.68821C9.63726 1.75917 7.80939 2.34875 6.2358 3.34695C4.66222 4.34693 3.35592 5.76735 2.4955 7.43083ZM21.6027 17.1668L22.0273 17.3827C21.158 19.1343 19.8126 20.6505 18.174 21.7303C16.5354 22.8083 14.6099 23.4677 12.6395 23.5753C11.6555 23.6404 10.6638 23.5582 9.69521 23.3689C8.73012 23.1637 7.78337 22.8503 6.89989 22.4027C5.19561 21.5635 3.72256 20.2679 2.63565 18.7038L2.24359 19.6748L2.12827 19.6162C2.08274 19.5926 2.05317 19.547 2.05022 19.4962L1.91716 16.9522L2.03661 16.8741L4.30681 18.0308C4.35235 18.0539 4.38191 18.0994 4.38428 18.1508L4.39138 18.2804L3.35533 18.2437C4.33638 19.6996 5.67579 20.9172 7.24583 21.7232C8.06249 22.1543 8.94242 22.4618 9.84423 22.6694C10.7484 22.8621 11.6786 22.9556 12.6052 22.9095C14.4603 22.8385 16.2882 22.2489 17.8624 21.2507C19.4359 20.2507 20.7422 18.8303 21.6027 17.1668Z" fill="currentColor"/>
</svg>
