<svg width="24" height="24" viewBox="0 0 24 24" fill="none" xmlns="http://www.w3.org/2000/svg">
<path d="M22.9146 11.7789C22.7249 11.5211 17.9056 5 11.9858 5C6.02781 5 1.24688 11.5213 1.05692 11.7789C0.981026 11.8895 0.981026 12.0737 1.05692 12.2211C1.24666 12.4789 6.06598 19 11.9858 19C17.8674 19 22.7247 12.4787 22.9146 12.2211C23.0285 12.0737 23.0285 11.9263 22.9146 11.7789ZM11.9858 16.0526C9.67098 16.0526 7.81156 14.2474 7.81156 12C7.81156 9.75263 9.67098 7.94737 11.9858 7.94737C14.3006 7.94737 16.16 9.75263 16.16 12C16.16 14.2474 14.3006 16.0526 11.9858 16.0526Z" fill="currentColor"/>
</svg>
