<svg width="40" height="40" viewBox="0 0 40 40" fill="none" xmlns="http://www.w3.org/2000/svg">
<path fill-rule="evenodd" clip-rule="evenodd" d="M20.4833 19.2351H19.5456V21.1728H17.5755V21.4962C17.5755 22.0317 18.01 22.4651 18.5455 22.4651H20.4833C21.0189 22.4651 21.4522 22.0317 21.4522 21.4962V20.204C21.4522 19.6695 21.0189 19.2351 20.4833 19.2351Z" fill="currentColor"/>
<path fill-rule="evenodd" clip-rule="evenodd" d="M39.1302 8.89651L26.8535 8.89651V6.52651C26.8535 4.81207 26.5169 4.13762 24.5702 3.86207C23.3524 3.68873 21.6435 3.58984 20.2558 3.58984C18.8669 3.58984 17.158 3.68873 15.9413 3.86207C13.9947 4.13762 13.6569 4.81207 13.6569 6.52651V8.89651L1.38021 8.89651C0.416882 16.3454 0.416882 28.411 1.38021 35.861L39.1302 35.861C40.0935 28.411 40.0935 16.3454 39.1302 8.89651ZM16.1202 6.52651C16.1202 6.45207 16.1213 6.3854 16.1224 6.32651C16.1713 6.31762 16.2258 6.30984 16.2869 6.30096C17.3324 6.15318 18.9269 6.05318 20.2558 6.05318C21.5835 6.05318 23.1791 6.15318 24.2235 6.30096C24.2847 6.30984 24.3391 6.31762 24.388 6.32651C24.3891 6.3854 24.3902 6.45207 24.3902 6.52651V8.89651H16.1202V6.52651ZM21.3124 31.1876C20.7691 31.1876 20.2847 30.8476 20.0991 30.3376L18.9969 27.311H30.688L32.0991 31.1876H21.3124ZM30.728 22.4654H31.7113V25.0498H25.2502V22.4654H26.2324C26.768 22.4654 27.2013 22.0321 27.2013 21.4965V21.1732H29.7591V21.4965C29.7591 22.0321 30.1935 22.4654 30.728 22.4654ZM32.128 15.2798L30.688 19.2354L23.7135 19.2354C23.1791 19.2354 22.7447 19.6687 22.7447 20.2043V23.7576H17.6247L14.9202 31.1876L8.45799 31.1876C7.83021 31.1876 7.39355 30.5632 7.60799 29.9732L9.89466 23.691C10.6291 21.6632 10.4369 20.8276 9.25799 19.9798C8.95244 19.761 8.1091 19.2354 8.1091 19.2354L9.99021 14.0665L31.2769 14.0665C31.9058 14.0665 32.3424 14.6898 32.128 15.2798Z" fill="currentColor"/>
</svg>
