<svg width="24" height="24" viewBox="0 0 24 24" fill="none" xmlns="http://www.w3.org/2000/svg">
<path fill-rule="evenodd" clip-rule="evenodd" d="M10.1171 5.19966C9.74743 4.55909 9.70514 3.78023 10.0034 3.10366L11.3503 0.0493774L12.6966 3.10366C12.9954 3.78023 12.9531 4.55909 12.5834 5.19966L11.3503 7.33509L10.1171 5.19966ZM6.68457 18.2214L6.94171 23.4505H15.7589L16.0857 16.8419L7.09886 17.7408C6.85486 17.7654 6.67257 17.9768 6.68457 18.2214ZM7.924 6.97795L8.03486 6.83052C9.13486 7.48423 10.0349 8.29166 10.7509 9.26938C10.8263 6.17795 8.18057 4.86823 4 4.04766L7.35714 9.86252C7.85086 10.7174 8.76286 11.2437 9.74971 11.2437H10.0863C10.4754 12.3482 10.6806 13.5774 10.6823 14.8979H5.59429V16.2797H17.1063V14.8979H11.3731C11.3691 11.5608 10.1451 8.74938 7.924 6.97795ZM12.0171 12.6831H13.1189C14.1063 12.6831 15.0183 12.1562 15.512 11.3014L19.7 4.04766C13.7251 5.22023 10.36 7.22481 12.0171 12.6831Z" fill="currentColor"/>
</svg>
