<svg width="24" height="25" viewBox="0 0 24 25" fill="none" xmlns="http://www.w3.org/2000/svg">
<path fill-rule="evenodd" clip-rule="evenodd" d="M12 0.0583496C5.38124 0.0583496 0 5.4402 0 12.0583C0 18.6765 5.38124 24.0583 12 24.0583C18.6188 24.0583 24 18.6765 24 12.0583C23.9994 5.4402 18.6181 0.0583496 12 0.0583496ZM12 22.2532C11.3983 22.2532 10.8301 22.1862 10.2284 22.0864L10.7296 19.0443C11.1309 19.1113 11.5317 19.1448 11.9665 19.1448C15.9105 19.1448 19.1194 15.9359 19.1194 11.992C19.1194 8.04739 15.9105 4.8385 11.9665 4.8385C8.02192 4.8385 4.81303 8.04739 4.81303 11.992C4.81303 14.2983 5.91596 16.3373 7.58709 17.6406L5.6151 20.0139C3.24178 18.1418 1.70463 15.2337 1.70463 11.992C1.70463 6.34276 6.2838 1.76359 11.9324 1.76359C17.581 1.76359 22.1608 6.34276 22.1608 11.992C22.1614 17.6406 17.6486 22.2532 12 22.2532ZM10.1279 14.6655C9.29233 14.0973 8.75761 13.1278 8.75761 12.0583C8.75761 10.2867 10.1949 8.84946 11.9665 8.84946C13.7375 8.84946 15.1754 10.2867 15.1754 12.0583C15.1754 13.83 13.7381 15.2672 11.9665 15.2672C11.7655 15.2672 11.5652 15.2337 11.3977 15.2002L11.832 12.5626C11.8842 12.5827 11.9408 12.5937 12 12.5937C12.2587 12.5937 12.4683 12.384 12.4683 12.1253C12.4683 11.8667 12.2587 11.657 12 11.657C11.7414 11.657 11.5317 11.8667 11.5317 12.1253C11.5317 12.3242 11.6556 12.4941 11.8305 12.562L10.1279 14.6655ZM12 16.0364C13.8051 16.0364 15.3429 14.8324 15.8106 13.1948C15.8776 13.2953 16.0116 13.3616 16.1449 13.3616C16.3788 13.3616 16.6133 13.1613 16.6133 12.8933C16.6133 12.6259 16.4123 12.4256 16.1449 12.4256C16.0786 12.4256 16.0128 12.4585 15.9464 12.4917L15.9446 12.4926C15.9781 12.3257 15.9781 12.1917 15.9781 12.0242C15.9781 9.81779 14.173 8.04617 12.0006 8.04617C9.82826 8.04617 8.02314 9.85128 8.02314 12.0242C8.02314 13.361 8.65834 14.5309 9.66078 15.2331L8.2905 16.9043C6.81973 15.7678 5.88368 13.9962 5.88368 12.0242C5.88368 11.4225 5.98417 10.8208 6.15104 10.2526C6.21803 10.2861 6.28502 10.3196 6.35201 10.3196C6.58587 10.3196 6.81973 10.1192 6.81973 9.85189C6.81973 9.65092 6.68636 9.48405 6.48538 9.41706C7.45493 7.31109 9.59379 5.87382 12.0676 5.87382C15.4434 5.87382 18.218 8.64848 18.218 12.0242C18.218 14.5309 16.7138 16.7039 14.5414 17.6728C14.5079 17.4725 14.3069 17.305 14.1066 17.305C13.8727 17.305 13.6389 17.5054 13.6389 17.7727C13.6389 17.8397 13.6723 17.9396 13.7058 18.0066C13.1711 18.14 12.6364 18.2404 12.0682 18.2404C11.7004 18.2404 11.3325 18.2069 10.9988 18.14L11.3666 16.0011C11.4399 16.0016 11.5267 16.0087 11.6212 16.0163L11.6212 16.0163L11.6214 16.0163L11.6214 16.0163C11.7396 16.0259 11.8697 16.0364 12 16.0364ZM5.64859 19.0778C5.90725 19.0778 6.11693 18.8682 6.11693 18.6095C6.11693 18.3509 5.90725 18.1412 5.64859 18.1412C5.38994 18.1412 5.18026 18.3509 5.18026 18.6095C5.18026 18.8682 5.38994 19.0778 5.64859 19.0778ZM15.6096 4.47006C15.8679 4.47006 16.0773 4.26065 16.0773 4.00233C16.0773 3.74402 15.8679 3.53461 15.6096 3.53461C15.3513 3.53461 15.1419 3.74402 15.1419 4.00233C15.1419 4.26065 15.3513 4.47006 15.6096 4.47006ZM8.05542 9.71854C8.05542 9.97719 7.84574 10.1869 7.58709 10.1869C7.32843 10.1869 7.11876 9.97719 7.11876 9.71854C7.11876 9.45989 7.32843 9.25021 7.58709 9.25021C7.84574 9.25021 8.05542 9.45989 8.05542 9.71854Z" fill="currentColor"/>
</svg>
