<svg width="24" height="24" viewBox="0 0 24 24" fill="none" xmlns="http://www.w3.org/2000/svg">
<path fill-rule="evenodd" clip-rule="evenodd" d="M22.9807 16.2068H24L23.9548 21.8949H22.006L21.7795 21.2153C21.7114 21.034 21.5301 20.8526 21.3035 20.8075C16.0685 19.5833 7.93153 19.5833 2.67416 20.8075C2.44765 20.8526 2.28861 21.034 2.19824 21.2153L1.99403 21.8497V21.8949H0V8.54633H1.99403V13.2151C3.35429 12.2404 5.50736 12.1952 7.00259 13.0115C7.20681 13.1248 7.34295 13.3512 7.34295 13.5778V14.2127H21.6662C22.3909 14.2127 22.9807 14.8019 22.9807 15.5495V16.2068ZM8.92914 8.00292L9.79002 7.54929L10.2213 6.71075L10.6286 7.54929L11.5129 8.00292L10.6286 8.43308L10.2213 9.27224L9.79002 8.43308L8.92914 8.00292ZM12.3292 3.69678L13.4841 3.10763L14.0287 1.97388L14.6401 3.10763L15.7739 3.69678L14.6401 4.26366L14.0287 5.41915L13.4841 4.26366L12.3292 3.69678ZM16.6799 7.77584H16.8161C19.9433 7.77584 22.4813 5.2378 22.4813 2.1329V1.97388C23.4108 2.72267 24 3.87755 24 5.17033C24 7.43606 22.1415 9.27224 19.8529 9.27224C18.5613 9.27224 17.4504 8.68248 16.6799 7.77584Z" fill="currentColor"/>
</svg>
