<svg width="24" height="24" viewBox="0 0 24 24" fill="none" xmlns="http://www.w3.org/2000/svg">
<path fill-rule="evenodd" clip-rule="evenodd" d="M23 12.142C23 18.0205 21.2639 22.5842 11.9879 22.5842C2.73673 22.5842 1 18.0205 1 12.142C1 6.26423 2.73673 1.70044 11.9879 1.70044C21.2639 1.70044 23 6.26423 23 12.142ZM13.7983 6.58626C13.7983 5.59426 12.9799 4.82539 11.9879 4.82539C11.0207 4.82539 10.2018 5.59426 10.2018 6.58626C10.2018 7.60357 11.0207 8.37186 11.9879 8.37186C12.9799 8.37186 13.7983 7.60357 13.7983 6.58626ZM13.5751 9.4139H11.5164C10.8964 9.4139 10.4255 9.88547 10.4255 10.4554V19.6824H13.5751V9.4139Z" fill="currentColor"/>
</svg>
