<svg width="24" height="24" viewBox="0 0 24 24" fill="none" xmlns="http://www.w3.org/2000/svg">
<g clip-path="url(#clip0_3636_204092)">
<path fill-rule="evenodd" clip-rule="evenodd" d="M11.6836 23.1418C12.7704 23.1814 13.8358 23.371 14.7171 23.7111V24H11.6836H10.8169H7.7834V23.7111C8.66475 23.371 9.73017 23.1814 10.8169 23.1418V20.1613H11.1058C11.4252 20.1613 11.6836 20.4204 11.6836 20.7391V23.1418ZM20.0698 23.2442L19.3299 22.7542C18.9276 20.9153 18.6424 18.2518 18.5723 15.8509C18.554 15.228 18.0414 14.7349 17.4179 14.7343H15.916L17.6019 21.0372C17.5629 21.0847 17.4916 21.1719 17.427 21.2597C17.1594 21.6266 17.1235 21.8588 17.2228 22.3812C17.3496 23.0449 17.5075 24 17.5075 24H17.9652V23.1302H18.1389L18.3888 23.6666C18.4839 23.8702 18.6881 24 18.9124 24H20.3289V23.7263C20.3289 23.5325 20.2313 23.3515 20.0698 23.2442ZM10.5755 2.47654C11.0376 2.86418 11.6166 3.15248 12.1664 3.24573L12.5138 2.83188C12.5339 3.29632 12.5589 3.91924 12.5589 3.91924L11.6964 4.47328C11.3612 4.31602 10.937 4.56958 10.926 4.92858C11.0351 5.11204 11.1936 5.25588 11.3685 5.33329C11.5032 5.10229 11.6812 5.25344 11.8141 5.01269L13.0142 4.58482C13.2098 4.51533 13.3531 4.34528 13.389 4.1411L13.6578 2.61794H13.8309L14.1326 3.22135C14.2186 3.39262 14.2137 3.59437 14.121 3.76137L13.5956 4.70306C13.7273 4.87921 13.8657 5.04804 14.0107 5.20163C14.3502 4.38124 14.8616 3.75589 15.6808 3.2311C15.0938 2.73801 14.5709 2.29978 13.9175 1.75122C13.5804 1.46841 13.2543 1.41417 12.9843 1.52266L12.9886 1.51778L12.8557 1.40624C12.8155 0.976543 12.5723 0.58646 12.2462 0.313401C11.6355 -0.199193 11.0248 -0.0638826 10.4853 0.579755C9.86487 1.31909 10.0928 2.07121 10.5755 2.47654ZM14.8214 4.65064C14.4642 5.09985 14.274 5.57526 14.2283 6.06652C14.2112 6.25303 14.2923 6.43527 14.4355 6.55535L15.9227 7.79691L16.0489 8.51186C16.0721 8.64229 16.1391 8.76115 16.2397 8.84831L16.3866 8.97569L16.7279 7.80239L16.5164 7.6232L15.9221 6.4755C16.1172 6.41394 16.3037 6.31337 16.467 6.16953C17.096 5.61671 17.1582 4.65796 16.6048 4.02895L16.5012 4.15207C16.6956 4.53484 16.6639 5.0072 16.3927 5.36742L16.2244 5.30037C16.3098 5.03463 16.2799 4.76157 16.1257 4.55739C15.8563 4.20022 15.2236 4.14536 14.8214 4.65064ZM15.9392 17.6959L15.9496 17.8397C15.9691 18.114 15.7929 18.3639 15.5284 18.4377L13.236 19.0776L10.0946 19.9547C9.01156 20.257 7.86813 19.7365 7.3854 18.7205L2.9165 9.3158H3.32731C3.43032 9.3158 3.52601 9.37126 3.57782 9.46025L6.62291 14.7349H7.62371C7.16902 13.948 6.74725 13.2166 6.47175 12.74C5.37708 10.8432 6.62047 10.2916 6.61437 8.75078C6.61437 8.74896 6.61498 8.74957 6.61559 8.74896C6.14383 8.77212 5.6989 8.73799 5.28931 8.59048C5.46302 7.26908 3.90573 5.68192 6.45285 4.75487C7.09649 4.52082 7.88885 4.44097 8.48982 4.55922C8.57332 4.86945 8.54102 5.26868 8.42278 5.56978C8.76044 6.30545 9.00546 7.46046 8.92927 8.24307C8.61294 8.41068 8.26309 8.52832 7.92054 8.585V9.03299L8.527 9.62055C9.59668 9.2006 11.0278 8.65509 11.0278 8.65509L12.2121 5.41923H13.1611L12.4778 9.24753C12.4156 9.598 12.1956 9.8997 11.8805 10.0661C10.9059 10.5805 8.8025 11.6929 8.34903 11.9507L8.38072 12.1214L10.4183 11.4515L11.118 12.1299C11.1857 12.4109 11.1168 12.7747 10.9681 13.0679L10.9675 13.0722L11.7434 14.7349H15.1761C15.4778 14.7349 15.7289 14.9677 15.7521 15.2688L15.9374 17.6959H15.9392Z" fill="currentColor"/>
</g>
<defs>
<clipPath id="clip0_3636_204092">
<rect width="24" height="24" fill="white"/>
</clipPath>
</defs>
</svg>
