<svg width="40" height="40" viewBox="0 0 40 40" fill="none" xmlns="http://www.w3.org/2000/svg">
<path fill-rule="evenodd" clip-rule="evenodd" d="M17.2396 39.0486V39.4308H15.2626C14.9485 39.4308 14.6634 39.2495 14.5315 38.9652L14.1817 38.2163H13.94V39.4308H13.3C13.3 39.4308 13.0796 38.0972 12.9034 37.1704C12.7639 36.441 12.8141 36.1167 13.1885 35.6044C13.3187 35.4257 13.4736 35.2452 13.4736 35.2452C13.4736 35.2452 13.0924 33.7516 12.9809 33.3372C12.4924 31.5142 12.2064 29.6606 12.2064 27.6342V26.4725L11.9758 25.6121H15.1919L15.1894 26.0725C15.1868 26.4793 15.1332 26.8852 15.0294 27.2793L14.7349 28.3916C14.7349 31.224 15.0498 34.7738 15.8447 37.6912L16.8787 38.3763C17.1043 38.5252 17.2396 38.778 17.2396 39.0486ZM21.5707 24.0061C21.8541 24.5627 22.7119 24.7908 23.3868 24.1942C23.9877 23.6631 24.3639 23.0546 24.546 22.3899C24.6149 22.138 24.5477 21.8682 24.3792 21.6682L22.6353 19.6001V18.5865C22.6353 18.4018 22.5715 18.2214 22.4549 18.0776L22.2839 17.8674L21.5298 19.3976L21.7775 19.6955L22.3119 21.4052C21.4328 21.5516 20.7068 22.2452 20.5656 23.1746C20.3885 24.3304 21.1826 25.4112 22.3392 25.5874V25.3627C21.7877 25.1278 21.3979 24.5942 21.3647 23.9652L21.5298 23.9116C21.5426 23.9431 21.5545 23.9755 21.5707 24.0061ZM26.8243 24.5925L26.6702 24.761L24.837 23.4061L24.2379 25.0725C24.1434 25.3355 24.3383 25.6121 24.6175 25.6121H27.2583C27.8728 25.6121 28.2694 25.3772 28.4609 25.0189V25.0274H28.7034C29.1324 25.4512 29.7426 25.6504 30.3366 25.6504C31.4498 25.6504 31.9809 24.9576 31.9809 23.784C31.9809 22.4367 31.0626 21.8367 30.1817 21.8367C29.34 21.8367 28.4609 22.0478 27.7894 22.4418V23.3048C27.2728 22.9099 26.4183 22.2486 26.4183 22.2486L26.5996 20.8291C27.0694 20.6112 27.1783 19.9304 26.8039 19.5959C26.5094 19.5482 26.2141 19.5891 25.9741 19.7057C26.1 20.0572 25.7792 20.1125 25.917 20.4708L25.2975 22.138C25.197 22.4103 25.2498 22.7159 25.4362 22.938L26.8243 24.5925ZM22.5332 15.1091L18.3128 12.8844C18.3128 12.8844 18.3051 12.7874 18.2915 12.6197C18.557 12.4665 18.7885 12.264 18.9273 12.0384V6.18141L19.6515 5.67418C19.9911 6.01971 20.4056 6.32609 20.8507 6.55333C21.8073 6.01375 22.9315 4.80865 23.5026 3.83333C23.9417 3.72695 24.4243 3.44354 24.7119 3.10056C24.3664 2.31843 23.6405 1.47588 22.8575 0.926945C19.757 -1.24412 19.1885 1.80865 17.5375 2.66822C17.6975 3.25716 18.0166 3.79588 18.4234 4.31758L18.4217 4.31843C17.0039 5.31163 15.4056 4.80099 14.4141 6.90567C13.7222 8.37461 13.2864 10.7933 13.2864 13.0231C11.0056 15.4784 9.36896 19.9303 8.99023 23.8461L17.1766 25.2895L17.1766 15.9303L16.8387 15.8316C16.2379 15.6563 15.7936 15.1491 15.6975 14.5304L14.66 7.85205L14.8992 7.8146L14.9187 7.86907C14.9273 7.91503 14.9298 7.96099 14.9409 8.00695C15.1077 8.70907 15.9987 12.1763 16.426 13.835C16.5681 14.3865 16.9894 14.8206 17.5358 14.9806L22.5332 16.4427V15.1091ZM24.426 16.064L23.4583 15.4818L23.146 16.1167C23.0039 16.4035 23.0456 16.7474 23.2515 16.9925L24.8336 18.8776L25.0685 18.2325C25.123 18.081 25.1315 17.9176 25.0932 17.761L24.7928 16.5601C24.7409 16.3525 24.609 16.1746 24.426 16.064ZM19.8056 27.6291L32.7145 27.6291V26.4189L19.8056 26.4189V27.6291Z" fill="currentColor"/>
</svg>
