<svg width="40" height="40" viewBox="0 0 40 40" fill="none" xmlns="http://www.w3.org/2000/svg">
<path d="M29.1665 12.8137L29.1665 34.4013C29.1665 34.591 29.1282 34.7788 29.0536 34.9537C28.9791 35.1287 28.8699 35.2874 28.7324 35.4205C28.5949 35.5537 28.4318 35.6586 28.2526 35.7293C28.0734 35.7999 27.8817 35.8349 27.6887 35.8321H12.3752C12.1804 35.8377 11.9864 35.8048 11.8047 35.7355C11.6231 35.6661 11.4574 35.5616 11.3176 35.4282C11.1778 35.2948 11.0667 35.1351 10.9908 34.9587C10.915 34.7823 10.8759 34.5928 10.876 34.4013L10.876 12.8137L1.6665 12.8137L1.6665 4.16602L38.3332 4.16602V12.8137L29.1665 12.8137ZM8.60576 6.27007V10.6465L10.7475 10.6465L10.7475 8.37413L29.1023 8.37413V10.6465H31.244V6.27007L8.60576 6.27007ZM26.7249 17.0008C26.7249 17.0008 26.5322 16.8535 26.0396 17.0008C25.325 17.0516 24.6474 17.3327 24.112 17.8003L22.4414 18.8944L14.9239 17.2743C14.8225 17.2527 14.7174 17.2548 14.617 17.2804C14.5165 17.306 14.4236 17.3543 14.3456 17.4216L14.003 17.653L19.6357 20.9985H19.5287C18.5223 21.7689 17.5639 22.598 16.6587 23.4813L14.3456 23.1025C14.1598 23.031 13.9532 23.031 13.7674 23.1025L13.4247 23.3761L15.5664 24.6174C15.3737 24.8489 15.1809 25.0803 14.9882 25.2697L15.4593 25.8799L16.2304 25.5011L16.8515 27.7735L17.1942 27.5421C17.2769 27.4812 17.3435 27.4016 17.3882 27.31C17.433 27.2184 17.4546 27.1176 17.4512 27.0161L17.6225 24.7647C18.7303 24.1302 19.7962 23.4274 20.8137 22.6607L22.5699 28.9728L22.8912 28.7414C22.9752 28.6786 23.0451 28.5994 23.0967 28.509C23.1483 28.4185 23.1804 28.3186 23.191 28.2154L23.6194 20.6829L25.2899 19.4204C25.8956 19.0448 26.3672 18.4933 26.6392 17.8424C26.8534 17.2743 26.8534 17.127 26.7249 17.0008Z" fill="currentColor"/>
</svg>
