<svg width="24" height="24" viewBox="0 0 24 24" fill="none" xmlns="http://www.w3.org/2000/svg">
<path d="M4.8 15.6V17.4C4.8 19.389 6.4119 21 8.4 21H17.4C19.389 21 21 19.389 21 17.4C21 14.4039 21 9.597 21 6.6C21 4.6119 19.389 3 17.4 3C14.8269 3 10.974 3 8.4 3C6.4119 3 4.8 4.6119 4.8 6.6V8.4C4.8 8.8968 5.2032 9.3 5.7 9.3C6.1968 9.3 6.6 8.8968 6.6 8.4C6.6 8.4 6.6 7.5567 6.6 6.6C6.6 5.6064 7.4064 4.8 8.4 4.8H17.4C18.3945 4.8 19.2 5.6064 19.2 6.6V17.4C19.2 18.3945 18.3945 19.2 17.4 19.2C14.8269 19.2 10.974 19.2 8.4 19.2C7.4064 19.2 6.6 18.3945 6.6 17.4C6.6 16.4442 6.6 15.6 6.6 15.6C6.6 15.1041 6.1968 14.7 5.7 14.7C5.2032 14.7 4.8 15.1041 4.8 15.6ZM11.6274 11.1L10.4637 9.93719C10.1127 9.58529 10.1127 9.0156 10.4637 8.6637C10.8156 8.3127 11.3853 8.3127 11.7363 8.6637L14.4363 11.3637C14.7882 11.7156 14.7882 12.2853 14.4363 12.6372L11.7363 15.3372C11.3853 15.6882 10.8156 15.6882 10.4637 15.3372C10.1127 14.9853 10.1127 14.4156 10.4637 14.0637L11.6274 12.9H3.9C3.4032 12.9 3 12.4968 3 12C3 11.5041 3.4032 11.1 3.9 11.1H11.6274Z" fill="currentColor"/>
</svg>
