<svg width="472" height="104" viewBox="0 0 472 104" fill="none" xmlns="http://www.w3.org/2000/svg">
<path d="M123.43 42.9717H100.073L104.201 20.6226H87.0974L76.0264 81.1129H93.1299L97.561 57.6594H120.904L116.583 81.1129H133.687L144.868 20.6226H127.558L123.43 42.9717Z" fill="currentColor"/>
<path d="M73.8999 19.6146C73.8999 12.7124 71.4841 8.44693 67.5637 5.52042C62.042 1.69664 54.4773 0.592285 47.0368 0.592285H14.9281L0.129883 81.1126H32.3352C42.9093 81.1126 51.4542 80.1049 58.9085 76.5848C65.6449 73.5617 70.9872 66.5215 70.9872 56.5548C70.9872 47.8029 65.9486 41.8533 58.2044 39.0372V38.9406C67.3567 35.5171 73.8999 28.9739 73.8999 19.6146ZM48.6381 64.1058C45.2146 66.8666 38.9751 67.2255 34.047 67.2255H21.2642L25.088 46.1878H36.9597C46.319 46.1878 51.7579 47.9961 51.7579 56.0578C51.7579 60.0749 50.5431 62.4907 48.6381 64.1058ZM52.8622 29.3742C50.1013 31.5967 45.118 32.7976 40.1899 32.7976H27.766L31.2171 13.6788H44.4968C48.1273 13.6788 51.399 14.3828 53.3592 16.0945C54.2308 16.9352 54.9075 17.9567 55.3416 19.0873C55.7757 20.2178 55.9565 21.4297 55.8715 22.6377C55.94 23.9188 55.7029 25.1977 55.1796 26.369C54.6564 27.5403 53.862 28.5704 52.8622 29.3742Z" fill="currentColor"/>
<path d="M444.322 18.3032C422.981 18.3032 407.782 34.2058 407.782 56.2512C407.782 75.2735 419.971 83.3214 435.267 83.3214C456.801 83.3214 472 67.0185 472 44.8764C472 25.7575 459.824 18.3032 444.322 18.3032ZM436.164 70.6076C429.621 70.6076 425.3 66.1765 425.3 57.1209C425.3 44.8351 431.539 30.8928 443.715 30.8928C449.954 30.8928 454.758 34.8131 454.758 43.9792C454.786 56.2512 448.546 70.6076 436.164 70.6076Z" fill="currentColor"/>
<path d="M402.759 34.7158C402.759 22.637 392.489 20.4146 379.403 20.4146C370.14 20.4146 360.781 20.6216 351.421 20.7182L340.378 81.1119H369.422C385.628 81.1119 400.923 78.1992 400.923 62.4899C400.923 55.2427 396.603 51.4465 390.764 49.5139V49.2102C397.113 46.6841 402.759 42.667 402.759 34.7158ZM370.444 69.8338H359.759L362.175 55.7535H373.356C378.478 55.7535 383.116 56.5541 383.116 62.2967C383.13 69.1298 376.324 69.8338 370.444 69.8338ZM374.668 44.8757H364.204L366.523 31.4856H376.89C382.219 31.4856 385.642 32.3966 385.642 37.2281C385.642 43.5643 380.01 44.8757 374.668 44.8757Z" fill="currentColor"/>
<path d="M196.868 20.6224C195.363 30.2854 188.917 43.0682 184.444 51.9305C181.255 57.7973 178.439 63.0706 175.665 67.8193C175.168 62.4908 174.657 58.8603 173.484 51.2541L168.845 20.65H152.004L162.965 82.1481C158.138 85.4044 152.643 87.5366 146.883 88.3876L149.644 103.683C171.592 99.2516 180.151 88.498 195.543 61.0137C201.782 50.2464 210.438 34.2334 216.484 20.65L196.868 20.6224Z" fill="currentColor"/>
<path d="M310.658 18.3031C289.027 18.3031 274.118 34.2057 274.118 56.2511C274.118 75.2734 286.197 83.3212 301.602 83.3212C323.137 83.3212 338.446 67.0184 338.446 44.8763C338.446 25.7574 325.953 18.3031 310.658 18.3031ZM302.375 70.6489C296.136 70.6489 291.705 66.2178 291.705 57.1622C291.705 44.8764 297.751 30.934 310.023 30.934C316.166 30.934 321.066 34.8544 321.066 44.0205C321.025 56.2511 314.882 70.6075 302.306 70.6075L302.375 70.6489Z" fill="currentColor"/>
<path d="M259.802 42.3637C264.744 37.9325 275.705 27.179 280.246 20.622H258.297C256.379 26.2541 251.754 31.7896 245.722 37.1871C243.403 39.2992 240.587 42.0186 238.364 43.9374C237.385 44.9922 236.133 45.7564 234.747 46.1461L239.772 20.5806H222.669L211.294 81.0709H228.108L233.836 51.7782C234.347 51.7782 234.844 51.9853 235.451 52.8826L252.859 81.0709H273.192L252.155 49.321C254.474 47.2918 257.386 44.7795 259.802 42.3637Z" fill="currentColor"/>
</svg>
