<svg width="349" height="109" viewBox="0 0 349 109" fill="none" xmlns="http://www.w3.org/2000/svg">
<path d="M96.4504 31.4302H79.5304L82.5204 15.2402H70.1304L62.1104 59.0602H74.5004L77.7104 42.0702H94.6204L91.4904 59.0602H103.88L111.98 15.2402H99.4404L96.4504 31.4302Z" fill="currentColor"/>
<path d="M60.5699 14.51C60.5699 9.50998 58.8199 6.41999 55.9799 4.29999C51.9799 1.52999 46.4999 0.72998 41.1099 0.72998H17.8499L7.12988 59.06H30.4599C38.1199 59.06 44.3099 58.33 49.7099 55.78C54.5899 53.59 58.4599 48.49 58.4599 41.27C58.4599 34.93 54.8099 30.62 49.1999 28.58V28.51C55.8299 26.03 60.5699 21.29 60.5699 14.51ZM42.2699 46.74C39.7899 48.74 35.2699 49 31.6999 49H22.4399L25.2099 33.76H33.8099C40.5899 33.76 44.5299 35.07 44.5299 40.91C44.5299 43.82 43.6499 45.57 42.2699 46.74ZM45.3299 21.58C43.3299 23.19 39.7199 24.06 36.1499 24.06H27.1499L29.6499 10.21H39.2699C41.8999 10.21 44.2699 10.72 45.6899 11.96C46.3213 12.569 46.8115 13.309 47.126 14.128C47.4404 14.947 47.5715 15.8249 47.5099 16.7C47.5595 17.628 47.3877 18.5545 47.0086 19.403C46.6296 20.2515 46.0542 20.9977 45.3299 21.58Z" fill="currentColor"/>
<path d="M328.909 13.5601C313.449 13.5601 302.439 25.0801 302.439 41.0501C302.439 54.8301 311.269 60.6601 322.349 60.6601C337.949 60.6601 348.959 48.8501 348.959 32.8101C348.959 18.9601 340.139 13.5601 328.909 13.5601ZM322.999 51.4501C318.259 51.4501 315.129 48.2401 315.129 41.6801C315.129 32.7801 319.649 22.6801 328.469 22.6801C332.989 22.6801 336.469 25.5201 336.469 32.1601C336.489 41.0501 331.969 51.4501 322.999 51.4501Z" fill="currentColor"/>
<path d="M298.8 25.4501C298.8 16.7001 291.36 15.0901 281.88 15.0901C275.17 15.0901 268.39 15.2401 261.61 15.3101L253.61 59.0601H274.65C286.39 59.0601 297.47 56.9501 297.47 45.5701C297.47 40.3201 294.34 37.5701 290.11 36.1701V35.9501C294.71 34.1201 298.8 31.2101 298.8 25.4501ZM275.39 50.8901H267.65L269.4 40.6901H277.5C281.21 40.6901 284.57 41.2701 284.57 45.4301C284.58 50.3801 279.65 50.8901 275.39 50.8901ZM278.45 32.8101H270.87L272.55 23.1101H280.06C283.92 23.1101 286.4 23.7701 286.4 27.2701C286.4 31.8601 282.32 32.8101 278.45 32.8101Z" fill="currentColor"/>
<path d="M149.649 15.2402C148.559 22.2402 143.889 31.5002 140.649 37.9202C138.339 42.1702 136.299 45.9902 134.289 49.4302C133.929 45.5702 133.559 42.9402 132.709 37.4302L129.349 15.2602H117.149L125.089 59.8102C121.593 62.1691 117.612 63.7137 113.439 64.3302L115.439 75.4102C131.339 72.2002 137.539 64.4102 148.689 44.5002C153.209 36.7002 159.479 25.1002 163.859 15.2602L149.649 15.2402Z" fill="currentColor"/>
<path d="M232.08 13.5601C216.41 13.5601 205.61 25.0801 205.61 41.0501C205.61 54.8301 214.36 60.6601 225.52 60.6601C241.12 60.6601 252.21 48.8501 252.21 32.8101C252.21 18.9601 243.16 13.5601 232.08 13.5601ZM226.08 51.4801C221.56 51.4801 218.35 48.2701 218.35 41.7101C218.35 32.8101 222.73 22.7101 231.62 22.7101C236.07 22.7101 239.62 25.5501 239.62 32.1901C239.59 41.0501 235.14 51.4501 226.03 51.4501L226.08 51.4801Z" fill="currentColor"/>
<path d="M195.24 30.99C198.82 27.78 206.76 19.99 210.05 15.24H194.15C192.76 19.32 189.41 23.33 185.04 27.24C183.36 28.77 181.32 30.7399 179.71 32.1299C179 32.8941 178.093 33.4477 177.09 33.7299L180.73 15.21H168.34L160.1 59.0299H172.28L176.43 37.8099C176.8 37.8099 177.16 37.96 177.6 38.61L190.21 59.0299H204.94L189.7 36.0299C191.38 34.5599 193.49 32.74 195.24 30.99Z" fill="currentColor"/>
<path d="M5.28983 91.5299C5.72983 89.6399 6.1998 87.3699 6.4198 86.3399H6.58981L8.2998 101.73H11.7198L19.7698 86.3399H19.9398C19.7698 87.5399 19.3998 90.2299 19.0598 92.4299L17.5898 101.73H20.6498L23.2198 83.3799H18.6498C18.0598 84.9199 16.9798 87.0299 15.9298 89.0599L11.1398 98.2999H10.8698L9.24982 83.3799H4.77982L0.299805 101.73H2.8898L5.28983 91.5299Z" fill="currentColor"/>
<path d="M27.9897 102.19C30.1454 102.176 32.2608 101.604 34.1297 100.53L33.7597 98.4499C32.325 99.4507 30.6369 100.026 28.8897 100.11C27.4497 100.11 26.7697 98.5699 26.8397 96.8099C26.8397 96.5499 26.8397 96.2899 26.8897 96.0299C30.7797 96.0299 32.6497 95.4299 34.1797 94.5599C34.8523 94.218 35.4206 93.7016 35.8253 93.0648C36.2299 92.4279 36.4559 91.694 36.4797 90.9399C36.5697 88.7399 35.1097 87.5399 32.9297 87.5399C30.7985 87.5021 28.73 88.2618 27.1297 89.6699C26.1345 90.6229 25.339 91.7645 24.7896 93.0281C24.2402 94.2918 23.9479 95.6521 23.9297 97.0299C23.8297 100.55 25.6497 102.19 27.9897 102.19ZM28.5497 91.2799C29.0094 90.7394 29.5788 90.3029 30.2202 89.9995C30.8616 89.696 31.5603 89.5325 32.2697 89.5199C32.4763 89.5116 32.6822 89.5479 32.8735 89.6262C33.0648 89.7046 33.237 89.8232 33.3784 89.9741C33.5198 90.1249 33.627 90.3045 33.6928 90.5005C33.7586 90.6965 33.7814 90.9043 33.7597 91.1099C33.7869 91.5113 33.6999 91.9121 33.5088 92.266C33.3177 92.62 33.0302 92.9126 32.6797 93.1099C31.7697 93.7199 30.0997 94.1099 27.1897 94.1099C27.433 93.0793 27.897 92.1138 28.5497 91.2799Z" fill="currentColor"/>
<path d="M191.439 101.71H194.249L196.769 87.96H193.979L191.439 101.71Z" fill="currentColor"/>
<path d="M185.86 93.71H183.44L184.51 87.96H181.7L179.2 101.7H185.2C189.55 101.7 190.92 99.3299 190.92 96.8799C190.92 94.4299 189.53 93.71 185.86 93.71ZM185.37 99.58H182.37L183.06 95.71H185.65C187.38 95.71 188 96.13 188 97.3C188 98.47 187.25 99.58 185.37 99.58Z" fill="currentColor"/>
<path d="M127.79 87.45C125.13 87.45 123.51 89.45 122.58 90.9H122.46L123.1 87.9H120.43L116.76 108.03H119.55L120.92 100.56C121.395 101.07 121.976 101.471 122.622 101.733C123.268 101.996 123.963 102.114 124.66 102.08C125.702 102.064 126.724 101.793 127.637 101.291C128.551 100.789 129.327 100.071 129.9 99.2C131.217 97.1883 131.89 94.8235 131.83 92.42C131.83 89.57 130.65 87.45 127.79 87.45ZM127.62 97.8499C127.345 98.4932 126.894 99.0457 126.319 99.4438C125.744 99.8419 125.069 100.069 124.37 100.1C123.737 100.147 123.106 99.992 122.567 99.6579C122.028 99.3237 121.609 98.8273 121.37 98.24L121.98 94.8C122.76 92.52 124.63 89.7499 126.78 89.7499C128.28 89.7499 128.78 90.9699 128.78 92.8799C128.794 94.6147 128.408 96.3294 127.65 97.89L127.62 97.8499Z" fill="currentColor"/>
<path d="M206.53 87.4499C209.14 87.4499 211.12 86.3499 211.53 83.9299H209.09C209.07 84.2185 208.993 84.5 208.862 84.758C208.731 85.0159 208.549 85.2449 208.328 85.4314C208.107 85.618 207.851 85.7582 207.575 85.8438C207.299 85.9294 207.008 85.9587 206.72 85.9299C205.22 85.9299 205.13 85.0699 205.2 83.9299H202.78C202.49 86.0999 203.35 87.4499 206.53 87.4499Z" fill="currentColor"/>
<path d="M91.9896 95.7899H98.5096L97.4396 101.71H100.23L102.72 87.96H99.9296L98.9296 93.41H92.4296L93.4296 87.96H90.6396L88.0996 101.71H90.8796L91.9896 95.7899Z" fill="currentColor"/>
<path d="M210.49 87.96L201.29 97.13L202.98 87.96H200.19L197.62 101.71H199.63L208.85 92.5099L207.19 101.71H209.98L212.49 87.96H210.49Z" fill="currentColor"/>
<path d="M72.5898 105.35L73.1998 108.06C76.8198 107.28 79.5098 104.2 81.4198 101.06C82.5891 99.1369 83.6572 97.1543 84.6198 95.1199L88.0699 87.9299H84.7698C83.9511 90.4047 82.9483 92.8148 81.7698 95.1399C81.2298 96.2999 80.4998 97.7699 79.6398 99.2199C79.5098 98.3399 79.3798 97.4499 79.2298 96.5599L77.6498 87.9599H74.7298L77.6698 102.2C77.0878 103.049 76.3356 103.767 75.4611 104.309C74.5865 104.851 73.6087 105.206 72.5898 105.35Z" fill="currentColor"/>
<path d="M55.0498 105.45H57.5698L58.2498 101.73H68.4498L67.7698 105.45H70.2898L71.3598 99.58H69.5298L71.6498 87.96H62.1098C61.5398 92.26 59.5998 97.38 57.5598 99.55H56.1198L55.0498 105.45ZM61.2598 98.24C62.6374 95.6705 63.6473 92.9203 64.2598 90.0699H68.4698L66.7298 99.58H60.1798C60.6114 99.1846 60.9761 98.7219 61.2598 98.21V98.24Z" fill="currentColor"/>
<path d="M141.39 87.57C140.334 87.534 139.283 87.7221 138.306 88.122C137.329 88.5219 136.447 89.1245 135.72 89.89C134.121 91.7039 133.265 94.053 133.32 96.47C133.32 99.58 134.66 102.09 138.95 102.09C140.005 102.125 141.056 101.937 142.033 101.537C143.011 101.137 143.892 100.535 144.62 99.77C146.214 97.9537 147.07 95.6062 147.02 93.19C147.02 90.09 145.65 87.57 141.39 87.57ZM139.07 100.06C137.07 100.06 136.38 98.3 136.38 96.44C136.38 93.9 137.58 89.6 141.27 89.6C143.27 89.6 143.96 91.36 143.96 93.22C143.96 95.76 142.76 100.06 139.07 100.06Z" fill="currentColor"/>
<path d="M111.55 87.5701C109.44 87.5779 107.363 88.0887 105.49 89.0601L105.9 91.1901C107.463 90.3079 109.201 89.7789 110.99 89.6401C112.72 89.6401 113.51 90.3501 113.51 92.0201C113.489 92.4298 113.439 92.8374 113.36 93.2401C111.89 93.4101 110.36 93.5801 108.84 93.9001C105.93 94.5601 103.46 95.8101 103.46 98.7701C103.435 99.2144 103.505 99.6589 103.665 100.074C103.825 100.489 104.071 100.866 104.389 101.178C104.706 101.49 105.086 101.731 105.503 101.885C105.921 102.039 106.366 102.102 106.81 102.07C109.11 102.07 110.74 100.87 112.14 98.9901H112.31L111.82 101.68H114.51L115.83 94.5401C116.048 93.5029 116.179 92.4492 116.22 91.3901C116.22 88.5201 113.95 87.5701 111.55 87.5701ZM107.83 99.9201C107.627 99.9456 107.421 99.9258 107.226 99.8623C107.031 99.7987 106.853 99.6929 106.704 99.5525C106.555 99.412 106.439 99.2404 106.364 99.0498C106.289 98.8592 106.257 98.6544 106.27 98.4501C106.257 98.0297 106.36 97.6138 106.566 97.2473C106.772 96.8807 107.074 96.5774 107.44 96.3701C108.226 95.9499 109.078 95.669 109.96 95.5401C111.11 95.3001 112.09 95.1501 113.04 95.0301C112.53 97.7401 110.4 99.9201 107.83 99.9201Z" fill="currentColor"/>
<path d="M152.59 87.96C152.02 92.26 150.08 97.38 148.04 99.55H146.65L145.52 105.45H148.04L148.73 101.73H158.93L158.24 105.45H160.76L161.84 99.58H160L162.13 87.99L152.59 87.96ZM157.22 99.55H150.65C151.072 99.1602 151.433 98.7084 151.72 98.21C153.093 95.6386 154.102 92.889 154.72 90.0399H158.92L157.22 99.55Z" fill="currentColor"/>
<path d="M44.8199 95.2199C44.854 95.1731 44.8973 95.1339 44.9472 95.1046C44.9971 95.0754 45.0525 95.0568 45.1099 95.0499L43.8599 101.7H46.6499L47.8699 95.0699C47.947 95.0762 48.0187 95.1121 48.0699 95.1699L52.1999 101.7H55.3099C53.1499 98.4099 51.5899 96.0399 50.7099 94.6999C54.2699 91.6999 56.0399 90.0199 57.4099 87.9199H53.8899C53.3617 89.2958 52.4867 90.5118 51.3499 91.4499C50.4899 92.2799 49.4399 93.1399 48.3499 94.1199C48.262 94.195 48.1545 94.2436 48.0399 94.2599L49.2099 87.9299H46.4699L45.2999 94.1899C45.1845 94.1662 45.0796 94.1067 44.9999 94.0199C43.6044 92.1046 42.386 90.0662 41.3599 87.9299H38.3599C39.5499 89.8199 41.3599 92.6199 42.4399 94.3399L40.9799 95.7499C39.5399 97.1699 36.5299 99.9599 35.6699 101.67H38.8999C40.1399 99.2299 43.0999 96.9299 44.8199 95.2199Z" fill="currentColor"/>
<path d="M174.49 93.41H167.98L168.98 87.96H166.19L163.65 101.71H166.44L167.54 95.7899H174.07L172.99 101.71H175.78L178.28 87.96H175.49L174.49 93.41Z" fill="currentColor"/>
<path d="M241.9 87.45C240.046 87.4567 238.229 87.9646 236.64 88.92L237.06 90.92C238.325 90.1128 239.773 89.635 241.27 89.5299C241.6 89.5017 241.932 89.5607 242.232 89.7011C242.532 89.8416 242.79 90.0584 242.98 90.33C243.416 91.1134 243.621 92.0047 243.57 92.9C243.57 93.17 243.57 93.4499 243.57 93.7299H238.51L238.14 95.7299H243.25C242.68 98.0399 241.35 100.18 238.9 100.18C238.286 100.172 237.683 100.019 237.139 99.7337C236.595 99.4488 236.126 99.0398 235.77 98.5399L234.25 100.08C234.789 100.731 235.471 101.251 236.243 101.597C237.014 101.944 237.855 102.109 238.7 102.08C239.722 102.133 240.743 101.957 241.688 101.564C242.632 101.172 243.477 100.572 244.16 99.8099C245.817 97.7186 246.697 95.1175 246.65 92.45C246.65 89.08 244.86 87.45 241.9 87.45Z" fill="currentColor"/>
<path d="M229.26 87.6099C227.147 87.6223 225.066 88.1364 223.19 89.1099L223.61 91.2299C225.173 90.3564 226.906 89.8311 228.69 89.6898C230.43 89.6898 231.21 90.3999 231.21 92.0699C231.192 92.4793 231.145 92.887 231.07 93.2899C229.6 93.4599 228.07 93.6299 226.54 93.9499C223.63 94.5599 221.16 95.8599 221.16 98.8199C221.135 99.2641 221.205 99.7087 221.365 100.124C221.525 100.539 221.772 100.915 222.089 101.228C222.406 101.54 222.786 101.781 223.203 101.935C223.621 102.089 224.066 102.152 224.51 102.12C226.81 102.12 228.45 100.92 229.84 99.0399H230.02L229.53 101.73H232.22L233.54 94.5899C233.754 93.5485 233.884 92.4918 233.93 91.4299C233.93 88.5699 231.65 87.6099 229.26 87.6099ZM225.54 99.9698C225.336 99.9969 225.129 99.9784 224.933 99.9156C224.737 99.8528 224.557 99.7473 224.407 99.6066C224.257 99.466 224.14 99.2938 224.064 99.1024C223.989 98.911 223.957 98.7052 223.97 98.4998C223.963 98.0833 224.069 97.6726 224.277 97.3116C224.484 96.9505 224.786 96.6527 225.15 96.4499C225.936 96.0297 226.789 95.7488 227.67 95.6199C228.82 95.3699 229.8 95.2299 230.75 95.0999C230.24 97.7899 228.11 99.9698 225.54 99.9698Z" fill="currentColor"/>
<path d="M317.75 87.45C315.08 87.45 313.47 89.45 312.54 90.9H312.39L313.05 87.9H310.39L306.72 108.03H309.51L310.88 100.56C311.355 101.07 311.936 101.471 312.582 101.733C313.228 101.996 313.923 102.114 314.62 102.08C315.672 102.066 316.705 101.796 317.63 101.294C318.554 100.793 319.344 100.074 319.93 99.2C321.247 97.1883 321.92 94.8235 321.86 92.42C321.86 89.57 320.65 87.45 317.75 87.45ZM317.58 97.8499C317.303 98.4918 316.852 99.043 316.277 99.4409C315.703 99.8387 315.028 100.067 314.33 100.1C313.697 100.147 313.066 99.992 312.527 99.6579C311.988 99.3237 311.569 98.8273 311.33 98.24L311.94 94.8C312.72 92.52 314.59 89.7499 316.74 89.7499C318.23 89.7499 318.74 90.9699 318.74 92.8799C318.745 94.6171 318.348 96.3319 317.58 97.89V97.8499Z" fill="currentColor"/>
<path d="M323.84 90.41H328.46L326.36 101.75H329.15L331.25 90.41H335.88L336.32 88.01H324.28L323.84 90.41Z" fill="currentColor"/>
<path d="M270.939 87.6899C266.309 87.6899 262.939 91.1399 262.939 96.5399C262.939 99.6499 264.329 102.22 268.539 102.22C273.159 102.22 276.539 98.77 276.539 93.36C276.539 90.26 275.139 87.6899 270.939 87.6899ZM268.649 100.19C266.649 100.19 265.959 98.4299 265.959 96.5699C265.959 94.0199 267.229 89.7199 270.849 89.7199C272.849 89.7199 273.539 91.5 273.539 93.34C273.499 95.88 272.229 100.19 268.649 100.19Z" fill="currentColor"/>
<path d="M257.36 87.45C254.69 87.45 253.08 89.45 252.15 90.9H252.01L252.66 87.9H250L246.33 108.03H249.12L250.49 100.56C250.965 101.07 251.546 101.471 252.192 101.733C252.838 101.996 253.534 102.114 254.23 102.08C255.282 102.066 256.315 101.796 257.24 101.294C258.165 100.793 258.954 100.074 259.54 99.2C260.87 97.1943 261.544 94.8253 261.47 92.42C261.47 89.57 260.25 87.45 257.36 87.45ZM257.19 97.8499C256.914 98.4918 256.462 99.043 255.888 99.4409C255.313 99.8387 254.638 100.067 253.94 100.1C253.308 100.147 252.677 99.992 252.138 99.6579C251.599 99.3237 251.179 98.8273 250.94 98.24L251.56 94.7599C252.34 92.4799 254.21 89.7599 256.35 89.7599C257.85 89.7599 258.35 90.98 258.35 92.89C258.354 94.6237 257.957 96.3349 257.19 97.89V97.8499Z" fill="currentColor"/>
<path d="M277.52 101.75H280.3L282.38 90.4098H288.99L286.88 101.75H289.67L292.22 88.0098H280.04L277.52 101.75Z" fill="currentColor"/>
<path d="M301.22 87.6599C296.59 87.6599 293.17 91.1099 293.17 96.5199C293.17 99.6199 294.56 102.19 298.77 102.19C303.39 102.19 306.77 98.7399 306.77 93.3399C306.82 90.2299 305.42 87.6599 301.22 87.6599ZM298.89 100.16C296.89 100.16 296.2 98.3999 296.2 96.5399C296.2 93.9999 297.47 89.6899 301.09 89.6899C303.09 89.6899 303.78 91.4799 303.78 93.3099C303.78 95.8599 302.51 100.16 298.89 100.16Z" fill="currentColor"/>
</svg>
