<svg width="352" height="108" viewBox="0 0 352 108" fill="none" xmlns="http://www.w3.org/2000/svg">
<path d="M226.72 51.0901C236.03 51.0901 240.57 40.6801 240.57 31.6601C240.57 25.0701 237.2 22.0601 232.57 22.0601C223.41 22.0601 218.72 32.4701 218.72 41.3401C218.73 48.0101 222.17 51.0901 226.72 51.0901ZM233.24 12.8601C244.46 12.8601 253.11 18.2801 253.11 31.6201C253.11 48.1201 242.04 60.1401 226.06 60.1401C214.92 60.1401 206.19 54.6401 206.19 41.3001C206.19 25.4301 217.19 12.8601 233.24 12.8601ZM160.37 58.5301L171.37 0.100098H183.91L177.65 33.2801C178.667 33.0493 179.588 32.5118 180.29 31.7401C181.83 30.3401 183.88 28.4401 185.57 26.8301C189.82 22.8301 193.34 18.7601 194.73 14.5801H210.79C207.56 19.4201 199.28 27.2601 195.79 30.4901C194.03 32.3201 192.13 33.9401 190.29 35.6201L205.4 58.5701H191.02L177.82 38.1901C177.38 37.5301 177.23 37.4601 176.87 37.4601L172.76 58.5701L160.37 58.5301ZM20.6497 45.7401H21.4597C26.3697 38.4801 32.0097 28.5101 35.3097 22.9401C39.4897 15.9401 42.8596 9.16011 44.9196 0.140106H62.5897C60.0197 5.56011 54.2297 15.3201 48.0697 25.0701C38.6897 39.9501 28.1297 55.2701 25.4897 58.5701H7.95966L1.13965 0.140106H16.3896L20.6497 45.7401ZM274.38 48.0901H274.97C277.17 44.7901 279.44 41.0901 282.15 36.6501C286.48 29.4601 290 22.9401 291.9 14.5801H307.74C304.81 20.5201 299.53 28.6601 294.18 36.9401C289.63 43.9401 284.18 51.9401 279.66 58.5701H263.08L258.08 14.5701H271.27L274.38 48.0901ZM89.5497 13.3401C100.99 13.3401 102.82 19.6401 102.82 26.0201C102.752 29.3465 102.384 32.6599 101.72 35.9201L97.6497 58.5701H85.0797L89.1897 35.9201C89.5459 34.1312 89.74 32.3139 89.7697 30.4901C89.7697 26.4901 88.4497 24.0401 83.6197 24.0401C71.8897 24.0401 69.0997 36.3601 67.1197 46.7701L64.9897 58.5701H52.4597L60.5997 14.5701H72.5997L71.1297 22.4901H71.8697C75.9897 17.2901 81.0497 13.3401 89.5497 13.3401ZM324.65 51.0901C333.82 51.0901 338.51 40.6801 338.51 31.6601C338.51 25.0701 335.14 22.0601 330.51 22.0601C321.34 22.0601 316.65 32.4701 316.65 41.3401C316.65 47.8601 319.65 50.8001 324.65 51.0901ZM331.19 12.8601C342.4 12.8601 351.05 18.2801 351.05 31.6201C351.05 48.1201 339.98 60.1401 324.05 60.1401C312.91 60.1401 304.19 54.6401 304.19 41.3001C304.14 25.4301 315.13 12.8601 331.19 12.8601ZM144.02 26.3101L146.22 14.5801H158.76L150.62 58.5801H138.65L140.04 50.5101H139.38C135.2 55.8701 130.44 59.7501 121.93 59.7501C110.5 59.7501 108.74 53.5201 108.74 47.0701C108.778 43.7734 109.113 40.4869 109.74 37.2501L113.92 14.5901H126.39L122.28 37.2501C121.908 38.9845 121.687 40.7477 121.62 42.5201C121.62 46.5201 123.01 48.9801 127.78 48.9801C139.19 48.9701 142.19 36.8601 144.02 26.3101Z" fill="currentColor"/>
<path d="M109.74 83.0702H106.71L103.43 101.14H106.4L109.74 83.0702Z" fill="currentColor"/>
<path d="M118.86 89.7401C119.86 89.7401 120.53 90.3001 120.53 91.6301C120.495 92.3526 120.404 93.0714 120.26 93.7801L118.91 101.13H121.65L122.98 93.9501C123.219 92.8515 123.359 91.7337 123.4 90.6101C123.4 88.4301 122.26 87.2501 120.18 87.2501C117.4 87.2501 115.82 88.5601 114.18 90.7301L113.98 90.6801L114.64 87.5401H111.85L109.39 101.13H112.1C112.516 98.7323 113.186 96.3857 114.1 94.1301C115.25 91.6501 117.04 89.7401 118.86 89.7401Z" fill="currentColor"/>
<path d="M203.5 87.5402H200.75L198.21 101.14H200.96L203.5 87.5402Z" fill="currentColor"/>
<path d="M202.41 85.9401C202.928 85.9405 203.427 85.7394 203.8 85.3793C204.173 85.0193 204.391 84.5284 204.41 84.0101C204.438 83.8127 204.421 83.6115 204.36 83.4215C204.299 83.2316 204.196 83.0579 204.058 82.9136C203.921 82.7692 203.752 82.6579 203.565 82.5881C203.378 82.5182 203.178 82.4915 202.98 82.5101C202.712 82.5021 202.445 82.5479 202.196 82.6448C201.946 82.7417 201.719 82.8878 201.526 83.0743C201.334 83.2608 201.182 83.484 201.077 83.7307C200.973 83.9773 200.92 84.2424 200.92 84.5101C200.914 84.7048 200.948 84.8985 201.022 85.0788C201.095 85.259 201.206 85.4218 201.346 85.5567C201.487 85.6915 201.654 85.7953 201.837 85.8613C202.02 85.9274 202.215 85.9542 202.41 85.9401Z" fill="currentColor"/>
<path d="M223.2 94.1401C224.31 91.6501 226.1 89.7401 227.91 89.7401C228.91 89.7401 229.58 90.3001 229.58 91.6301C229.543 92.3519 229.456 93.0703 229.32 93.7801L227.96 101.13H230.72L232.05 93.9501C232.286 92.8511 232.423 91.7334 232.46 90.6101C232.46 88.4301 231.32 87.2501 229.24 87.2501C226.46 87.2501 224.89 88.5601 223.24 90.7301L223.05 90.6801L223.7 87.5401H220.92L218.45 101.13H221.16C221.59 98.7343 222.274 96.391 223.2 94.1401Z" fill="currentColor"/>
<path d="M154.49 91.8604C154.898 91.3029 155.428 90.8469 156.04 90.5278C156.652 90.2086 157.33 90.035 158.02 90.0204L158.73 87.3604H157.9C155.34 87.3604 153.79 89.4103 152.58 91.4703H152.39L153.39 87.5504H150.81L148.24 101.14H150.95C151.83 96.7803 152.92 93.7104 154.49 91.8604Z" fill="currentColor"/>
<path d="M139.74 101.5C141.84 101.533 143.911 101.005 145.74 99.9702L145.33 97.9202C143.781 98.816 142.037 99.3206 140.25 99.3902C138.41 99.3902 138.12 98.3902 138.12 96.6302C138.123 96.2079 138.16 95.7866 138.23 95.3702C142.52 95.3102 144.28 94.8802 145.7 94.0502C146.332 93.7073 146.855 93.1935 147.208 92.5675C147.562 91.9414 147.732 91.2285 147.7 90.5102C147.7 88.3402 146.27 87.1802 144.12 87.1802C138.51 87.1802 135.43 92.2602 135.43 96.6802C135.45 99.9202 137 101.4 139.74 101.5ZM143.56 89.2802C143.758 89.2527 143.96 89.27 144.151 89.3308C144.341 89.3916 144.516 89.4943 144.662 89.6315C144.808 89.7687 144.921 89.9368 144.993 90.1234C145.065 90.3101 145.095 90.5106 145.08 90.7102C145.117 91.094 145.042 91.4805 144.865 91.8229C144.687 92.1653 144.415 92.4491 144.08 92.6402C143.19 93.2102 141.98 93.5202 138.71 93.5502C139.59 91.2802 141.32 89.2802 143.56 89.2802Z" fill="currentColor"/>
<path d="M176.48 101.5C178.76 101.5 180.38 100.31 181.76 98.4499H181.92L181.44 101.11H184.1L185.41 94.0499C185.623 93.0221 185.754 91.9787 185.8 90.9299C185.8 88.0799 183.55 87.1299 181.17 87.1299C179.08 87.1388 177.023 87.6462 175.17 88.6099L175.58 90.7099C177.116 89.8457 178.822 89.3269 180.58 89.1899C182.3 89.1899 183.07 89.8899 183.07 91.5299C183.052 91.9361 183.006 92.3405 182.93 92.7399C181.47 92.9099 179.93 93.0799 178.45 93.3999C175.57 93.9999 173.13 95.2799 173.13 98.2099C173.101 98.6546 173.168 99.1003 173.327 99.5166C173.486 99.9329 173.733 100.31 174.051 100.622C174.369 100.935 174.75 101.175 175.17 101.326C175.589 101.477 176.035 101.537 176.48 101.5ZM177.11 95.8599C177.885 95.4431 178.728 95.1655 179.6 95.0399C180.74 94.7999 181.71 94.6499 182.6 94.5299C182.09 97.2199 179.99 99.3699 177.45 99.3699C177.249 99.3952 177.044 99.3759 176.852 99.3135C176.659 99.251 176.482 99.1469 176.334 99.0085C176.186 98.8701 176.071 98.7008 175.996 98.5127C175.921 98.3245 175.888 98.1221 175.9 97.9199C175.891 97.4982 176 97.0824 176.213 96.7187C176.427 96.355 176.737 96.0577 177.11 95.8599Z" fill="currentColor"/>
<path d="M126.57 96.2499C126.402 97.0374 126.291 97.8362 126.24 98.6399C126.24 100.31 126.99 101.45 129.65 101.45C131.167 101.388 132.656 101.024 134.03 100.38L133.61 98.2999C132.586 98.8544 131.46 99.1946 130.3 99.2999C129.6 99.2999 129.16 99.0399 129.12 98.1399C129.131 97.5311 129.201 96.9249 129.33 96.3299L130.54 89.7199H134.8L135.24 87.5699H130.93L131.51 84.1299H129.99C129.16 85.6099 127.57 87.6699 125.56 88.1299L125.24 89.7199H127.78L126.57 96.2499Z" fill="currentColor"/>
<path d="M254.26 82.1699H251.5L247.99 101.14H250.75L254.26 82.1699Z" fill="currentColor"/>
<path d="M244.65 101.13L245.95 94.0701C246.168 93.0431 246.299 91.9993 246.34 90.9501C246.34 88.1001 244.09 87.1501 241.72 87.1501C239.631 87.1618 237.575 87.669 235.72 88.6301L236.13 90.7301C237.666 89.8659 239.373 89.3472 241.13 89.2101C242.85 89.2101 243.63 89.9101 243.63 91.5501C243.609 91.9566 243.559 92.3609 243.48 92.7601C242.03 92.9301 240.48 93.1001 239 93.4201C236.13 94.0201 233.68 95.3001 233.68 98.2301C233.655 98.6705 233.723 99.1112 233.882 99.5228C234.041 99.9344 234.285 100.307 234.599 100.617C234.914 100.926 235.29 101.165 235.704 101.318C236.118 101.47 236.56 101.532 237 101.5C239.27 101.5 240.89 100.31 242.27 98.4501H242.44L241.96 101.11L244.65 101.13ZM238.04 99.3701C237.839 99.3955 237.635 99.3762 237.442 99.3137C237.249 99.2513 237.073 99.1471 236.925 99.0087C236.777 98.8703 236.661 98.701 236.586 98.5129C236.511 98.3248 236.478 98.1224 236.49 97.9201C236.478 97.5037 236.579 97.0919 236.784 96.7289C236.988 96.3659 237.287 96.0655 237.65 95.8601C238.426 95.4433 239.268 95.1658 240.14 95.0401C241.27 94.8001 242.24 94.6502 243.19 94.5302C242.72 97.2202 240.65 99.3701 238.07 99.3701H238.04Z" fill="currentColor"/>
<path d="M167.48 101.13H170.24L171.57 93.9502C171.805 92.8512 171.942 91.7335 171.98 90.6102C171.98 88.4302 170.85 87.2502 168.76 87.2502C165.98 87.2502 164.41 88.5602 162.76 90.7302L162.57 90.6802L163.22 87.5402H160.44L157.97 101.13H160.68C161.096 98.7324 161.766 96.3859 162.68 94.1302C163.79 91.6402 165.58 89.7302 167.39 89.7302C168.39 89.7302 169.06 90.2902 169.06 91.6202C169.023 92.342 168.936 93.0604 168.8 93.7702L167.48 101.13Z" fill="currentColor"/>
<path d="M218.14 92.6701C218.14 89.8401 216.81 87.1001 212.6 87.1001C207.6 87.1001 204.69 91.1701 204.69 95.9601C204.634 96.694 204.737 97.4313 204.994 98.1212C205.251 98.811 205.654 99.437 206.176 99.9561C206.697 100.475 207.326 100.875 208.017 101.128C208.708 101.38 209.446 101.48 210.18 101.42C211.219 101.463 212.256 101.283 213.221 100.891C214.185 100.5 215.054 99.9061 215.77 99.1501C217.362 97.3745 218.211 95.0543 218.14 92.6701ZM210.35 99.3701C209.7 99.3701 207.69 99.1501 207.69 95.8901C207.69 93.2201 209.04 89.1601 212.53 89.1601C214.46 89.1601 215.14 90.8001 215.14 92.6701C215.14 95.0901 214.05 99.3701 210.35 99.3701Z" fill="currentColor"/>
<path d="M196.37 98.3302C195.342 98.8829 194.213 99.223 193.05 99.3302C192.35 99.3302 191.92 99.0602 191.87 98.1602C191.879 97.5507 191.953 96.944 192.09 96.3502L193.29 89.7502H197.55L197.99 87.5902H193.65L194.26 84.1602H192.71C191.89 85.6302 190.29 87.6902 188.31 88.1602L187.99 89.7602H190.51L189.3 96.3102C189.123 97.0998 189.009 97.9024 188.96 98.7102C188.96 100.38 189.71 101.51 192.37 101.51C193.886 101.449 195.374 101.088 196.75 100.45L196.37 98.3302Z" fill="currentColor"/>
<path d="M44.65 89.2802C46.0936 89.2699 47.5 89.7375 48.65 90.6102L49.65 88.4302C48.2552 87.5684 46.6496 87.1081 45.01 87.1002C42.25 87.1002 39.95 88.3802 39.95 91.1902C39.9256 91.7201 40.0271 92.2483 40.2461 92.7315C40.4651 93.2147 40.7954 93.6391 41.21 93.9702C42.37 94.8402 44.26 95.3502 45.21 96.1002C45.4408 96.2536 45.63 96.4617 45.7609 96.7059C45.8918 96.9502 45.9601 97.2231 45.96 97.5002C45.96 99.1002 44.66 99.5002 43.4 99.5002C41.7694 99.4458 40.1865 98.9367 38.83 98.0302L38.25 100.23C39.9091 101.082 41.7553 101.505 43.62 101.46C47.05 101.46 48.82 99.5302 48.82 97.0902C48.8187 96.5959 48.7169 96.107 48.5209 95.6532C48.325 95.1994 48.0389 94.7901 47.68 94.4502C46.8366 93.7592 45.8788 93.2211 44.85 92.8602C43.64 92.3502 42.6 91.9102 42.6 90.7802C42.6 89.6502 43.79 89.2802 44.65 89.2802Z" fill="currentColor"/>
<path d="M32 87.2402C27 87.2402 24 91.2402 24 96.1202C24 99.4802 26.17 101.57 29.53 101.57C30.5718 101.607 31.6094 101.421 32.5735 101.024C33.5375 100.627 34.4057 100.029 35.12 99.2702C36.7215 97.5045 37.5872 95.1934 37.54 92.8102C37.59 89.9802 36.21 87.2402 32 87.2402ZM29.73 99.5602C28.04 99.5602 27.12 98.1302 27.12 96.0302C27.12 93.3602 28.42 89.2502 31.91 89.2502C33.91 89.2502 34.52 90.9702 34.52 92.8102C34.52 95.3202 33.38 99.5602 29.73 99.5602Z" fill="currentColor"/>
<path d="M16.0604 88.6001L11.3204 97.7401H11.0504L9.46039 82.9901H5.0304L0.650391 101.13H3.2204L5.64038 91.0401C6.07038 89.1801 6.5304 86.9301 6.7504 85.9101H6.92038L8.61038 101.13H12.0004L20.0004 85.9101H20.1704C20.0004 87.1001 19.6404 89.7601 19.3004 91.9101L17.8504 101.1H20.8504L23.3904 82.9801H18.8204C18.1704 84.5101 17.1004 86.5901 16.0604 88.6001Z" fill="currentColor"/>
<path d="M92.8904 92.4901C91.8904 94.3101 91.0804 95.7601 89.9704 97.6701L89.2204 87.5602H86.2204C85.8717 88.7527 85.3922 89.9031 84.7904 90.9901C83.7904 93.1001 82.4004 95.6901 81.2604 97.6701L80.3904 87.5602H77.6504L79.1104 101.15H81.3104C83.3104 97.8401 85.0604 94.7001 86.9004 91.1501L87.8404 101.09H90.0404C91.9504 98.1901 93.5004 95.8202 95.3904 92.5302C96.3453 90.9092 97.2165 89.2404 98.0004 87.5302H94.6504C94.2986 89.2577 93.7061 90.9272 92.8904 92.4901Z" fill="currentColor"/>
<path d="M70.1995 87.2401C65.2695 87.2401 62.2695 91.2401 62.2695 96.1201C62.2695 99.4801 64.4195 101.57 67.8095 101.57C68.8505 101.6 69.8863 101.411 70.8494 101.015C71.8125 100.619 72.6814 100.024 73.3995 99.2701C74.993 97.5003 75.8545 95.1912 75.8095 92.8101C75.8095 89.9801 74.4395 87.2401 70.1995 87.2401ZM67.9495 99.5601C66.2595 99.5601 65.3395 98.1301 65.3395 96.0301C65.3395 93.2901 66.7195 89.2501 70.1095 89.2501C72.1095 89.2501 72.7395 90.9701 72.7395 92.8101C72.7395 95.3201 71.5795 99.5601 67.9495 99.5601Z" fill="currentColor"/>
<path d="M57.9596 89.4502C59.1971 89.4462 60.3903 89.9106 61.2995 90.7502L62.4096 88.7002C61.2212 87.7553 59.7478 87.2407 58.2295 87.2402C56.6723 87.1562 55.1384 87.6473 53.9195 88.6202C52.8949 89.602 52.0864 90.7868 51.5457 92.0989C51.005 93.411 50.7441 94.8215 50.7796 96.2402C50.7796 100.02 53.0996 101.57 55.9296 101.57C57.6824 101.515 59.3967 101.042 60.9296 100.19L60.6196 98.0102C59.2062 98.7887 57.6467 99.2654 56.0396 99.4102C54.5696 99.4102 53.5996 98.5702 53.5996 96.2702C53.5189 94.2621 54.1334 92.2877 55.3396 90.6802C55.6516 90.2867 56.0505 89.9708 56.5051 89.7574C56.9597 89.544 57.4575 89.4389 57.9596 89.4502Z" fill="currentColor"/>
<path d="M280.23 82.1701C279.962 82.1621 279.696 82.2079 279.446 82.3048C279.197 82.4017 278.969 82.5478 278.777 82.7343C278.585 82.9208 278.432 83.144 278.328 83.3907C278.224 83.6373 278.17 83.9024 278.17 84.1701C278.168 84.3587 278.205 84.5455 278.278 84.7194C278.351 84.8932 278.459 85.0504 278.594 85.1814C278.73 85.3124 278.891 85.4144 279.067 85.4812C279.244 85.548 279.432 85.5783 279.62 85.5701C280.138 85.5705 280.637 85.3694 281.01 85.0093C281.383 84.6492 281.602 84.1583 281.62 83.6401C281.642 83.4486 281.622 83.2545 281.561 83.0714C281.501 82.8884 281.4 82.721 281.268 82.5809C281.135 82.4408 280.974 82.3313 280.794 82.2604C280.615 82.1894 280.422 82.1586 280.23 82.1701Z" fill="currentColor"/>
<path d="M301.099 87.0502C298.459 87.0502 296.869 88.9902 295.949 90.4602H295.799L296.459 87.5202H293.819L290.189 107.43H292.949L294.309 100.04C294.775 100.549 295.347 100.948 295.985 101.209C296.623 101.47 297.311 101.586 297.999 101.55C299.04 101.536 300.062 101.269 300.976 100.773C301.891 100.276 302.671 99.5651 303.249 98.7002C304.552 96.7129 305.219 94.3757 305.159 92.0002C305.159 89.1102 303.949 87.0502 301.099 87.0502ZM300.93 97.3302C300.657 97.9673 300.21 98.5146 299.641 98.9091C299.071 99.3037 298.402 99.5293 297.709 99.5602C297.078 99.6198 296.443 99.4726 295.902 99.1407C295.361 98.8089 294.943 98.3104 294.709 97.7202L295.309 94.3202C296.089 92.0602 297.929 89.3202 300.059 89.3202C301.539 89.3202 302.059 90.5302 302.059 92.4202C302.064 94.1218 301.678 95.8018 300.93 97.3302Z" fill="currentColor"/>
<path d="M292.2 87.3202C291.927 87.3062 291.654 87.3062 291.38 87.3202C288.81 87.3202 287.38 88.9602 286.17 91.4602H285.96L286.85 87.5802H284.24L281.65 101.11H284.36C285.28 96.7302 286.36 93.6802 287.97 91.8402C288.372 91.2757 288.896 90.8103 289.505 90.4793C290.113 90.1483 290.789 89.9605 291.48 89.9302L292.2 87.3202Z" fill="currentColor"/>
<path d="M337.24 89.6901H341.5L341.94 87.5601H337.65L338.25 84.1001H336.65C335.82 85.6001 334.23 87.6601 332.22 88.1001L331.9 89.6701H334.44L333.23 96.2501C333.06 97.0305 332.95 97.8228 332.9 98.6201C332.9 100.31 333.65 101.45 336.31 101.45C337.827 101.388 339.316 101.024 340.69 100.38L340.27 98.2801C339.245 98.8303 338.119 99.1703 336.96 99.2801C336.26 99.2801 335.82 99.0101 335.77 98.1201C335.788 97.5179 335.861 96.9186 335.99 96.3301L337.24 89.6901Z" fill="currentColor"/>
<path d="M314.7 87.1504C309.7 87.1504 306.7 91.1504 306.7 96.0304C306.7 99.3904 308.87 101.47 312.24 101.47C313.279 101.497 314.313 101.307 315.274 100.911C316.235 100.515 317.102 99.9218 317.82 99.1704C319.422 97.4048 320.287 95.0936 320.24 92.7104C320.28 89.8604 318.9 87.1504 314.7 87.1504ZM312.42 99.4604C310.73 99.4604 309.81 98.0304 309.81 95.9304C309.81 93.2004 311.19 89.1604 314.6 89.1604C316.6 89.1604 317.21 90.8704 317.21 92.7104C317.21 95.2304 316.07 99.4604 312.42 99.4604Z" fill="currentColor"/>
<path d="M325.36 91.4102H325.15L326.04 87.5302H323.45L320.89 101.11H323.65C324.54 96.7302 325.65 93.6802 327.23 91.8402C327.631 91.2715 328.159 90.8032 328.771 90.4719C329.383 90.1406 330.064 89.9552 330.76 89.9302L331.44 87.3202C331.173 87.3056 330.906 87.3056 330.64 87.3202C328.03 87.2702 326.65 88.8602 325.36 91.4102Z" fill="currentColor"/>
<path d="M275.479 101.11H278.239L280.779 87.5101H278.019L275.479 101.11Z" fill="currentColor"/>
<path d="M267.57 82.9902L257.92 101.11H260.92L263.18 96.7002H270.18L270.7 101.11H273.6L271.31 82.9902H267.57ZM264.38 94.3602L266.63 89.9802C267.4 88.4802 268.1 87.2202 268.63 86.0802H268.92C269.04 87.3202 269.23 88.5502 269.38 89.7602L269.93 94.3602H264.38Z" fill="currentColor"/>
</svg>
