<svg width="252" height="88" viewBox="0 0 252 88" fill="none" xmlns="http://www.w3.org/2000/svg">
<path d="M63.45 1.98923C59.65 14.9892 53.05 26.6692 48.32 34.7392C43.42 43.0992 36.73 54.0592 29.64 64.9092L22.17 1.98923H0.75L13.01 85.9892H34.51C38.15 81.1792 53.44 59.1392 66.94 37.7992C75.86 23.7992 83.94 9.70922 87.74 1.94922L63.45 1.98923Z" fill="currentColor"/>
<path d="M215.7 0.359534C202.919 0.327101 190.624 5.2524 181.4 14.0995C176.187 19.1222 172.047 25.1507 169.232 31.8199C166.416 38.4892 164.983 45.6604 165.02 52.8995C165.02 75.8995 179.02 87.8995 200.72 87.8995C230.59 87.8995 251.31 62.6795 251.31 35.3695C251.31 11.5395 236.18 0.359534 215.7 0.359534ZM202.43 73.2695C190.24 73.2695 185.67 65.2695 185.67 54.6395C185.67 36.0195 196.14 15.0695 214.07 15.0695C226.25 15.0695 230.67 23.2896 230.67 33.6896C230.65 52.2696 220.2 73.2695 202.43 73.2695Z" fill="currentColor"/>
<path d="M143.06 29.9293C152.3 21.0793 162.85 10.7593 168.52 1.98926H143.84C140.66 9.90926 135.62 15.6493 128.71 22.7093C126.17 25.3093 115.98 34.6593 111.23 38.9993L118 1.99927H98.5202L83.2402 85.9993H102.65L110.31 44.0793L136.79 85.9993H159.14L130.74 41.3993C134.65 37.8593 139.29 33.5193 143.06 29.9293Z" fill="currentColor"/>
</svg>
