<svg width="121px" height="41px" viewBox="0 0 121 41" enable-background="new 0 0 121 41" fill="none" xmlns="http://www.w3.org/2000/svg">
<path fill-rule="evenodd" clip-rule="evenodd" d="M13.4,1.8v1.8l-1.3-1.4l-1.3-1.3L9.4,4.5L8.1,8.2L4.5,9.4
	l-3.7,1.2l1.4,1.3l1.3,1.3l-1.8,0.1C0.8,13.4,0,13.6,0,13.7c0,0.1,0.7,1.7,1.5,3.5L3,20.5l-1.3,2.5c-2.1,4.2-2.1,4.3-0.1,4.5
	l1.7,0.1l-1.1,1.2c-0.6,0.7-1,1.3-0.8,1.4c0.1,0.1,1.7,0.8,3.4,1.4l3.2,1.1l1.3,3.4c0.7,1.8,1.4,3.4,1.5,3.4c0.2,0,0.8-0.5,1.4-1.2
	l1.2-1.2L13,33.4c0-0.3-0.1-0.6-0.1-1l0,0c-0.2-1.7-0.3-3.1-0.3-3.5c0-0.6-0.7-0.8-3.9-1c-2.1-0.1-4.2-0.4-4.5-0.6
	c-0.5-0.3,0.5-1.8,4.4-6.3c0.5-0.5,0.2-1.1-2.2-3.9C5,15.3,3.8,13.7,4,13.5c0.2-0.2,2.1-0.5,4.3-0.7l4.1-0.4l0.3-2.7
	c0.2-1.5,0.5-3.5,0.6-4.4l0.3-1.7l3.4,2.8l3.4,2.7l3.3-2.6c1.8-1.5,3.4-2.7,3.6-2.7c0.2,0,0.4,1.3,0.5,2.8c0.2,1.6,0.4,3.5,0.5,4.4
	l0.2,1.5l4.3,0.4l4.3,0.4l1.4-1.3l1.4-1.3l-3.5-1.3L33,8.1l-1.2-3.3c-0.7-1.8-1.3-3.4-1.4-3.5c-0.1-0.1-0.7,0.3-1.3,0.9
	c-0.7,0.6-1.3,1.1-1.5,1.1s-0.3-0.8-0.3-1.7c0-0.9-0.1-1.7-0.2-1.7c-0.1,0-1.6,0.7-3.4,1.5l-3.2,1.4l-3.2-1.4C15.6,0.7,14,0,13.8,0
	C13.6,0,13.4,0.8,13.4,1.8z M98.3,11.1V8.2c0-0.2,0-0.4-0.2-0.6C98,7.4,97.6,7,97.4,6.9c-0.2-0.1-0.4-0.2-0.6-0.2h-1.5
	c-0.2,0-0.5,0.1-0.6,0.2C94.5,7,94.1,7.4,94,7.6c-0.1,0.2-0.2,0.4-0.2,0.6v2.9c0,0.2,0,0.4,0.2,0.6c0.1,0.2,0.5,0.6,0.7,0.7
	c0.2,0.1,0.4,0.2,0.6,0.2h1.5c0.2,0,0.5-0.1,0.6-0.2c0.2-0.1,0.6-0.5,0.7-0.7C98.3,11.5,98.3,11.3,98.3,11.1z M97.1,11.1
	c-0.1,0.1-0.3,0.3-0.4,0.4h-1.4c-0.1,0-0.2-0.2-0.3-0.4V8.2c0.1-0.2,0.3-0.3,0.4-0.4h1.4c0.1,0.1,0.3,0.2,0.3,0.4V11.1z M53.8,6.8
	v5.8h-1.2V9.1c-0.2,0.4-0.4,0.8-0.6,1.2c-0.1,0.3-0.3,0.6-0.4,0.9h-0.8l-1-2.1v3.5h-1.2V6.8H50l1.3,2.6c0.2-0.4,0.4-0.8,0.5-1.1
	c0.2-0.5,0.5-1,0.7-1.5H53.8z M58.6,11.4v1.1h-3.8V6.8h3.8v1.1H56v1.2h2.5v1.1H56v1.2H58.6z M66.8,12.5c-0.2-0.3-2.1-2.9-2.1-2.9
	l2.1-2.9h-1.4c0,0-1.7,2.4-1.7,2.4h-0.1V6.8h-1.2v2.4h-0.1c0,0-1.7-2.4-1.7-2.4h-1.4l2.1,2.9c0,0-2.2,2.9-2.2,2.9h1.4l1.7-2.4h0.1
	v2.4h1.2v-2.4h0.1l1.7,2.4L66.8,12.5v1H68v-1h3.4l-0.1,1h1.2l0.2-2.1h-0.8V6.8h-3.6l-0.6,4.3c0,0-0.3,0.3-0.3,0.3h-0.6V12.5z
	 M69.4,7.9l-0.5,3.2c0,0.1,0,0.2-0.1,0.3c0,0,0,0,0,0.1h1.9V7.9H69.4z M77.7,6.8h-1.2l-1.2,3l-1.3-3h-1.2l1.8,4.3h0.2L74,12.6h1.2
	L77.7,6.8z M82.5,6.8v5.8h-1.2v-2.3h-1.9v2.3h-1.2V6.8h1.2v2.3h1.9V6.8H82.5z M88.3,12.6l-2-5.8H85l-2,5.8h1.3
	c0.1-0.2,0.1-0.4,0.2-0.6l0,0c0.1-0.2,0.1-0.4,0.2-0.6h2l0.4,1.1H88.3z M86.3,10.3H85c0.1-0.3,0.2-0.6,0.3-0.9
	c0.1-0.3,0.2-0.6,0.3-0.9L86.3,10.3z M93.1,8.2V9c0,0.2-0.1,0.4-0.2,0.6c-0.1,0.1-0.4,0.4-0.5,0.5c-0.2,0.2-0.5,0.2-0.7,0.2H90v2.2
	h-1.2V6.8h2.8c0.2,0,0.5,0.1,0.7,0.2c0.1,0.1,0.4,0.4,0.5,0.5C93.1,7.7,93.1,7.9,93.1,8.2z M91.7,9.2c0,0,0.2-0.1,0.3-0.2V8.1
	c0-0.1-0.2-0.2-0.3-0.2H90v1.3H91.7z M103.9,11.4h0.8l-0.2,2.1h-1.2l0.1-1H100v1h-1.2v-2.1h0.6c0.1,0,0.3-0.3,0.3-0.3l0.6-4.3h3.6
	V11.4z M101.3,7.9l-0.5,3.2c0,0.1,0,0.2-0.1,0.3l0,0v0v0c0,0,0,0,0,0.1h1.9V7.9H101.3z M109.5,12.6V6.8h-1.2v2.3h-1.9V6.8h-1.2v5.8
	h1.2v-2.3h1.9v2.3H109.5z M113.4,6.8l2,5.8h-1.3l-0.4-1.1h-2c-0.1,0.2-0.1,0.4-0.2,0.6c-0.1,0.2-0.1,0.4-0.2,0.6H110l2-5.8H113.4z
	 M112,10.3h1.3l-0.7-1.9c-0.1,0.3-0.2,0.6-0.3,0.9l0,0l0,0C112.3,9.7,112.2,10,112,10.3z M116,9c0,0.2,0.1,0.4,0.2,0.6
	c0.1,0.1,0.4,0.4,0.5,0.5c0.1,0.1,0.2,0.1,0.2,0.1c-0.5,0.9-1.3,2.3-1.3,2.3h1.3l1.2-2.2h0.9v2.2h1.2V6.8h-2.8
	c-0.2,0-0.5,0.1-0.7,0.2c-0.1,0.1-0.4,0.4-0.5,0.5C116,7.7,116,7.9,116,8.2V9z M117.1,8.1c0-0.1,0.2-0.2,0.3-0.2h1.6v1.3h-1.6
	c0,0-0.2-0.1-0.3-0.2V8.1z M51.5,17.3l2,5.8h-1.3L51.9,22h-2c-0.1,0.2-0.1,0.4-0.2,0.6l0,0l0,0c-0.1,0.2-0.1,0.4-0.2,0.6h-1.3l2-5.8
	H51.5z M50.2,20.8h1.3L50.9,19c-0.1,0.3-0.2,0.6-0.3,0.9C50.4,20.2,50.3,20.5,50.2,20.8z M58.4,18.7c-0.1-0.2-0.2-0.4-0.3-0.6
	c-0.2-0.3-0.7-0.8-1.3-0.8h-1.3c-0.2,0-0.5,0.1-0.6,0.2c-0.2,0.1-0.6,0.5-0.7,0.7c-0.1,0.2-0.2,0.4-0.2,0.6v2.9c0,0.2,0,0.4,0.2,0.6
	c0.1,0.2,0.5,0.6,0.7,0.7c0.2,0.1,0.4,0.2,0.6,0.2h1.3c0.6,0,1-0.5,1.3-0.8c0.1-0.2,0.2-0.4,0.3-0.6l-1.1-0.3
	c-0.1,0.2-0.3,0.4-0.5,0.6h-1.2c-0.2-0.1-0.4-0.3-0.4-0.4v-2.9c0.1-0.1,0.3-0.3,0.4-0.4h1.2c0.3,0.2,0.4,0.3,0.5,0.6L58.4,18.7z
	 M63.3,18c0.2,0.2,0.3,0.4,0.3,0.6L62.5,19c-0.1-0.3-0.2-0.4-0.5-0.6h-1.2c-0.1,0.1-0.3,0.3-0.4,0.4v2.9c0,0,0.1,0.2,0.4,0.4H62
	c0.2-0.1,0.4-0.3,0.5-0.6l1.1,0.3c-0.1,0.2-0.2,0.4-0.3,0.6c-0.2,0.3-0.7,0.8-1.3,0.8h-1.3c-0.2,0-0.5-0.1-0.6-0.2
	c-0.2-0.1-0.6-0.5-0.7-0.7c-0.1-0.2-0.2-0.4-0.2-0.6v-2.9c0-0.2,0-0.4,0.2-0.6c0.1-0.2,0.5-0.6,0.7-0.7c0.2-0.1,0.4-0.2,0.6-0.2H62
	C62.6,17.2,63.1,17.7,63.3,18z M68.9,21.6v-2.9c0-0.2,0-0.4-0.2-0.6c-0.1-0.2-0.5-0.6-0.7-0.7c-0.2-0.1-0.4-0.2-0.6-0.2h-1.5
	c-0.2,0-0.5,0.1-0.6,0.2c-0.2,0.1-0.6,0.5-0.7,0.7c-0.1,0.2-0.2,0.4-0.2,0.6v2.9c0,0.2,0,0.4,0.2,0.6c0.1,0.2,0.5,0.6,0.7,0.7
	c0.2,0.1,0.4,0.2,0.6,0.2h1.5c0.2,0,0.5-0.1,0.6-0.2c0.2-0.1,0.6-0.5,0.7-0.7C68.9,22,68.9,21.8,68.9,21.6z M67.7,21.6
	c-0.1,0.1-0.3,0.3-0.4,0.4h-1.4c-0.1,0-0.2-0.2-0.3-0.4v-2.9c0.1-0.2,0.3-0.3,0.4-0.4h1.4c0.1,0.1,0.3,0.2,0.3,0.4V21.6z M73.8,21.9
	h0.8l-0.2,2.1h-1.2l0-1h-3.4v-5.8H71v4.7h1.6v-4.7h1.2V21.9z M76.4,23.1l1.9-3.4v3.4h1.2v-5.8h-1.2l-1.9,3.5v-3.5h-1.2v5.8H76.4z
	 M83.3,17.3l2,5.8H84L83.6,22h-2c-0.1,0.2-0.1,0.4-0.2,0.6l0,0c-0.1,0.2-0.1,0.4-0.2,0.6H80l2-5.8H83.3z M82,20.8h1.3L82.6,19
	c-0.1,0.3-0.2,0.6-0.3,0.9C82.2,20.2,82.1,20.5,82,20.8z M90.6,21.9h-0.8v-4.7h-1.2v4.7H87v-4.7h-1.2v5.8h3.4l0,1h1.2L90.6,21.9z
	 M94.3,19.7l-1.9,3.4h-1.2v-5.8h1.2v3.5l1.9-3.5h1.2v5.8h-1.2V19.7z M96.5,19.5c0,0.2,0.1,0.4,0.2,0.6c0.1,0.1,0.4,0.4,0.5,0.5
	c0.1,0.1,0.2,0.1,0.2,0.1c-0.5,0.9-1.3,2.3-1.3,2.3h1.3l1.2-2.2h0.9v2.2h1.2v-5.8h-2.8c-0.2,0-0.5,0.1-0.7,0.2
	c-0.1,0.1-0.4,0.4-0.5,0.5c-0.1,0.2-0.2,0.4-0.2,0.6V19.5z M97.7,18.6c0-0.1,0.2-0.2,0.3-0.2h1.6v1.3h-1.6c0,0-0.2-0.1-0.3-0.2V18.6
	z M51.5,27.8l2,5.8h-1.3l-0.4-1.1h-2c-0.1,0.2-0.1,0.4-0.2,0.6l0,0l0,0c-0.1,0.2-0.1,0.4-0.2,0.6h-1.3l2-5.8H51.5z M50.2,31.3h1.3
	l-0.7-1.9c-0.1,0.3-0.2,0.6-0.3,0.9C50.4,30.7,50.3,31,50.2,31.3z M55.4,33.6h1.3c0.2,0,0.5-0.1,0.7-0.2c0.2-0.1,0.4-0.4,0.5-0.5
	c0.1-0.2,0.2-0.4,0.2-0.6v-3.1c0-0.2,0-0.5-0.2-0.6c-0.1-0.1-0.4-0.4-0.5-0.5c-0.2-0.1-0.5-0.2-0.7-0.2h-1.3c-0.6,0-1,0.5-1.3,0.8
	c-0.2,0.2-0.3,0.4-0.3,0.6l1.1,0.3c0.1-0.3,0.2-0.4,0.5-0.6h1.3c0,0,0.2,0.1,0.3,0.3v1h-1.6v1.1H57v1c-0.1,0.1-0.2,0.3-0.3,0.3h-1.3
	c-0.3-0.2-0.4-0.3-0.5-0.6l-1.1,0.3c0.1,0.2,0.2,0.4,0.3,0.6C54.4,33.1,54.8,33.6,55.4,33.6z M63.3,29.2V30c0,0.2-0.1,0.4-0.2,0.6
	c-0.1,0.1-0.4,0.4-0.5,0.5c-0.2,0.2-0.5,0.2-0.7,0.2h-1.6v2.2h-1.2v-5.8h2.8c0.2,0,0.5,0.1,0.7,0.2c0.1,0.1,0.4,0.4,0.5,0.5
	C63.3,28.7,63.3,28.9,63.3,29.2z M61.9,30.2c0,0,0.2-0.1,0.3-0.2v-0.9c0-0.1-0.2-0.2-0.3-0.2h-1.6v1.3H61.9z M68.5,32.1v-2.9
	c0-0.2,0-0.4-0.2-0.6c-0.1-0.2-0.5-0.6-0.7-0.7c-0.2-0.1-0.4-0.2-0.6-0.2h-1.5c-0.2,0-0.5,0.1-0.6,0.2c-0.2,0.1-0.6,0.5-0.7,0.7
	C64,28.8,64,29,64,29.2v2.9c0,0.2,0,0.4,0.2,0.6c0.1,0.2,0.5,0.6,0.7,0.7c0.2,0.1,0.4,0.2,0.6,0.2H67c0.2,0,0.5-0.1,0.6-0.2
	c0.2-0.1,0.6-0.5,0.7-0.7C68.5,32.5,68.5,32.3,68.5,32.1z M67.3,32.1c-0.1,0.1-0.3,0.3-0.4,0.4h-1.4c-0.1,0-0.2-0.2-0.3-0.4v-2.9
	c0.1-0.2,0.3-0.3,0.4-0.4H67c0.1,0.1,0.3,0.2,0.3,0.4V32.1z M73.7,27.8v5.8h-1.2v-4.7h-1.9v4.7h-1.2v-5.8H73.7z M79.2,32.1v-2.9
	c0-0.2,0-0.4-0.2-0.6c-0.1-0.2-0.5-0.6-0.7-0.7c-0.2-0.1-0.4-0.2-0.6-0.2h-1.5c-0.2,0-0.5,0.1-0.6,0.2c-0.2,0.1-0.6,0.5-0.7,0.7
	c-0.1,0.2-0.2,0.4-0.2,0.6v2.9c0,0.2,0,0.4,0.2,0.6c0.1,0.2,0.5,0.6,0.7,0.7c0.2,0.1,0.4,0.2,0.6,0.2h1.5c0.2,0,0.5-0.1,0.6-0.2
	c0.2-0.1,0.6-0.5,0.7-0.7C79.2,32.5,79.2,32.3,79.2,32.1z M78,32.1c-0.1,0.1-0.3,0.3-0.4,0.4h-1.4c-0.1,0-0.2-0.2-0.3-0.4v-2.9
	c0.1-0.2,0.3-0.3,0.4-0.4h1.4c0.1,0.1,0.3,0.2,0.3,0.4V32.1z M84.4,29.2V30c0,0.2-0.1,0.4-0.2,0.6c-0.1,0.1-0.4,0.4-0.5,0.5
	c-0.2,0.2-0.5,0.2-0.7,0.2h-1.6v2.2h-1.2v-5.8H83c0.2,0,0.5,0.1,0.7,0.2c0.1,0.1,0.4,0.4,0.5,0.5C84.4,28.7,84.4,28.9,84.4,29.2z
	 M83,30.2c0,0,0.2-0.1,0.3-0.2v-0.9c0-0.1-0.2-0.2-0.3-0.2h-1.6v1.3H83z M89.2,28.9v-1.1h-4.3v1.1h1.6v4.7h1.2v-4.7H89.2z
	 M94.4,29.2v2.9c0,0.2,0,0.4-0.2,0.6c-0.1,0.2-0.5,0.6-0.7,0.7c-0.2,0.1-0.4,0.2-0.6,0.2h-1.5c-0.2,0-0.5-0.1-0.6-0.2
	c-0.2-0.1-0.6-0.5-0.7-0.7c-0.1-0.2-0.2-0.4-0.2-0.6v-2.9c0-0.2,0-0.4,0.2-0.6c0.1-0.2,0.5-0.6,0.7-0.7c0.2-0.1,0.4-0.2,0.6-0.2h1.5
	c0.2,0,0.5,0.1,0.6,0.2c0.2,0.1,0.6,0.5,0.7,0.7C94.3,28.8,94.4,29,94.4,29.2z M92.8,32.5c0.1-0.1,0.3-0.2,0.4-0.4v-2.9
	c-0.1-0.1-0.3-0.3-0.3-0.4h-1.4c-0.1,0.1-0.2,0.2-0.4,0.4v2.9c0.1,0.1,0.3,0.3,0.3,0.4H92.8z M99.6,32.2v-0.7c0-0.4-0.1-0.6-0.3-0.8
	c0.2-0.2,0.3-0.4,0.3-0.8v-0.7c0-0.2,0-0.4-0.2-0.6c-0.1-0.1-0.4-0.4-0.5-0.5c-0.2-0.1-0.5-0.2-0.7-0.2h-2.8v5.8h2.8
	c0.2,0,0.5-0.1,0.7-0.2c0.1-0.1,0.4-0.4,0.5-0.5C99.5,32.6,99.6,32.4,99.6,32.2z M98.4,32.2c-0.1,0.1-0.2,0.3-0.3,0.3h-1.6v-1.2h1.6
	c0,0,0.2,0.1,0.3,0.3V32.2z M98.4,29.9c-0.1,0.1-0.2,0.2-0.3,0.2h-1.6v-1.2h1.6c0,0,0.2,0.1,0.3,0.3V29.9z M32.3,20
	c0.2-0.3,1.4-1.8,2.8-3.5c2.4-2.9,2.6-3,4.3-3c1,0,1.8,0.1,1.8,0.2c0,0.1-0.7,1.6-1.5,3.2c-0.8,1.7-1.5,3.2-1.5,3.5
	c0,0.3,0.7,1.8,1.5,3.6c0.8,1.7,1.5,3.2,1.5,3.2c0,0.1-0.8,0.2-1.8,0.2c-1.8,0-1.9-0.1-4.6-3.4C33.1,21.8,32.1,20.3,32.3,20z
	 M32.7,27.9l-4,0.4l-0.3,1.3c0,0,0,0.1,0,0.2c0,0,0,0.1,0,0.1c-0.1,0.9-0.3,2.6-0.4,4.1c-0.3,3.1-0.3,3.2,1,4.4
	c0.7,0.7,1.3,1.2,1.4,1.1c0.1-0.1,0.7-1.6,1.4-3.5l1.2-3.3l3.5-1.3l3.5-1.3l-1.4-1.4c-0.8-0.8-1.5-1.4-1.6-1.4
	C36.8,27.4,35,27.6,32.7,27.9z M13.4,39.1c0-1.6,0.2-1.8,3.3-4.4c1.8-1.5,3.4-2.8,3.7-2.8c0.3,0,1.9,1.1,3.7,2.5
	c3.2,2.5,3.2,2.6,3.2,4.4c0,1-0.1,1.8-0.2,1.8c-0.1,0-1.7-0.7-3.4-1.5l-3.3-1.5l-3.1,1.5c-1.7,0.8-3.3,1.5-3.5,1.5
	C13.6,40.8,13.4,40,13.4,39.1z" fill="currentColor"/>
</svg>
