<svg width="24" height="24" viewBox="0 0 24 24" fill="none" xmlns="http://www.w3.org/2000/svg">
<g clip-path="url(#clip0_3636_204162)">
<path d="M8.36243 3.86441H9.81301C9.81301 3.28998 9.67379 2.02975 11.1912 2.02975C12.3429 2.02975 12.2848 3.00865 12.2848 3.00865C12.2848 3.00865 12.3313 3.66511 11.3565 4.14575C10.4751 4.58041 10.3933 5.18902 10.3933 5.45857V7.14662H11.8555V6.05643C11.8555 5.64613 12.1456 5.42349 12.7955 4.9546C13.4454 4.4857 13.8748 4.04023 13.8748 3.03208C13.8748 2.02392 12.8768 0.500007 11.0548 0.500007C11.0548 0.500007 9.80152 0.488315 9.08195 1.3909C8.36243 2.29362 8.32755 2.82108 8.36243 3.86441Z" fill="currentColor"/>
<path d="M11.8437 7.67418H10.3931V9.1981H11.8437V7.67418Z" fill="currentColor"/>
<path d="M21.2399 17.1477C23.3646 17.1477 23.9998 15.4068 23.9998 14.4088C23.9998 13.1554 22.9258 11.8324 21.4709 11.8324H18.0876V8.90746L2.95801 12.1109V12.9465L18.0876 15.9639V13.1786C18.0876 13.1786 21.3315 13.1786 21.3439 13.1786C22.106 13.1786 22.6602 13.9678 22.6602 14.4552C22.6602 15.0714 22.2906 15.7685 21.3437 15.7685C21.3437 15.7685 20.2815 15.6622 20.2815 16.4281C20.2815 17.1941 21.0898 17.1477 21.2399 17.1477Z" fill="currentColor"/>
<path d="M2.55289 12.2038V12.8485H0.370308C-0.11469 12.8485 -0.132105 12.2096 0.370308 12.2038C0.382781 12.2036 2.55289 12.2038 2.55289 12.2038Z" fill="currentColor"/>
<path d="M16.643 20.0122C16.643 20.0122 17.2749 20.0122 17.4588 20.0122C17.6426 20.0122 18.0217 20.1846 18.0217 20.5292V23.5023L16.2293 22.9854C16.2293 22.9854 6.45196 22.9854 5.93502 22.9854C5.41793 22.9854 5.21232 22.5553 5.21232 22.3255C5.21232 22.0957 5.39499 21.6617 5.93502 21.6617H11.1167V21.3543C11.1167 21.3543 6.45196 21.3543 5.93502 21.3543C5.41793 21.3543 5.21232 20.9214 5.21232 20.6916C5.21232 20.462 5.39499 20.0407 5.93502 20.0407H11.1167V19.7587C11.1167 19.7587 6.45196 19.7587 5.93502 19.7587C5.41793 19.7587 5.21232 19.3386 5.21232 19.1088C5.21232 18.8791 5.39499 18.4188 5.93502 18.4188H11.1167V18.1412H5.93204C5.4151 18.1412 5.21232 17.6792 5.21232 17.4494C5.21232 17.2197 5.3921 16.7755 5.93204 16.7755H10.2635L8.80733 16.3733C8.4397 16.247 8.25223 15.9154 8.3556 15.5362C8.45902 15.1571 8.77143 14.998 9.30133 15.0982L18.0217 16.7869V18.4821C18.0217 18.8842 17.746 19.1484 17.4473 19.1484H16.643C16.126 19.1484 16.126 20.0122 16.643 20.0122Z" fill="currentColor"/>
</g>
<defs>
<clipPath id="clip0_3636_204162">
<rect width="24" height="24" fill="white"/>
</clipPath>
</defs>
</svg>
