<svg width="24" height="24" viewBox="0 0 24 24" fill="none" xmlns="http://www.w3.org/2000/svg">
<path d="M2.65006 4.74335C2.43388 4.74335 2.22882 4.78881 2.03986 4.86362L11.3726 13.0188C11.776 13.3712 12.2057 13.3715 12.61 13.0188L21.9599 4.86362C21.7712 4.78862 21.5659 4.74335 21.3497 4.74335H2.64991H2.65006ZM1.01726 6.1613C1.00671 6.2363 1 6.31514 1 6.39322V17.3931C1 18.3071 1.73581 19.0432 2.65008 19.0432H21.3499C22.2639 19.0432 23 18.3074 23 17.3931V6.39322C23 6.31515 22.9933 6.23631 22.9827 6.16111L13.6927 14.2652C12.7235 15.1106 11.2589 15.1119 10.2896 14.2652L1.01726 6.16111L1.01726 6.1613Z" fill="currentColor"/>
</svg>
