<svg width="24" height="24" viewBox="0 0 24 24" fill="none" xmlns="http://www.w3.org/2000/svg">
<path d="M19.6549 5.63942C19.0133 4.3743 18.0639 3.29079 16.894 2.4885C15.7242 1.6862 14.3714 1.19087 12.96 1.04804C12.3216 0.983985 11.6783 0.983985 11.0399 1.04804C9.6286 1.19097 8.27585 1.68628 7.10595 2.48848C5.93604 3.29068 4.98651 4.37403 4.34459 5.639C3.53696 7.25302 3.225 9.06994 3.44802 10.8609C3.67103 12.6519 4.41904 14.3368 5.59783 15.7035L11.3461 22.6922C11.4254 22.7888 11.5252 22.8666 11.6383 22.92C11.7513 22.9734 11.8748 23.0011 11.9998 23.0011C12.1248 23.0011 12.2482 22.9734 12.3613 22.92C12.4743 22.8666 12.5741 22.7888 12.6535 22.6922L18.4017 15.7035C19.5805 14.3369 20.3285 12.652 20.5515 10.8611C20.7745 9.07023 20.4626 7.25338 19.6549 5.63942ZM11.9998 12.8463C11.3303 12.8463 10.6759 12.6478 10.1192 12.2758C9.56261 11.9039 9.12876 11.3752 8.87257 10.7568C8.61638 10.1382 8.54935 9.45767 8.67995 8.80107C8.81056 8.14448 9.13293 7.54135 9.60631 7.06797C10.0797 6.59459 10.6828 6.27222 11.3394 6.14161C11.996 6.01101 12.6766 6.07804 13.2951 6.33423C13.9136 6.59042 14.4422 7.02427 14.8142 7.5809C15.1861 8.13754 15.3846 8.79196 15.3846 9.46142C15.3836 10.3588 15.0266 11.2192 14.392 11.8537C13.7575 12.4883 12.8972 12.8452 11.9998 12.8463Z" fill="currentColor"/>
</svg>
