<svg width="24" height="24" viewBox="0 0 24 24" fill="none" xmlns="http://www.w3.org/2000/svg">
<path d="M23.4004 8.34154C23.0641 8.03439 22.6065 7.8969 22.1567 7.96804L19.3335 8.45169C17.2907 8.21277 16.463 7.35032 15.6648 6.51607C14.8293 5.64404 13.9667 4.7431 12 4.7431C10.0332 4.7431 9.16531 5.65003 8.3237 6.52719C7.48726 7.39905 6.69573 8.22254 4.69431 8.45681L1.84323 7.96804C1.39346 7.89689 0.935774 8.03439 0.599577 8.34154C0.201439 8.69231 -0.0181331 9.20333 0.00117442 9.73366L0.107721 12.0441C0.114903 12.6896 0.310551 13.3189 0.67053 13.8546C1.03053 14.3904 1.53933 14.8092 2.13414 15.0599C3.13494 15.5353 4.33126 15.6922 5.39808 15.8246C5.69429 16.2701 6.03409 16.6851 6.41258 17.0633C7.39149 18.0475 8.61294 18.7557 9.95357 19.1162C11.294 19.4767 12.706 19.4767 14.0464 19.1162C15.3871 18.7557 16.6085 18.0475 17.5874 17.0633C17.9643 16.6867 18.303 16.2735 18.5983 15.83C19.6157 15.7083 20.8676 15.5528 21.892 15.0586H21.8918C22.4813 14.8037 22.9841 14.3832 23.3392 13.8481C23.6942 13.313 23.8865 12.6864 23.8923 12.0442L23.9988 9.73353V9.7337C24.0181 9.20337 23.7986 8.69236 23.4004 8.34158L23.4004 8.34154ZM5.21404 9.52022C7.34667 9.17014 8.33228 8.14199 9.13518 7.3062C9.90613 6.50273 10.5148 5.86825 11.9998 5.86825C13.4848 5.86825 14.0585 6.46595 14.8505 7.29355C15.6505 8.12898 16.6312 9.15478 18.7856 9.51116V11.3654C17.1374 11.0584 16.4181 10.3099 15.6608 9.51992C14.8269 8.65046 13.9648 7.75154 11.9998 7.75154C10.0408 7.75154 9.18908 8.64341 8.36577 9.50656C7.6432 10.2635 6.89669 11.0439 5.21404 11.3753V9.52022ZM2.61676 14.0437C2.20716 13.8797 1.85606 13.5965 1.60909 13.2307C1.36213 12.865 1.23062 12.4336 1.23147 11.9922L1.12493 9.68182C1.12219 9.49216 1.20223 9.3107 1.34418 9.18481C1.42575 9.10375 1.53965 9.06407 1.65389 9.07724L4.0901 9.49488V11.4762L4.09028 11.476C4.08891 12.551 4.3085 13.6148 4.73535 14.6014C4.00613 14.5181 3.29262 14.3302 2.61673 14.0437L2.61676 14.0437ZM22.768 11.9923C22.6847 13.7988 21.2454 14.3138 19.2633 14.6074C19.6915 13.6191 19.9116 12.5531 19.9102 11.476V9.49474L22.3464 9.07711L22.3466 9.07728C22.4608 9.06411 22.5747 9.10362 22.6563 9.18485C22.7983 9.31072 22.8783 9.49217 22.8756 9.68186L22.768 11.9923Z" fill="currentColor"/>
</svg>
