<svg width="40" height="40" viewBox="0 0 40 40" fill="none" xmlns="http://www.w3.org/2000/svg">
<path d="M24.3984 23.2068C24.0837 23.2113 23.7833 23.3383 23.5608 23.5608C23.3383 23.7833 23.2113 24.0837 23.2068 24.3984V35H16.7932L16.7932 24.3984C16.7932 24.0823 16.6677 23.7792 16.4442 23.5558C16.2207 23.3323 15.9177 23.2068 15.6016 23.2068H5L5 16.7932H15.6016C15.7588 16.7956 15.9148 16.7664 16.0604 16.7073C16.2061 16.6483 16.3384 16.5606 16.4495 16.4495C16.5606 16.3384 16.6483 16.2061 16.7073 16.0604C16.7664 15.9148 16.7956 15.7588 16.7932 15.6016V5L23.2068 5V15.6016C23.2068 15.9177 23.3323 16.2207 23.5558 16.4442C23.7792 16.6677 24.0823 16.7932 24.3984 16.7932L35 16.7932V23.2068H24.3984Z" fill="currentColor"/>
</svg>
