<svg width="40" height="40" viewBox="0 0 40 40" fill="none" xmlns="http://www.w3.org/2000/svg">
<path fill-rule="evenodd" clip-rule="evenodd" d="M7.14658 15.6032L6.76938 15.8209L8.89166 18.8512L0.377202 19.3331C0.165395 19.3449 0 19.5204 0 19.7331L0 20.3229C0 20.5356 0.167083 20.7111 0.379733 20.7221L8.88407 21.1601L6.76938 24.1794L7.14658 24.3963C7.2951 24.4824 7.47821 24.4824 7.62673 24.3963L15.0341 20.1196V19.8799L7.62673 15.6032C7.47821 15.5171 7.2951 15.5171 7.14658 15.6032Z" fill="currentColor"/>
<path fill-rule="evenodd" clip-rule="evenodd" d="M20.1199 24.9657H19.8802L15.6036 32.3732C15.5175 32.5217 15.5175 32.7048 15.6036 32.8533L15.8213 33.2305L18.8516 31.1082L19.3334 39.6228C19.3452 39.8346 19.5207 40 19.7325 40H20.3232C20.5359 40 20.7114 39.8329 20.7224 39.6203L21.1595 31.1158L24.1788 33.2305L24.3965 32.8533C24.4826 32.7048 24.4826 32.5217 24.3965 32.3732L20.1199 24.9657Z" fill="currentColor"/>
<path fill-rule="evenodd" clip-rule="evenodd" d="M39.6203 19.2774L31.1159 18.8403L33.2298 15.8209L32.8534 15.6032C32.7049 15.5171 32.5218 15.5171 32.3733 15.6032L24.9659 19.8799V20.1204L32.3733 24.3971C32.5218 24.4823 32.7049 24.4824 32.8534 24.3963L33.2298 24.1786L31.1075 21.1482L39.6228 20.6664C39.8338 20.6546 40 20.4791 40 20.2673V19.6765C40 19.4639 39.8329 19.2884 39.6203 19.2774Z" fill="currentColor"/>
<path fill-rule="evenodd" clip-rule="evenodd" d="M24.1788 6.76948L21.1485 8.89179L20.6667 0.377207C20.6549 0.165397 20.4794 0 20.2675 0L19.6768 0C19.4642 0 19.2887 0.166241 19.2777 0.378895L18.8397 8.88336L15.8204 6.76948L15.6036 7.14668C15.5175 7.2952 15.5175 7.47748 15.6036 7.626L19.8802 15.0343H20.1199L24.3965 7.626C24.4826 7.47748 24.4826 7.2952 24.3965 7.14668L24.1788 6.76948Z" fill="currentColor"/>
<path fill-rule="evenodd" clip-rule="evenodd" d="M21.9998 19.9999C21.9998 18.8953 21.1045 18 19.9999 18C18.8953 18 17.9999 18.8953 17.9999 19.9999C17.9999 21.1045 18.8953 21.9999 19.9999 21.9999C21.1045 21.9999 21.9998 21.1045 21.9998 19.9999Z" fill="currentColor"/>
</svg>
