<svg width="24" height="24" viewBox="0 0 24 24" fill="none" xmlns="http://www.w3.org/2000/svg">
<path fill-rule="evenodd" clip-rule="evenodd" d="M1.5 6.5H22.5C22.7761 6.5 23 6.27614 23 6V4.5C23 4.22386 22.7761 4 22.5 4H1.5C1.22386 4 1 4.22386 1 4.5V6C1 6.27614 1.22386 6.5 1.5 6.5ZM1.5 13.5H14.5C14.7761 13.5 15 13.2761 15 13V11.5C15 11.2239 14.7761 11 14.5 11H1.5C1.22386 11 1 11.2239 1 11.5V13C1 13.2761 1.22386 13.5 1.5 13.5Z" fill="currentColor"/>
<path d="M1.5 20.5H19.5C19.7761 20.5 20 20.2761 20 20V18.5C20 18.2239 19.7761 18 19.5 18H1.5C1.22386 18 1 18.2239 1 18.5V20C1 20.2761 1.22386 20.5 1.5 20.5Z" fill="currentColor"/>
</svg>
