<svg width="24" height="24" viewBox="0 0 24 24" fill="none" xmlns="http://www.w3.org/2000/svg">
<path d="M17.8761 23H6.13593V22.7292C6.13593 21.9132 6.78219 21.2518 7.57939 21.2518H16.4326C17.2298 21.2518 17.8761 21.9132 17.8761 22.7292V23Z" fill="currentColor"/>
<path d="M15.3019 20.427H8.66199C8.66199 20.427 8.87851 20.427 8.87851 19.1405C8.87851 17.8539 8.66199 17.8539 8.66199 17.8539H15.3019C15.3019 17.8539 15.0613 17.8539 15.0613 19.1405C15.0613 20.427 15.3019 20.427 15.3019 20.427Z" fill="currentColor"/>
<path d="M7.79591 17.0537H16.18C16.2883 15.8883 17.1038 13.2053 19.5 11.7969C18.6888 11.2397 16.5231 9.97493 14.6672 9.49062C14.2488 9.38144 13.7926 8.78483 13.7452 8.35504C13.7038 7.98047 13.9351 7.9667 14.2032 7.70186C14.8781 7.03517 15.2692 5.92194 15.2692 4.14286C15.2692 1.98214 14.1154 1 12.1923 1C10.2692 1 9.11538 2.17857 9.11538 4.14286C9.11538 5.86509 9.26322 6.83232 10.207 7.70651C10.4672 7.94756 10.6207 8.29138 10.5678 8.64212C10.5048 9.05993 10.1728 9.38297 9.75772 9.46201C7.06808 9.97419 5.01711 11.1958 4.5 11.7969C6.40537 13.5303 7.49118 16.0237 7.79591 17.0537Z" fill="currentColor"/>
</svg>
