<svg width="65" height="52" viewBox="0 0 65 52" enable-background="new 0 0 65 52" fill="none" xmlns="http://www.w3.org/2000/svg">
<path fill-rule="evenodd" clip-rule="evenodd" d="M51.5,0.4c-1,0.8-3.4,2.4-9.4,6c-5.2,3.1-7.8,4.7-10.4,6.4
	c-5.7,3.8-9.6,7-11.7,9.5c-0.8,1-1.5,2-1.4,2.1c0,0,0.2-0.1,0.4-0.2c0.7-0.6,3.7-2.1,8.5-4.3c11.6-5.4,16.3-8,18.6-10.4
	c1-1,1-1,2.5-3.7c0.8-1.5,1.7-3.1,2-3.5c0.2-0.4,0.5-0.8,0.5-0.8c0,0,0.1-0.3,0.3-0.5C51.9,0.4,52.1,0,52,0C52,0,51.8,0.2,51.5,0.4z
	 M5.7,7.9c-1.5,0.3-3.2,1-4.7,2l-0.9,0.6v3.2c0,2.5,0,3.2,0.1,3.1c0.1,0,0.3-0.2,0.5-0.4c1.5-1.2,3.3-1.9,5.3-2
	c4.1-0.2,6.9,2.3,7.4,6.6c0.1,1.2,0,2.4-0.4,3.6c-0.5,1.4-1.2,2.4-2.6,3.8c-4.1,3.7-5.8,6.2-6.5,9.5c-0.2,1-0.2,3.4,0,4.4
	c0.5,2.4,1.6,4.3,3.2,5.9c1.5,1.5,3.6,2.6,4.9,2.6l0.5,0l-0.7-0.4c-1.9-1-3.2-2.5-4.2-4.6c-1.5-3.1-1.5-6.8,0-10.1
	c0.8-1.9,2.2-3.5,4.1-5c1.7-1.3,2.1-1.6,2.9-2.4c1.4-1.3,2.7-3.1,3.2-4.4c1.1-2.7,1.3-5.4,0.5-8c-0.7-2.2-1.9-4.1-3.7-5.5
	c-1.5-1.2-3.3-2.1-5-2.4C8.7,7.7,6.6,7.7,5.7,7.9z M45.4,11.6c-0.1,0.2-1.4,1.3-2.4,1.9c-2.6,1.7-5.2,3-12.3,6.2
	c-8,3.6-10.1,4.6-12,6.2c-0.8,0.7-1.5,1.4-1.4,1.4c0,0,0.4-0.1,0.9-0.4c1.3-0.6,3.3-1.2,10.1-3c7.3-1.9,11.5-3.5,12.8-5
	c0.2-0.2,0.9-1.3,1.6-2.6c0.7-1.2,1.6-2.8,2.1-3.5c0.4-0.7,0.8-1.3,0.8-1.4c0-0.1,0-0.1,0-0.1C45.5,11.5,45.4,11.5,45.4,11.6z
	 M4.7,16c-1.7,0.4-2.9,1-4,2.1l-0.5,0.5l0,4.7l0,4.7L0.5,27C1,25.7,2,24.4,2.8,24c1.2-0.6,2.3,0.1,2.4,1.5c0.1,1.2-0.4,2.5-1.7,4.2
	c-2.9,3.9-4.2,9.1-3.1,13c0.8,3,3,5.4,6.3,7.1c1.2,0.6,1.2,0.6,0-0.6c-1.2-1.2-1.8-1.9-2.5-3C3.5,45,3,43.8,2.7,42.5
	c-0.2-1-0.2-1.3-0.2-2.5c0.1-1.5,0.2-2.4,0.6-3.5c0.8-2.3,1.7-3.7,4-6.2c2.7-2.8,3.5-3.8,4.1-5.3c0.5-1.2,0.7-1.9,0.7-3.2
	c0-1.7-0.3-2.6-1.1-3.8C9.6,16.4,6.9,15.5,4.7,16z M39.2,22c-0.7,0.7-1.4,1.1-2.5,1.5c-2.1,0.9-4.5,1.5-8.8,2.2
	c-7.5,1.3-9,1.7-10.8,2.6c-0.6,0.3-1.7,1.2-1.6,1.3c0,0,0.2,0,0.3-0.1c0.5-0.3,1.8-0.6,2.7-0.7c1.1-0.1,3.7-0.1,5.2,0
	c0.6,0.1,1.8,0.2,2.7,0.3c3.5,0.5,4,0.5,5.4,0.5c2,0,3-0.3,3.5-0.9c0.1-0.2,1-1.6,1.9-3.2c0.9-1.6,1.8-3.1,2-3.4
	C39.8,21.4,39.8,21.4,39.2,22z M43.5,29.2c0,0.1-0.1,0.6-0.2,1.2c-0.1,0.6-0.3,1.9-0.4,3c-0.2,1.1-0.3,1.9-0.3,2c0,0,0.3,0,0.6,0
	c0.5,0,0.5,0,0.6-0.2c0-0.1,0.1-0.8,0.1-1.6c0.1-1.2,0.1-1.4,0.2-1.3c0.1,0.1,0.4,0.8,0.8,1.5l0.6,1.4h0.4h0.4l0.7-1.6
	c0.4-0.9,0.7-1.5,0.8-1.5c0.1,0.7,0.3,2.1,0.4,3.1c0.7-0.1,1.9,0,1.9,0s-0.6-3.7-0.8-5.2l-0.1-1h-0.5H48l-0.7,1.6
	c-0.4,0.9-0.8,1.7-0.9,1.8c-0.1,0.2-0.2,0.2-1-1.6l-0.9-1.8l-0.5,0C43.7,29.1,43.5,29.1,43.5,29.2z M19.6,29.8
	c-3.5,0.3-6.1,1.2-8.2,2.8c-1.7,1.2-2.9,3-3.4,4.9c-0.8,3-0.5,5.7,0.8,8c0.5,0.8,1.7,2.1,2.7,2.7c2.5,1.7,6.4,2.8,10.6,2.9
	c1.2,0,1.2,0,0.7-0.1c-2.9-0.9-4.9-1.8-6.3-2.8c-2-1.5-3.4-3.5-3.7-5.3c-0.2-1.5,0.1-3,0.7-4.1c0.7-1.2,1.5-1.9,2.8-2.6
	c1.3-0.7,2.6-0.9,4.7-0.9c2.1,0,3.6,0.3,5.3,1.1c0.8,0.4,2,1.2,2.6,1.8c0.3,0.3,0.6,0.5,0.6,0.5c0,0,0.1-0.2,0.2-0.4
	c0.1-0.2,0.8-1.4,1.6-2.7c0.8-1.3,1.4-2.4,1.4-2.4c0-0.4-2-1.7-3.4-2.3c-1.7-0.7-3.3-1-5.7-1.2C22.1,29.6,21.3,29.6,19.6,29.8z
	 M50.7,32.5l0,2.9H51c0.3,0,0.4-0.1,1.4-1.4c1.2-1.6,1.9-2.5,2.1-2.5c0.1,0,0.1,0.6,0,1.9l-0.1,2H55h0.7l0-2.8c0-1.6,0-2.9,0-2.9
	c0,0-0.1-0.1-0.3-0.1c-0.3,0-0.4,0.1-0.6,0.4c-0.8,1.2-2.6,3.4-2.7,3.4c-0.1,0-0.2-0.6-0.1-2.2l0.1-1.6h-0.7h-0.7L50.7,32.5z
	 M57,32.5v2.9h0.7h0.7l-0.1-1.2l-0.1-1.2l0.7-0.1c1.2-0.1,1.8-0.6,1.9-1.5c0.1-0.7-0.2-1.2-0.7-1.5c-0.3-0.1-0.6-0.2-1.7-0.2l-1.4,0
	V32.5z M59.2,30.3c0.4,0.4,0.3,1.5-0.1,1.9c-0.1,0.1-0.3,0.2-0.6,0.2l-0.4,0.1v-0.6c0-0.3,0-0.9,0.1-1.2l0.1-0.6h0.3
	C58.9,30.1,59.1,30.2,59.2,30.3z M19,37c-2.5,0.5-3.9,1.6-4.5,3.4c-0.3,0.8-0.3,2.4-0.1,3.3c0.6,2.4,2.6,4.4,5.5,5.6
	c1,0.4,3,1,3.6,1.1l0.4,0.1l-0.4-0.2c-1.7-1-3-2.1-3.6-3.2c-1.1-1.8-0.2-3.8,1.9-4.4c0.7-0.2,1.8-0.2,2.4,0.1
	c0.7,0.3,1.3,0.9,1.6,1.6l0.3,0.6l0.9-1.6c1.6-2.8,1.9-3.3,1.9-3.4c0-0.2-0.9-0.9-1.5-1.4c-1.2-0.8-2.7-1.3-4.4-1.6
	C22,36.8,19.8,36.8,19,37z M37.6,40.1v3.2l1.3,0c1.5,0,2-0.2,2.5-0.6c0.4-0.3,0.5-0.7,0.5-1.3c0-0.6-0.3-1.2-0.7-1.5
	c-0.3-0.2-0.5-0.3-1.2-0.3l-0.8,0l0-0.7l0-0.7h1.2h1.2v-0.6v-0.6h-2.1h-2.1V40.1z M47.5,37.4c-0.7,0.2-0.7,0.2-0.6,0.7
	c0.1,0.6,0.1,0.6,0.3,0.3c0.2-0.4,0.3-0.4,0.7-0.5c0.4-0.1,0.9,0,1.1,0.4c0.2,0.4,0.2,1,0,1.3c-0.2,0.2-0.7,0.5-1,0.5
	c-0.2,0-0.2,0-0.2,0.2c0,0.2,0,0.2,0.4,0.2c0.6,0,1,0.3,1,0.9c0.1,0.6-0.1,1.1-0.6,1.3c-0.6,0.3-1.3,0-1.6-0.7
	c-0.2-0.4-0.2-0.4-0.4,0.3c-0.1,0.5-0.1,0.5,0.6,0.9c0.8,0.4,2.2,0.2,2.8-0.4c0.9-0.8,0.4-2.3-0.7-2.5l-0.5-0.1l0.5-0.2
	c0.3-0.1,0.6-0.3,0.7-0.5c0.2-0.2,0.3-0.4,0.3-0.8c0-0.6-0.2-0.9-0.7-1.2C49.1,37.3,48.1,37.3,47.5,37.4z M42.7,40.1
	c0,1.5,0,2.8,0,2.9c0,0.1,0.1,0.2,1.6,0.2l1.6,0v-0.4v-0.4l-0.9,0.1c-0.7,0.1-0.9,0.1-0.9,0c0-0.1-0.1-0.6-0.1-1.1l0-1l0.9,0.1
	l0.9,0.1l0-0.3l0-0.3l-0.9,0l-0.9,0V39v-0.9l0.9,0l0.9,0v-0.3v-0.3l-1.5,0l-1.5,0L42.7,40.1z M40,40.7c0.3,0.3,0.2,1-0.1,1.3
	c-0.1,0.1-0.3,0.2-0.4,0.2c-0.2,0-0.2-0.1-0.2-0.9v-0.9l0.3,0.1C39.7,40.5,39.9,40.6,40,40.7z M31.5,44.7c0,0,0,1.4,0,3.2l0,3.2
	l0.9,0l0.9,0l0-2.6l0-2.6l0.9,0.1l0.9,0.1v-0.6v-0.6l-1.8,0C32.3,44.7,31.5,44.7,31.5,44.7z M42.5,45.2c0,0-0.3,0.8-0.7,1.7
	c-0.3,0.9-0.8,2.2-1.1,2.9L40.2,51h0.4h0.4l0.3-0.8l0.3-0.8l1,0l1,0l0.3,0.8L44,51h0.7c0.5,0,0.7,0,0.6-0.1
	c-0.8-1.9-1.4-3.8-2.3-5.7H42.5z M36.1,48c0,1.5,0,2.8,0,2.9c0,0.1,0.3,0.1,0.7,0.1h0.7l-0.1-1.2l-0.1-1.2l0.5-0.1
	c1.1-0.1,1.6-0.4,1.9-0.9c0.3-0.6,0.2-1.6-0.3-2c-0.4-0.3-0.7-0.4-2-0.4l-1.3,0L36.1,48z M46.1,48.2V51h0.7h0.7l0-1.4l0-1.4l1.2,0
	l1.2,0l0,1.4l0,1.4h0.6h0.6l0-2.8l0-2.8h-0.6h-0.6v1.2v1.2h-1.2h-1.2l0-1.2l0-1.2l-0.7,0l-0.7,0V48.2z M52.4,48.2l0,2.8h0.3
	c0.3,0,0.4,0,1.2-1.1c1.1-1.5,2.2-2.8,2.3-2.8c0,0,0,0.9,0,2l-0.1,2l0.7,0l0.7,0l0-2.8l0-2.8h-0.3c-0.3,0-0.4,0.1-0.6,0.3
	c-0.8,1.1-1.9,2.5-2.4,3l-0.5,0.6l0-1.9l0-1.9l-0.7,0l-0.7,0L52.4,48.2z M58.7,48.2l0,2.8h2.4c2.4,0,2.4,0,2.6,0.2
	c0.1,0.1,0.2,0.3,0.2,0.4c0,0.1,0.1,0.2,0.2,0.2c0.2,0,0.2,0,0.2-0.7l0-0.7H64h-0.3l0-2.6l0-2.6l-0.7,0l-0.7,0l0,1.8
	c0,1,0,2.1,0,2.6l-0.1,0.8h-1.2h-1.2L60,50.1c0-0.2,0-1.4,0-2.6l0-2.2l-0.7,0l-0.7,0L58.7,48.2z M38.4,46c0.1,0.1,0.2,0.3,0.2,0.7
	c0,0.9-0.2,1.3-1,1.4c-0.2,0-0.2,0-0.3-0.8c0-0.4,0-1,0-1.2l0.1-0.4l0.4,0.1C38,45.7,38.2,45.9,38.4,46z M42.8,47.6
	c0.5,1.3,0.5,1.1-0.3,1.1c-0.4,0-0.7,0-0.7-0.1c0-0.2,0.6-1.8,0.7-1.8C42.5,46.9,42.6,47.2,42.8,47.6z" fill="currentColor"/>
</svg>
