<svg width="24" height="24" viewBox="0 0 24 24" fill="none" xmlns="http://www.w3.org/2000/svg">
<path fill-rule="evenodd" clip-rule="evenodd" d="M7.141 6.2238L1 4.06049V17.2496L7.141 19.4129V6.2238ZM22.772 20.7385C22.9116 20.7385 23.0513 20.5989 22.9814 20.4594L19.7715 13.132C19.7016 12.9924 19.4924 12.9924 19.4225 13.132L16.2822 20.4594C16.2124 20.5989 16.2822 20.7385 16.4218 20.7385C17.5119 20.7385 18.2247 20.4083 19.0643 20.0193C19.2458 19.9352 19.4333 19.8484 19.6317 19.7615C19.838 19.8518 20.0323 19.942 20.22 20.0291C21.0485 20.4138 21.7479 20.7385 22.772 20.7385ZM14.1888 4.06049L8.04782 6.2238V19.4129L14.1888 17.2496V4.06049ZM16.4916 17.8077L16.4918 17.8078H16.4915L16.4916 17.8077ZM15.1659 17.3891L16.4916 17.8077L18.6548 12.7834C19.0038 12.0157 20.19 12.0157 20.539 12.7834L21.2368 14.4581V6.29339L15.1659 4.19995V17.3891Z" fill="currentColor"/>
</svg>
