<svg width="40" height="40" viewBox="0 0 40 40" fill="none" xmlns="http://www.w3.org/2000/svg">
<path d="M34.1964 10.3571H30.7143L30.7143 30.7142C30.7143 31.2826 30.9401 31.8276 31.3419 32.2295C31.7438 32.6313 32.2888 32.8571 32.8571 32.8571C33.4255 32.8571 33.9705 32.6313 34.3724 32.2295C34.7742 31.8276 35 31.2826 35 30.7142V11.1607C35 10.9476 34.9153 10.7432 34.7646 10.5925C34.6139 10.4418 34.4095 10.3571 34.1964 10.3571Z" fill="currentColor"/>
<path d="M31.7288 34.8493C30.8225 34.6006 30.0227 34.0615 29.4524 33.3145C28.882 32.5675 28.5725 31.6541 28.5714 30.7142L28.5714 5.80357C28.5714 5.59045 28.4868 5.38606 28.3361 5.23536C28.1854 5.08466 27.981 5 27.7679 5L5.80357 5C5.59045 5 5.38606 5.08466 5.23536 5.23536C5.08466 5.38606 5 5.59045 5 5.80357L5 31.25C5 32.2445 5.39509 33.1983 6.09835 33.9016C6.80161 34.6049 7.75544 34.9999 8.75 34.9999H31.7087C31.7277 35.0007 31.7463 34.9943 31.7608 34.9821C31.7753 34.9698 31.7848 34.9526 31.7873 34.9338C31.7898 34.9149 31.7852 34.8958 31.7744 34.8802C31.7636 34.8646 31.7473 34.8535 31.7288 34.8493ZM9.28571 16.7857L9.28571 10.3571L15.7143 10.3571L15.7143 16.7857H9.28571ZM24.2857 29.6428L9.28571 29.6428V27.5L24.2857 27.5V29.6428ZM24.2857 25.3571L9.28571 25.3571V23.2143L24.2857 23.2143V25.3571ZM24.2857 21.0714L9.28571 21.0714V18.9285L24.2857 18.9285V21.0714ZM24.2857 16.7857L17.8571 16.7857V14.6428L24.2857 14.6428L24.2857 16.7857ZM24.2857 12.5L17.8571 12.5V10.3571L24.2857 10.3571V12.5Z" fill="currentColor"/>
</svg>
