<svg width="24" height="24" viewBox="0 0 24 24" fill="none" xmlns="http://www.w3.org/2000/svg">
<path fill-rule="evenodd" clip-rule="evenodd" d="M4.38281 17.8984V2.58594C4.38281 2.26207 4.64488 2 4.96875 2H15.5156C15.8395 2 16.1016 2.26207 16.1016 2.58594V17.8984C16.1016 18.2223 15.8395 18.4844 15.5156 18.4844H4.96875C4.64488 18.4844 4.38281 18.2223 4.38281 17.8984ZM11.4141 15.5156H13.7578C14.0817 15.5156 14.3438 15.2536 14.3438 14.9297C14.3438 14.6058 14.0817 14.3438 13.7578 14.3438H11.4141C11.0902 14.3438 10.8281 14.6058 10.8281 14.9297C10.8281 15.2536 11.0902 15.5156 11.4141 15.5156ZM10.2422 4.96875H6.72656C6.4027 4.96875 6.14062 5.23082 6.14062 5.55469C6.14062 5.87855 6.4027 6.14062 6.72656 6.14062H10.2422C10.5661 6.14062 10.8281 5.87855 10.8281 5.55469C10.8281 5.23082 10.5661 4.96875 10.2422 4.96875ZM13.7578 7.3125H6.72656C6.4027 7.3125 6.14062 7.57457 6.14062 7.89844C6.14062 8.2223 6.4027 8.48438 6.72656 8.48438H13.7578C14.0817 8.48438 14.3438 8.2223 14.3438 7.89844C14.3438 7.57457 14.0817 7.3125 13.7578 7.3125ZM13.7578 9.65625H6.72656C6.4027 9.65625 6.14062 9.91832 6.14062 10.2422C6.14062 10.5661 6.4027 10.8281 6.72656 10.8281H13.7578C14.0817 10.8281 14.3438 10.5661 14.3438 10.2422C14.3438 9.91832 14.0817 9.65625 13.7578 9.65625ZM13.7578 12H6.72656C6.4027 12 6.14062 12.2621 6.14062 12.5859C6.14062 12.9098 6.4027 13.1719 6.72656 13.1719H13.7578C14.0817 13.1719 14.3438 12.9098 14.3438 12.5859C14.3438 12.2621 14.0817 12 13.7578 12ZM19.6172 21.4141C19.6172 21.7379 19.3551 22 19.0312 22H8.48438C8.16051 22 7.89844 21.7379 7.89844 21.4141V19.6562H15.5156C16.4849 19.6562 17.2734 18.8677 17.2734 17.8984V5.55469H19.0312C19.3551 5.55469 19.6172 5.81676 19.6172 6.14062V21.4141Z" fill="currentColor"/>
</svg>
