<svg width="24" height="24" viewBox="0 0 24 24" fill="none" xmlns="http://www.w3.org/2000/svg">
<path d="M12.8651 3C13.6047 4.39477 13.8868 5.98554 13.6717 7.54844C13.4566 9.11134 12.7551 10.5677 11.6661 11.7125C10.577 12.8573 9.15511 13.633 7.60054 13.9303C6.04597 14.2277 4.43698 14.0317 3 13.3701C3.26127 15.036 3.98566 16.5956 5.09105 17.872C6.19643 19.1485 7.63858 20.0908 9.25397 20.592C10.8694 21.0933 12.5934 21.1335 14.2305 20.708C15.8676 20.2825 17.3524 19.4084 18.5164 18.1848C19.6804 16.9612 20.4771 15.437 20.8162 13.7851C21.1553 12.1332 21.0232 10.4197 20.4348 8.83884C19.8465 7.25797 18.8255 5.87301 17.4875 4.841C16.1496 3.80899 14.5482 3.17122 12.8651 3Z" fill="currentColor"/>
</svg>
