<svg width="215" height="193" viewBox="0 0 215 193" fill="none" xmlns="http://www.w3.org/2000/svg">
  <path
    d="M109.938 17.9931C111.646 15.8678 110.773 12.6947 108.22 11.7409L78.7358 0.728933C77.116 0.123935 75.2908 0.628267 74.2114 1.9791L0.986012 93.6178C-0.176555 95.0728 -0.181234 97.1375 0.974727 98.5977L74.1729 191.059C75.2695 192.444 77.1451 192.945 78.7869 192.293L108.373 180.529C110.874 179.535 111.699 176.405 110.014 174.307L49.2064 98.6083C48.0311 97.1451 48.0311 95.0615 49.2064 93.5983L109.938 17.9931ZM213.533 17.9931C215.241 15.8678 214.368 12.6947 211.815 11.7409L182.331 0.728933C180.711 0.123935 178.886 0.628267 177.806 1.9791L104.581 93.6178C103.418 95.0728 103.414 97.1375 104.57 98.5977L177.768 191.059C178.865 192.444 180.74 192.945 182.382 192.293L211.968 180.529C214.469 179.535 215.294 176.405 213.609 174.307L152.801 98.6083C151.626 97.1451 151.626 95.0615 152.801 93.5983L213.533 17.9931Z"
    fill="currentColor"/>
</svg>
