<svg width="24" height="24" viewBox="0 0 24 24" fill="none" xmlns="http://www.w3.org/2000/svg">
<path d="M11.0886 19.075L10.3 19.8957L13.0602 21.1268L14.2437 24L15.0323 23.1793L14.638 21.1268L16.4857 19.2038L18.4991 23.6755L19.2459 22.8983L18.5822 17.0226L20.1595 15.3805C20.266 15.2734 20.351 15.1453 20.4094 15.0037C20.4679 14.862 20.4987 14.7097 20.5 14.5556C20.5012 14.4014 20.473 14.2486 20.4169 14.1059C20.3608 13.9632 20.278 13.8336 20.1733 13.7246C20.0686 13.6156 19.944 13.5294 19.8069 13.4711C19.6698 13.4127 19.523 13.3833 19.3749 13.3847C19.2267 13.386 19.0804 13.418 18.9443 13.4789C18.8082 13.5397 18.6851 13.6281 18.5822 13.739L16.9631 15.424L11.8138 14.7935C11.5012 14.7552 11.1889 14.8664 10.9709 15.0935L10.6118 15.4676L14.875 17.5978L13.0607 19.4859L11.0886 19.075Z" fill="currentColor"/>
<path fill-rule="evenodd" clip-rule="evenodd" d="M15.9667 13.5205L12.3126 13.1588C11.4399 13.0725 10.5732 13.3722 9.94032 13.9793L8.21281 15.6364L11.4688 17.5128L5.5 17.5128C4.39543 17.5128 3.5 16.6174 3.5 15.5128V3C3.5 1.89543 4.39543 1 5.5 1H13.9667C15.0712 1 15.9667 1.89543 15.9667 3V13.5205ZM7.55167 6.71598C7.30369 6.71598 7.06587 6.61561 6.89052 6.43695C6.71518 6.25829 6.61667 6.01598 6.61667 5.76331C6.61667 5.51065 6.71518 5.26834 6.89052 5.08968C7.06587 4.91102 7.30369 4.81065 7.55167 4.81065C7.79964 4.81065 8.03747 4.91102 8.21281 5.08968C8.38816 5.26834 8.48667 5.51065 8.48667 5.76331C8.48667 6.01598 8.38816 6.25829 8.21281 6.43695C8.03747 6.61561 7.79964 6.71598 7.55167 6.71598ZM8.48667 9.57397C8.48667 9.82663 8.38816 10.0689 8.21281 10.2476C8.03747 10.4263 7.79964 10.5266 7.55167 10.5266C7.30369 10.5266 7.06587 10.4263 6.89052 10.2476C6.71518 10.0689 6.61667 9.82663 6.61667 9.57397C6.61667 9.3213 6.71518 9.07899 6.89052 8.90033C7.06587 8.72167 7.30369 8.6213 7.55167 8.6213C7.79964 8.6213 8.03747 8.72167 8.21281 8.90033C8.38816 9.07899 8.48667 9.3213 8.48667 9.57397ZM11.915 6.71598C11.667 6.71598 11.4292 6.61561 11.2539 6.43695C11.0785 6.25829 10.98 6.01598 10.98 5.76331C10.98 5.51065 11.0785 5.26834 11.2539 5.08968C11.4292 4.91102 11.667 4.81065 11.915 4.81065C12.163 4.81065 12.4008 4.91102 12.5761 5.08968C12.7515 5.26834 12.85 5.51065 12.85 5.76331C12.85 6.01598 12.7515 6.25829 12.5761 6.43695C12.4008 6.61561 12.163 6.71598 11.915 6.71598ZM12.85 9.57397C12.85 9.82663 12.7515 10.0689 12.5761 10.2476C12.4008 10.4263 12.163 10.5266 11.915 10.5266C11.667 10.5266 11.4292 10.4263 11.2539 10.2476C11.0785 10.0689 10.98 9.82663 10.98 9.57397C10.98 9.3213 11.0785 9.07899 11.2539 8.90033C11.4292 8.72167 11.667 8.6213 11.915 8.6213C12.163 8.6213 12.4008 8.72167 12.5761 8.90033C12.7515 9.07899 12.85 9.3213 12.85 9.57397Z" fill="currentColor"/>
</svg>
