<svg width="24" height="24" viewBox="0 0 24 24" fill="none" xmlns="http://www.w3.org/2000/svg">
<path fill-rule="evenodd" clip-rule="evenodd" d="M12.0969 0.512085C8.80868 0.512085 6.14309 3.17776 6.14309 6.46594C6.14309 9.7542 8.80868 12.4201 12.0969 12.4201C15.3852 12.4201 18.0508 9.7542 18.0508 6.46594C18.0508 3.17776 15.3852 0.512085 12.0969 0.512085ZM12.0969 8.9273C10.7377 8.9273 9.63576 7.82528 9.63576 6.46603C9.63576 5.10677 10.7377 4.00484 12.0969 4.00484C13.4562 4.00484 14.5581 5.10677 14.5581 6.46603C14.5581 7.82528 13.4562 8.9273 12.0969 8.9273ZM14.199 17.1575C16.5826 16.672 18.011 15.5432 18.0865 15.4826C18.784 14.9233 18.8961 13.9044 18.3367 13.2068C17.7774 12.5093 16.7586 12.3973 16.061 12.9566C16.0463 12.9685 14.5231 14.1369 12.0169 14.1389C12.0167 14.1389 12.0165 14.1388 12.0163 14.1388C12.0175 14.1388 12.0187 14.1388 12.0163 14.1388C12.0142 14.1388 12.0148 14.1388 12.0158 14.1388C12.0159 14.1388 12.0161 14.1388 12.0163 14.1388C12.0161 14.1388 12.0159 14.1389 12.0157 14.1389C12.0156 14.1389 12.0156 14.1389 12.0156 14.1389C9.50944 14.137 7.95405 12.9685 7.93931 12.9566C7.24166 12.3973 6.22288 12.5093 5.66361 13.2068C5.10424 13.9044 5.21629 14.9233 5.91376 15.4826C5.99036 15.544 7.47768 16.7022 9.92805 17.1764L6.513 20.7454C5.89238 21.389 5.91104 22.4138 6.55467 23.0345C6.86881 23.3374 7.2737 23.4879 7.67825 23.4879C8.10239 23.4879 8.52611 23.3222 8.84375 22.9927L12.0163 19.6131L15.5093 23.0146C16.1422 23.6465 17.167 23.6455 17.7987 23.0128C18.4304 22.3801 18.4297 21.3551 17.7969 20.7234L14.199 17.1575Z" fill="currentColor"/>
</svg>
