<svg width="24" height="24" viewBox="0 0 24 24" fill="none" xmlns="http://www.w3.org/2000/svg">
<g clip-path="url(#clip0_3636_204173)">
<path fill-rule="evenodd" clip-rule="evenodd" d="M13.8537 0.415184C12.2113 0.710117 11.8828 1.54049 12.7391 2.67022V2.81452L6.98731 1.72846C7.06515 1.24429 7.13857 0.763914 7.13857 0.763914L6.23922 0.45126C6.12972 0.413286 6.05694 0.310122 6.05694 0.194934V0H14.217L14.0999 0.234174C14.0518 0.330375 13.9594 0.396197 13.8537 0.415184ZM16.7336 9.36823L17.1779 7.68724H17.3703C17.5481 8.14356 17.9551 8.14293 18.1424 7.44737H16.926C16.7051 7.44737 16.5444 7.23788 16.6013 7.02459L17.3855 4.09805C17.4437 3.8797 17.6608 3.74362 17.883 3.78539L19.2842 4.04995L18.5564 6.76637L18.726 6.98092C18.8026 7.07712 18.8291 7.2037 18.7969 7.32269L18.6475 7.88091L19.1621 8.529C19.2817 8.679 19.2734 8.89419 19.1424 9.03469L17.7538 10.5277L16.9039 9.87076C16.7513 9.75304 16.6842 9.55494 16.7336 9.36823ZM7.62693 5.40278L7.24023 6.46479C6.19277 7.01035 5.48899 8.1116 5.82822 10.759C6.05797 12.5502 6.9858 18.7596 6.9858 18.7596C6.52378 19.5127 6.40163 20.7165 6.59024 22.1886C6.66112 22.7393 6.84466 24 6.84466 24H7.52187H11.1142L11.8781 14.659C10.3775 13.947 8.8497 12.9115 7.92123 11.9071L8.00984 11.8464C9.44779 12.8615 11.1509 13.7033 12.7946 14.1166C13.0794 14.1881 13.3813 14.1261 13.6148 13.9476L17.1648 11.235L16.4319 9.88563L13.2566 11.8356L10.8895 10.1799L9.39147 6.6939L9.65729 5.9629C10.1541 6.0553 10.6908 6.06859 11.206 5.99707C11.5357 5.30721 11.7516 4.31861 11.83 3.38888L6.95289 2.0427C6.85985 3.00977 7.02567 3.90849 7.51681 4.62304C7.6744 4.85278 7.7225 5.14076 7.62693 5.40278Z" fill="currentColor"/>
</g>
<defs>
<clipPath id="clip0_3636_204173">
<rect width="24" height="24" fill="white"/>
</clipPath>
</defs>
</svg>
