<svg width="24" height="24" viewBox="0 0 24 24" fill="none" xmlns="http://www.w3.org/2000/svg">
<path fill-rule="evenodd" clip-rule="evenodd" d="M12.2292 11.954L11.9878 12.864C11.9878 13.052 11.8005 13.3468 11.8005 13.3468C11.8005 13.5604 11.5862 13.5604 11.5862 13.5604L11.8005 12.864H11.3192C11.3192 13.052 11.5862 13.052 11.3192 13.3468L9.17593 17.07C9.17593 17.2843 9.49638 17.2843 9.71139 17.5784C8.77364 19.3735 7.0861 22.1861 5.98813 23.6059C5.7197 24.0879 5.45197 24.0879 5.23765 23.8202C4.99627 23.8202 4.99627 23.3652 5.23765 23.0968L4.78264 22.8831C4.29989 22.6951 3.87125 22.186 3.60352 21.9717C6.20176 17.5784 7.80953 16.3466 8.77364 16.8557V17.07L10.8898 13.5604V13.3468V12.6504V12.3556L11.3192 11.954H11.5862H12.2292ZM11.1041 22.4011L14.3454 16.8557V20.0699L12.8721 21.9717L13.194 23.0968L13.649 23.3652C13.8897 23.3652 13.8897 23.3652 13.8897 23.6059V23.8202H12.6842H12.4976L11.1041 22.4011ZM19.2471 23.6059V23.8202H15.7388L14.131 13.5604L13.649 13.3468V9.86415C13.8897 8.41729 14.3454 7.0516 15.0424 5.87248L14.6138 6.32886C13.4347 7.9623 12.6842 9.86415 12.4976 11.6856L11.3192 11.4449C11.5862 9.16779 12.2292 6.54249 13.194 4.93541C13.4347 4.4263 13.8897 4.0247 14.6138 3.75697V3.06059C14.8274 3.06059 14.6138 2.84628 14.6138 2.84628C14.131 2.14921 14.131 1.42646 14.3454 0.489404C14.6138 0.248029 15.0424 0.0330194 15.5238 0.0330194C17.1309 -0.180611 17.4257 0.703038 16.8902 0.944412C16.8902 1.64079 16.8902 2.60491 16.6759 3.30129H15.7388V4.02471L17.1309 7.05159V22.4011L19.0334 23.3652C19.2471 23.3652 19.2471 23.3652 19.2471 23.6059ZM19.0334 11.4449L17.8273 8.65868L17.4257 10.9892L18.3371 12.1413L19.0334 11.4449ZM19.9171 12.6504V12.864C19.9171 13.3467 19.7291 13.5604 19.2471 13.5604V13.052L18.5507 12.3556C18.7921 12.1413 19.0334 12.1413 19.2471 12.1413C19.5155 12.1413 19.7291 12.3556 19.7291 12.3556C19.9171 12.3556 19.9171 12.3556 19.9171 12.6504Z" fill="currentColor"/>
</svg>
