<svg width="24" height="24" viewBox="0 0 24 24" fill="none" xmlns="http://www.w3.org/2000/svg">
<path fill-rule="evenodd" clip-rule="evenodd" d="M11.6304 22.8191C12.7002 22.8581 13.749 23.0447 14.6166 23.3795V23.6639H11.6304H10.7772H7.791V23.3795C8.6586 23.0447 9.7074 22.8581 10.7772 22.8191V19.8851H11.0616C11.376 19.8851 11.6304 20.1401 11.6304 20.4539V22.8191ZM19.8858 22.9199L19.1574 22.4375C18.7614 20.6273 18.4806 18.0053 18.4116 15.6419C18.3936 15.0287 17.889 14.5433 17.2752 14.5427H15.7968L17.4564 20.7473C17.418 20.7941 17.3478 20.8799 17.2842 20.9663C17.0208 21.3275 16.9854 21.5561 17.0832 22.0703C17.208 22.7237 17.3634 23.6639 17.3634 23.6639H17.814V22.8077H17.985L18.231 23.3357C18.3246 23.5361 18.5256 23.6639 18.7464 23.6639H20.1408V23.3945C20.1408 23.2037 20.0448 23.0255 19.8858 22.9199ZM10.5396 2.47606C10.9944 2.85766 11.5644 3.14146 12.1056 3.23326L12.4476 2.82586C12.4674 3.28306 12.492 3.89626 12.492 3.89626L11.643 4.44166C11.313 4.28686 10.8954 4.53646 10.8846 4.88986C10.992 5.07046 11.148 5.21206 11.3202 5.28826C11.4528 5.06086 11.628 5.20966 11.7588 4.97266L12.9402 4.55146C13.1328 4.48306 13.2738 4.31566 13.3092 4.11466L13.5738 2.61526H13.7442L14.0412 3.20926C14.1258 3.37786 14.121 3.57646 14.0298 3.74086L13.5126 4.66786C13.6422 4.84126 13.7784 5.00746 13.9212 5.15866C14.2554 4.35106 14.7588 3.73546 15.5652 3.21886C14.9874 2.73346 14.4726 2.30206 13.8294 1.76206C13.4976 1.48366 13.1766 1.43026 12.9108 1.53706L12.915 1.53226L12.7842 1.42246C12.7446 0.999461 12.5052 0.615461 12.1842 0.346661C11.583 -0.157939 10.9818 -0.0247393 10.4508 0.608861C9.84 1.33666 10.0644 2.07706 10.5396 2.47606ZM14.7192 4.61626C14.3676 5.05846 14.1804 5.52646 14.1354 6.01006C14.1186 6.19366 14.1984 6.37306 14.3394 6.49126L15.8034 7.71346L15.9276 8.41726C15.9504 8.54566 16.0164 8.66266 16.1154 8.74846L16.26 8.87386L16.596 7.71886L16.3878 7.54246L15.8028 6.41266C15.9948 6.35206 16.1784 6.25306 16.3392 6.11146C16.9584 5.56726 17.0196 4.62346 16.4748 4.00426L16.3728 4.12546C16.5642 4.50226 16.533 4.96726 16.266 5.32186L16.1004 5.25586C16.1844 4.99426 16.155 4.72546 16.0032 4.52446C15.738 4.17286 15.1152 4.11886 14.7192 4.61626ZM15.8196 17.4581L15.8298 17.5997C15.849 17.8697 15.6756 18.1157 15.4152 18.1883L13.1586 18.8183L10.0662 19.6817C9 19.9793 7.8744 19.4669 7.3992 18.4667L3 9.20866H3.4044C3.5058 9.20866 3.6 9.26326 3.651 9.35086L6.6486 14.5433H7.6338C7.1862 13.7687 6.771 13.0487 6.4998 12.5795C5.4222 10.7123 6.6462 10.1693 6.6402 8.65246C6.6402 8.65066 6.6408 8.65126 6.6414 8.65066C6.177 8.67346 5.739 8.63986 5.3358 8.49466C5.5068 7.19386 3.9738 5.63146 6.4812 4.71886C7.1148 4.48846 7.8948 4.40986 8.4864 4.52626C8.5686 4.83166 8.5368 5.22466 8.4204 5.52106C8.7528 6.24526 8.994 7.38226 8.919 8.15266C8.6076 8.31766 8.2632 8.43346 7.926 8.48926V8.93026L8.523 9.50866C9.576 9.09526 10.9848 8.55826 10.9848 8.55826L12.1506 5.37286H13.0848L12.4122 9.14146C12.351 9.48646 12.1344 9.78346 11.8242 9.94726C10.8648 10.4537 8.7942 11.5487 8.3478 11.8025L8.379 11.9705L10.3848 11.3111L11.0736 11.9789C11.1402 12.2555 11.0724 12.6137 10.926 12.9023L10.9254 12.9065L11.6892 14.5433H15.0684C15.3654 14.5433 15.6126 14.7725 15.6354 15.0689L15.8178 17.4581H15.8196Z" fill="currentColor"/>
</svg>
