<svg width="24" height="24" viewBox="0 0 24 24" fill="none" xmlns="http://www.w3.org/2000/svg">
<path fill-rule="evenodd" clip-rule="evenodd" d="M19.0003 5.54691L18.707 6.35337C18.1597 7.85581 16.8235 6.70421 16.1264 7.34209C16.1264 7.34209 16.5883 8.42251 16.8964 9.16234C17.4825 10.5708 17.4717 11.7281 16.9893 13.1742C16.7102 14.012 15.5688 17.1034 15.144 18.2527C15.0375 18.5404 14.9828 18.8445 14.9828 19.1515V21.4353L15.7836 21.8289C15.9288 21.9006 16.0222 22.0476 16.0245 22.2093L16.033 22.7561H13.85L13.8443 22.7367H13.8431C13.8107 22.6479 13.6706 22.2629 13.5481 21.9263C13.2349 21.0657 12.8043 20.7257 11.852 20.495C10.2807 20.114 8.16655 20.0758 6.16178 20.372V20.5018C8.21382 20.409 10.3188 20.6471 11.7472 21.1659C12.1966 21.3288 12.4717 21.6176 12.646 22.0971C12.7451 22.3682 12.8863 22.7561 12.8863 22.7561H3.81186C3.63416 21.7514 3.90128 21.0873 4.76413 20.7519C3.99981 14.8617 6.22215 10.0856 10.672 9.32579C10.672 9.32579 11.6664 6.59315 11.9318 5.86528C12.5064 4.28538 13.0099 3.44987 14.0493 2.48165C14.4275 2.12911 14.9925 1.62222 15.3991 1.25999C15.6332 1.05154 15.9026 1.19335 15.9026 1.4861V2.97316L19.0003 5.54691Z" fill="currentColor"/>
</svg>
