<svg width="40" height="40" viewBox="0 0 40 40" fill="none" xmlns="http://www.w3.org/2000/svg">
<path fill-rule="evenodd" clip-rule="evenodd" d="M39.0276 24.6808C38.753 24.4062 38.3139 24.3972 38.0212 24.6535C37.303 25.2808 36.5521 25.8644 35.7776 26.4126C27.7412 18.4953 26.683 15.1844 27.8394 11.1899C28.8839 12.599 30.1167 11.4535 31.3103 12.9481C31.7639 13.5162 32.3539 13.6199 33.0703 13.189C33.5067 12.9262 33.6048 12.5217 33.3867 12.1344C33.063 11.5608 30.9058 7.52533 30.9058 7.52533L31.9203 6.36533L31.8094 6.15806L30.3812 6.24079C24.163 4.05806 19.6821 8.31988 20.9412 14.8317C20.9412 14.8317 16.1194 13.9817 13.453 13.5108C7.61575 12.4817 4.47848 14.6017 4.77848 20.409C6.2403 20.409 7.14848 19.6253 7.51394 17.8944C8.04303 15.3862 8.76757 14.6235 10.4885 14.4444C9.87939 15.139 9.5403 16.1453 9.5403 17.3208C9.5403 19.5099 9.3103 20.5435 8.27303 21.8281C7.31394 23.0135 5.35121 25.2872 4.33575 26.4581C3.53757 25.8972 2.76393 25.2981 2.02666 24.6535C1.73303 24.3972 1.29484 24.4062 1.01939 24.6808L0.214844 25.4853C1.45393 26.839 2.8603 28.0426 4.35939 29.119C5.86848 30.1817 7.4903 31.0935 9.19303 31.8244C10.8921 32.5653 12.6758 33.1117 14.4912 33.4926C16.3103 33.8653 18.1667 34.049 20.0239 34.0572C21.8803 34.049 23.7376 33.8653 25.5558 33.4926C27.3721 33.1117 29.1548 32.5653 30.8539 31.8244C32.5567 31.0935 34.1785 30.1817 35.6885 29.119C37.1876 28.0426 38.593 26.839 39.8321 25.4853L39.0276 24.6808ZM34.6167 28.5462L33.2112 28.2417C33.0412 28.2053 32.8658 28.2308 32.713 28.3117C31.8103 28.7935 30.8848 29.229 29.9358 29.6053C26.7839 30.8481 23.4048 31.499 20.0239 31.4927C16.6421 31.499 13.2639 30.8481 10.1112 29.6053C9.16212 29.229 8.23575 28.7926 7.33212 28.3108C7.17939 28.229 7.00303 28.2035 6.83393 28.2408L5.42303 28.5462L5.27666 28.3262C5.48666 28.1162 5.70303 27.9144 5.9203 27.7144C5.96575 27.6726 6.00848 27.6281 6.05484 27.5872C14.2394 20.1917 26.8758 20.4381 34.763 28.3262L34.6167 28.5462Z" fill="currentColor"/>
</svg>
