<svg width="24" height="24" viewBox="0 0 24 24" fill="none" xmlns="http://www.w3.org/2000/svg">
<path d="M5.97118 3.54087H5.97258L20.1541 11.34C20.4195 11.4519 20.592 11.712 20.5918 12C20.5915 12.2799 20.4282 12.5339 20.1737 12.6503L5.97258 20.4592L5.97118 20.4578C5.85008 20.5447 5.70489 20.5916 5.55584 20.592C5.16041 20.592 4.83984 20.2715 4.83984 19.876C4.83984 19.8751 4.83984 19.8742 4.83984 19.8732V4.12682C4.83984 4.12588 4.83984 4.12495 4.83984 4.12402C4.83984 3.72858 5.16041 3.40802 5.55584 3.40802C5.70474 3.40804 5.84992 3.45448 5.97118 3.54087V3.54087Z" fill="currentColor"/>
</svg>
