<svg width="24" height="24" viewBox="0 0 24 24" fill="none" xmlns="http://www.w3.org/2000/svg">
<path fill-rule="evenodd" clip-rule="evenodd" d="M13.25 10.75V5.5C13.25 5.22386 13.0261 5 12.75 5H11.25C10.9739 5 10.75 5.22386 10.75 5.5V10.75H5.5C5.22386 10.75 5 10.9739 5 11.25V12.75C5 13.0261 5.22386 13.25 5.5 13.25H10.75V18.5C10.75 18.7761 10.9739 19 11.25 19H12.75C13.0261 19 13.25 18.7761 13.25 18.5V13.25H18.5C18.7761 13.25 19 13.0261 19 12.75V11.25C19 10.9739 18.7761 10.75 18.5 10.75H13.25Z" fill="currentColor"/>
</svg>
