<svg width="40" height="40" viewBox="0 0 40 40" fill="none" xmlns="http://www.w3.org/2000/svg">
<path d="M27.4286 20.4193H26.0104C25.9078 18.2627 25.6583 16.1171 25.2639 13.9995H25.0587C24.7601 15.9061 24.7601 17.8527 25.0587 19.7593L24.2003 37.3787L23.883 37.6187L24.7041 39.1986C24.7315 39.3304 24.7315 39.4669 24.7041 39.5986V39.9986H23.5285C23.3781 40.0078 23.2283 39.9714 23.0963 39.8935C22.9643 39.8157 22.8554 39.6997 22.7821 39.5586C22.6034 39.3513 22.4469 39.1233 22.3155 38.8787L21.8304 23.7592H21.6438L21.1959 38.7787C21.0646 39.0233 20.9081 39.2513 20.7294 39.4586C20.6685 39.6216 20.5626 39.7606 20.4258 39.8571C20.289 39.9537 20.128 40.003 19.9643 39.9986H18.714V39.5986C18.7137 39.4564 18.7526 39.3172 18.826 39.1986L19.6284 37.6187L19.3298 37.3787L18.4528 19.6593C18.8936 16.768 18.6825 13.8056 17.837 11.0196C16.2497 10.774 14.6959 10.3241 13.2091 9.67967C12.7613 9.47967 12.6306 9.25968 12.5 8.6797C13.5304 7.55442 14.6688 6.54888 15.8963 5.6798L16.4001 7.05976L15.7283 7.99972H19.4605L20.1322 7.63974C20.1985 8.66023 20.5496 9.63577 21.1399 10.4396L21.5131 8.6397L21.2705 8.17972L21.8304 7.73973L22.2969 8.17972L21.9983 8.6797L22.3715 10.4796C22.9618 9.67577 23.3129 8.70023 23.3792 7.67973L26.8314 9.67967C27.4218 13.2222 27.6222 16.8267 27.4286 20.4193V20.4193ZM17.5011 6.19979L18.5461 5.49981C18.5461 5.49981 18.5461 5.49981 18.5461 5.31982V5.11982L19.3672 4.63984V4.39985L17.5011 4.63984C17.3795 4.63672 17.2607 4.67916 17.1652 4.75984L16.0455 5.53981L16.624 5.99979C16.7284 6.13329 16.8714 6.2255 17.0304 6.26175C17.1893 6.29799 17.355 6.27618 17.5011 6.19979V6.19979ZM19.8523 4.19985C19.9369 5.02566 20.2943 5.7918 20.86 6.35978V6.99976L21.8304 7.49974L22.7447 6.97976V6.33978C23.2846 5.75876 23.6208 4.99581 23.6964 4.17986C24.0276 4.01327 24.3112 3.75485 24.5179 3.43136C24.7246 3.10787 24.8469 2.73106 24.8721 2.33992C24.8347 1.03996 23.4539 0 21.8304 0C20.2069 0 18.6767 1.03996 18.6767 2.33992C18.7057 2.72993 18.8294 3.10501 19.0357 3.42783C19.2419 3.75064 19.5235 4.00992 19.8523 4.17986V4.19985ZM23.5845 3.11989C23.0113 3.37973 22.3948 3.51195 21.7725 3.50851C21.1501 3.50507 20.5349 3.36605 19.9643 3.09989C20.531 2.84247 21.1402 2.70981 21.7557 2.70981C22.3712 2.70981 22.9805 2.84247 23.5472 3.09989L23.5845 3.11989ZM21.8304 1.51995C21.961 1.51995 22.073 1.65994 22.073 1.87993C22.073 2.09993 21.8304 2.25992 21.8304 2.25992C21.8304 2.25992 21.5131 1.99993 21.5131 1.87993C21.5131 1.75994 21.6064 1.51995 21.8304 1.51995ZM27.4286 21.9992C27.4836 22.1469 27.4836 22.3116 27.4286 22.4592C27.0367 23.5792 26.7195 23.6792 26.1597 23.6792H25.8984C26.8874 22.0392 26.0104 21.8792 26.0104 22.7192H25.8051C25.8051 21.9192 26.0104 21.4993 26.5142 21.2393L27.2793 20.9593L27.4286 21.9992Z" fill="currentColor"/>
</svg>
