<svg width="24" height="24" viewBox="0 0 24 24" fill="none" xmlns="http://www.w3.org/2000/svg">
<path fill-rule="evenodd" clip-rule="evenodd" d="M11.9879 22.5842C21.2639 22.5842 23 18.0205 23 12.142C23 6.26423 21.2639 1.70044 11.9879 1.70044C2.73673 1.70044 1 6.26423 1 12.142C1 18.0205 2.73673 22.5842 11.9879 22.5842ZM11.86 7.97994C10.88 7.97994 9.66 8.27994 8.92 8.67994V6.17994C9.8 5.73994 11.06 5.49994 12.02 5.49994C14.52 5.49994 16.5 6.71994 16.5 9.41994C16.5 11.3799 15.14 12.8599 12.78 13.2599V14.5599H10.32L10.06 11.3599H10.48C11.86 11.3599 13.78 11.1199 13.78 9.63994C13.78 8.41994 12.92 7.97994 11.86 7.97994ZM11.68 18.6999C10.8 18.6999 10.08 17.9999 10.08 17.0999C10.08 16.2199 10.8 15.5199 11.68 15.5199C12.58 15.5199 13.28 16.2199 13.28 17.0999C13.28 17.9799 12.58 18.6999 11.68 18.6999Z" fill="currentColor"/>
</svg>
