<svg width="36" height="22" viewBox="0 0 36 22" fill="none" xmlns="http://www.w3.org/2000/svg">
<path d="M0.940969 13.7123C0.938382 13.6833 0.937239 13.6542 0.93755 13.6251C0.938887 13.3373 0.956003 13.0498 0.988822 12.7638C1.51336 5.64233 8.28787 0.674633 8.28787 0.674633C8.63283 0.416367 9.11444 0.447589 9.42317 0.748225C9.7319 1.04886 9.7759 1.52947 9.52688 1.88116C9.52356 1.88567 8.42843 3.40886 7.88626 5.81518C8.19347 5.77534 8.50276 5.75365 8.81253 5.75024C13.1618 5.75024 16.6875 9.27595 16.6875 13.6251C16.6875 17.9743 13.1618 21.5 8.81253 21.5C4.49844 21.4984 0.988716 18.026 0.940969 13.7123Z" fill="currentColor"/>
<path d="M19.316 13.7123C19.3134 13.6833 19.3122 13.6542 19.3125 13.6251C19.3139 13.3373 19.331 13.0498 19.3638 12.7638C19.8884 5.64233 26.6629 0.674633 26.6629 0.674633C27.0078 0.416367 27.4894 0.447589 27.7982 0.748225C28.1069 1.04886 28.1509 1.52947 27.9019 1.88116C27.8986 1.88567 26.8034 3.40886 26.2613 5.81518C26.5685 5.77534 26.8778 5.75365 27.1875 5.75024C31.5368 5.75024 35.0625 9.27595 35.0625 13.6251C35.0625 17.9743 31.5368 21.5 27.1875 21.5C22.8734 21.4984 19.3637 18.026 19.316 13.7123Z" fill="currentColor"/>
</svg>
