<svg width="24" height="24" viewBox="0 0 24 24" fill="none" xmlns="http://www.w3.org/2000/svg">
<path fill-rule="evenodd" clip-rule="evenodd" d="M11.9744 5.53435C12.823 5.53322 13.6634 5.69973 14.4475 6.02432C15.2316 6.3489 15.9438 6.82517 16.5433 7.42577L17.0386 7.922C17.2337 8.11744 17.5503 8.11773 17.7458 7.92264L18.7382 6.932C18.9336 6.73692 18.9339 6.42033 18.7389 6.22489L18.2435 5.72867C17.4205 4.90415 16.4427 4.25032 15.3664 3.80473C14.2901 3.3592 13.1365 3.13062 11.9717 3.13209C10.7223 3.13257 9.48711 3.39699 8.347 3.90802C7.20668 4.41914 6.18722 5.16543 5.35542 6.09799C4.52361 7.03055 3.89823 8.12834 3.52024 9.31943C3.49126 9.41076 3.46378 9.50248 3.43781 9.59456L2.96845 8.95553L2.55341 8.39044C2.38994 8.16788 2.077 8.11998 1.85444 8.28344L0.72427 9.11353C0.50171 9.277 0.453805 9.58994 0.617273 9.8125L1.03232 10.3776L3.38732 13.5839L3.51535 13.7582C3.85919 14.2264 4.52818 14.3041 4.97016 13.9272L5.13473 13.7869L8.11307 11.2472L8.64657 10.7923C8.85669 10.6131 8.88178 10.2975 8.70261 10.0874L7.79276 9.02037C7.61358 8.81025 7.29799 8.78516 7.08787 8.96433L6.55437 9.41926L5.80653 10.057L5.80997 10.0461C6.08559 9.17753 6.54161 8.37705 7.14815 7.69704C7.75469 7.01703 8.49806 6.47285 9.32957 6.10015C10.1611 5.72745 11.0619 5.53464 11.9731 5.53435L11.9744 5.53435ZM18.1336 13.9631L17.4701 14.5597L16.9488 15.0285C16.7435 15.2131 16.4273 15.1964 16.2427 14.991L15.3051 13.9483C15.1204 13.743 15.1372 13.4269 15.3425 13.2422L15.8639 12.7734L18.7776 10.1534L18.9425 10.0051C19.3819 9.61002 20.0661 9.67999 20.4164 10.1558L20.5479 10.3344L22.9676 13.6211L23.3833 14.1857C23.547 14.4081 23.4995 14.7211 23.2771 14.8848L22.1478 15.7162C21.9255 15.8799 21.6125 15.8323 21.4488 15.61L21.0331 15.0453L20.5233 14.3529C20.346 14.997 20.0955 15.6225 19.7743 16.2168C18.8953 17.8427 17.5304 19.1533 15.8703 19.9656C14.2101 20.7778 12.3376 21.0511 10.5146 20.7472C8.69154 20.4433 7.00898 19.5774 5.70205 18.2706L5.20626 17.7748C5.01099 17.5796 5.01098 17.263 5.20623 17.0677L6.19775 16.0761C6.39301 15.8809 6.70959 15.8809 6.90486 16.0761L7.40065 16.5719C8.35356 17.5247 9.58035 18.156 10.9096 18.3776C12.2388 18.5992 13.6041 18.3999 14.8145 17.8077C16.025 17.2155 17.0202 16.2599 17.661 15.0744C17.8539 14.7177 18.0117 14.3456 18.1336 13.9631Z" fill="currentColor"/>
</svg>
