<svg width="24" height="24" viewBox="0 0 24 24" fill="none" xmlns="http://www.w3.org/2000/svg">
<path fill-rule="evenodd" clip-rule="evenodd" d="M3 6.40637V3L3.00008 3.00016C21.378 4.00966 20.9994 21.1261 20.9994 21.1259H17.6771C16.2055 6.19618 3 6.40637 3 6.40637ZM3 9.14434V12.4881C3 12.4881 11.1168 12.7147 11.3693 21.126H14.9437C14.9439 21.126 15.3644 9.69547 3.00016 9.14406L3 9.14434ZM7.83662 18.7075C7.83662 20.0431 6.75396 21.1257 5.41854 21.1257C4.08312 21.1257 3.00031 20.0431 3.00031 18.7075C3.00031 17.372 4.08296 16.2894 5.41854 16.2894C6.754 16.2897 7.83662 17.3722 7.83662 18.7075Z" fill="currentColor"/>
</svg>
