<svg width="24" height="24" viewBox="0 0 24 24" fill="none" xmlns="http://www.w3.org/2000/svg">
<path fill-rule="evenodd" clip-rule="evenodd" d="M5.0322 10.4201C5.0322 13.3405 7.39965 15.7079 10.3201 15.7079C11.7799 15.7079 13.1017 15.1163 14.0585 14.1598M10.3201 18.4615C5.87891 18.4615 2.27865 14.8612 2.27865 10.4201C2.27865 5.97894 5.87891 2.37869 10.3201 2.37869C14.7612 2.37869 18.3615 5.97894 18.3615 10.4201C18.3615 12.1435 17.8193 13.7403 16.8962 15.0492L20.7941 18.9471C20.9733 19.1263 20.9733 19.4169 20.7941 19.5961L19.4961 20.8942C19.3169 21.0734 19.0263 21.0734 18.8471 20.8942L14.9492 16.9963C13.6403 17.9193 12.0435 18.4615 10.3201 18.4615ZM14.0597 14.1586C15.0163 13.2017 15.6079 11.88 15.6079 10.4201C15.6079 7.49968 13.2405 5.13223 10.3201 5.13223C7.39965 5.13223 5.0322 7.49969 5.0322 10.4201" fill="currentColor"/>
</svg>
