<svg width="24" height="24" viewBox="0 0 24 24" fill="none" xmlns="http://www.w3.org/2000/svg">
<path fill-rule="evenodd" clip-rule="evenodd" d="M9.30201 16.9529V21.2314H1.6229V15.6575L8.93656 16.5407C9.14497 16.5658 9.30201 16.7427 9.30201 16.9529ZM6.93126 11.8506H5.68254C5.42451 11.1098 4.73739 10.4343 3.98139 10.2131C3.60135 10.5931 3.27151 11.484 3.31121 12.0683C3.74788 12.3503 4.53482 12.6621 5.13028 12.7864V12.93H1V15.0054H9.30201V13.3451C9.30201 13.1157 9.11636 12.93 8.88694 12.93H7.48293V12.7864C8.07839 12.6621 8.86592 12.3503 9.30201 12.0683C9.34171 11.484 9.01245 10.5931 8.63241 10.2131C7.87582 10.4343 7.18871 11.1098 6.93126 11.8506ZM22.9999 21.2314H10.5472L11.7924 6.70336H13.2863L13.9145 8.53061H14.0394V4.628C14.0394 3.12067 15.266 1.89355 16.7733 1.89355C18.2812 1.89355 19.5077 3.12067 19.5077 4.628V6.70336H21.7547L22.9999 21.2314ZM14.6617 4.628V6.70336H18.1323L18.7611 8.53061H18.8854V4.628C18.8854 3.46394 17.9379 2.51645 16.7733 2.51645C15.6092 2.51645 14.6617 3.46394 14.6617 4.628ZM21.0483 13.6008L19.7366 10.7869C19.6864 10.6795 19.5959 10.5966 19.485 10.5563L17.5958 9.86864C17.3641 9.78458 17.1078 9.90367 17.0237 10.1354L16.336 12.0246C16.2952 12.1361 16.301 12.2587 16.3506 12.3661L17.663 15.1793C17.7669 15.4029 18.0325 15.4993 18.2561 15.3953L20.8323 14.1939C21.0559 14.0894 21.1528 13.8244 21.0483 13.6008ZM17.7902 11.0327C17.5824 11.1296 17.4925 11.3766 17.5894 11.5844C17.6863 11.7922 17.9333 11.8821 18.1411 11.7852C18.3489 11.6883 18.4388 11.4414 18.3419 11.2335C18.245 11.0257 17.9981 10.9358 17.7902 11.0327Z" fill="currentColor"/>
</svg>
