<svg width="24" height="24" viewBox="0 0 24 24" fill="none" xmlns="http://www.w3.org/2000/svg">
<path fill-rule="evenodd" clip-rule="evenodd" d="M14.4394 7.21376L18.3245 8.62801C19.1446 8.92596 19.566 9.5283 19.566 10.4011V11.9096H4V10.4011C4 9.5283 4.42146 8.92596 5.24098 8.62801L9.12605 7.21376C9.94615 6.91523 10.3676 6.31347 10.3676 5.44069V0.117371H13.1979V5.44069C13.1979 6.31347 13.6193 6.91523 14.4394 7.21376ZM13.1979 18.2602L12.8964 18.3023C12.6634 18.3351 12.4901 18.5347 12.4901 18.7695V20.6666H13.1979V18.2602ZM17.4435 17.6637L17.142 17.7059C16.9091 17.7386 16.7358 17.9377 16.7358 18.173V20.6666H17.4435V17.6637ZM15.3204 16.7137V13.0885L15.0189 13.1306C14.786 13.1634 14.6133 13.3624 14.6133 13.5978V16.7137H15.3204ZM6.12254 20.6666H6.83024V19.1552L6.52878 19.1974C6.2958 19.2302 6.12254 19.4298 6.12254 19.6645V20.6666ZM11.0753 18.5587L10.7739 18.6009C10.5409 18.6337 10.3676 18.8327 10.3676 19.068V20.6666H11.0753V18.5587ZM8.95278 18.8567L8.65132 18.8994C8.41834 18.9322 8.24507 19.1312 8.24507 19.366V20.6666H8.95278V18.8567ZM17.4435 16.7137V12.79L17.142 12.8321C16.9091 12.8649 16.7358 13.0645 16.7358 13.2992V16.7137H17.4435ZM13.1979 16.7137V13.3864L12.8964 13.4292C12.6634 13.462 12.4901 13.661 12.4901 13.8963V16.7137H13.1979ZM15.3204 17.9617L15.0189 18.0044C14.786 18.0372 14.6133 18.2362 14.6133 18.4715V20.6666H15.3204V17.9617ZM11.0753 16.7137V13.685L10.7739 13.7271C10.5409 13.7599 10.3676 13.9595 10.3676 14.1943V16.7137H11.0753ZM10.3676 23.021V23.7023H11.0753V22.5117L10.7739 22.5539C10.5409 22.5866 10.3676 22.7857 10.3676 23.021ZM14.6133 22.4245V23.7023H15.3204V21.9146L15.0189 21.9574C14.786 21.9902 14.6133 22.1892 14.6133 22.4245ZM16.7358 22.126V23.7023H17.4435V21.6167L17.142 21.6588C16.9091 21.6916 16.7358 21.8906 16.7358 22.126ZM12.4901 22.7224V23.7023H13.1979V22.2132L12.8964 22.2553C12.6634 22.2881 12.4901 22.4877 12.4901 22.7224ZM8.95278 16.7137V13.9829L8.65132 14.0257C8.41834 14.0584 8.24507 14.2575 8.24507 14.4928V16.7137H8.95278ZM6.83024 16.7137V14.2815L6.52878 14.3236C6.2958 14.3564 6.12254 14.556 6.12254 14.7913V16.7137H6.83024ZM8.24507 23.3195V23.7023H8.95278V22.8097L8.65132 22.8524C8.41834 22.8846 8.24507 23.0842 8.24507 23.3195ZM6.12254 23.6175V23.7023H6.83024V23.1082L6.52878 23.1503C6.2958 23.1831 6.12254 23.3822 6.12254 23.6175Z" fill="currentColor"/>
</svg>
