<svg width="40" height="40" viewBox="0 0 40 40" fill="none" xmlns="http://www.w3.org/2000/svg">
<path d="M3.3335 26.6673L28.3335 26.6673V31.6673L3.3335 31.6673L3.3335 26.6673ZM34.1668 26.6673L36.6668 26.6673V31.6673L34.1668 31.6673V26.6673ZM30.0002 26.6673H32.5002V31.6673H30.0002V26.6673ZM31.4168 12.884C32.4502 11.8673 33.0835 10.4673 33.0835 8.91732C33.0835 5.83398 30.5835 3.33398 27.5002 3.33398V5.83398C29.2002 5.83398 30.5835 7.21732 30.5835 8.91732C30.5835 10.6173 29.2002 12.0007 27.5002 12.0007L27.5002 14.5007C31.2335 14.5007 34.1668 17.5507 34.1668 21.284V25.0007L36.6668 25.0007V21.2673C36.6668 17.5673 34.5335 14.3673 31.4168 12.884V12.884ZM26.7168 17.0007H24.1668C22.4668 17.0007 21.0835 15.3673 21.0835 13.6673C21.0835 11.9673 22.4668 10.7507 24.1668 10.7507V8.25065C22.686 8.25065 21.2659 8.83889 20.2188 9.88597C19.1717 10.933 18.5835 12.3532 18.5835 13.834C18.5835 15.3148 19.1717 16.7349 20.2188 17.782C21.2659 18.8291 22.686 19.4173 24.1668 19.4173H26.7168C28.4668 19.4173 30.0002 20.6507 30.0002 22.834V25.0007H32.5002V22.2673C32.5002 19.2507 29.8335 17.0007 26.7168 17.0007V17.0007Z" fill="currentColor"/>
</svg>
