<svg width="135" height="95" viewBox="0 0 135 95" fill="none" xmlns="http://www.w3.org/2000/svg">
  <path fill-rule="evenodd" clip-rule="evenodd"
        d="M132.864 0.943241C132.522 1.5293 131.438 3.22804 130.456 4.7183C125.188 12.7109 119.699 18.7596 114.635 22.1551L113.635 22.8257L110.999 28.0943C109.55 30.992 108.403 33.4021 108.451 33.4499C108.591 33.5898 111.321 32.8646 113.522 32.1034C125.108 28.0945 133.046 20.3217 134.756 11.3116L135 10.0225L135 7.76895C134.999 6.48541 134.896 4.92901 134.761 4.15344C134.498 2.64979 133.826 0.211658 133.618 0.00796251C133.545 -0.0637612 133.206 0.357178 132.864 0.943241ZM133.587 21.8716C132.152 23.235 128.07 26.6146 125.982 28.1673C123.069 30.3344 118.509 33.1306 113.108 36.0622L111.539 36.9143L109.575 40.5795C108.495 42.5956 107.632 44.2661 107.658 44.2921C107.741 44.3745 112.251 42.6385 114.626 41.6106C122.329 38.2759 127.592 34.7487 129.625 31.558C131.407 28.7617 135.175 20.8802 134.72 20.9016C134.655 20.9046 134.145 21.3412 133.587 21.8716ZM108.622 24.8199C107.465 25.6315 103.214 28.1552 100.812 29.4561C97.8049 31.0846 95.5175 32.2126 89.9028 34.8356C84.733 37.2508 83.8592 37.7382 83.115 38.6226C82.7043 39.1106 79.8156 44.8202 79.9243 44.9289C80.0112 45.0159 83.117 44.1864 85.7105 43.3836C92.1167 41.4007 98.6887 38.8516 101.083 37.4213C103.212 36.1497 105.314 33.4886 107.339 29.5028C108.176 27.8548 109.658 24.5333 109.658 24.3043C109.658 24.1534 109.361 24.3008 108.622 24.8199ZM132.131 33.2656C127.617 36.6841 123.031 39.6232 118.139 42.233C115.761 43.5019 111.629 45.4816 109.761 46.2471L108.828 46.6295L108.106 48.0676C107.391 49.4898 106.453 50.9881 105.719 51.8768C105.511 52.1288 105.374 52.3682 105.415 52.4087C105.51 52.5038 110.181 51.1024 113.209 50.0703C120.506 47.5826 123.662 45.8614 127.241 42.4163C129.148 40.581 130.658 38.6715 132.215 36.1287C133.079 34.7165 134.931 31.2371 134.802 31.2652C134.78 31.2701 133.577 32.1703 132.131 33.2656ZM5.46614 32.9695C5.39649 33.2983 5.33991 34.5354 5.34055 35.7189L5.34166 37.8706L5.71399 39.066C6.89201 42.8481 9.21092 45.4612 12.9991 47.2753C17.2496 49.311 25.3832 52.6138 26.1454 52.6138C26.2373 52.6138 24.1473 46.3968 24.0314 46.3257C24.0074 46.3109 23.2704 45.9904 22.3937 45.6134C19.3973 44.3251 16.4576 42.591 13.6275 40.4423C11.8731 39.1103 8.28138 35.5614 6.93329 33.8283C6.31966 33.0393 5.76707 32.3888 5.70522 32.3828C5.64354 32.3767 5.53596 32.6408 5.46614 32.9695ZM106.789 37.9833C104.102 39.3515 96.08 42.3275 84.1664 46.3753L80.1124 47.7525L78.3845 50.6041C77.4342 52.1726 76.6959 53.4951 76.7441 53.5432C76.84 53.6391 79.111 53.0779 88.6983 50.589C98.6059 48.0168 99.8836 47.6024 101.848 46.3241C103.801 45.0529 105.446 42.9193 107.141 39.4594C107.677 38.3657 108.086 37.449 108.05 37.4226C108.014 37.3961 107.446 37.6484 106.789 37.9833ZM63.1449 46.4902C53.9997 50.4556 46.4991 53.7246 46.4771 53.7545C46.3662 53.906 45.2947 56.5212 45.3294 56.5559C45.3516 56.5781 52.5992 53.9968 61.4354 50.8196L77.501 45.043L78.68 42.2638C79.3285 40.7351 79.8397 39.4386 79.8159 39.3824C79.7922 39.3263 72.2902 42.5248 63.1449 46.4902ZM4.70301 44.9234C4.86733 46.375 5.38805 48.1249 6.00455 49.2979L6.57292 50.3797L7.63125 51.3773C8.84146 52.5177 9.96418 53.2939 11.8709 54.3082C16.6024 56.8251 24.5784 59.2648 31.0503 60.1746L31.7376 60.2712L31.6082 60.0436C31.5369 59.9185 30.5463 58.7803 29.4067 57.5146L27.3347 55.2134L25.6612 54.6058C19.5482 52.3867 12.3086 48.8013 6.51283 45.1228C5.546 44.509 4.71974 44.007 4.67703 44.007C4.63431 44.007 4.64595 44.4193 4.70301 44.9234ZM125.994 47.4663C125.328 47.9798 121.115 49.9089 118.822 50.7503C116.639 51.5513 111.514 53.2353 108.017 54.3008L106.615 54.7279L104.026 57.3766C102.602 58.8334 100.907 60.5812 100.261 61.2605L99.0843 62.4958H99.7406C100.869 62.4958 104.083 62.0252 105.912 61.5924C114.102 59.6536 120.864 55.1415 125.667 48.4106C126.455 47.3063 126.548 47.0399 125.994 47.4663ZM90.2125 51.9036C82.6297 54.1243 76.318 56.0063 76.1865 56.0859C75.9236 56.2451 71.3681 61.7157 71.44 61.7862C71.597 61.9403 82.3321 59.7124 87.5826 58.4359C93.3943 57.0229 95.6924 56.1868 98.1585 54.5877L99.5366 53.6941L101.212 51.9984C102.133 51.0659 103.267 49.7468 103.731 49.0675L104.576 47.8322L104.288 47.8491C104.129 47.8584 97.7953 49.6829 90.2125 51.9036ZM28.6595 50.6398L29.9281 53.1717L31.2613 53.9635C32.9234 54.9506 34.7709 55.7568 35.9263 55.999L36.8105 56.1845L37.249 56.0303C37.5007 55.9418 37.8359 55.6115 38.0356 55.2556C38.5099 54.4101 39.1132 52.4514 38.9461 52.2995C38.8716 52.2316 36.336 51.2955 33.3117 50.2195C30.2873 49.1435 27.7179 48.2281 27.6018 48.1854C27.4858 48.1427 27.9617 49.2473 28.6595 50.6398ZM64.6311 52.3806C57.8811 54.6975 50.6727 57.1713 48.6126 57.8783L44.8669 59.1636L43.4574 60.9248C42.6329 61.9553 42.1699 62.6504 42.3419 62.6C42.5035 62.5526 45.0385 61.8348 47.9752 61.005C67.8895 55.3774 73.2637 53.8315 73.4567 53.6755C73.677 53.4975 77.1429 48.3773 77.1429 48.2301C77.1429 48.1865 77.0891 48.155 77.0233 48.1598C76.9575 48.1646 71.3811 50.064 64.6311 52.3806ZM9.08501 54.342C9.08501 54.6767 9.75937 56.3828 10.2932 57.3986L10.8805 58.5164L12.1883 59.749C13.6983 61.1722 15.4349 62.2482 17.926 63.304C22.5367 65.2579 27.8988 66.4804 31.8586 66.4804H33.7548L35.0353 64.7681C35.7395 63.8265 36.2995 63.0397 36.2799 63.02C36.2602 63.0004 35.1719 62.7622 33.8614 62.4908C25.9767 60.8579 18.8107 58.5415 11.7428 55.3411C9.07512 54.1331 9.08501 54.1367 9.08501 54.342ZM99.1381 56.5347C92.1793 58.8058 82.2316 61.7296 74.786 63.6919L70.9152 64.7123L70.3081 65.2377C68.412 66.8789 64.5643 70.3717 64.6062 70.4136C64.6497 70.4572 72.5282 68.8498 82.8011 66.7015C87.2373 65.7738 89.7347 65.0577 91.5761 64.1854C94.2155 62.935 96.9686 60.82 98.9132 58.5484C99.8339 57.473 100.997 55.9346 100.859 55.9748C100.833 55.9823 100.059 56.2344 99.1381 56.5347ZM31.4894 56.4219C31.3973 56.5709 35.9361 61.0613 36.1789 61.0613C36.3658 61.0613 36.4482 60.7457 36.6704 59.1767C36.7777 58.4187 36.7984 57.7921 36.7187 57.715C36.6032 57.6034 31.9413 56.2797 31.6638 56.2797C31.6161 56.2797 31.5377 56.3436 31.4894 56.4219ZM58.4947 60.5313C50.6489 62.8517 43.5483 64.9605 42.7155 65.2176L41.2013 65.6847L39.5727 67.6366C38.6771 68.7101 37.9957 69.6055 38.0585 69.6265C38.1736 69.6646 67.7627 62.22 67.8135 62.1402C67.8285 62.1166 68.9745 60.8212 70.36 59.2616C71.7457 57.7019 72.8525 56.4003 72.8195 56.3691C72.7867 56.3379 66.3405 58.211 58.4947 60.5313ZM52.5013 68.4643L37.8214 72.0141L27.398 76.8089C14.1893 82.8852 12.9138 83.4781 12.795 83.5969C12.7415 83.6503 13.1412 83.6941 13.6833 83.6941H14.6689L27.3333 79.796L39.9978 75.898L47.904 74.4642L55.8101 73.0302L57.3511 72.207C60.995 70.2599 64.2602 68.0986 66.0894 66.4229C67.0485 65.5445 67.5883 64.869 67.3063 64.9004C67.2375 64.9082 60.5753 66.5118 52.5013 68.4643ZM14.7689 66.3373C15.6555 67.4657 17.419 68.933 18.8466 69.7301C20.3756 70.5836 22.4825 71.2145 25.6059 71.7537L28.4504 72.2448L29.9933 72.1917L31.536 72.1386L31.9856 71.8049C32.6078 71.3428 33.1466 70.3401 33.1498 69.638L33.1523 69.0502L32.4749 68.9597C26.2332 68.1267 22.3091 67.4002 17.3991 66.1682C15.638 65.7262 14.1538 65.3647 14.1009 65.3647C14.0481 65.3647 14.3487 65.8024 14.7689 66.3373ZM76.9038 70.795C76.3778 70.8672 73.5089 71.2236 70.5283 71.5871C67.5478 71.9507 65.0016 72.3109 64.8701 72.3877C64.7386 72.4646 64.6932 72.5296 64.7691 72.5323C64.917 72.5374 71.8654 74.038 90.5313 78.0957C102.845 80.7726 103.573 80.9235 103.436 80.7748C103.345 80.6749 98.9144 78.7871 87.0591 73.7969L79.5223 70.6244L78.6913 70.644C78.2342 70.6549 77.4298 70.7228 76.9038 70.795ZM0.987875 88.8945C0.463654 89.1599 0 89.8238 0 90.3086C0 90.4489 0.104876 90.7662 0.233023 91.0141L0.465886 91.4645L1.11283 91.7233L1.75962 91.9822H4.04283H6.32603L6.60878 92.2946L6.89138 92.6068L6.79096 93.0072C6.73566 93.2273 6.56575 93.472 6.41338 93.5507C6.08456 93.7209 1.38682 93.9029 1.14726 93.7549C1.05609 93.6986 0.932249 93.456 0.872001 93.2158L0.762344 92.7791H0.463973H0.165442L0.0691733 93.1627C-0.0570605 93.6659 0.216606 94.1525 0.793743 94.4511L1.25931 94.6917H3.75338H6.24761L6.77502 94.4415C7.42899 94.1312 7.7213 93.4715 7.60128 92.5768L7.51075 91.9025L7.02032 91.4642L6.52973 91.0259H3.93429H1.33884L1.14758 90.8346C0.854788 90.5418 0.919976 89.9408 1.26457 89.7563C1.43878 89.6631 2.63864 89.5914 4.02195 89.5914H6.47107L6.66234 89.7826C6.76753 89.8878 6.8536 90.0954 6.8536 90.2438C6.8536 90.5314 7.26434 90.7675 7.50549 90.6185C7.58534 90.5692 7.65053 90.2946 7.65053 90.0082V89.4876L7.23963 89.1011L6.82858 88.7148L4.17145 88.6714L1.51417 88.6282L0.987875 88.8945ZM49.4412 88.8945C48.917 89.1599 48.4534 89.8238 48.4534 90.3086C48.4534 90.4489 48.5582 90.7662 48.6864 91.0141L48.9193 91.4645L49.5662 91.7233L50.213 91.9822H52.5172H54.8215L55.0869 92.3872L55.3522 92.7922L55.1756 93.1796C55.0786 93.3929 54.8352 93.6009 54.635 93.6419C54.0061 93.7708 49.7838 93.868 49.6051 93.7577C49.5115 93.6999 49.3856 93.456 49.3254 93.2158L49.2157 92.7791H48.925C48.5898 92.7791 48.3861 93.2724 48.5318 93.7313C48.5866 93.9044 48.8421 94.1959 49.0995 94.3792L49.5675 94.7123L52.3709 94.6623L55.1745 94.612L55.6573 94.0712L56.1401 93.5304L56.0644 92.7421L55.9885 91.9538L55.5649 91.5297L55.1412 91.1055L52.4775 91.0545C50.9266 91.0247 49.7294 90.9334 49.6118 90.8357C49.3064 90.5823 49.3694 89.943 49.7179 89.7563C49.8921 89.6631 51.092 89.5914 52.4753 89.5914H54.9244L55.1157 89.7826C55.2209 89.8878 55.307 90.0954 55.307 90.2438C55.307 90.5314 55.7177 90.7675 55.9589 90.6185C56.0387 90.5692 56.1039 90.2946 56.1039 90.0082V89.4876L55.693 89.1011L55.2819 88.7148L52.6248 88.6714L49.9675 88.6282L49.4412 88.8945ZM102.167 88.8735L101.969 89.1118L102.939 90.6267L103.908 92.1416H101.926H99.9448L99.3539 93.058C99.029 93.5622 98.7578 94.1179 98.7513 94.2933L98.7397 94.612L99.0584 94.6575L99.3772 94.7029L99.9041 93.8207L100.431 92.9385L102.454 92.9393L104.478 92.9401L105.035 93.8196L105.593 94.6991L105.91 94.6556C106.085 94.6316 106.251 94.4896 106.279 94.3398C106.332 94.0628 102.731 88.6351 102.494 88.6351C102.423 88.6351 102.276 88.7423 102.167 88.8735ZM8.36235 89.9465C8.31629 90.0665 8.29875 91.1653 8.32314 92.3883L8.36777 94.612H8.76623H9.1647V92.2213V89.8305L8.80544 89.7795C8.6078 89.7514 8.40841 89.8265 8.36235 89.9465ZM11.8196 90.7924L9.69753 91.8143L9.74996 92.0867L9.80256 92.3593L12.0022 93.5394C14.1549 94.6941 14.6645 94.8318 14.6626 94.2584L14.6618 93.9745L12.9963 93.0311C12.0803 92.5121 11.3612 92.0386 11.3982 91.9788C11.4352 91.9191 11.8084 91.7413 12.2276 91.584C12.647 91.4267 13.4042 91.0912 13.9106 90.8387L14.8314 90.3795L16.1743 91.5011L17.5173 92.6229L17.5648 93.6175L17.6122 94.612H17.9309H18.2497L18.3294 93.5826L18.4091 92.5529L19.7463 91.4611C20.4817 90.8606 21.1386 90.4272 21.2058 90.4983C21.2731 90.5692 21.6679 91.4522 22.0831 92.4603C23.232 95.2502 23.3655 95.2901 24.2829 93.1167C24.6207 92.3166 24.9503 91.629 25.0156 91.5886C25.081 91.5482 25.4045 92.1403 25.7346 92.9042C26.4184 94.4868 26.5757 94.7241 26.8983 94.6587C27.1674 94.6042 28.9007 90.2752 28.7797 89.9599C28.7356 89.8448 28.5594 89.7508 28.3881 89.7508H28.0767L27.49 91.2649C27.1674 92.0977 26.8703 92.7791 26.8299 92.7791C26.7896 92.7791 26.4319 92.0936 26.0351 91.2557L25.3134 89.7324L24.9984 89.7814L24.6833 89.8305L24.1017 91.3048C23.7818 92.1156 23.4801 92.7791 23.4312 92.7791C23.3823 92.7791 23.0039 92.0977 22.5901 91.2649C21.8547 89.7842 21.618 89.5542 21.2302 89.942L21.039 90.1333V89.942C21.039 89.5138 20.3656 89.8034 19.2601 90.7069C18.6168 91.2327 18.0511 91.6631 18.0033 91.6632C17.9553 91.6632 17.3712 91.2455 16.7049 90.7347L15.4936 89.8059L14.7177 89.7882L13.9417 89.7705L11.8196 90.7924ZM31.6211 89.9769C31.5734 90.1013 31.8632 90.6929 32.2652 91.2919L32.9961 92.3806L31.4311 92.4257L29.8662 92.4708L29.3396 93.3398C28.5024 94.7211 29.0607 95.2882 29.9646 93.9745L30.458 93.2573H31.9679H33.4776L33.9832 93.9745C34.5009 94.7089 34.9543 94.8911 35.1293 94.4351L35.2277 94.1787L33.7728 91.9646L32.3178 89.7508H32.0129C31.845 89.7508 31.6687 89.8525 31.6211 89.9769ZM35.2709 90.0185L35.1682 90.2865L35.8737 90.9009C36.2616 91.239 36.8795 91.746 37.2469 92.0278L37.9148 92.54L37.9642 93.576L38.0136 94.612L38.3722 94.663L38.7308 94.7139V93.6809V92.6479L40.1653 91.504C40.9543 90.8749 41.5998 90.3365 41.5998 90.3075C41.5998 90.0437 41.3548 89.7508 41.1342 89.7508C40.9844 89.7508 40.3432 90.1875 39.7091 90.7213C39.0749 91.2549 38.4699 91.6581 38.3645 91.6172C38.2592 91.5762 37.6519 91.1395 37.015 90.6467C35.7989 89.7058 35.4404 89.5767 35.2709 90.0185ZM56.9614 89.9822C56.9126 90.1096 56.919 90.2889 56.9757 90.3807L57.079 90.5477H60.098H63.1169V90.1492V89.7508H60.0836H57.0502L56.9614 89.9822ZM63.7014 89.8571C63.6429 89.9154 63.595 90.0947 63.595 90.2555V90.5477H65.8757H68.1564L68.441 90.7559L68.7257 90.964L68.6707 91.3536L68.6157 91.7431L66.464 91.782C65.2805 91.8033 64.1481 91.8591 63.9473 91.9061L63.5823 91.9914L63.6285 93.3017L63.6747 94.612H63.9935H64.3123L64.3601 93.6956L64.4079 92.7791H66.532H68.6563L68.8243 92.9815C68.9166 93.0928 69.0151 93.5051 69.043 93.898L69.0939 94.612L69.433 94.6605L69.7722 94.7088L69.8737 94.3046C70.0071 93.7727 69.825 92.6702 69.5684 92.4573L69.3653 92.2887L69.5328 91.8448C69.7481 91.2742 69.5809 90.6218 69.0947 90.1355L68.7099 89.7508H66.2587C64.9106 89.7508 63.7597 89.7986 63.7014 89.8571ZM70.2032 89.9204C69.9946 90.2581 72.9405 94.6917 73.3737 94.6917C73.4931 94.6917 74.2553 93.69 75.0672 92.4657L76.5436 90.2398L76.4498 89.9953C76.3982 89.8607 76.2281 89.7544 76.0719 89.7587L75.7881 89.7667L74.6607 91.4627C74.0407 92.3955 73.4669 93.1785 73.3856 93.2028C73.3044 93.227 72.7 92.4624 72.0425 91.5037C70.9136 89.8574 70.4754 89.4801 70.2032 89.9204ZM77.2128 89.9576C77.1692 90.0714 77.1535 91.1653 77.1779 92.3883L77.2226 94.612H77.621H78.0195L78.0639 92.3132L78.1083 90.0142L77.9046 89.885C77.6013 89.6926 77.3026 89.724 77.2128 89.9576ZM79.16 89.9314C78.7028 90.197 78.4179 91.0761 78.4179 92.2213C78.4179 93.4935 78.7316 94.3183 79.2973 94.5333C79.5263 94.6205 80.6806 94.6917 81.8624 94.6917H84.011L84.4021 94.3004C84.8449 93.8578 84.9195 93.1803 84.5412 93.0352C84.174 92.8943 84.1622 92.9009 83.9947 93.3414L83.8415 93.7445L81.6477 93.7L79.454 93.6557V92.255V90.8544L79.693 90.7034C79.8245 90.6205 80.8126 90.5515 81.8886 90.5501L83.845 90.5477L83.9965 90.9462C84.1668 91.3945 84.7046 91.487 84.8554 91.0941C84.965 90.8085 84.7033 90.2425 84.3291 89.9551L84.0762 89.761L81.7651 89.7607C80.4098 89.7605 79.3323 89.8311 79.16 89.9314ZM85.6509 89.9822C85.6021 90.1096 85.6085 90.2889 85.6652 90.3807L85.7685 90.5477H88.778C90.4333 90.5477 91.8279 90.4825 91.8771 90.4027C91.9264 90.323 91.923 90.1437 91.8695 90.0042L91.7723 89.7508H88.756H85.7397L85.6509 89.9822ZM106.524 89.9978C106.427 90.2524 107.963 94.12 108.318 94.5143C108.671 94.9064 108.951 94.5939 109.574 93.1082C109.909 92.3075 110.235 91.6208 110.297 91.5824C110.36 91.544 110.688 92.1613 111.028 92.9544C111.671 94.4568 111.905 94.7808 112.25 94.6485C112.511 94.5483 114.184 90.1422 114.046 89.9183C113.989 89.8262 113.809 89.7508 113.645 89.7508H113.348L112.761 91.2649C112.439 92.0977 112.141 92.7791 112.101 92.7791C112.06 92.7791 111.708 92.0977 111.319 91.2649L110.612 89.7508H110.309H110.005L109.406 91.2649C109.076 92.0977 108.763 92.7791 108.71 92.7791C108.657 92.7791 108.275 92.0977 107.862 91.2649L107.11 89.7508H106.864C106.73 89.7508 106.577 89.862 106.524 89.9978ZM116.893 89.9769C116.845 90.1013 117.135 90.6929 117.537 91.2919L118.268 92.3806L116.714 92.4603L115.16 92.54L114.637 93.337C114.066 94.2083 114.032 94.5908 114.52 94.6514L114.838 94.6906L115.27 93.974L115.702 93.2573H117.226H118.749L119.255 93.9745C119.776 94.7141 120.226 94.8908 120.404 94.4262L120.506 94.1605L119.044 91.9557L117.581 89.7508H117.28C117.115 89.7508 116.94 89.8525 116.893 89.9769ZM120.775 89.95C120.735 90.0597 120.734 90.239 120.772 90.3485L120.841 90.5477H123.109H125.376L125.661 90.7559L125.945 90.964L125.89 91.3536L125.835 91.7431L123.445 91.7855L121.054 91.8279L120.854 92.0949C120.745 92.2418 120.655 92.8056 120.655 93.3479V94.3339L120.892 94.5306C121.023 94.6388 121.238 94.6858 121.37 94.6348L121.612 94.5424V93.6607V92.7791H123.744H125.876L126.025 92.9783C126.107 93.088 126.194 93.4645 126.217 93.8151C126.266 94.5448 126.424 94.7753 126.781 94.6382L127.031 94.5424V93.6334V92.7244L126.794 92.463L126.557 92.2016L126.734 91.7334L126.91 91.2649L126.659 90.6663L126.409 90.0675L125.992 89.9092C125.763 89.822 124.512 89.7508 123.212 89.7508H120.849L120.775 89.95ZM127.738 89.9576C127.695 90.0714 127.679 91.1653 127.703 92.3883L127.748 94.612L130.218 94.6576C131.577 94.6828 132.852 94.6629 133.052 94.6135C133.252 94.5642 133.557 94.2926 133.729 94.01L134.043 93.4963L134.043 92.0894L134.044 90.6825L133.578 90.2166L133.112 89.7508H130.465H127.818L127.738 89.9576ZM132.825 90.75L133.101 90.9522L133.055 92.304L133.008 93.6557L130.816 93.7L128.625 93.7444V92.146V90.5477H130.586H132.548L132.825 90.75ZM56.9698 91.873C56.9239 91.9924 56.9077 92.6575 56.9335 93.351L56.9805 94.612L60.0304 94.6552L63.0802 94.6984L63.1787 94.4417C63.2329 94.3004 63.2369 94.1195 63.1877 94.0398C63.1384 93.96 61.9189 93.8948 60.4776 93.8948H57.8571V93.1776V92.4603H60.2591H62.6609L62.61 92.1017L62.559 91.7431L59.8061 91.6994L57.053 91.6559L56.9698 91.873ZM85.6579 91.8767C85.6128 91.9941 85.5972 92.6575 85.623 93.351L85.67 94.612L88.7199 94.6552L91.7697 94.6984L91.8682 94.4417C91.9224 94.3004 91.9264 94.1195 91.8771 94.0398C91.8279 93.96 90.6084 93.8948 89.1671 93.8948H86.5466V93.1776V92.4603H88.9374H91.3282V92.0619V91.6634H88.534H85.7397L85.6579 91.8767Z"
        fill="currentColor"/>
</svg>
