<svg width="24" height="24" viewBox="0 0 24 24" fill="none" xmlns="http://www.w3.org/2000/svg">
<path fill-rule="evenodd" clip-rule="evenodd" d="M0 24H5.28447V22.5612H0V24ZM19.6423 13.9282C19.5553 13.877 19.4478 13.877 19.3602 13.9282L19.1383 14.0592L20.3659 15.8451H15.8925V17.2845H20.3659L19.1383 19.071L19.3602 19.2013C19.4478 19.2525 19.5553 19.2525 19.6423 19.2013L24 16.6368V16.4927L19.6423 13.9282ZM11.633 8.92655L10.2174 7.49427L9.92773 8.88368L11.2096 9.84985L11.633 8.92655ZM12.2263 10.3529L12.304 10.5707C12.7647 10.4475 12.8728 10.2439 12.697 9.78496C12.6719 9.71948 12.645 9.65757 12.6222 9.60816C12.5913 9.5391 12.5265 9.49386 12.4517 9.48969C12.318 9.48255 12.106 9.47243 12.0143 9.47481C11.7883 9.48136 11.6295 9.58732 11.5074 9.8427L12.2263 10.3529ZM5.72421 10.8601C5.73706 10.7821 5.72655 10.7017 5.69501 10.6297L5.61384 10.4428C5.5496 10.2945 5.40477 10.1993 5.24535 10.2005L5.02752 10.2023C4.94167 10.5207 4.9008 10.9476 4.9008 11.2988C5.06548 11.4315 5.35338 11.5339 5.61209 11.5697L5.72421 10.8601ZM12.8447 17.8066C12.8447 17.7268 12.7992 17.6548 12.7285 17.6214L11.3807 16.9833L12.9522 13.4978C13.1379 13.0853 13.0147 12.5959 12.6561 12.3257L9.65676 10.0647V7.74191V6.07985L8.52383 3.3909L8.65406 2.89383C8.8935 2.91764 9.1487 2.90157 9.38988 2.84501C9.58143 2.32532 9.62464 1.4937 9.53062 0.930547C9.85649 0.598373 9.78407 -0.111814 8.35915 0.0149839C7.9416 0.0524874 7.57486 0.177499 7.29046 0.424547C7.12753 1.16033 7.19702 1.85921 7.58304 2.33663C7.66771 2.44081 7.70217 2.57832 7.66771 2.70869L7.51062 3.30577L7.50537 3.28613C7.01599 3.43078 6.60428 3.76355 6.33973 4.30408C5.65881 5.6935 5.06548 7.85382 4.90839 9.73495L5.74173 10.0665C5.98117 8.39733 6.63815 6.72157 7.57661 5.44943L7.94803 4.98272L8.03562 5.0994C7.41018 6.0602 6.9278 7.22579 6.72633 8.41221V11.3119L7.31207 11.6101L11.1541 13.5687L10.0556 17.4601V18.084H10.5946V19.5228H15.8791V18.084H12.8447V17.8066ZM9.21352 20.0449C9.21352 19.9657 9.16855 19.8937 9.09789 19.8597L7.71093 19.2037C8.31068 17.7452 8.86196 15.7534 9.26082 13.88C9.29995 13.6954 9.22812 13.5056 9.07862 13.3936L7.30798 12.0655C7.26944 14.5598 6.92197 17.8048 6.42499 19.7472V20.3223H5.29732V21.7617H10.5818V20.3223H9.21352V20.0449Z" fill="currentColor"/>
</svg>
