<svg width="24" height="24" viewBox="0 0 24 24" fill="none" xmlns="http://www.w3.org/2000/svg">
<g clip-path="url(#clip0_3636_204249)">
<path d="M11.4236 0.410211C11.6309 -0.136737 12.3691 -0.136737 12.5764 0.41021L15.3597 7.75605C15.4482 7.98964 15.6571 8.14884 15.8963 8.16492L23.4186 8.67085C23.9787 8.70852 24.2068 9.44478 23.7748 9.82048L17.9727 14.8664C17.7882 15.0268 17.7084 15.2844 17.7678 15.528L19.6334 23.1865C19.7723 23.7567 19.1751 24.2117 18.7009 23.897L12.3317 19.6697C12.1291 19.5353 11.8709 19.5353 11.6683 19.6697L5.29914 23.897C4.82491 24.2117 4.22767 23.7567 4.36658 23.1865L6.23224 15.528C6.29156 15.2844 6.21175 15.0268 6.02725 14.8664L0.225216 9.82048C-0.206785 9.44478 0.0213401 8.70852 0.581421 8.67085L8.10365 8.16492C8.34286 8.14884 8.5518 7.98964 8.64031 7.75605L11.4236 0.410211Z" fill="currentColor"/>
</g>
<defs>
<clipPath id="clip0_3636_204249">
<rect width="24" height="24" fill="white" transform="translate(24 24) rotate(-180)"/>
</clipPath>
</defs>
</svg>
