<svg width="24" height="24" viewBox="0 0 24 24" fill="none" xmlns="http://www.w3.org/2000/svg">
<path fill-rule="evenodd" clip-rule="evenodd" d="M14.3145 3.59323C14.4629 3.45996 14.6901 3.47084 14.8252 3.61768L18.403 7.50554C18.5323 7.64614 18.5323 7.86317 18.403 8.00376L14.8252 11.8916C14.6901 12.0385 14.4629 12.0493 14.3145 11.9161L13.5589 11.2375C13.4068 11.1009 13.3956 10.8654 13.5341 10.7148L15.4597 8.62234H5.86478C5.66332 8.62234 5.5 8.45812 5.5 8.25555V7.25376C5.5 7.05118 5.66332 6.88697 5.86478 6.88697H15.4597L13.5341 4.7945C13.3956 4.64396 13.4068 4.40845 13.5589 4.27182L14.3145 3.59323Z" fill="currentColor"/>
<path fill-rule="evenodd" clip-rule="evenodd" d="M9.68552 12.0839C9.53713 11.9507 9.3099 11.9615 9.17477 12.1084L5.59704 15.9962C5.46766 16.1368 5.46766 16.3539 5.59704 16.4945L9.17477 20.3823C9.3099 20.5292 9.53713 20.54 9.68552 20.4068L10.4411 19.7282C10.5932 19.5916 10.6044 19.356 10.4659 19.2055L8.54031 17.113H18.1352C18.3367 17.113 18.5 16.9488 18.5 16.7462V15.7445C18.5 15.5419 18.3367 15.3777 18.1352 15.3777H8.54031L10.4659 13.2852C10.6044 13.1347 10.5932 12.8991 10.4411 12.7625L9.68552 12.0839Z" fill="currentColor"/>
</svg>
