<svg width="24" height="24" viewBox="0 0 24 24" fill="none" xmlns="http://www.w3.org/2000/svg">
<path fill-rule="evenodd" clip-rule="evenodd" d="M3.96973 23.3616H20.0307L18.4247 7.20347H15.5266V4.52677C15.5266 2.58268 13.9447 1 11.9998 1C10.0557 1 8.47381 2.58268 8.47381 4.52677V9.56018H8.31268L7.50252 7.20347H5.57575L3.96973 23.3616ZM9.27645 7.20347V4.52677C9.27645 3.02541 10.4985 1.80339 11.9998 1.80339C13.5019 1.80339 14.724 3.02541 14.724 4.52677V9.56018H14.5636L13.7527 7.20347H9.27645ZM16.5197 12.1407C16.5787 12.1408 16.6362 12.1409 16.6844 12.1406C16.902 12.1395 17.0252 12.2787 16.958 12.4983C16.8338 12.9043 16.5089 13.3851 15.7885 13.983L15.7812 13.9892L15.7819 13.989L12.7505 16.5059L12.75 16.5061L12.5487 16.673C11.9626 17.1598 11.2773 17.5466 10.5783 17.797C10.0368 17.9909 8.66084 18.4871 8.04062 18.7108C7.94449 18.7454 7.86652 18.7736 7.81262 18.793C7.75911 18.8124 7.70048 18.8073 7.65108 18.7796L7.53597 18.7155L7.83219 18.4698L5.88704 17.3332L5.96745 17.2664C6.01201 17.2294 6.07063 17.2141 6.12748 17.2244L8.12775 17.5877C8.52648 17.6602 8.93675 17.5525 9.24851 17.2936L9.3926 17.174C9.55984 17.0351 9.73274 16.8916 9.90873 16.7456L9.92092 16.7354L10.6551 16.1258L7.9368 15.6323L8.01088 15.5709C8.06121 15.529 8.1212 15.5004 8.18525 15.4879L14.3335 14.2731L14.3788 14.2355L12.9749 14.1997L13.5143 13.752C13.5678 13.7075 13.6199 13.6642 13.6706 13.622C15.1102 12.4257 15.4283 12.1614 16.241 12.1421C16.3101 12.1405 16.417 12.1406 16.5197 12.1407Z" fill="currentColor"/>
</svg>
