<svg width="24" height="24" viewBox="0 0 24 24" fill="none" xmlns="http://www.w3.org/2000/svg">
<path fill-rule="evenodd" clip-rule="evenodd" d="M7.88231 3.20506H5.66117C5.36174 3.20506 5.11945 2.96277 5.11945 2.66334V0.983914C5.11945 0.685057 5.36174 0.4422 5.66117 0.4422H7.3406C7.64003 0.4422 7.88231 0.685057 7.88231 0.983914V3.20506ZM10.6452 5.4262V3.20506H7.88231V5.4262C7.88231 5.72506 8.1246 5.96791 8.42403 5.96791H10.1035C10.4029 5.96791 10.6452 5.72506 10.6452 5.4262ZM12.8663 0.4422H11.1869C10.8875 0.4422 10.6452 0.685057 10.6452 0.983914V3.20506H13.408V0.983914C13.408 0.685057 13.1652 0.4422 12.8663 0.4422ZM16.1709 5.4262V3.20506H13.408V5.4262C13.408 5.72506 13.6503 5.96791 13.9497 5.96791H15.6292C15.928 5.96791 16.1709 5.72506 16.1709 5.4262ZM18.9337 2.66334V0.983914C18.9337 0.685057 18.6909 0.4422 18.392 0.4422H16.7126C16.4132 0.4422 16.1709 0.685057 16.1709 0.983914V3.20506H18.392C18.6909 3.20506 18.9337 2.96277 18.9337 2.66334ZM5.70803 14.9473C5.78745 14.8656 5.85888 14.7759 5.92174 14.6811H5.35603C5.17774 14.6811 5.03374 14.5371 5.03374 14.3588V13.8982C5.03374 13.7205 5.17774 13.5759 5.35603 13.5759H6.43031L7.22003 11.7422C7.32231 11.5051 7.54003 11.3388 7.79603 11.3033C8.66688 11.1833 9.63888 11.1108 10.6452 11.0771V10.6851C10.6452 10.5068 10.7897 10.3622 10.9675 10.3622H13.0857C13.2635 10.3622 13.408 10.5068 13.408 10.6851V11.0771C14.4143 11.1108 15.3857 11.1833 16.2572 11.3033C16.5132 11.3388 16.7309 11.5051 16.8332 11.7422L17.6229 13.5759H18.6972C18.8755 13.5759 19.0195 13.7205 19.0195 13.8982V14.3588C19.0195 14.5371 18.8755 14.6811 18.6972 14.6811H18.1309C18.1943 14.7759 18.2657 14.8656 18.3452 14.9473L19.7383 16.3822C19.7389 16.3845 19.7395 16.3868 19.74 16.3896C17.5126 16.8588 14.3926 17.1811 12.0269 17.1811C9.6606 17.1811 6.5406 16.8588 4.31317 16.3896C4.31374 16.3868 4.31431 16.3845 4.31488 16.3822L5.70803 14.9473ZM6.50688 14.6811H12.0269H17.5463L16.4886 12.1708C16.4377 12.0513 16.3286 11.9673 16.2 11.9491C15.0635 11.7862 13.4515 11.7245 12.0269 11.7245C10.6017 11.7245 8.98974 11.7862 7.85317 11.9491C7.7246 11.9673 7.61488 12.0513 7.5646 12.1708L6.50688 14.6811ZM17.5006 18.0833C17.2823 18.1125 17.0623 18.0445 16.9006 17.8953L16.2543 17.3005L15.5206 18.1085C15.3955 18.2468 15.2223 18.3325 15.0366 18.3473C13.9823 18.4331 12.9486 18.4811 12.0269 18.4811C11.1046 18.4811 10.0709 18.4331 9.0166 18.3473C8.83088 18.3325 8.65774 18.2468 8.5326 18.1085L7.79888 17.3005L7.1526 17.8953C6.99088 18.0445 6.77088 18.1125 6.5526 18.0833C5.67717 17.9662 4.83888 17.8273 4.09431 17.6725C3.89145 19.4428 4.01431 21.5588 4.47774 23.4856H6.18574C6.38631 23.4856 6.56403 23.3553 6.6246 23.1633L6.89145 22.3153L6.15488 21.9742V21.8359C7.7766 21.4039 9.90174 21.1879 12.0269 21.1879C14.1515 21.1879 16.2766 21.4039 17.8983 21.8359V21.9742L17.1617 22.3153L17.4286 23.1633C17.4886 23.3553 17.6663 23.4856 17.8675 23.4856H19.5755C20.0383 21.5588 20.1617 19.4428 19.9589 17.6725C19.2137 17.8273 18.376 17.9662 17.5006 18.0833Z" fill="currentColor"/>
</svg>
