<svg width="24" height="24" viewBox="0 0 24 24" fill="none" xmlns="http://www.w3.org/2000/svg">
<path fill-rule="evenodd" clip-rule="evenodd" d="M9.61976 14.7779L9.61873 14.7772L9.61862 14.7789L9.27447 19.935C9.76651 19.935 9.99137 19.7161 10.2631 19.4514C10.2707 19.4441 10.2784 19.4366 10.286 19.4292L12.7154 17.0669L17.7717 20.8025C18.7021 21.3159 19.3736 21.0501 19.6053 19.9387L22.924 4.29966C23.2638 2.93741 22.4048 2.31955 21.5147 2.72363L2.0272 10.2379C0.696996 10.7715 0.704751 11.5136 1.78473 11.8443L6.78567 13.4051L18.3634 6.10091C18.9099 5.76948 19.4116 5.94766 18.9998 6.31307L9.61976 14.7779Z" fill="currentColor"/>
</svg>
