<svg width="24" height="24" viewBox="0 0 24 24" fill="none" xmlns="http://www.w3.org/2000/svg">
<path fill-rule="evenodd" clip-rule="evenodd" d="M19.9144 6.73066L15.8932 4.40894C15.9804 6.1186 15.9668 8.03076 15.8678 9.99864C15.9933 9.89287 16.1756 9.87038 16.3252 9.95646C16.5171 10.0684 16.5834 10.3126 16.4721 10.5044C16.3984 10.631 16.2645 10.703 16.1261 10.703C16.0569 10.703 15.9894 10.6861 15.9258 10.6495C15.8915 10.6299 15.8622 10.6045 15.8363 10.577C15.6878 13.1198 15.3992 15.7329 14.9947 18.1143C17.1409 14.6562 19.1077 10.8211 20.266 7.69829C20.401 7.33374 20.2514 6.92531 19.9144 6.73066ZM17.7277 11.3483C17.6529 11.4231 17.5499 11.4653 17.4453 11.4653C17.3395 11.4653 17.2366 11.4231 17.1618 11.3483C17.0886 11.2734 17.0448 11.1705 17.0448 11.0658C17.0448 10.9601 17.0886 10.8571 17.1618 10.7823C17.3097 10.6338 17.5798 10.6327 17.7277 10.7823C17.8025 10.8571 17.8447 10.9601 17.8447 11.0658C17.8447 11.1705 17.8025 11.2734 17.7277 11.3483ZM13.6519 2.66215C13.5866 2.27904 13.2525 2 12.8637 2H4.48533C3.99196 2 3.61728 2.44105 3.69604 2.92767C4.54383 8.16522 4.54383 15.8348 3.69604 21.0723C3.61728 21.5595 3.99196 22 4.48533 22H12.8637C13.2525 22 13.5866 21.7215 13.6519 21.3378C14.5587 16.0092 14.5587 7.99083 13.6519 2.66215ZM11.3689 6.58834C11.5906 6.58834 11.7684 6.7678 11.7684 6.98889C11.7684 7.20942 11.5906 7.38831 11.3689 7.38831C11.1478 7.38831 10.9684 7.20942 10.9684 6.98889C10.9684 6.7678 11.1478 6.58834 11.3689 6.58834ZM9.84553 6.58834C10.0666 6.58834 10.2461 6.7678 10.2461 6.98889C10.2461 7.20942 10.0666 7.38831 9.84553 7.38831C9.625 7.38831 9.44609 7.20942 9.44609 6.98889C9.44609 6.7678 9.625 6.58834 9.84553 6.58834ZM8.32263 6.58834C8.54259 6.58834 8.72207 6.7678 8.72207 6.98889C8.72207 7.20942 8.54259 7.38831 8.32263 7.38831C8.10097 7.38831 7.92209 7.20942 7.92209 6.98889C7.92209 6.7678 8.10097 6.58834 8.32263 6.58834ZM6.79863 6.58834C7.02028 6.58834 7.19803 6.7678 7.19803 6.98889C7.19803 7.20942 7.02028 7.38831 6.79863 7.38831C6.57866 7.38831 6.39919 7.20942 6.39919 6.98889C6.39919 6.7678 6.57866 6.58834 6.79863 6.58834ZM4.99221 7.27129C4.91739 7.19647 4.87519 7.09353 4.87519 6.98889C4.87519 6.96245 4.87801 6.93713 4.88251 6.91012C4.88813 6.88481 4.89657 6.8595 4.90613 6.83531C4.91626 6.81111 4.9275 6.7886 4.94325 6.7661C4.95731 6.74528 4.97421 6.72392 4.99221 6.70536C5.14073 6.5574 5.41019 6.5574 5.55815 6.70536C5.57671 6.72392 5.5936 6.74528 5.60766 6.7661C5.62173 6.7886 5.63467 6.81111 5.64423 6.83531C5.65436 6.8595 5.66278 6.88481 5.66672 6.91012C5.67235 6.93713 5.67517 6.96245 5.67517 6.98889C5.67517 7.09353 5.63297 7.19647 5.55815 7.27129C5.48333 7.34612 5.38039 7.38831 5.27463 7.38831C5.16999 7.38831 5.06703 7.34612 4.99221 7.27129ZM12.7298 11.9176C12.588 12.2973 12.3737 12.5387 12.0041 12.8171C11.7689 12.9943 11.4387 13.2436 11.095 13.5029L10.857 17.6783C10.8503 17.7959 10.7918 17.905 10.6972 17.9759L10.52 18.1081L9.55916 14.6607C9.5299 14.6826 9.51414 14.695 9.51414 14.695C8.99601 15.0854 8.40083 15.486 7.7685 15.846L7.69818 17.078C7.69143 17.1956 7.63347 17.3042 7.53896 17.3751L7.36175 17.5084L7.01073 16.2477C6.87346 16.3152 6.73562 16.3799 6.59666 16.4412L6.47401 16.2786L6.35139 16.1161C6.45209 15.9962 6.55559 15.8775 6.66135 15.7611L5.51258 15.0556L5.68925 14.9217C5.7832 14.8508 5.90356 14.8244 6.01833 14.8503L7.26835 15.1321C7.78198 14.632 8.32262 14.1769 8.83287 13.7921C8.83287 13.7921 8.84919 13.7797 8.87788 13.7577L5.82817 11.8861L6.00428 11.7522C6.09823 11.6807 6.21919 11.6543 6.33395 11.6802L10.4137 12.5994C10.7574 12.3406 11.0882 12.0914 11.3234 11.9142C11.6924 11.6357 11.9839 11.4956 12.3878 11.4636C12.6522 11.4428 12.7169 11.4686 12.7664 11.5339C12.8159 11.5997 12.8226 11.6695 12.7298 11.9176ZM13.1754 7.27129C13.1005 7.34612 12.9976 7.38831 12.893 7.38831C12.7872 7.38831 12.6842 7.34612 12.6094 7.27129C12.5346 7.19647 12.4924 7.09353 12.4924 6.98889C12.4924 6.88313 12.5346 6.78018 12.6094 6.70536C12.628 6.68736 12.6494 6.67047 12.6702 6.65584C12.6927 6.64178 12.7152 6.6294 12.7394 6.61928C12.7636 6.60971 12.7889 6.60127 12.8142 6.59677C12.9442 6.56976 13.0825 6.61253 13.1754 6.70536C13.2502 6.78018 13.2924 6.88313 13.2924 6.98889C13.2924 7.09353 13.2502 7.19647 13.1754 7.27129Z" fill="currentColor"/>
</svg>
