<svg width="24" height="24" viewBox="0 0 24 24" fill="none" xmlns="http://www.w3.org/2000/svg">
<path fill-rule="evenodd" clip-rule="evenodd" d="M24 12C24 16.0782 20.6933 19.3846 16.6147 19.3846C12.5374 19.3846 9.23074 16.0782 9.23074 12C9.23074 7.92172 12.5374 4.61536 16.6147 4.61536C20.6933 4.61536 24 7.92172 24 12ZM17.2175 7.1778H16.0119L15.5299 12C15.5044 12.281 15.6125 12.5748 15.8478 12.7668L19.5996 15.8366L20.4516 14.9833L17.6576 11.5689L17.2175 7.1778ZM9.51845 17.1054C9.20801 16.6747 8.93582 16.2145 8.70685 15.7299H6.58167L6.66429 16.3158C6.72654 16.7687 7.11252 17.1054 7.5675 17.1054H9.51845ZM7.87336 12C7.87336 11.8674 7.87631 11.7356 7.88215 11.6045H6.00561L6.08706 12.1904C6.15044 12.6433 6.53529 12.98 6.99027 12.98H7.92769C7.89179 12.6583 7.87336 12.3313 7.87336 12ZM8.49344 8.76019C8.68551 8.27915 8.91908 7.81917 9.18972 7.38467L5.15338 7.38467L5.23482 7.9706C5.2982 8.42342 5.68305 8.76019 6.13804 8.76019L8.49344 8.76019ZM0 7.38467L0.0814446 7.9706C0.144825 8.42342 0.529677 8.76019 0.984661 8.76019H4.28429V7.38467L0 7.38467ZM1.67478 12.1904L1.59334 11.6045L5.07692 11.6045L5.07692 12.98H2.578C2.12302 12.98 1.73816 12.6433 1.67478 12.1904ZM3.04465 16.3158L2.96203 15.7299H5.53846V17.1054H3.94669C3.49284 17.1054 3.10803 16.7687 3.04465 16.3158Z" fill="currentColor"/>
</svg>
