<svg width="24" height="24" viewBox="0 0 24 24" fill="none" xmlns="http://www.w3.org/2000/svg">
<path d="M18.1566 7.39118L20.889 3.23116C21.1889 2.77796 20.8461 2.19037 20.2792 2.19037H18.0775C18.1303 2.33727 18.1566 2.49041 18.1566 2.65294V7.39118Z" fill="currentColor"/>
<path d="M3.11101 3.23116L5.84995 7.39118V2.65294C5.84995 2.49041 5.87631 2.33727 5.92905 2.19037H3.72076C3.15386 2.19037 2.81108 2.77796 3.11101 3.23116Z" fill="currentColor"/>
<path d="M20.2792 8.72935H18.1566V13.9333L20.889 9.77327C21.1889 9.32007 20.8461 8.72935 20.2792 8.72935Z" fill="currentColor"/>
<path d="M3.11101 9.77639L5.84995 13.9364V8.72935H3.72076C3.15386 8.72935 2.81108 9.32007 3.11101 9.77639Z" fill="currentColor"/>
<path d="M20.2792 15.2704H18.1566V20.4743L20.889 16.3143C21.1889 15.8642 20.8461 15.2704 20.2792 15.2704Z" fill="currentColor"/>
<path d="M3.11101 16.3174L5.84995 20.4774V15.2704H3.72076C3.15386 15.2704 2.81108 15.8642 3.11101 16.3174Z" fill="currentColor"/>
<path d="M16.5843 2H7.41495C7.03262 2 6.7261 2.2938 6.7261 2.65323V21.3468C6.7261 21.7093 7.03591 22 7.41495 22H16.5843C16.9666 22 17.2731 21.7062 17.2731 21.3468V2.65323C17.2764 2.2938 16.9666 2 16.5843 2ZM11.9996 20.7936C10.5857 20.7936 9.43866 19.7059 9.43866 18.3651C9.43866 17.0242 10.5857 15.9366 11.9996 15.9366C13.4136 15.9366 14.5606 17.0242 14.5606 18.3651C14.5606 19.7059 13.4136 20.7936 11.9996 20.7936ZM11.9996 14.4301C10.5857 14.4301 9.43866 13.3424 9.43866 12.0016C9.43866 10.6607 10.5857 9.57306 11.9996 9.57306C13.4136 9.57306 14.5606 10.6607 14.5606 12.0016C14.5606 13.3424 13.4136 14.4301 11.9996 14.4301ZM11.9996 8.06657C10.5857 8.06657 9.43866 6.9789 9.43866 5.63807C9.43866 4.29723 10.5857 3.20956 11.9996 3.20956C13.4136 3.20956 14.5606 4.29723 14.5606 5.63807C14.5606 6.9789 13.4136 8.06657 11.9996 8.06657Z" fill="currentColor"/>
</svg>
