<svg width="24" height="24" viewBox="0 0 24 24" fill="none" xmlns="http://www.w3.org/2000/svg">
<path fill-rule="evenodd" clip-rule="evenodd" d="M15.2216 18.2423L20.145 19.8953L19.9396 20.1419C19.8297 20.2737 19.6674 20.35 19.4962 20.351L13.4271 20.3809C13.0258 20.859 12.6395 21.3195 12.3647 21.6466C11.9336 22.161 11.5675 22.4539 11.0067 22.6305C10.6396 22.7463 10.5393 22.7314 10.448 22.6546C10.3568 22.5782 10.3242 22.4817 10.3744 22.1001C10.4512 21.5169 10.6764 21.1061 11.1076 20.5917C11.3824 20.2646 11.7687 19.8041 12.1699 19.3255L11.1454 13.3439C11.1166 13.1748 11.1636 13.0019 11.2746 12.8706L11.4816 12.6257L13.9644 17.1874C13.9986 17.1468 14.0172 17.1244 14.0172 17.1244C14.6218 16.4035 15.3336 15.6432 16.11 14.9276L15.808 13.1625C15.7786 12.9939 15.8256 12.8215 15.936 12.6908L16.1431 12.4443L17.0507 14.1123C17.2231 13.9725 17.397 13.8359 17.5726 13.7041L17.7993 13.894L18.0256 14.084C17.9226 14.2862 17.8148 14.4874 17.7033 14.6875L19.5581 15.3102L19.3516 15.5567C19.2422 15.688 19.08 15.7643 18.9092 15.7648L17.0496 15.7739C16.4867 16.649 15.8704 17.4691 15.2744 18.1793C15.2744 18.1793 15.2557 18.2017 15.2216 18.2423ZM12.5317 11.3744L12.7393 11.129C12.8497 10.9982 12.8972 10.8253 12.8679 10.6562L11.8434 4.67463C12.2452 4.196 12.631 3.73551 12.9058 3.40842C13.3374 2.89403 13.5621 2.48317 13.6389 1.89942C13.6891 1.51843 13.6565 1.42185 13.5653 1.34555C13.4746 1.26871 13.3737 1.25377 13.0071 1.36903C12.4458 1.54618 12.0798 1.83912 11.6486 2.35297C11.3738 2.6806 10.9875 3.14109 10.5862 3.61918L4.51716 3.64907C4.34588 3.65013 4.18366 3.72644 4.07374 3.85823L3.86884 4.10475L8.79177 5.75782C8.75762 5.79838 8.73894 5.82079 8.73894 5.82079C8.14292 6.531 7.52715 7.35113 6.96368 8.22622L5.10411 8.23529C4.93336 8.23582 4.77115 8.31213 4.66176 8.44339L4.45526 8.68991L6.31003 9.31261C6.19904 9.51271 6.09072 9.71387 5.98774 9.91611L6.21452 10.1061L6.44076 10.296C6.61684 10.1642 6.7908 10.0276 6.96261 9.88783L7.87025 11.5553L8.07782 11.3093C8.18774 11.1786 8.2347 11.0062 8.20588 10.8376L7.90333 9.0725C8.68024 8.35695 9.39152 7.59605 9.99662 6.8757C9.99662 6.8757 10.0148 6.85329 10.0489 6.81273L12.5317 11.3744ZM7.61413 22.1898L7.99885 22.2154V22.6455L7.58318 22.6305C7.51381 22.6273 7.44445 22.6279 7.37561 22.6204L7.16911 22.5921C7.03145 22.5708 6.89218 22.5596 6.75665 22.5297L6.35058 22.4315C6.21345 22.4048 6.08592 22.3456 5.95306 22.3034C5.82126 22.257 5.68786 22.2154 5.56353 22.1514L5.18362 21.9748L4.82184 21.7629C4.35175 21.4636 3.9046 21.1146 3.53642 20.6899C3.1645 20.271 2.83368 19.8073 2.59729 19.2945L2.50338 19.1051L2.42708 18.9082C2.37852 18.7759 2.32249 18.6451 2.28034 18.5107C2.2067 18.238 2.12186 17.9669 2.08665 17.6857C1.98953 17.1281 1.97352 16.5556 2.04129 15.9916C2.16508 14.9351 2.58609 13.9143 3.23707 13.067L2.29101 12.9843L2.31129 12.869C2.31929 12.8236 2.35131 12.7863 2.39453 12.7703L4.55451 11.9843L4.65322 12.067L4.2541 14.3305C4.24609 14.3764 4.21461 14.4138 4.17139 14.4298L4.06147 14.4698L3.82082 13.5723C3.25735 14.2985 2.87369 15.1672 2.74617 16.0839C2.6768 16.5796 2.67733 17.0876 2.74777 17.5849C2.77071 17.8362 2.84061 18.0785 2.89771 18.3239C2.93132 18.445 2.97881 18.5619 3.0183 18.682L3.08073 18.8607L3.16023 19.032C3.35713 19.4978 3.64313 19.9231 3.96756 20.3115C4.28771 20.7064 4.68471 21.0335 5.10464 21.32L5.42853 21.5233L5.77057 21.6946C5.88262 21.757 6.00375 21.7981 6.12274 21.8446C6.24333 21.8862 6.35859 21.9454 6.48398 21.9726L6.85429 22.074C6.97862 22.106 7.10668 22.1194 7.23261 22.1428L7.42257 22.1754C7.48607 22.1839 7.5501 22.1845 7.61413 22.1898ZM3.61752 13.1006L3.67355 13.147L3.61752 13.1006ZM21.9603 8.00745C21.8392 9.06343 21.4192 10.0821 20.7741 10.9337L21.7218 11.0164L21.701 11.1316C21.6935 11.177 21.6615 11.2149 21.6183 11.2303L19.4583 12.0169L19.3596 11.9336L19.7587 9.67012C19.7667 9.62476 19.7982 9.58688 19.8414 9.57141L19.9513 9.53139L20.1925 10.431C20.7624 9.70854 21.1476 8.83665 21.2784 7.91834C21.3499 7.4221 21.3488 6.91252 21.2768 6.41414C21.2538 6.16229 21.1828 5.92003 21.1257 5.67405C21.0916 5.55239 21.0441 5.43553 21.0041 5.31547L20.9411 5.13672L20.8611 4.9649C20.6631 4.49854 20.3766 4.07327 20.0511 3.68482C19.7293 3.28943 19.3313 2.96287 18.9108 2.67686L18.5864 2.47356L18.2438 2.30281C18.1312 2.24038 18.0101 2.19983 17.8911 2.15394C17.77 2.11232 17.6547 2.05309 17.5293 2.02588L17.1585 1.92503C17.0347 1.89355 16.9066 1.88021 16.7807 1.85673L16.5907 1.82471C16.5273 1.81618 16.4627 1.81564 16.3987 1.81031L16.0139 1.78523V1.35515L16.4296 1.37063C16.4984 1.37436 16.5683 1.37383 16.6372 1.3813L16.8437 1.40958C16.9808 1.43146 17.1201 1.44266 17.2556 1.47308L17.6617 1.57179C17.7988 1.59847 17.9263 1.6577 18.0587 1.69985C18.1905 1.74681 18.3239 1.78843 18.4476 1.85246L18.8276 2.02961L19.1883 2.24198C19.6578 2.54186 20.1039 2.89083 20.471 3.3161C20.8419 3.73444 21.1711 4.19813 21.4064 4.71038L21.5003 4.89927L21.5761 5.0967C21.6247 5.22903 21.6807 5.3587 21.7223 5.49316C21.7954 5.76583 21.8797 6.03636 21.9144 6.31703C22.0099 6.87356 22.0259 7.44451 21.9603 8.00745ZM20.3947 10.9006L20.3382 10.8526L20.3947 10.9006Z" fill="currentColor"/>
</svg>
