<svg width="24" height="24" viewBox="0 0 24 24" fill="none" xmlns="http://www.w3.org/2000/svg">
<g clip-path="url(#clip0_3636_204171)">
<path fill-rule="evenodd" clip-rule="evenodd" d="M14.4062 12.4071L13.2197 9.89312L12.7752 11.9854L13.5924 13.2196L14.4062 12.4071ZM14.4969 14.1522V14.4141C15.0421 14.4645 15.2368 14.2912 15.2241 13.7353C15.2227 13.656 15.2174 13.5802 15.212 13.5184C15.2046 13.4331 15.1522 13.3599 15.0737 13.3263C14.932 13.2659 14.7064 13.1719 14.6063 13.1383C14.3599 13.0557 14.147 13.1061 13.9167 13.329L14.4969 14.1522ZM7.942 13.6728C7.9561 13.5849 7.94468 13.4942 7.90843 13.413L7.81509 13.2021C7.74056 13.0349 7.57404 12.9275 7.3914 12.9288L7.14094 12.9308C7.04223 13.2901 6.99523 13.7715 6.99523 14.1677C7.16751 14.3044 7.45904 14.412 7.73486 14.4609L4.15565 14.4609C1.95525 14.4609 0.0811851 16.1718 0.00262337 18.3708C-0.0792957 20.68 1.76791 22.5769 4.05896 22.5769L19.9418 22.577C22.2322 22.577 24.0794 20.6794 23.9975 18.3709C23.9189 16.1718 22.0448 14.4609 19.8444 14.4609L12.4611 14.4609C12.4628 14.3352 12.4637 14.2116 12.4637 14.0905V10.155V8.28025L11.1603 5.2479L11.3108 4.68723C11.5861 4.71409 11.8795 4.69596 12.1568 4.63217C12.377 4.04598 12.4261 3.10794 12.318 2.47273C12.6933 2.09738 12.61 1.29699 10.9717 1.44001C10.4916 1.48231 10.0699 1.62332 9.7422 1.90198C9.55486 2.73191 9.63544 3.52022 10.0793 4.05873C10.176 4.17624 10.2163 4.33135 10.1766 4.4784L9.99602 5.15188L9.98998 5.12973C9.42729 5.29289 8.95323 5.66824 8.64905 6.27794C7.86679 7.84514 7.18391 10.2819 7.00396 12.4037L7.96147 12.7777C8.23744 10.8943 8.99285 9.0041 10.0719 7.56917L10.499 7.04341L10.599 7.17502C9.88053 8.25809 9.32522 9.5735 9.09357 10.9117V14.1818L9.65176 14.4609L7.81506 14.4609L7.942 13.6728ZM16.0585 19.996C16.1084 20.025 16.1701 20.025 16.2209 19.996L18.7259 18.5498V18.3874L16.2209 16.9412C16.1706 16.9117 16.1084 16.9122 16.0585 16.9412L15.9308 17.0148L16.6116 17.9872L6.4742 18.1975V18.7388L16.6121 18.9496L15.9308 19.9224L16.0585 19.996Z" fill="currentColor"/>
</g>
<defs>
<clipPath id="clip0_3636_204171">
<rect width="24" height="24" fill="white"/>
</clipPath>
</defs>
</svg>
