<svg width="24" height="24" viewBox="0 0 24 24" fill="none" xmlns="http://www.w3.org/2000/svg">
<path d="M20 4H4C3.46957 4 2.96086 4.21071 2.58579 4.58579C2.21071 4.96086 2 5.46957 2 6V16C2 16.5304 2.21071 17.0391 2.58579 17.4142C2.96086 17.7893 3.46957 18 4 18H4.382L4.105 18.553C3.98645 18.7904 3.96705 19.0651 4.05106 19.3168C4.13508 19.5685 4.31563 19.7765 4.553 19.895C4.79037 20.0136 5.06511 20.033 5.31678 19.9489C5.56846 19.8649 5.77645 19.6844 5.895 19.447L6.618 18H17.382L18.105 19.447C18.2236 19.6844 18.4315 19.8649 18.6832 19.9489C18.9349 20.033 19.2096 20.0136 19.447 19.895C19.6844 19.7765 19.8649 19.5685 19.9489 19.3168C20.033 19.0651 20.0136 18.7904 19.895 18.553L19.618 18H20C20.5304 18 21.0391 17.7893 21.4142 17.4142C21.7893 17.0391 22 16.5304 22 16V6C22 5.46957 21.7893 4.96086 21.4142 4.58579C21.0391 4.21071 20.5304 4 20 4Z" fill="currentColor"/>
</svg>
