<svg width="24" height="24" viewBox="0 0 24 24" fill="none" xmlns="http://www.w3.org/2000/svg">
<path fill-rule="evenodd" clip-rule="evenodd" d="M24 10.9891V12.7503C24 16.6516 22.4856 18.1659 18.5844 18.1659H5.41564C1.51439 18.1659 0 16.6516 0 12.7503V10.9891C0 7.05505 1.51439 5.57349 5.41564 5.57349H18.5844C22.4856 5.57349 24 7.05505 24 10.9891ZM10.206 8.1577H8.46103L6.71606 12.5858L4.87263 8.1577H3.11103L6.37082 15.5489H6.91383L10.206 8.1577ZM11.3091 15.5485H12.8891V8.1577H11.3091V15.5485ZM20.8723 10.7752C20.8723 9.34304 20.0992 8.1577 17.9096 8.1577H14.9798V15.5489H16.5598V13.376C16.9387 13.4088 17.4489 13.4254 17.8602 13.4254C19.3908 13.4254 20.8723 12.7341 20.8723 10.7752ZM19.2267 10.7585C19.2267 11.7461 18.5353 12.0756 17.6462 12.0756C17.3496 12.0756 16.8394 12.0756 16.5598 12.0261V9.54081H17.8108C18.9462 9.54081 19.2267 10.0672 19.2267 10.7585Z" fill="currentColor"/>
</svg>
