<svg width="24" height="24" viewBox="0 0 24 24" fill="none" xmlns="http://www.w3.org/2000/svg">
<path fill-rule="evenodd" clip-rule="evenodd" d="M2.40513 12.3589C2.39321 12.0896 2.38596 11.8166 2.38724 11.5365C2.41589 4.89804 5.67951 1.48007 11.2392 1.48007H11.299C13.7341 1.49085 15.7706 2.16606 17.2731 3.52726L17.4383 3.48177V3.49135C17.4926 3.47715 17.547 3.46375 17.6014 3.45067C17.68 3.43175 17.7588 3.41348 17.8381 3.39438C16.2447 1.81528 14.0478 1.00838 11.3003 1H11.2405C8.29895 1 5.99073 1.90866 4.38049 3.69966C2.75236 5.511 1.91913 8.14961 1.90475 11.54C1.90475 11.8645 1.91316 12.1805 1.92754 12.4978L2.40513 12.3589ZM20.6036 11.6131C20.594 13.9859 20.1559 15.996 19.3023 17.623L18.9455 17.2494C19.6961 15.747 20.1116 13.865 20.1212 11.6071C20.1287 10.7256 20.0661 9.8449 19.9344 8.97328L20.1439 8.79609L20.2289 8.72067L20.3641 8.60694C20.5333 9.59986 20.6134 10.6059 20.6036 11.6131ZM11.2117 21.6563H11.2632C14.0765 21.6563 16.3919 20.6961 17.953 18.801L17.9671 18.8119C18.0391 18.8684 18.1123 18.9257 18.1838 18.9835C18.2337 19.0238 18.2828 19.0643 18.3302 19.1051C18.2308 19.2248 18.1303 19.3409 18.0261 19.4547C16.4063 21.2121 14.0682 22.1412 11.2668 22.1412H11.2129C8.42708 22.1292 6.09374 21.1978 4.47636 19.4487C3.23241 18.1018 2.43869 16.33 2.0987 14.1751L2.57758 14.114C3.38334 19.1422 6.69946 21.6371 11.2117 21.6563ZM16.9258 4.18213C16.9264 4.1861 16.9264 4.19013 16.9258 4.1941C18.965 3.59939 21.0824 3.31644 23.2063 3.35487C23.472 3.35966 23.7366 3.37044 24 3.3848C23.4709 4.25885 22.879 5.09347 22.2294 5.88214C20.4302 5.68751 18.6124 5.74797 16.8301 6.06172C16.8228 6.112 16.8145 6.16108 16.8061 6.21137C18.4829 6.00727 20.1805 6.04921 21.8451 6.33587C21.2611 6.99646 20.6396 7.62283 19.9835 8.21187C18.3828 7.91496 17.2539 7.83116 16.3476 7.86468C16.3261 7.91736 16.3046 7.97004 16.2818 8.02271C17.1114 8.04785 18.1793 8.18314 19.5932 8.55426C18.9294 9.11059 18.2355 9.63015 17.5148 10.1106C16.8069 9.8561 16.0618 9.72058 15.3096 9.70955L15.288 9.73797C15.2753 9.75471 15.2627 9.77129 15.2498 9.78737C15.9314 9.85723 16.5981 10.0321 17.2263 10.3057C16.0187 11.0914 14.7386 11.7597 13.4037 12.3015L20.6503 19.8138C20.7653 19.9302 20.8446 20.0769 20.8791 20.2368C20.9137 20.3966 20.902 20.563 20.8455 20.7165C20.8455 20.7165 20.1619 20.0102 19.6362 19.5313C15.7741 15.9792 10.6227 13.5453 5.264 13.4256C3.73888 13.3909 2.28787 13.5777 0.799684 13.8087C0.655765 13.8337 0.50787 13.8235 0.368626 13.7791C0.229383 13.7347 0.103 13.6574 0 13.5537C0 13.5537 2.17294 12.9803 4.92648 12.2548C7.30051 11.6298 7.96843 11.327 8.79092 10.2698C9.00604 9.95356 9.16784 9.60413 9.26979 9.23547C9.34228 8.88754 9.38238 8.53366 9.38951 8.17835C8.88994 8.61236 8.55838 8.55894 8.22097 8.50456C8.13305 8.49039 8.04466 8.47615 7.95288 8.47046C7.78091 8.4672 7.6115 8.52178 7.44513 8.57537C7.12257 8.67923 6.81158 8.77939 6.51626 8.44771C6.46435 8.38895 6.43524 8.31353 6.43419 8.23513C6.43302 8.15672 6.46002 8.08051 6.5103 8.02032L8.41621 6.1958L8.21816 5.98701L7.91103 5.66305C7.90191 5.65388 7.90249 5.64401 7.9108 5.63989C7.91337 5.63863 7.91664 5.63791 7.92062 5.63791C8.26142 5.6008 8.60608 5.61736 8.94185 5.687C11.6594 5.28714 14.0921 8.3232 12.3047 11.1186C13.0234 10.2751 13.5175 9.26372 13.7414 8.17835C13.7665 8.05384 13.788 7.92574 13.806 7.80602C13.8131 7.75813 13.8239 7.71024 13.8239 7.66236C13.8335 7.58693 13.8455 7.49954 13.8503 7.43729C13.8551 7.37503 13.8575 7.31637 13.8622 7.25531L13.8654 7.21697C13.8694 7.17165 13.873 7.12898 13.873 7.07454V6.86742V6.71897C13.8725 6.68479 13.871 6.65084 13.8696 6.61692C13.8677 6.57481 13.8659 6.53274 13.8659 6.49031L13.8586 6.37059C13.853 6.28519 13.8459 6.20258 13.8371 6.12277L13.8264 6.03179C13.8156 5.942 13.8036 5.85221 13.788 5.76362C13.7871 5.7557 13.7852 5.74779 13.7834 5.73996C13.7809 5.72884 13.7784 5.71789 13.7784 5.70735C13.7617 5.60798 13.7437 5.50981 13.7222 5.41164C14.7557 4.9172 15.827 4.50605 16.9258 4.18213Z" fill="currentColor"/>
</svg>
