<svg width="24" height="24" viewBox="0 0 24 24" fill="none" xmlns="http://www.w3.org/2000/svg">
<path fill-rule="evenodd" clip-rule="evenodd" d="M22.3268 15.664H18.9399L15.6444 12.0357L15.0586 11.3909C14.7389 11.0387 14.2536 10.8868 13.7897 10.9936L9.27815 12.035L9.17345 11.4422L5.04739 12.494L4.97181 12.2111L4.99817 12.3103L9.65119 10.6164V9.20827L8.81502 9.40932L8.71587 8.84634L6.28084 5.13279L6.5124 4.80208C6.86878 4.97264 7.27164 5.09121 7.67586 5.14113C8.25688 4.46166 8.78174 3.2268 8.94676 2.3206C9.63386 2.00097 9.91325 0.885388 7.64395 0.276634C6.97903 0.0991386 6.34394 0.0824927 5.76777 0.296735C5.12296 1.30139 4.84357 2.37885 5.14933 3.30723C5.22837 3.54713 5.20271 3.80921 5.0578 4.01583L4.0469 5.46006L4.05245 5.46977C4.01778 5.50791 3.98244 5.55158 3.945 5.60566C3.19827 6.67202 3.00272 7.55186 3.31264 8.70974C3.62256 9.86623 5.03008 15.1169 5.03008 15.1169C5.03147 15.1231 5.03284 15.128 5.03423 15.1336C5.50223 16.8801 7.80133 16.5071 8.96406 15.985V15.9794C9.04311 15.9448 9.12286 15.9108 9.19982 15.8692C9.94308 15.4657 12.5341 14.0582 12.5341 14.0582L12.6 14.2558L10.3085 16.2297H13.0832L15.1653 24H19.7483V23.5521C19.7483 23.4245 19.6741 23.3081 19.5576 23.2547L16.5132 21.8409L15.9814 14.461C15.9398 13.889 15.5328 13.4127 14.9754 13.2768C14.8526 13.2463 14.7285 13.2172 14.6037 13.1887L14.9324 13.0743C16.0632 13.3087 16.4057 13.602 16.5998 14.9866C16.6706 15.4885 16.7371 15.967 16.7989 16.41L18.7409 18.0116C18.7409 18.0116 20.3439 17.6858 21.1731 17.5131C22.211 17.2975 22.7574 16.5313 22.5286 16.0613C22.4489 15.8962 22.3268 15.664 22.3268 15.664ZM6.26907 7.6108L7.01785 9.84059L6.34326 10.0021C6.34326 10.0021 6.18518 8.67231 6.07217 7.6108H6.26907ZM18.5661 8.05245C20.7897 8.05245 22.5924 6.24978 22.5924 4.02624C22.5924 1.80269 20.7897 0 18.5661 0C16.3433 0 14.5406 1.80269 14.5406 4.02624C14.5406 6.24978 16.3433 8.05245 18.5661 8.05245ZM18.2375 1.39707H18.8948L19.1347 3.79118L20.658 5.6528L20.1934 6.11805L18.1481 4.44432C18.0198 4.33963 17.9609 4.17947 17.9747 4.02624L18.2375 1.39707ZM6.08393 17.2157H12.2117L12.1604 17.622C12.1417 17.7696 12.0259 17.8868 11.8775 17.9062L5.81699 18.705C4.40465 18.8915 3.10118 17.9187 2.87723 16.5119L1.63477 8.70974H2.03967C2.18873 8.70974 2.31909 8.80959 2.35722 8.95311L4.17932 15.7541C4.4102 16.6166 5.1916 17.2157 6.08393 17.2157ZM11.4157 23.8093V24H7.96497H6.97904H3.52829V23.8093C3.52829 23.7268 3.57891 23.6512 3.65656 23.6228C4.63348 23.2664 5.79482 23.0668 6.97904 23.0231V19.0419H7.30769C7.671 19.0419 7.96497 19.3359 7.96497 19.6992V23.0231C9.1492 23.0668 10.3105 23.2664 11.2875 23.6228C11.3651 23.6512 11.4157 23.7268 11.4157 23.8093ZM12.306 7.70718L11.6202 7.90893L12.3705 6.60892C12.4252 6.51532 12.5452 6.48273 12.6402 6.53681L12.896 6.68519L12.306 7.70718ZM10.054 9.69082C9.96457 9.55493 9.95416 9.38159 10.0256 9.23599L10.5324 8.20431L11.25 7.79038L11.3575 7.98591C11.0663 8.15439 11.2313 8.48926 11.4809 8.34504C11.6314 8.25837 12.2262 7.91517 12.2262 7.91517L12.2741 8.46776C12.2817 8.55443 12.2547 8.64041 12.1985 8.70767L11.9877 8.95935L12.0342 9.49045C12.0467 9.63882 11.9586 9.7768 11.8193 9.8281L10.4665 10.3197L10.054 9.69082Z" fill="currentColor"/>
</svg>
