<svg width="24" height="24" viewBox="0 0 24 24" fill="none" xmlns="http://www.w3.org/2000/svg">
<path fill-rule="evenodd" clip-rule="evenodd" d="M12 16.5C14.0711 16.5 15.75 14.8211 15.75 12.75C15.75 12.2167 15.6387 11.7093 15.438 11.25C14.1883 11.95 12.6253 11.5417 12 11.25C10.8 11.85 9.20802 11.5 8.56203 11.25C8.36133 11.7093 8.25 12.2167 8.25 12.75C8.25 14.8211 9.92892 16.5 12 16.5Z" fill="currentColor"/>
<path fill-rule="evenodd" clip-rule="evenodd" d="M5.75 3C5.05965 3 4.5 3.55965 4.5 4.25V19.75C4.5 20.4404 5.05965 21 5.75 21H18.25C18.9404 21 19.5 20.4404 19.5 19.75V4.25C19.5 3.55965 18.9404 3 18.25 3H5.75ZM17.25 12.75C17.25 15.6495 14.8995 18 12 18C9.10051 18 6.75 15.6495 6.75 12.75C6.75 9.85051 9.10051 7.5 12 7.5C14.8995 7.5 17.25 9.85051 17.25 12.75ZM13.5 5.25C13.5 4.83579 13.8358 4.5 14.25 4.5C14.6642 4.5 15 4.83579 15 5.25C15 5.66421 14.6642 6 14.25 6C13.8358 6 13.5 5.66421 13.5 5.25ZM17.25 5.25C17.25 4.83579 16.9142 4.5 16.5 4.5C16.0858 4.5 15.75 4.83579 15.75 5.25C15.75 5.66421 16.0858 6 16.5 6C16.9142 6 17.25 5.66421 17.25 5.25Z" fill="currentColor"/>
</svg>
