<svg width="40" height="40" viewBox="0 0 40 40" fill="none" xmlns="http://www.w3.org/2000/svg">
<path fill-rule="evenodd" clip-rule="evenodd" d="M15.1151 22.9235H14.7851C14.1992 22.9235 13.8701 22.8135 13.3942 21.6785C13.3209 21.4952 13.3209 21.3485 13.3576 21.166L13.5767 20.1402L14.4192 20.4335C14.9684 20.6893 15.1884 21.1293 15.1884 21.9343H14.9684C14.9684 21.0927 14.0167 21.2393 15.1151 22.9235ZM23.8309 39.1102V39.5127H22.4392C22.1092 39.5127 21.9634 39.4393 21.6334 39.0735L21.1576 38.3777C20.2051 30.1377 20.5717 23.876 19.6192 23.876C18.6676 23.876 18.9967 30.1377 18.0817 38.3777C18.0817 38.3777 17.7884 38.8168 17.5684 39.0735C17.2759 39.4393 17.0926 39.5127 16.7634 39.5127H15.3717V39.1102C15.3717 38.9635 15.4084 38.8168 15.4809 38.7068L16.3601 37.096L15.9942 36.8393L15.9942 13.0727H15.7742C15.3717 14.9768 15.0417 17.7235 14.9684 19.701H13.3942C13.2109 16.4052 13.5034 11.6077 14.1267 8.67766L18.1184 6.62682C18.2642 8.45849 18.7042 10.0693 19.6192 11.791C20.4984 10.0693 20.9376 8.45849 21.0842 6.62682L25.0759 8.67766C25.6984 11.6077 26.0284 16.4052 25.8084 19.701L24.2334 19.701C24.1601 17.7235 23.8309 14.9768 23.4651 13.0727H23.2084L23.2084 36.8393L22.8784 37.096L23.7209 38.7068C23.7942 38.8168 23.8309 38.9635 23.8309 39.1102ZM17.4951 2.52516C17.4951 0.987656 18.1909 0.0351562 19.6192 0.0351562C20.2417 0.0351562 20.8642 0.10849 21.4142 0.255156C21.5967 0.95099 21.7067 1.72016 21.7067 2.52516C21.7067 3.80766 21.2309 4.86932 20.6084 5.38182V6.07766C20.3151 6.26099 19.9492 6.37099 19.6192 6.37099C19.2534 6.37099 18.9234 6.26099 18.6309 6.07766V5.38182C17.9717 4.83266 17.4951 3.77099 17.4951 2.52516ZM24.7834 20.4335C24.2334 20.6893 24.0142 21.1293 24.0142 21.9343H24.2334C24.2334 21.0927 25.1859 21.2393 24.1234 22.9235H24.4167C25.0392 22.9235 25.3692 22.8135 25.8084 21.6785C25.8817 21.4952 25.9184 21.3485 25.8817 21.166L25.6251 20.1402L24.7834 20.4335Z" fill="currentColor"/>
</svg>
