<svg width="40" height="40" viewBox="0 0 40 40" fill="none" xmlns="http://www.w3.org/2000/svg">
<path fill-rule="evenodd" clip-rule="evenodd" d="M14.9232 21.5318H14.6665C14.1174 21.5318 13.824 21.4218 13.3849 20.3968C13.3482 20.2502 13.3115 20.1035 13.3482 19.9568L13.5682 19.0052L14.3374 19.2977C14.8132 19.5177 15.069 19.8843 15.069 20.6527H14.8132C14.8132 19.8843 13.9707 19.9935 14.9232 21.5318ZM22.0274 15.0868C22.7232 17.6135 23.199 21.3118 23.3824 24.9743H15.2524C15.4357 21.3118 15.8749 17.6135 16.6074 15.0868C16.7907 14.391 16.7907 14.171 16.6807 13.5118C16.5707 12.8527 16.2415 11.3877 16.2415 11.3877H16.0215C15.3257 13.2918 14.8132 16.0018 14.6665 18.6385H13.5682C13.5315 15.1602 14.0074 11.351 14.9232 8.16516L17.5965 6.73682C17.7057 8.16516 18.3649 9.41016 19.3174 10.216C20.2332 9.41016 20.8924 8.16516 21.0024 6.73682L23.7124 8.16516C24.5907 11.351 25.0665 15.1602 25.0307 18.6385L23.9315 18.6385C23.7849 16.0018 23.2724 13.2918 22.6132 11.3877H22.3565C22.3565 11.3877 22.0274 12.8527 21.9174 13.5118C21.8074 14.171 21.844 14.391 22.0274 15.0868ZM16.3874 4.43016C17.0832 2.74516 16.5707 0.0351562 19.3174 0.0351562C22.0274 0.0351562 21.5149 2.74516 22.2107 4.43016C21.6974 5.05266 21.0382 5.41849 20.1965 5.52849C20.1965 6.11432 20.3432 6.37099 20.709 6.59016C20.7457 6.59016 20.7457 6.62682 20.7824 6.62682C20.379 7.17682 19.8665 7.65266 19.3174 7.98182C18.7315 7.65266 18.219 7.17682 17.8157 6.62682C17.8524 6.62682 17.889 6.59016 17.889 6.59016C18.2557 6.37099 18.4015 6.11432 18.4015 5.52849C17.5599 5.41849 16.9374 5.05266 16.3874 4.43016ZM18.2924 34.4227L17.2299 30.5777C17.1199 30.1377 17.0465 29.7352 17.0465 29.2952V28.3802L16.7174 27.0985C16.5707 26.6218 16.9007 26.1827 17.3765 26.1093L18.7315 25.9627L18.2924 34.4227ZM22.174 25.5968L21.5515 28.3802V29.4418C21.5515 29.7718 21.5149 30.101 21.4415 30.4677L20.0865 36.6202L20.4524 38.451C20.489 38.6343 20.489 38.8168 20.379 38.9635L20.1232 39.5127H19.0249L18.7315 38.8902C18.6582 38.7802 18.6215 38.6702 18.6215 38.5243V36.6935C18.6215 36.5468 18.6582 36.4368 18.7315 36.3268L19.0607 35.741L19.7199 25.8535L22.174 25.5968ZM25.2132 20.3968C24.774 21.4218 24.4807 21.5318 23.9315 21.5318H23.6757C24.6274 19.9935 23.7849 19.8843 23.7849 20.6527H23.5657C23.5657 19.8843 23.7849 19.5177 24.2615 19.2977L25.0307 19.0052L25.2499 19.9568C25.2865 20.1035 25.2865 20.2502 25.2132 20.3968Z" fill="currentColor"/>
</svg>
