<svg width="24" height="24" viewBox="0 0 24 24" fill="none" xmlns="http://www.w3.org/2000/svg">
<path fill-rule="evenodd" clip-rule="evenodd" d="M4.06895 13.7542H3.87095C3.51945 13.7542 3.32195 13.6882 3.03645 13.0072C2.99245 12.8972 2.99245 12.8092 3.01445 12.6997L3.14595 12.0842L3.65145 12.2602C3.98095 12.4137 4.11295 12.6777 4.11295 13.1607H3.98095C3.98095 12.6557 3.40995 12.7437 4.06895 13.7542ZM9.29845 23.4662V23.7077H8.46345C8.26545 23.7077 8.17795 23.6637 7.97995 23.4442L7.69445 23.0267C7.12295 18.0827 7.34295 14.3257 6.77145 14.3257C6.20045 14.3257 6.39795 18.0827 5.84895 23.0267C5.84895 23.0267 5.67295 23.2902 5.54095 23.4442C5.36545 23.6637 5.25545 23.7077 5.05795 23.7077H4.22295V23.4662C4.22295 23.3782 4.24495 23.2902 4.28845 23.2242L4.81595 22.2577L4.59645 22.1037V7.84374H4.46445C4.22295 8.98624 4.02495 10.6342 3.98095 11.8207H3.03645C2.92645 9.84324 3.10195 6.96474 3.47595 5.20674L5.87095 3.97624C5.95845 5.07524 6.22245 6.04174 6.77145 7.07474C7.29895 6.04174 7.56245 5.07524 7.65045 3.97624L10.0455 5.20674C10.419 6.96474 10.617 9.84324 10.485 11.8207H9.53995C9.49595 10.6342 9.29845 8.98624 9.07895 7.84374H8.92495V22.1037L8.72695 22.2577L9.23245 23.2242C9.27645 23.2902 9.29845 23.3782 9.29845 23.4662ZM5.49695 1.51524C5.49695 0.59274 5.91445 0.0212402 6.77145 0.0212402C7.14495 0.0212402 7.51845 0.0652402 7.84845 0.15324C7.95795 0.57074 8.02395 1.03224 8.02395 1.51524C8.02395 2.28474 7.73845 2.92174 7.36495 3.22924V3.64674C7.18895 3.75674 6.96945 3.82274 6.77145 3.82274C6.55195 3.82274 6.35395 3.75674 6.17845 3.64674V3.22924C5.78295 2.89974 5.49695 2.26274 5.49695 1.51524ZM9.86995 12.2602C9.53995 12.4137 9.40845 12.6777 9.40845 13.1607H9.53995C9.53995 12.6557 10.1115 12.7437 9.47395 13.7542H9.64995C10.0235 13.7542 10.2215 13.6882 10.485 13.0072C10.529 12.8972 10.551 12.8092 10.529 12.6997L10.375 12.0842L9.86995 12.2602ZM15.0775 12.9192H14.9235C14.594 12.9192 14.418 12.8532 14.1545 12.2382C14.1325 12.1502 14.1105 12.0622 14.1325 11.9742L14.2645 11.4032L14.726 11.5787C15.0115 11.7107 15.165 11.9307 15.165 12.3917H15.0115C15.0115 11.9307 14.506 11.9962 15.0775 12.9192ZM19.34 9.05224C19.7575 10.5682 20.0429 12.7872 20.153 14.9847H15.275C15.385 12.7872 15.6485 10.5682 16.088 9.05224C16.198 8.63474 16.198 8.50274 16.132 8.10724C16.066 7.71174 15.8685 6.83274 15.8685 6.83274H15.7365C15.319 7.97524 15.0115 9.60124 14.9235 11.1832H14.2645C14.2425 9.09624 14.528 6.81074 15.0775 4.89924L16.6815 4.04224C16.747 4.89924 17.1425 5.64624 17.714 6.12974C18.2635 5.64624 18.659 4.89924 18.725 4.04224L20.351 4.89924C20.878 6.81074 21.1635 9.09624 21.142 11.1832H20.4825C20.3945 9.60124 20.087 7.97524 19.6915 6.83274H19.5375C19.5375 6.83274 19.34 7.71174 19.274 8.10724C19.208 8.50274 19.2299 8.63474 19.34 9.05224ZM15.956 2.65824C16.3735 1.64724 16.066 0.0212402 17.714 0.0212402C19.34 0.0212402 19.0325 1.64724 19.45 2.65824C19.142 3.03174 18.7465 3.25124 18.2415 3.31724C18.2415 3.66874 18.3295 3.82274 18.549 3.95424C18.571 3.95424 18.571 3.97624 18.593 3.97624C18.351 4.30624 18.0435 4.59174 17.714 4.78924C17.3625 4.59174 17.055 4.30624 16.813 3.97624C16.835 3.97624 16.857 3.95424 16.857 3.95424C17.077 3.82274 17.1645 3.66874 17.1645 3.31724C16.6595 3.25124 16.286 3.03174 15.956 2.65824ZM17.099 20.6537L16.4615 18.3467C16.3955 18.0827 16.3515 17.8412 16.3515 17.5772V17.0282L16.154 16.2592C16.066 15.9732 16.264 15.7097 16.5495 15.6657L17.3625 15.5777L17.099 20.6537ZM19.4279 15.3582L19.0545 17.0282V17.6652C19.0545 17.8632 19.0325 18.0607 18.9885 18.2807L18.1755 21.9722L18.395 23.0707C18.417 23.1807 18.417 23.2902 18.351 23.3782L18.1975 23.7077H17.5385L17.3625 23.3342C17.3185 23.2682 17.2965 23.2022 17.2965 23.1147V22.0162C17.2965 21.9282 17.3185 21.8622 17.3625 21.7962L17.56 21.4447L17.9555 15.5122L19.4279 15.3582ZM21.2515 12.2382C20.988 12.8532 20.812 12.9192 20.4825 12.9192H20.329C20.9 11.9962 20.3945 11.9307 20.3945 12.3917H20.263C20.263 11.9307 20.3945 11.7107 20.6805 11.5787L21.142 11.4032L21.2735 11.9742C21.2955 12.0622 21.2955 12.1502 21.2515 12.2382Z" fill="currentColor"/>
</svg>
