<svg width="24" height="24" viewBox="0 0 24 24" fill="none" xmlns="http://www.w3.org/2000/svg">
<path fill-rule="evenodd" clip-rule="evenodd" d="M7.5747 4.46154C8.17792 4.88939 8.67407 5.45089 9.02444 6.10216C8.08492 6.60115 7.2544 7.28259 6.5815 8.10656C5.9086 8.93051 5.40684 9.88045 5.10561 10.9007C4.05026 11.1551 3.09163 11.7108 2.34644 12.5002C1.71075 12.1223 1.17101 11.6026 0.769365 10.9816C0.36772 10.3606 0.115038 9.65524 0.0310478 8.9205C-0.0529423 8.18574 0.0340327 7.44153 0.285182 6.74593C0.536331 6.05034 0.944857 5.42221 1.47886 4.9106C2.01287 4.39896 2.6579 4.0177 3.36361 3.79655C4.06931 3.5754 4.81657 3.52034 5.54706 3.63571C6.27755 3.75105 6.97149 4.03368 7.5747 4.46154ZM18.7015 10.7408H19.1814C20.4541 10.7354 21.6767 11.2359 22.5804 12.1321C23.484 13.0282 23.9947 14.2467 24 15.5193C24.0053 16.792 23.5048 18.0146 22.6086 18.9183C21.7125 19.8219 20.494 20.3326 19.2214 20.3379H6.38523C5.32468 20.3379 4.30757 19.9166 3.55765 19.1667C2.80773 18.4167 2.38643 17.3996 2.38643 16.3391C2.38643 15.2785 2.80773 14.2614 3.55765 13.5115C4.30757 12.7616 5.32468 12.3403 6.38523 12.3403H6.42522C6.60325 10.9364 7.24169 9.63118 8.24061 8.62884C9.23953 7.62648 10.5426 6.98361 11.9458 6.80078C13.3491 6.61792 14.7733 6.90548 15.9958 7.61838C17.2182 8.3313 18.1697 9.42936 18.7015 10.7408Z" fill="currentColor"/>
</svg>
