<svg width="24" height="24" viewBox="0 0 24 24" fill="none" xmlns="http://www.w3.org/2000/svg">
<path fill-rule="evenodd" clip-rule="evenodd" d="M24 12.7441V11.3337C24 8.18295 22.7872 6.9964 19.6628 6.9964H4.33726C1.21284 6.9964 0 8.18295 0 11.3337V12.7441C0 15.8686 1.21284 17.0814 4.33726 17.0814H19.6628C22.7872 17.0814 24 15.8686 24 12.7441ZM5.89576 9.78494L4.46178 12.4248L3.46778 9.4346H2.33526L4.0707 14.5839H4.40475L5.89576 11.7159L7.37048 14.5839H7.71267L9.43996 9.4346H8.38078L7.37048 12.4248L5.89576 9.78494ZM9.93531 14.5839H11.0352V9.4346H9.93531V14.5839ZM14.5559 12.05V13.0847H12.0383V12.05H14.5559ZM15.505 14.5839H16.6049V12.6122H18.764V11.6589H16.6049V10.396H19.3832V9.4346H15.505V14.5839ZM21.164 14.5839H20.0641V9.4346H21.164V14.5839Z" fill="currentColor"/>
</svg>
