<svg xmlns="http://www.w3.org/2000/svg" width="24" height="24" viewBox="0 0 24 24" fill="none">
  <path d="M12.3341 0.774902C14.6125 0.774902 16.8398 1.45054 18.7343 2.71637C20.6287 3.98221 22.1053 5.78138 22.9772 7.88639C23.8491 9.99139 24.0772 12.3077 23.6327 14.5423C23.1882 16.777 22.0911 18.8297 20.48 20.4408C18.8689 22.0519 16.8162 23.149 14.5815 23.5935C12.3469 24.0381 10.0306 23.8099 7.92557 22.938C5.82057 22.0661 4.02139 20.5895 2.75556 18.6951C1.48972 16.8006 0.814087 14.5733 0.814087 12.2949C0.814087 9.23961 2.0278 6.30945 4.18822 4.14903C6.34864 1.98861 9.27879 0.774902 12.3341 0.774902Z" fill="#FFCC00"/>
  <path d="M14.3981 17.5438L13.1251 18.667L10.2547 21.3876H14.9607L20.4768 15.8734L14.9779 10.3745H10.272L10.3258 10.4244L11.5315 11.49L14.4039 14.2145H0.977295C1.17217 15.3742 1.54369 16.4974 2.08129 17.5438H14.3981Z" fill="#FF2700"/>
  <path d="M9.696 14.2149H14.4038L11.5238 11.4943L10.3181 10.4287L10.2509 10.3711H23.6909C23.4949 9.21063 23.1219 8.08715 22.585 7.03987H10.272L11.5411 5.89747L14.3866 3.20947H9.68064L4.18176 8.70739L9.696 14.2149Z" fill="white"/>
</svg>
